M48
; DRILL file {KiCad 9.0.6} date 2026-01-31T11:07:32-0800
; FORMAT={-:-/ absolute / metric / decimal}
; #@! TF.CreationDate,2026-01-31T11:07:32-08:00
; #@! TF.GenerationSoftware,Kicad,Pcbnew,9.0.6
; #@! TF.FileFunction,Plated,1,2,PTH
FMAT,2
METRIC
; #@! TA.AperFunction,Plated,PTH,ComponentDrill
T1C0.500
; #@! TA.AperFunction,Plated,PTH,ComponentDrill
T2C0.800
; #@! TA.AperFunction,Plated,PTH,ComponentDrill
T3C0.900
; #@! TA.AperFunction,Plated,PTH,ComponentDrill
T4C1.600
%
G90
G05
T1
X133.0Y-92.5
X134.0Y-92.5
X135.0Y-92.5
X136.0Y-92.5
X137.0Y-92.5
X150.5Y-102.5
X150.5Y-103.5
T2
X142.5Y-78.72
X142.5Y-81.26
X142.5Y-83.8
X142.5Y-86.34
X142.5Y-88.88
X142.5Y-91.42
X142.5Y-93.96
X142.5Y-96.5
X150.12Y-78.72
X150.12Y-81.26
X150.12Y-83.8
X150.12Y-86.34
X150.12Y-88.88
X150.12Y-91.42
X150.12Y-93.96
X150.12Y-96.5
T3
X67.14Y-74.34
X67.14Y-76.88
X67.14Y-79.42
X67.14Y-81.96
X67.14Y-84.5
X67.14Y-87.04
X67.14Y-89.58
X67.14Y-92.12
X67.14Y-94.66
X67.14Y-97.2
X67.14Y-99.74
X67.14Y-102.28
X67.14Y-104.82
X67.14Y-107.36
X67.14Y-109.9
X90.0Y-74.34
X90.0Y-76.88
X90.0Y-79.42
X90.0Y-81.96
X90.0Y-84.5
X90.0Y-87.04
X90.0Y-89.58
X90.0Y-92.12
X90.0Y-94.66
X90.0Y-97.2
X90.0Y-99.74
X90.0Y-102.28
X90.0Y-104.82
X90.0Y-107.36
X90.0Y-109.9
X155.64Y-68.545
X155.64Y-71.085
X155.64Y-73.625
X155.64Y-76.165
X155.64Y-78.705
X155.64Y-81.245
X155.64Y-83.785
X155.64Y-86.325
X155.64Y-88.865
X155.64Y-91.405
X155.64Y-93.945
X155.64Y-96.485
X155.64Y-99.025
X155.64Y-101.565
X155.64Y-104.105
X178.5Y-68.545
X178.5Y-71.085
X178.5Y-73.625
X178.5Y-76.165
X178.5Y-78.705
X178.5Y-81.245
X178.5Y-83.785
X178.5Y-86.325
X178.5Y-88.865
X178.5Y-91.405
X178.5Y-93.945
X178.5Y-96.485
X178.5Y-99.025
X178.5Y-101.565
X178.5Y-104.105
T4
X58.487Y-56.33
X107.387Y-56.33
M30
