%TF.GenerationSoftware,KiCad,Pcbnew,9.0.6*%
%TF.CreationDate,2026-03-02T14:14:38-08:00*%
%TF.ProjectId,C3_GestureDriver,43335f47-6573-4747-9572-654472697665,rev?*%
%TF.SameCoordinates,Original*%
%TF.FileFunction,Copper,L1,Top*%
%TF.FilePolarity,Positive*%
%FSLAX46Y46*%
G04 Gerber Fmt 4.6, Leading zero omitted, Abs format (unit mm)*
G04 Created by KiCad (PCBNEW 9.0.6) date 2026-03-02 14:14:38*
%MOMM*%
%LPD*%
G01*
G04 APERTURE LIST*
G04 Aperture macros list*
%AMRoundRect*
0 Rectangle with rounded corners*
0 $1 Rounding radius*
0 $2 $3 $4 $5 $6 $7 $8 $9 X,Y pos of 4 corners*
0 Add a 4 corners polygon primitive as box body*
4,1,4,$2,$3,$4,$5,$6,$7,$8,$9,$2,$3,0*
0 Add four circle primitives for the rounded corners*
1,1,$1+$1,$2,$3*
1,1,$1+$1,$4,$5*
1,1,$1+$1,$6,$7*
1,1,$1+$1,$8,$9*
0 Add four rect primitives between the rounded corners*
20,1,$1+$1,$2,$3,$4,$5,0*
20,1,$1+$1,$4,$5,$6,$7,0*
20,1,$1+$1,$6,$7,$8,$9,0*
20,1,$1+$1,$8,$9,$2,$3,0*%
G04 Aperture macros list end*
%TA.AperFunction,ComponentPad*%
%ADD10O,1.778000X3.556000*%
%TD*%
%TA.AperFunction,ComponentPad*%
%ADD11C,1.905000*%
%TD*%
%TA.AperFunction,ComponentPad*%
%ADD12RoundRect,0.250000X-0.350000X-0.625000X0.350000X-0.625000X0.350000X0.625000X-0.350000X0.625000X0*%
%TD*%
%TA.AperFunction,ComponentPad*%
%ADD13O,1.200000X1.750000*%
%TD*%
%TA.AperFunction,ComponentPad*%
%ADD14C,1.524000*%
%TD*%
%TA.AperFunction,ComponentPad*%
%ADD15R,1.700000X1.700000*%
%TD*%
%TA.AperFunction,ComponentPad*%
%ADD16C,1.700000*%
%TD*%
%TA.AperFunction,ComponentPad*%
%ADD17R,1.498600X1.498600*%
%TD*%
%TA.AperFunction,ComponentPad*%
%ADD18C,1.498600*%
%TD*%
G04 APERTURE END LIST*
D10*
%TO.P,U1,1,GPIO2_A0_D0*%
%TO.N,unconnected-(U1-GPIO2_A0_D0-Pad1)*%
X52800000Y-144382000D03*
%TO.P,U1,2,GPIO3_A1_D1*%
%TO.N,unconnected-(U1-GPIO3_A1_D1-Pad2)*%
X55340000Y-144382000D03*
%TO.P,U1,3,GPIO4_A2_D2*%
%TO.N,unconnected-(U1-GPIO4_A2_D2-Pad3)*%
X57880000Y-144382000D03*
%TO.P,U1,4,GPIO5_A3_D3*%
%TO.N,unconnected-(U1-GPIO5_A3_D3-Pad4)*%
X60420000Y-144382000D03*
%TO.P,U1,5,GPIO6_D4_SDA*%
%TO.N,/LSM6DS3_SDA*%
X62960000Y-144382000D03*
%TO.P,U1,6,GPIO7_D5_SCL*%
%TO.N,/LSM6DS3_SCL*%
X65500000Y-144382000D03*
%TO.P,U1,7,GPIO21_D6_TX*%
%TO.N,/TX*%
X68040000Y-144382000D03*
%TO.P,U1,8,GPIO20_D7_RX*%
%TO.N,/RX*%
X68040000Y-127618000D03*
%TO.P,U1,9,GPIO8_D8_SCK*%
%TO.N,unconnected-(U1-GPIO8_D8_SCK-Pad9)*%
X65500000Y-127618000D03*
%TO.P,U1,10,GPIO9_D9_MISO*%
%TO.N,unconnected-(U1-GPIO9_D9_MISO-Pad10)*%
X62960000Y-127618000D03*
%TO.P,U1,11,GPIO10_D10_MOSI*%
%TO.N,/D10_LED*%
X60420000Y-127618000D03*
%TO.P,U1,12,3V3*%
%TO.N,unconnected-(U1-3V3-Pad12)*%
X57880000Y-127618000D03*
%TO.P,U1,13,GND*%
%TO.N,GND*%
X55340000Y-127618000D03*
%TO.P,U1,14,VBUS*%
%TO.N,unconnected-(U1-VBUS-Pad14)*%
X52800000Y-127618000D03*
D11*
%TO.P,U1,15,BAT*%
%TO.N,+3.3V*%
X78200000Y-138540000D03*
%TO.P,U1,16,GND*%
%TO.N,GND*%
X78200000Y-133460000D03*
%TD*%
D12*
%TO.P,J1,1,Pin_1*%
%TO.N,GND*%
X65000000Y-120000000D03*
D13*
%TO.P,J1,2,Pin_2*%
%TO.N,Net-(J1-Pin_2)*%
X67000000Y-120000000D03*
%TD*%
D14*
%TO.P,SW2,1,A*%
%TO.N,unconnected-(SW2-A-Pad1)*%
X72000000Y-121000000D03*
%TO.P,SW2,2,B*%
%TO.N,Net-(J1-Pin_2)*%
X74500000Y-121000000D03*
%TO.P,SW2,3,C*%
%TO.N,Net-(SW2-C)*%
X77000000Y-121000000D03*
%TD*%
D15*
%TO.P,J2,1,Pin_1*%
%TO.N,/RX*%
X57000000Y-121000000D03*
D16*
%TO.P,J2,2,Pin_2*%
%TO.N,/TX*%
X59540000Y-121000000D03*
%TD*%
D17*
%TO.P,U3,1,GND*%
%TO.N,GND*%
X81738344Y-124083948D03*
D18*
%TO.P,U3,2,VIN*%
%TO.N,Net-(SW2-C)*%
X83008344Y-121543948D03*
%TO.P,U3,3,VOUT*%
%TO.N,+3.3V*%
X84278344Y-124083948D03*
%TD*%
%TA.AperFunction,Conductor*%
%TO.N,GND*%
G36*
X86506922Y-117001280D02*
G01*
X86597266Y-117011459D01*
X86624331Y-117017636D01*
X86703540Y-117045352D01*
X86728553Y-117057398D01*
X86799606Y-117102043D01*
X86821313Y-117119355D01*
X86880644Y-117178686D01*
X86897957Y-117200395D01*
X86942600Y-117271444D01*
X86954648Y-117296462D01*
X86982362Y-117375666D01*
X86988540Y-117402735D01*
X86998720Y-117493076D01*
X86999500Y-117506961D01*
X86999500Y-148993038D01*
X86998720Y-149006922D01*
X86998720Y-149006923D01*
X86988540Y-149097264D01*
X86982362Y-149124333D01*
X86954648Y-149203537D01*
X86942600Y-149228555D01*
X86897957Y-149299604D01*
X86880644Y-149321313D01*
X86821313Y-149380644D01*
X86799604Y-149397957D01*
X86728555Y-149442600D01*
X86703537Y-149454648D01*
X86624333Y-149482362D01*
X86597264Y-149488540D01*
X86517075Y-149497576D01*
X86506921Y-149498720D01*
X86493038Y-149499500D01*
X50006962Y-149499500D01*
X49993078Y-149498720D01*
X49980553Y-149497308D01*
X49902735Y-149488540D01*
X49875666Y-149482362D01*
X49796462Y-149454648D01*
X49771444Y-149442600D01*
X49700395Y-149397957D01*
X49678686Y-149380644D01*
X49619355Y-149321313D01*
X49602042Y-149299604D01*
X49557399Y-149228555D01*
X49545351Y-149203537D01*
X49517637Y-149124333D01*
X49511459Y-149097263D01*
X49501280Y-149006922D01*
X49500500Y-148993038D01*
X49500500Y-143390613D01*
X51760500Y-143390613D01*
X51760500Y-145373386D01*
X51800445Y-145574203D01*
X51800447Y-145574211D01*
X51878806Y-145763386D01*
X51992568Y-145933645D01*
X52137354Y-146078431D01*
X52137357Y-146078433D01*
X52307612Y-146192193D01*
X52496789Y-146270553D01*
X52697613Y-146310499D01*
X52697617Y-146310500D01*
X52697618Y-146310500D01*
X52902383Y-146310500D01*
X52902384Y-146310499D01*
X53103211Y-146270553D01*
X53292388Y-146192193D01*
X53462643Y-146078433D01*
X53607433Y-145933643D01*
X53721193Y-145763388D01*
X53799553Y-145574211D01*
X53839500Y-145373382D01*
X53839500Y-143390618D01*
X53839499Y-143390613D01*
X54300500Y-143390613D01*
X54300500Y-145373386D01*
X54340445Y-145574203D01*
X54340447Y-145574211D01*
X54418806Y-145763386D01*
X54532568Y-145933645D01*
X54677354Y-146078431D01*
X54677357Y-146078433D01*
X54847612Y-146192193D01*
X55036789Y-146270553D01*
X55237613Y-146310499D01*
X55237617Y-146310500D01*
X55237618Y-146310500D01*
X55442383Y-146310500D01*
X55442384Y-146310499D01*
X55643211Y-146270553D01*
X55832388Y-146192193D01*
X56002643Y-146078433D01*
X56147433Y-145933643D01*
X56261193Y-145763388D01*
X56339553Y-145574211D01*
X56379500Y-145373382D01*
X56379500Y-143390618D01*
X56379499Y-143390613D01*
X56840500Y-143390613D01*
X56840500Y-145373386D01*
X56880445Y-145574203D01*
X56880447Y-145574211D01*
X56958806Y-145763386D01*
X57072568Y-145933645D01*
X57217354Y-146078431D01*
X57217357Y-146078433D01*
X57387612Y-146192193D01*
X57576789Y-146270553D01*
X57777613Y-146310499D01*
X57777617Y-146310500D01*
X57777618Y-146310500D01*
X57982383Y-146310500D01*
X57982384Y-146310499D01*
X58183211Y-146270553D01*
X58372388Y-146192193D01*
X58542643Y-146078433D01*
X58687433Y-145933643D01*
X58801193Y-145763388D01*
X58879553Y-145574211D01*
X58919500Y-145373382D01*
X58919500Y-143390618D01*
X58919499Y-143390613D01*
X59380500Y-143390613D01*
X59380500Y-145373386D01*
X59420445Y-145574203D01*
X59420447Y-145574211D01*
X59498806Y-145763386D01*
X59612568Y-145933645D01*
X59757354Y-146078431D01*
X59757357Y-146078433D01*
X59927612Y-146192193D01*
X60116789Y-146270553D01*
X60317613Y-146310499D01*
X60317617Y-146310500D01*
X60317618Y-146310500D01*
X60522383Y-146310500D01*
X60522384Y-146310499D01*
X60723211Y-146270553D01*
X60912388Y-146192193D01*
X61082643Y-146078433D01*
X61227433Y-145933643D01*
X61341193Y-145763388D01*
X61419553Y-145574211D01*
X61459500Y-145373382D01*
X61459500Y-143390618D01*
X61459499Y-143390613D01*
X61920500Y-143390613D01*
X61920500Y-145373386D01*
X61960445Y-145574203D01*
X61960447Y-145574211D01*
X62038806Y-145763386D01*
X62152568Y-145933645D01*
X62297354Y-146078431D01*
X62297357Y-146078433D01*
X62467612Y-146192193D01*
X62656789Y-146270553D01*
X62857613Y-146310499D01*
X62857617Y-146310500D01*
X62857618Y-146310500D01*
X63062383Y-146310500D01*
X63062384Y-146310499D01*
X63263211Y-146270553D01*
X63452388Y-146192193D01*
X63622643Y-146078433D01*
X63767433Y-145933643D01*
X63881193Y-145763388D01*
X63959553Y-145574211D01*
X63999500Y-145373382D01*
X63999500Y-143390618D01*
X63999499Y-143390613D01*
X64460500Y-143390613D01*
X64460500Y-145373386D01*
X64500445Y-145574203D01*
X64500447Y-145574211D01*
X64578806Y-145763386D01*
X64692568Y-145933645D01*
X64837354Y-146078431D01*
X64837357Y-146078433D01*
X65007612Y-146192193D01*
X65196789Y-146270553D01*
X65397613Y-146310499D01*
X65397617Y-146310500D01*
X65397618Y-146310500D01*
X65602383Y-146310500D01*
X65602384Y-146310499D01*
X65803211Y-146270553D01*
X65992388Y-146192193D01*
X66162643Y-146078433D01*
X66307433Y-145933643D01*
X66421193Y-145763388D01*
X66499553Y-145574211D01*
X66539500Y-145373382D01*
X66539500Y-143390618D01*
X66539499Y-143390613D01*
X67000500Y-143390613D01*
X67000500Y-145373386D01*
X67040445Y-145574203D01*
X67040447Y-145574211D01*
X67118806Y-145763386D01*
X67232568Y-145933645D01*
X67377354Y-146078431D01*
X67377357Y-146078433D01*
X67547612Y-146192193D01*
X67736789Y-146270553D01*
X67937613Y-146310499D01*
X67937617Y-146310500D01*
X67937618Y-146310500D01*
X68142383Y-146310500D01*
X68142384Y-146310499D01*
X68343211Y-146270553D01*
X68532388Y-146192193D01*
X68702643Y-146078433D01*
X68847433Y-145933643D01*
X68961193Y-145763388D01*
X69039553Y-145574211D01*
X69079500Y-145373382D01*
X69079500Y-143390618D01*
X69039553Y-143189789D01*
X68961193Y-143000612D01*
X68847433Y-142830357D01*
X68847431Y-142830354D01*
X68702645Y-142685568D01*
X68617515Y-142628687D01*
X68532388Y-142571807D01*
X68343211Y-142493447D01*
X68343203Y-142493445D01*
X68142386Y-142453500D01*
X68142382Y-142453500D01*
X67937618Y-142453500D01*
X67937613Y-142453500D01*
X67736796Y-142493445D01*
X67736788Y-142493447D01*
X67547613Y-142571806D01*
X67377354Y-142685568D01*
X67232568Y-142830354D01*
X67118806Y-143000613D01*
X67040447Y-143189788D01*
X67040445Y-143189796D01*
X67000500Y-143390613D01*
X66539499Y-143390613D01*
X66499553Y-143189789D01*
X66421193Y-143000612D01*
X66307433Y-142830357D01*
X66307431Y-142830354D01*
X66162645Y-142685568D01*
X66077515Y-142628687D01*
X65992388Y-142571807D01*
X65803211Y-142493447D01*
X65803203Y-142493445D01*
X65602386Y-142453500D01*
X65602382Y-142453500D01*
X65397618Y-142453500D01*
X65397613Y-142453500D01*
X65196796Y-142493445D01*
X65196788Y-142493447D01*
X65007613Y-142571806D01*
X64837354Y-142685568D01*
X64692568Y-142830354D01*
X64578806Y-143000613D01*
X64500447Y-143189788D01*
X64500445Y-143189796D01*
X64460500Y-143390613D01*
X63999499Y-143390613D01*
X63959553Y-143189789D01*
X63881193Y-143000612D01*
X63767433Y-142830357D01*
X63767431Y-142830354D01*
X63622645Y-142685568D01*
X63537515Y-142628687D01*
X63452388Y-142571807D01*
X63263211Y-142493447D01*
X63263203Y-142493445D01*
X63062386Y-142453500D01*
X63062382Y-142453500D01*
X62857618Y-142453500D01*
X62857613Y-142453500D01*
X62656796Y-142493445D01*
X62656788Y-142493447D01*
X62467613Y-142571806D01*
X62297354Y-142685568D01*
X62152568Y-142830354D01*
X62038806Y-143000613D01*
X61960447Y-143189788D01*
X61960445Y-143189796D01*
X61920500Y-143390613D01*
X61459499Y-143390613D01*
X61419553Y-143189789D01*
X61341193Y-143000612D01*
X61227433Y-142830357D01*
X61227431Y-142830354D01*
X61082645Y-142685568D01*
X60997515Y-142628687D01*
X60912388Y-142571807D01*
X60723211Y-142493447D01*
X60723203Y-142493445D01*
X60522386Y-142453500D01*
X60522382Y-142453500D01*
X60317618Y-142453500D01*
X60317613Y-142453500D01*
X60116796Y-142493445D01*
X60116788Y-142493447D01*
X59927613Y-142571806D01*
X59757354Y-142685568D01*
X59612568Y-142830354D01*
X59498806Y-143000613D01*
X59420447Y-143189788D01*
X59420445Y-143189796D01*
X59380500Y-143390613D01*
X58919499Y-143390613D01*
X58879553Y-143189789D01*
X58801193Y-143000612D01*
X58687433Y-142830357D01*
X58687431Y-142830354D01*
X58542645Y-142685568D01*
X58457515Y-142628687D01*
X58372388Y-142571807D01*
X58183211Y-142493447D01*
X58183203Y-142493445D01*
X57982386Y-142453500D01*
X57982382Y-142453500D01*
X57777618Y-142453500D01*
X57777613Y-142453500D01*
X57576796Y-142493445D01*
X57576788Y-142493447D01*
X57387613Y-142571806D01*
X57217354Y-142685568D01*
X57072568Y-142830354D01*
X56958806Y-143000613D01*
X56880447Y-143189788D01*
X56880445Y-143189796D01*
X56840500Y-143390613D01*
X56379499Y-143390613D01*
X56339553Y-143189789D01*
X56261193Y-143000612D01*
X56147433Y-142830357D01*
X56147431Y-142830354D01*
X56002645Y-142685568D01*
X55917515Y-142628687D01*
X55832388Y-142571807D01*
X55643211Y-142493447D01*
X55643203Y-142493445D01*
X55442386Y-142453500D01*
X55442382Y-142453500D01*
X55237618Y-142453500D01*
X55237613Y-142453500D01*
X55036796Y-142493445D01*
X55036788Y-142493447D01*
X54847613Y-142571806D01*
X54677354Y-142685568D01*
X54532568Y-142830354D01*
X54418806Y-143000613D01*
X54340447Y-143189788D01*
X54340445Y-143189796D01*
X54300500Y-143390613D01*
X53839499Y-143390613D01*
X53799553Y-143189789D01*
X53721193Y-143000612D01*
X53607433Y-142830357D01*
X53607431Y-142830354D01*
X53462645Y-142685568D01*
X53377515Y-142628687D01*
X53292388Y-142571807D01*
X53103211Y-142493447D01*
X53103203Y-142493445D01*
X52902386Y-142453500D01*
X52902382Y-142453500D01*
X52697618Y-142453500D01*
X52697613Y-142453500D01*
X52496796Y-142493445D01*
X52496788Y-142493447D01*
X52307613Y-142571806D01*
X52137354Y-142685568D01*
X51992568Y-142830354D01*
X51878806Y-143000613D01*
X51800447Y-143189788D01*
X51800445Y-143189796D01*
X51760500Y-143390613D01*
X49500500Y-143390613D01*
X49500500Y-138453186D01*
X77097000Y-138453186D01*
X77097000Y-138626813D01*
X77124158Y-138798281D01*
X77124159Y-138798287D01*
X77164939Y-138923794D01*
X77177811Y-138963409D01*
X77256632Y-139118101D01*
X77358672Y-139258550D01*
X77481449Y-139381327D01*
X77612876Y-139476812D01*
X77621902Y-139483370D01*
X77720470Y-139533593D01*
X77776590Y-139562188D01*
X77776592Y-139562188D01*
X77776595Y-139562190D01*
X77941713Y-139615841D01*
X78027452Y-139629420D01*
X78113187Y-139643000D01*
X78113192Y-139643000D01*
X78286813Y-139643000D01*
X78364753Y-139630655D01*
X78458287Y-139615841D01*
X78623405Y-139562190D01*
X78778098Y-139483370D01*
X78856957Y-139426075D01*
X78918550Y-139381327D01*
X78918552Y-139381324D01*
X78918556Y-139381322D01*
X79041322Y-139258556D01*
X79041324Y-139258552D01*
X79041327Y-139258550D01*
X79086075Y-139196957D01*
X79143370Y-139118098D01*
X79222190Y-138963405D01*
X79275841Y-138798287D01*
X79290655Y-138704753D01*
X79303000Y-138626813D01*
X79303000Y-138453186D01*
X79288186Y-138359658D01*
X79275841Y-138281713D01*
X79222190Y-138116595D01*
X79222188Y-138116592D01*
X79222188Y-138116590D01*
X79193593Y-138060470D01*
X79143370Y-137961902D01*
X79136812Y-137952876D01*
X79041327Y-137821449D01*
X78918550Y-137698672D01*
X78778101Y-137596632D01*
X78778100Y-137596631D01*
X78778098Y-137596630D01*
X78729790Y-137572016D01*
X78623409Y-137517811D01*
X78583794Y-137504939D01*
X78458287Y-137464159D01*
X78458281Y-137464158D01*
X78286813Y-137437000D01*
X78286808Y-137437000D01*
X78113192Y-137437000D01*
X78113187Y-137437000D01*
X77941718Y-137464158D01*
X77941716Y-137464158D01*
X77941713Y-137464159D01*
X77859154Y-137490984D01*
X77776590Y-137517811D01*
X77621898Y-137596632D01*
X77481449Y-137698672D01*
X77358672Y-137821449D01*
X77256632Y-137961898D01*
X77177811Y-138116590D01*
X77150984Y-138199154D01*
X77124159Y-138281713D01*
X77124158Y-138281716D01*
X77124158Y-138281718D01*
X77097000Y-138453186D01*
X49500500Y-138453186D01*
X49500500Y-133345686D01*
X76747500Y-133345686D01*
X76747500Y-133574313D01*
X76783265Y-133800124D01*
X76783265Y-133800125D01*
X76853917Y-134017568D01*
X76957711Y-134221276D01*
X77011347Y-134295098D01*
X77011347Y-134295099D01*
X77710504Y-133595941D01*
X77726619Y-133656081D01*
X77793498Y-133771920D01*
X77888080Y-133866502D01*
X78003919Y-133933381D01*
X78064057Y-133949494D01*
X77364899Y-134648651D01*
X77438725Y-134702288D01*
X77438731Y-134702292D01*
X77642431Y-134806082D01*
X77859875Y-134876734D01*
X78085687Y-134912500D01*
X78314313Y-134912500D01*
X78540124Y-134876734D01*
X78540125Y-134876734D01*
X78757568Y-134806082D01*
X78961276Y-134702288D01*
X79035098Y-134648651D01*
X78335942Y-133949495D01*
X78396081Y-133933381D01*
X78511920Y-133866502D01*
X78606502Y-133771920D01*
X78673381Y-133656081D01*
X78689494Y-133595942D01*
X79388651Y-134295099D01*
X79388651Y-134295098D01*
X79442288Y-134221276D01*
X79546082Y-134017568D01*
X79616734Y-133800125D01*
X79616734Y-133800124D01*
X79652500Y-133574313D01*
X79652500Y-133345686D01*
X79616734Y-133119875D01*
X79616734Y-133119874D01*
X79546082Y-132902431D01*
X79442292Y-132698731D01*
X79442288Y-132698725D01*
X79388651Y-132624900D01*
X79388651Y-132624899D01*
X78689494Y-133324056D01*
X78673381Y-133263919D01*
X78606502Y-133148080D01*
X78511920Y-133053498D01*
X78396081Y-132986619D01*
X78335940Y-132970504D01*
X79035099Y-132271347D01*
X78961276Y-132217711D01*
X78757568Y-132113917D01*
X78540124Y-132043265D01*
X78314313Y-132007500D01*
X78085687Y-132007500D01*
X77859875Y-132043265D01*
X77859874Y-132043265D01*
X77642431Y-132113917D01*
X77438719Y-132217713D01*
X77364900Y-132271346D01*
X77364899Y-132271347D01*
X78064057Y-132970504D01*
X78003919Y-132986619D01*
X77888080Y-133053498D01*
X77793498Y-133148080D01*
X77726619Y-133263919D01*
X77710504Y-133324057D01*
X77011347Y-132624899D01*
X77011346Y-132624900D01*
X76957713Y-132698719D01*
X76853917Y-132902431D01*
X76783265Y-133119874D01*
X76783265Y-133119875D01*
X76747500Y-133345686D01*
X49500500Y-133345686D01*
X49500500Y-126626613D01*
X51760500Y-126626613D01*
X51760500Y-128609386D01*
X51800445Y-128810203D01*
X51800447Y-128810211D01*
X51878806Y-128999386D01*
X51992568Y-129169645D01*
X52137354Y-129314431D01*
X52137357Y-129314433D01*
X52307612Y-129428193D01*
X52496789Y-129506553D01*
X52697613Y-129546499D01*
X52697617Y-129546500D01*
X52697618Y-129546500D01*
X52902383Y-129546500D01*
X52902384Y-129546499D01*
X53103211Y-129506553D01*
X53292388Y-129428193D01*
X53462643Y-129314433D01*
X53607433Y-129169643D01*
X53721193Y-128999388D01*
X53770950Y-128879263D01*
X53814791Y-128824860D01*
X53881085Y-128802795D01*
X53948784Y-128820074D01*
X53996395Y-128871211D01*
X54003442Y-128888398D01*
X54052761Y-129040188D01*
X54052762Y-129040191D01*
X54152023Y-129234998D01*
X54280524Y-129411866D01*
X54280528Y-129411871D01*
X54435128Y-129566471D01*
X54435133Y-129566475D01*
X54612001Y-129694976D01*
X54806808Y-129794237D01*
X54806811Y-129794238D01*
X55014739Y-129861797D01*
X55089999Y-129873717D01*
X55090000Y-129873717D01*
X55090000Y-128822251D01*
X55143919Y-128853381D01*
X55273120Y-128888000D01*
X55406880Y-128888000D01*
X55536081Y-128853381D01*
X55590000Y-128822251D01*
X55590000Y-129873717D01*
X55665258Y-129861797D01*
X55665261Y-129861797D01*
X55873188Y-129794238D01*
X55873191Y-129794237D01*
X56067998Y-129694976D01*
X56244866Y-129566475D01*
X56244871Y-129566471D01*
X56399471Y-129411871D01*
X56399475Y-129411866D01*
X56527976Y-129234998D01*
X56627237Y-129040191D01*
X56627238Y-129040188D01*
X56676557Y-128888398D01*
X56715994Y-128830723D01*
X56780352Y-128803524D01*
X56849199Y-128815438D01*
X56900675Y-128862682D01*
X56909049Y-128879263D01*
X56958805Y-128999386D01*
X57072568Y-129169645D01*
X57217354Y-129314431D01*
X57217357Y-129314433D01*
X57387612Y-129428193D01*
X57576789Y-129506553D01*
X57777613Y-129546499D01*
X57777617Y-129546500D01*
X57777618Y-129546500D01*
X57982383Y-129546500D01*
X57982384Y-129546499D01*
X58183211Y-129506553D01*
X58372388Y-129428193D01*
X58542643Y-129314433D01*
X58687433Y-129169643D01*
X58801193Y-128999388D01*
X58879553Y-128810211D01*
X58919500Y-128609382D01*
X58919500Y-126626618D01*
X58919499Y-126626613D01*
X59380500Y-126626613D01*
X59380500Y-128609386D01*
X59420445Y-128810203D01*
X59420447Y-128810211D01*
X59498806Y-128999386D01*
X59612568Y-129169645D01*
X59757354Y-129314431D01*
X59757357Y-129314433D01*
X59927612Y-129428193D01*
X60116789Y-129506553D01*
X60317613Y-129546499D01*
X60317617Y-129546500D01*
X60317618Y-129546500D01*
X60522383Y-129546500D01*
X60522384Y-129546499D01*
X60723211Y-129506553D01*
X60912388Y-129428193D01*
X61082643Y-129314433D01*
X61227433Y-129169643D01*
X61341193Y-128999388D01*
X61419553Y-128810211D01*
X61459500Y-128609382D01*
X61459500Y-126626618D01*
X61459499Y-126626613D01*
X61920500Y-126626613D01*
X61920500Y-128609386D01*
X61960445Y-128810203D01*
X61960447Y-128810211D01*
X62038806Y-128999386D01*
X62152568Y-129169645D01*
X62297354Y-129314431D01*
X62297357Y-129314433D01*
X62467612Y-129428193D01*
X62656789Y-129506553D01*
X62857613Y-129546499D01*
X62857617Y-129546500D01*
X62857618Y-129546500D01*
X63062383Y-129546500D01*
X63062384Y-129546499D01*
X63263211Y-129506553D01*
X63452388Y-129428193D01*
X63622643Y-129314433D01*
X63767433Y-129169643D01*
X63881193Y-128999388D01*
X63959553Y-128810211D01*
X63999500Y-128609382D01*
X63999500Y-126626618D01*
X63999499Y-126626613D01*
X64460500Y-126626613D01*
X64460500Y-128609386D01*
X64500445Y-128810203D01*
X64500447Y-128810211D01*
X64578806Y-128999386D01*
X64692568Y-129169645D01*
X64837354Y-129314431D01*
X64837357Y-129314433D01*
X65007612Y-129428193D01*
X65196789Y-129506553D01*
X65397613Y-129546499D01*
X65397617Y-129546500D01*
X65397618Y-129546500D01*
X65602383Y-129546500D01*
X65602384Y-129546499D01*
X65803211Y-129506553D01*
X65992388Y-129428193D01*
X66162643Y-129314433D01*
X66307433Y-129169643D01*
X66421193Y-128999388D01*
X66499553Y-128810211D01*
X66539500Y-128609382D01*
X66539500Y-126626618D01*
X66539499Y-126626613D01*
X67000500Y-126626613D01*
X67000500Y-128609386D01*
X67040445Y-128810203D01*
X67040447Y-128810211D01*
X67118806Y-128999386D01*
X67232568Y-129169645D01*
X67377354Y-129314431D01*
X67377357Y-129314433D01*
X67547612Y-129428193D01*
X67736789Y-129506553D01*
X67937613Y-129546499D01*
X67937617Y-129546500D01*
X67937618Y-129546500D01*
X68142383Y-129546500D01*
X68142384Y-129546499D01*
X68343211Y-129506553D01*
X68532388Y-129428193D01*
X68702643Y-129314433D01*
X68847433Y-129169643D01*
X68961193Y-128999388D01*
X69039553Y-128810211D01*
X69079500Y-128609382D01*
X69079500Y-126626618D01*
X69039553Y-126425789D01*
X68961193Y-126236612D01*
X68847433Y-126066357D01*
X68847431Y-126066354D01*
X68702645Y-125921568D01*
X68617515Y-125864687D01*
X68532388Y-125807807D01*
X68343211Y-125729447D01*
X68343203Y-125729445D01*
X68142386Y-125689500D01*
X68142382Y-125689500D01*
X67937618Y-125689500D01*
X67937613Y-125689500D01*
X67736796Y-125729445D01*
X67736788Y-125729447D01*
X67547613Y-125807806D01*
X67377354Y-125921568D01*
X67232568Y-126066354D01*
X67118806Y-126236613D01*
X67040447Y-126425788D01*
X67040445Y-126425796D01*
X67000500Y-126626613D01*
X66539499Y-126626613D01*
X66499553Y-126425789D01*
X66421193Y-126236612D01*
X66307433Y-126066357D01*
X66307431Y-126066354D01*
X66162645Y-125921568D01*
X66077515Y-125864687D01*
X65992388Y-125807807D01*
X65803211Y-125729447D01*
X65803203Y-125729445D01*
X65602386Y-125689500D01*
X65602382Y-125689500D01*
X65397618Y-125689500D01*
X65397613Y-125689500D01*
X65196796Y-125729445D01*
X65196788Y-125729447D01*
X65007613Y-125807806D01*
X64837354Y-125921568D01*
X64692568Y-126066354D01*
X64578806Y-126236613D01*
X64500447Y-126425788D01*
X64500445Y-126425796D01*
X64460500Y-126626613D01*
X63999499Y-126626613D01*
X63959553Y-126425789D01*
X63881193Y-126236612D01*
X63767433Y-126066357D01*
X63767431Y-126066354D01*
X63622645Y-125921568D01*
X63537515Y-125864687D01*
X63452388Y-125807807D01*
X63263211Y-125729447D01*
X63263203Y-125729445D01*
X63062386Y-125689500D01*
X63062382Y-125689500D01*
X62857618Y-125689500D01*
X62857613Y-125689500D01*
X62656796Y-125729445D01*
X62656788Y-125729447D01*
X62467613Y-125807806D01*
X62297354Y-125921568D01*
X62152568Y-126066354D01*
X62038806Y-126236613D01*
X61960447Y-126425788D01*
X61960445Y-126425796D01*
X61920500Y-126626613D01*
X61459499Y-126626613D01*
X61419553Y-126425789D01*
X61341193Y-126236612D01*
X61227433Y-126066357D01*
X61227431Y-126066354D01*
X61082645Y-125921568D01*
X60997515Y-125864687D01*
X60912388Y-125807807D01*
X60723211Y-125729447D01*
X60723203Y-125729445D01*
X60522386Y-125689500D01*
X60522382Y-125689500D01*
X60317618Y-125689500D01*
X60317613Y-125689500D01*
X60116796Y-125729445D01*
X60116788Y-125729447D01*
X59927613Y-125807806D01*
X59757354Y-125921568D01*
X59612568Y-126066354D01*
X59498806Y-126236613D01*
X59420447Y-126425788D01*
X59420445Y-126425796D01*
X59380500Y-126626613D01*
X58919499Y-126626613D01*
X58879553Y-126425789D01*
X58801193Y-126236612D01*
X58687433Y-126066357D01*
X58687431Y-126066354D01*
X58542645Y-125921568D01*
X58457515Y-125864687D01*
X58372388Y-125807807D01*
X58183211Y-125729447D01*
X58183203Y-125729445D01*
X57982386Y-125689500D01*
X57982382Y-125689500D01*
X57777618Y-125689500D01*
X57777613Y-125689500D01*
X57576796Y-125729445D01*
X57576788Y-125729447D01*
X57387613Y-125807806D01*
X57217354Y-125921568D01*
X57072568Y-126066354D01*
X56958805Y-126236614D01*
X56909049Y-126356736D01*
X56865207Y-126411140D01*
X56798913Y-126433204D01*
X56731214Y-126415924D01*
X56683604Y-126364787D01*
X56676557Y-126347601D01*
X56627238Y-126195811D01*
X56627237Y-126195808D01*
X56527976Y-126001001D01*
X56399475Y-125824133D01*
X56399471Y-125824128D01*
X56244871Y-125669528D01*
X56244866Y-125669524D01*
X56067998Y-125541023D01*
X55873191Y-125441762D01*
X55873188Y-125441761D01*
X55665258Y-125374201D01*
X55590000Y-125362281D01*
X55590000Y-127937748D01*
X55536081Y-127906619D01*
X55406880Y-127872000D01*
X55273120Y-127872000D01*
X55143919Y-127906619D01*
X55090000Y-127937748D01*
X55090000Y-125362281D01*
X55014741Y-125374201D01*
X54806811Y-125441761D01*
X54806808Y-125441762D01*
X54612001Y-125541023D01*
X54435133Y-125669524D01*
X54435128Y-125669528D01*
X54280528Y-125824128D01*
X54280524Y-125824133D01*
X54152023Y-126001001D01*
X54052762Y-126195808D01*
X54052761Y-126195811D01*
X54003442Y-126347601D01*
X53964004Y-126405277D01*
X53899646Y-126432475D01*
X53830799Y-126420560D01*
X53779324Y-126373316D01*
X53770950Y-126356736D01*
X53767166Y-126347601D01*
X53721193Y-126236612D01*
X53607433Y-126066357D01*
X53607431Y-126066354D01*
X53462645Y-125921568D01*
X53377515Y-125864687D01*
X53292388Y-125807807D01*
X53103211Y-125729447D01*
X53103203Y-125729445D01*
X52902386Y-125689500D01*
X52902382Y-125689500D01*
X52697618Y-125689500D01*
X52697613Y-125689500D01*
X52496796Y-125729445D01*
X52496788Y-125729447D01*
X52307613Y-125807806D01*
X52137354Y-125921568D01*
X51992568Y-126066354D01*
X51878806Y-126236613D01*
X51800447Y-126425788D01*
X51800445Y-126425796D01*
X51760500Y-126626613D01*
X49500500Y-126626613D01*
X49500500Y-123286803D01*
X80489044Y-123286803D01*
X80489044Y-123833948D01*
X81310758Y-123833948D01*
X81276798Y-123892769D01*
X81243044Y-124018741D01*
X81243044Y-124149155D01*
X81276798Y-124275127D01*
X81310758Y-124333948D01*
X80489044Y-124333948D01*
X80489044Y-124881092D01*
X80495445Y-124940620D01*
X80495447Y-124940627D01*
X80545689Y-125075334D01*
X80545693Y-125075341D01*
X80631853Y-125190435D01*
X80631856Y-125190438D01*
X80746950Y-125276598D01*
X80746957Y-125276602D01*
X80881664Y-125326844D01*
X80881671Y-125326846D01*
X80941199Y-125333247D01*
X80941216Y-125333248D01*
X81488344Y-125333248D01*
X81488344Y-124511533D01*
X81547165Y-124545494D01*
X81673137Y-124579248D01*
X81803551Y-124579248D01*
X81929523Y-124545494D01*
X81988344Y-124511533D01*
X81988344Y-125333248D01*
X82535472Y-125333248D01*
X82535488Y-125333247D01*
X82595016Y-125326846D01*
X82595023Y-125326844D01*
X82729730Y-125276602D01*
X82729737Y-125276598D01*
X82844831Y-125190438D01*
X82844834Y-125190435D01*
X82930994Y-125075341D01*
X82930998Y-125075334D01*
X82981240Y-124940627D01*
X82981242Y-124940620D01*
X82987643Y-124881092D01*
X82987644Y-124881075D01*
X82987644Y-124333948D01*
X82165930Y-124333948D01*
X82199890Y-124275127D01*
X82233644Y-124149155D01*
X82233644Y-124018741D01*
X82227368Y-123995320D01*
X83378544Y-123995320D01*
X83378544Y-124172575D01*
X83413120Y-124346401D01*
X83413123Y-124346411D01*
X83480948Y-124510158D01*
X83480949Y-124510160D01*
X83579423Y-124657536D01*
X83579426Y-124657540D01*
X83704751Y-124782865D01*
X83704755Y-124782868D01*
X83852129Y-124881341D01*
X83852130Y-124881341D01*
X83852131Y-124881342D01*
X83852133Y-124881343D01*
X83961297Y-124926559D01*
X84015882Y-124949169D01*
X84015885Y-124949169D01*
X84015890Y-124949171D01*
X84189716Y-124983747D01*
X84189719Y-124983748D01*
X84189721Y-124983748D01*
X84366969Y-124983748D01*
X84366970Y-124983747D01*
X84452744Y-124966685D01*
X84540797Y-124949171D01*
X84540799Y-124949170D01*
X84540806Y-124949169D01*
X84704559Y-124881341D01*
X84851933Y-124782868D01*
X84977264Y-124657537D01*
X85075737Y-124510163D01*
X85143565Y-124346410D01*
X85178144Y-124172571D01*
X85178144Y-123995325D01*
X85178144Y-123995322D01*
X85178143Y-123995320D01*
X85143567Y-123821494D01*
X85143564Y-123821484D01*
X85075739Y-123657737D01*
X85075738Y-123657735D01*
X84977264Y-123510359D01*
X84977261Y-123510355D01*
X84851936Y-123385030D01*
X84851932Y-123385027D01*
X84704556Y-123286553D01*
X84704554Y-123286552D01*
X84540807Y-123218727D01*
X84540797Y-123218724D01*
X84366970Y-123184148D01*
X84366967Y-123184148D01*
X84189721Y-123184148D01*
X84189718Y-123184148D01*
X84015890Y-123218724D01*
X84015880Y-123218727D01*
X83852133Y-123286552D01*
X83852131Y-123286553D01*
X83704755Y-123385027D01*
X83704751Y-123385030D01*
X83579426Y-123510355D01*
X83579423Y-123510359D01*
X83480949Y-123657735D01*
X83480948Y-123657737D01*
X83413123Y-123821484D01*
X83413120Y-123821494D01*
X83378544Y-123995320D01*
X82227368Y-123995320D01*
X82199890Y-123892769D01*
X82165930Y-123833948D01*
X82987644Y-123833948D01*
X82987644Y-123286820D01*
X82987643Y-123286803D01*
X82981242Y-123227275D01*
X82981240Y-123227268D01*
X82930998Y-123092561D01*
X82930994Y-123092554D01*
X82844834Y-122977460D01*
X82844831Y-122977457D01*
X82729737Y-122891297D01*
X82729730Y-122891293D01*
X82595023Y-122841051D01*
X82595016Y-122841049D01*
X82535488Y-122834648D01*
X81988344Y-122834648D01*
X81988344Y-123656362D01*
X81929523Y-123622402D01*
X81803551Y-123588648D01*
X81673137Y-123588648D01*
X81547165Y-123622402D01*
X81488344Y-123656362D01*
X81488344Y-122834648D01*
X80941199Y-122834648D01*
X80881671Y-122841049D01*
X80881664Y-122841051D01*
X80746957Y-122891293D01*
X80746950Y-122891297D01*
X80631856Y-122977457D01*
X80631853Y-122977460D01*
X80545693Y-123092554D01*
X80545689Y-123092561D01*
X80495447Y-123227268D01*
X80495445Y-123227275D01*
X80489044Y-123286803D01*
X49500500Y-123286803D01*
X49500500Y-121864822D01*
X55999499Y-121864822D01*
X56008231Y-121908717D01*
X56008234Y-121908724D01*
X56010757Y-121912500D01*
X56041496Y-121958504D01*
X56091278Y-121991767D01*
X56091281Y-121991767D01*
X56091282Y-121991768D01*
X56135177Y-122000500D01*
X56135180Y-122000500D01*
X57864822Y-122000500D01*
X57908717Y-121991768D01*
X57908717Y-121991767D01*
X57908722Y-121991767D01*
X57958504Y-121958504D01*
X57991767Y-121908722D01*
X57997991Y-121877433D01*
X58000500Y-121864822D01*
X58000500Y-121098543D01*
X58539499Y-121098543D01*
X58577947Y-121291829D01*
X58577950Y-121291839D01*
X58653364Y-121473907D01*
X58653371Y-121473920D01*
X58762860Y-121637781D01*
X58762863Y-121637785D01*
X58902214Y-121777136D01*
X58902218Y-121777139D01*
X59066079Y-121886628D01*
X59066092Y-121886635D01*
X59248160Y-121962049D01*
X59248165Y-121962051D01*
X59248169Y-121962051D01*
X59248170Y-121962052D01*
X59441456Y-122000500D01*
X59441459Y-122000500D01*
X59638543Y-122000500D01*
X59768582Y-121974632D01*
X59831835Y-121962051D01*
X60013914Y-121886632D01*
X60177782Y-121777139D01*
X60317139Y-121637782D01*
X60426632Y-121473914D01*
X60502051Y-121291835D01*
X60536682Y-121117735D01*
X60540500Y-121098543D01*
X60540500Y-120901456D01*
X60502052Y-120708170D01*
X60502051Y-120708169D01*
X60502051Y-120708165D01*
X60502049Y-120708160D01*
X60426635Y-120526092D01*
X60426628Y-120526079D01*
X60317139Y-120362218D01*
X60317136Y-120362214D01*
X60177785Y-120222863D01*
X60177781Y-120222860D01*
X60013920Y-120113371D01*
X60013907Y-120113364D01*
X59831839Y-120037950D01*
X59831829Y-120037947D01*
X59638543Y-119999500D01*
X59638541Y-119999500D01*
X59441459Y-119999500D01*
X59441457Y-119999500D01*
X59248170Y-120037947D01*
X59248160Y-120037950D01*
X59066092Y-120113364D01*
X59066079Y-120113371D01*
X58902218Y-120222860D01*
X58902214Y-120222863D01*
X58762863Y-120362214D01*
X58762860Y-120362218D01*
X58653371Y-120526079D01*
X58653364Y-120526092D01*
X58577950Y-120708160D01*
X58577947Y-120708170D01*
X58539500Y-120901456D01*
X58539500Y-120901459D01*
X58539500Y-121098541D01*
X58539500Y-121098543D01*
X58539499Y-121098543D01*
X58000500Y-121098543D01*
X58000500Y-120135177D01*
X57991768Y-120091282D01*
X57991767Y-120091281D01*
X57991767Y-120091278D01*
X57958504Y-120041496D01*
X57953197Y-120037950D01*
X57908724Y-120008234D01*
X57908717Y-120008231D01*
X57864822Y-119999500D01*
X57864820Y-119999500D01*
X56135180Y-119999500D01*
X56135178Y-119999500D01*
X56091282Y-120008231D01*
X56091275Y-120008234D01*
X56041496Y-120041495D01*
X56041495Y-120041496D01*
X56008234Y-120091275D01*
X56008231Y-120091282D01*
X55999500Y-120135177D01*
X55999500Y-120135180D01*
X55999500Y-121864820D01*
X55999500Y-121864822D01*
X55999499Y-121864822D01*
X49500500Y-121864822D01*
X49500500Y-119325013D01*
X63900000Y-119325013D01*
X63900000Y-119750000D01*
X64719670Y-119750000D01*
X64699925Y-119769745D01*
X64650556Y-119855255D01*
X64625000Y-119950630D01*
X64625000Y-120049370D01*
X64650556Y-120144745D01*
X64699925Y-120230255D01*
X64719670Y-120250000D01*
X63900001Y-120250000D01*
X63900001Y-120674986D01*
X63910494Y-120777697D01*
X63965641Y-120944119D01*
X63965643Y-120944124D01*
X64057684Y-121093345D01*
X64181654Y-121217315D01*
X64330875Y-121309356D01*
X64330880Y-121309358D01*
X64497302Y-121364505D01*
X64497309Y-121364506D01*
X64600019Y-121374999D01*
X64749999Y-121374999D01*
X64750000Y-121374998D01*
X64750000Y-120280330D01*
X64769745Y-120300075D01*
X64855255Y-120349444D01*
X64950630Y-120375000D01*
X65049370Y-120375000D01*
X65144745Y-120349444D01*
X65230255Y-120300075D01*
X65250000Y-120280330D01*
X65250000Y-121374999D01*
X65399972Y-121374999D01*
X65399986Y-121374998D01*
X65502697Y-121364505D01*
X65669119Y-121309358D01*
X65669124Y-121309356D01*
X65818345Y-121217315D01*
X65942315Y-121093345D01*
X66034356Y-120944124D01*
X66034358Y-120944119D01*
X66089505Y-120777697D01*
X66089506Y-120777689D01*
X66100235Y-120672672D01*
X66126631Y-120607980D01*
X66183811Y-120567829D01*
X66253622Y-120564965D01*
X66313899Y-120600299D01*
X66332950Y-120626818D01*
X66334916Y-120630496D01*
X66417048Y-120753415D01*
X66417051Y-120753419D01*
X66521580Y-120857948D01*
X66521584Y-120857951D01*
X66644498Y-120940080D01*
X66644511Y-120940087D01*
X66717595Y-120970359D01*
X66781087Y-120996658D01*
X66781091Y-120996658D01*
X66781092Y-120996659D01*
X66926079Y-121025500D01*
X66926082Y-121025500D01*
X67073920Y-121025500D01*
X67171462Y-121006096D01*
X67218913Y-120996658D01*
X67355495Y-120940084D01*
X67400336Y-120910122D01*
X71087500Y-120910122D01*
X71087500Y-121089877D01*
X71122565Y-121266158D01*
X71122568Y-121266170D01*
X71191349Y-121432224D01*
X71191356Y-121432237D01*
X71291214Y-121581684D01*
X71291217Y-121581688D01*
X71418311Y-121708782D01*
X71418315Y-121708785D01*
X71567762Y-121808643D01*
X71567775Y-121808650D01*
X71703383Y-121864820D01*
X71733834Y-121877433D01*
X71891109Y-121908717D01*
X71910122Y-121912499D01*
X71910125Y-121912500D01*
X71910127Y-121912500D01*
X72089875Y-121912500D01*
X72089876Y-121912499D01*
X72266166Y-121877433D01*
X72432231Y-121808647D01*
X72581685Y-121708785D01*
X72708785Y-121581685D01*
X72808647Y-121432231D01*
X72877433Y-121266166D01*
X72912500Y-121089873D01*
X72912500Y-120910127D01*
X72912500Y-120910124D01*
X72912499Y-120910122D01*
X73587500Y-120910122D01*
X73587500Y-121089877D01*
X73622565Y-121266158D01*
X73622568Y-121266170D01*
X73691349Y-121432224D01*
X73691356Y-121432237D01*
X73791214Y-121581684D01*
X73791217Y-121581688D01*
X73918311Y-121708782D01*
X73918315Y-121708785D01*
X74067762Y-121808643D01*
X74067775Y-121808650D01*
X74203383Y-121864820D01*
X74233834Y-121877433D01*
X74391109Y-121908717D01*
X74410122Y-121912499D01*
X74410125Y-121912500D01*
X74410127Y-121912500D01*
X74589875Y-121912500D01*
X74589876Y-121912499D01*
X74766166Y-121877433D01*
X74932231Y-121808647D01*
X75081685Y-121708785D01*
X75208785Y-121581685D01*
X75308647Y-121432231D01*
X75377433Y-121266166D01*
X75412500Y-121089873D01*
X75412500Y-120910127D01*
X75412500Y-120910124D01*
X75412499Y-120910122D01*
X76087500Y-120910122D01*
X76087500Y-121089877D01*
X76122565Y-121266158D01*
X76122568Y-121266170D01*
X76191349Y-121432224D01*
X76191356Y-121432237D01*
X76291214Y-121581684D01*
X76291217Y-121581688D01*
X76418311Y-121708782D01*
X76418315Y-121708785D01*
X76567762Y-121808643D01*
X76567775Y-121808650D01*
X76703383Y-121864820D01*
X76733834Y-121877433D01*
X76891109Y-121908717D01*
X76910122Y-121912499D01*
X76910125Y-121912500D01*
X76910127Y-121912500D01*
X77089875Y-121912500D01*
X77089876Y-121912499D01*
X77266166Y-121877433D01*
X77432231Y-121808647D01*
X77581685Y-121708785D01*
X77708785Y-121581685D01*
X77793219Y-121455320D01*
X82108544Y-121455320D01*
X82108544Y-121632575D01*
X82143120Y-121806401D01*
X82143123Y-121806411D01*
X82210948Y-121970158D01*
X82210949Y-121970160D01*
X82309423Y-122117536D01*
X82309426Y-122117540D01*
X82434751Y-122242865D01*
X82434755Y-122242868D01*
X82582129Y-122341341D01*
X82582130Y-122341341D01*
X82582131Y-122341342D01*
X82582133Y-122341343D01*
X82691297Y-122386559D01*
X82745882Y-122409169D01*
X82745885Y-122409169D01*
X82745890Y-122409171D01*
X82919716Y-122443747D01*
X82919719Y-122443748D01*
X82919721Y-122443748D01*
X83096969Y-122443748D01*
X83096970Y-122443747D01*
X83182744Y-122426685D01*
X83270797Y-122409171D01*
X83270799Y-122409170D01*
X83270806Y-122409169D01*
X83434559Y-122341341D01*
X83581933Y-122242868D01*
X83707264Y-122117537D01*
X83805737Y-121970163D01*
X83873565Y-121806410D01*
X83879388Y-121777139D01*
X83907107Y-121637782D01*
X83908144Y-121632571D01*
X83908144Y-121455325D01*
X83908144Y-121455322D01*
X83908143Y-121455320D01*
X83873567Y-121281494D01*
X83873564Y-121281484D01*
X83805739Y-121117737D01*
X83805738Y-121117735D01*
X83792914Y-121098543D01*
X83707264Y-120970359D01*
X83707261Y-120970355D01*
X83581936Y-120845030D01*
X83581932Y-120845027D01*
X83434556Y-120746553D01*
X83434554Y-120746552D01*
X83270807Y-120678727D01*
X83270797Y-120678724D01*
X83096970Y-120644148D01*
X83096967Y-120644148D01*
X82919721Y-120644148D01*
X82919718Y-120644148D01*
X82745890Y-120678724D01*
X82745880Y-120678727D01*
X82582133Y-120746552D01*
X82582131Y-120746553D01*
X82434755Y-120845027D01*
X82434751Y-120845030D01*
X82309426Y-120970355D01*
X82309423Y-120970359D01*
X82210949Y-121117735D01*
X82210948Y-121117737D01*
X82143123Y-121281484D01*
X82143120Y-121281494D01*
X82108544Y-121455320D01*
X77793219Y-121455320D01*
X77808647Y-121432231D01*
X77877433Y-121266166D01*
X77912500Y-121089873D01*
X77912500Y-120910127D01*
X77912500Y-120910124D01*
X77912499Y-120910122D01*
X77910775Y-120901456D01*
X77877433Y-120733834D01*
X77854606Y-120678724D01*
X77808650Y-120567775D01*
X77808643Y-120567762D01*
X77708785Y-120418315D01*
X77708782Y-120418311D01*
X77581688Y-120291217D01*
X77581684Y-120291214D01*
X77432237Y-120191356D01*
X77432224Y-120191349D01*
X77266170Y-120122568D01*
X77266158Y-120122565D01*
X77089876Y-120087500D01*
X77089873Y-120087500D01*
X76910127Y-120087500D01*
X76910124Y-120087500D01*
X76733841Y-120122565D01*
X76733829Y-120122568D01*
X76567775Y-120191349D01*
X76567762Y-120191356D01*
X76418315Y-120291214D01*
X76418311Y-120291217D01*
X76291217Y-120418311D01*
X76291214Y-120418315D01*
X76191356Y-120567762D01*
X76191349Y-120567775D01*
X76122568Y-120733829D01*
X76122565Y-120733841D01*
X76087500Y-120910122D01*
X75412499Y-120910122D01*
X75410775Y-120901456D01*
X75377433Y-120733834D01*
X75354606Y-120678724D01*
X75308650Y-120567775D01*
X75308643Y-120567762D01*
X75208785Y-120418315D01*
X75208782Y-120418311D01*
X75081688Y-120291217D01*
X75081684Y-120291214D01*
X74932237Y-120191356D01*
X74932224Y-120191349D01*
X74766170Y-120122568D01*
X74766158Y-120122565D01*
X74589876Y-120087500D01*
X74589873Y-120087500D01*
X74410127Y-120087500D01*
X74410124Y-120087500D01*
X74233841Y-120122565D01*
X74233829Y-120122568D01*
X74067775Y-120191349D01*
X74067762Y-120191356D01*
X73918315Y-120291214D01*
X73918311Y-120291217D01*
X73791217Y-120418311D01*
X73791214Y-120418315D01*
X73691356Y-120567762D01*
X73691349Y-120567775D01*
X73622568Y-120733829D01*
X73622565Y-120733841D01*
X73587500Y-120910122D01*
X72912499Y-120910122D01*
X72910775Y-120901456D01*
X72877433Y-120733834D01*
X72854606Y-120678724D01*
X72808650Y-120567775D01*
X72808643Y-120567762D01*
X72708785Y-120418315D01*
X72708782Y-120418311D01*
X72581688Y-120291217D01*
X72581684Y-120291214D01*
X72432237Y-120191356D01*
X72432224Y-120191349D01*
X72266170Y-120122568D01*
X72266158Y-120122565D01*
X72089876Y-120087500D01*
X72089873Y-120087500D01*
X71910127Y-120087500D01*
X71910124Y-120087500D01*
X71733841Y-120122565D01*
X71733829Y-120122568D01*
X71567775Y-120191349D01*
X71567762Y-120191356D01*
X71418315Y-120291214D01*
X71418311Y-120291217D01*
X71291217Y-120418311D01*
X71291214Y-120418315D01*
X71191356Y-120567762D01*
X71191349Y-120567775D01*
X71122568Y-120733829D01*
X71122565Y-120733841D01*
X71087500Y-120910122D01*
X67400336Y-120910122D01*
X67478416Y-120857951D01*
X67491340Y-120845027D01*
X67520014Y-120816354D01*
X67582948Y-120753419D01*
X67582951Y-120753416D01*
X67665084Y-120630495D01*
X67721658Y-120493913D01*
X67745312Y-120375000D01*
X67750500Y-120348920D01*
X67750500Y-119651079D01*
X67721659Y-119506092D01*
X67721658Y-119506091D01*
X67721658Y-119506087D01*
X67721656Y-119506082D01*
X67665087Y-119369511D01*
X67665080Y-119369498D01*
X67582951Y-119246584D01*
X67582948Y-119246580D01*
X67478419Y-119142051D01*
X67478415Y-119142048D01*
X67355501Y-119059919D01*
X67355488Y-119059912D01*
X67218917Y-119003343D01*
X67218907Y-119003340D01*
X67073920Y-118974500D01*
X67073918Y-118974500D01*
X66926082Y-118974500D01*
X66926080Y-118974500D01*
X66781092Y-119003340D01*
X66781082Y-119003343D01*
X66644511Y-119059912D01*
X66644498Y-119059919D01*
X66521584Y-119142048D01*
X66521580Y-119142051D01*
X66417051Y-119246580D01*
X66417048Y-119246584D01*
X66334915Y-119369504D01*
X66332947Y-119373187D01*
X66283981Y-119423028D01*
X66215842Y-119438485D01*
X66150164Y-119414649D01*
X66107799Y-119359088D01*
X66100234Y-119327328D01*
X66089505Y-119222303D01*
X66034358Y-119055880D01*
X66034356Y-119055875D01*
X65942315Y-118906654D01*
X65818345Y-118782684D01*
X65669124Y-118690643D01*
X65669119Y-118690641D01*
X65502697Y-118635494D01*
X65502690Y-118635493D01*
X65399986Y-118625000D01*
X65250000Y-118625000D01*
X65250000Y-119719670D01*
X65230255Y-119699925D01*
X65144745Y-119650556D01*
X65049370Y-119625000D01*
X64950630Y-119625000D01*
X64855255Y-119650556D01*
X64769745Y-119699925D01*
X64750000Y-119719670D01*
X64750000Y-118625000D01*
X64600027Y-118625000D01*
X64600012Y-118625001D01*
X64497302Y-118635494D01*
X64330880Y-118690641D01*
X64330875Y-118690643D01*
X64181654Y-118782684D01*
X64057684Y-118906654D01*
X63965643Y-119055875D01*
X63965641Y-119055880D01*
X63910494Y-119222302D01*
X63910493Y-119222309D01*
X63900000Y-119325013D01*
X49500500Y-119325013D01*
X49500500Y-117506961D01*
X49501280Y-117493077D01*
X49501280Y-117493076D01*
X49511460Y-117402729D01*
X49517635Y-117375670D01*
X49545353Y-117296456D01*
X49557396Y-117271450D01*
X49602046Y-117200389D01*
X49619351Y-117178690D01*
X49678690Y-117119351D01*
X49700389Y-117102046D01*
X49771450Y-117057396D01*
X49796456Y-117045353D01*
X49875670Y-117017635D01*
X49902733Y-117011459D01*
X49965419Y-117004396D01*
X49993079Y-117001280D01*
X50006962Y-117000500D01*
X50065892Y-117000500D01*
X86434108Y-117000500D01*
X86493038Y-117000500D01*
X86506922Y-117001280D01*
G37*
%TD.AperFunction*%
%TD*%
M02*
