%TF.GenerationSoftware,KiCad,Pcbnew,9.0.6*%
%TF.CreationDate,2026-02-28T19:58:39-08:00*%
%TF.ProjectId,C3_GestureDriver,43335f47-6573-4747-9572-654472697665,rev?*%
%TF.SameCoordinates,Original*%
%TF.FileFunction,Legend,Bot*%
%TF.FilePolarity,Positive*%
%FSLAX46Y46*%
G04 Gerber Fmt 4.6, Leading zero omitted, Abs format (unit mm)*
G04 Created by KiCad (PCBNEW 9.0.6) date 2026-02-28 19:58:39*
%MOMM*%
%LPD*%
G01*
G04 APERTURE LIST*
%ADD10C,0.100000*%
%ADD11C,0.120000*%
G04 APERTURE END LIST*
D10*
X80666666Y-119362180D02*
X80714285Y-119409800D01*
X80714285Y-119409800D02*
X80857142Y-119457419D01*
X80857142Y-119457419D02*
X80952380Y-119457419D01*
X80952380Y-119457419D02*
X81095237Y-119409800D01*
X81095237Y-119409800D02*
X81190475Y-119314561D01*
X81190475Y-119314561D02*
X81238094Y-119219323D01*
X81238094Y-119219323D02*
X81285713Y-119028847D01*
X81285713Y-119028847D02*
X81285713Y-118885990D01*
X81285713Y-118885990D02*
X81238094Y-118695514D01*
X81238094Y-118695514D02*
X81190475Y-118600276D01*
X81190475Y-118600276D02*
X81095237Y-118505038D01*
X81095237Y-118505038D02*
X80952380Y-118457419D01*
X80952380Y-118457419D02*
X80857142Y-118457419D01*
X80857142Y-118457419D02*
X80714285Y-118505038D01*
X80714285Y-118505038D02*
X80666666Y-118552657D01*
X80333332Y-118457419D02*
X79714285Y-118457419D01*
X79714285Y-118457419D02*
X80047618Y-118838371D01*
X80047618Y-118838371D02*
X79904761Y-118838371D01*
X79904761Y-118838371D02*
X79809523Y-118885990D01*
X79809523Y-118885990D02*
X79761904Y-118933609D01*
X79761904Y-118933609D02*
X79714285Y-119028847D01*
X79714285Y-119028847D02*
X79714285Y-119266942D01*
X79714285Y-119266942D02*
X79761904Y-119362180D01*
X79761904Y-119362180D02*
X79809523Y-119409800D01*
X79809523Y-119409800D02*
X79904761Y-119457419D01*
X79904761Y-119457419D02*
X80190475Y-119457419D01*
X80190475Y-119457419D02*
X80285713Y-119409800D01*
X80285713Y-119409800D02*
X80333332Y-119362180D01*
X86261904Y-141457419D02*
X86261904Y-142266942D01*
X86261904Y-142266942D02*
X86214285Y-142362180D01*
X86214285Y-142362180D02*
X86166666Y-142409800D01*
X86166666Y-142409800D02*
X86071428Y-142457419D01*
X86071428Y-142457419D02*
X85880952Y-142457419D01*
X85880952Y-142457419D02*
X85785714Y-142409800D01*
X85785714Y-142409800D02*
X85738095Y-142362180D01*
X85738095Y-142362180D02*
X85690476Y-142266942D01*
X85690476Y-142266942D02*
X85690476Y-141457419D01*
X85261904Y-141552657D02*
X85214285Y-141505038D01*
X85214285Y-141505038D02*
X85119047Y-141457419D01*
X85119047Y-141457419D02*
X84880952Y-141457419D01*
X84880952Y-141457419D02*
X84785714Y-141505038D01*
X84785714Y-141505038D02*
X84738095Y-141552657D01*
X84738095Y-141552657D02*
X84690476Y-141647895D01*
X84690476Y-141647895D02*
X84690476Y-141743133D01*
X84690476Y-141743133D02*
X84738095Y-141885990D01*
X84738095Y-141885990D02*
X85309523Y-142457419D01*
X85309523Y-142457419D02*
X84690476Y-142457419D01*
X86238094Y-130957419D02*
X86238094Y-129957419D01*
X86238094Y-129957419D02*
X85999999Y-129957419D01*
X85999999Y-129957419D02*
X85857142Y-130005038D01*
X85857142Y-130005038D02*
X85761904Y-130100276D01*
X85761904Y-130100276D02*
X85714285Y-130195514D01*
X85714285Y-130195514D02*
X85666666Y-130385990D01*
X85666666Y-130385990D02*
X85666666Y-130528847D01*
X85666666Y-130528847D02*
X85714285Y-130719323D01*
X85714285Y-130719323D02*
X85761904Y-130814561D01*
X85761904Y-130814561D02*
X85857142Y-130909800D01*
X85857142Y-130909800D02*
X85999999Y-130957419D01*
X85999999Y-130957419D02*
X86238094Y-130957419D01*
X85285713Y-130052657D02*
X85238094Y-130005038D01*
X85238094Y-130005038D02*
X85142856Y-129957419D01*
X85142856Y-129957419D02*
X84904761Y-129957419D01*
X84904761Y-129957419D02*
X84809523Y-130005038D01*
X84809523Y-130005038D02*
X84761904Y-130052657D01*
X84761904Y-130052657D02*
X84714285Y-130147895D01*
X84714285Y-130147895D02*
X84714285Y-130243133D01*
X84714285Y-130243133D02*
X84761904Y-130385990D01*
X84761904Y-130385990D02*
X85333332Y-130957419D01*
X85333332Y-130957419D02*
X84714285Y-130957419D01*
X80666666Y-146457419D02*
X81142856Y-146457419D01*
X81142856Y-146457419D02*
X81142856Y-145457419D01*
X79809523Y-146457419D02*
X80380951Y-146457419D01*
X80095237Y-146457419D02*
X80095237Y-145457419D01*
X80095237Y-145457419D02*
X80190475Y-145600276D01*
X80190475Y-145600276D02*
X80285713Y-145695514D01*
X80285713Y-145695514D02*
X80380951Y-145743133D01*
X52756844Y-119244919D02*
X52756844Y-118244919D01*
X52756844Y-118244919D02*
X52518749Y-118244919D01*
X52518749Y-118244919D02*
X52375892Y-118292538D01*
X52375892Y-118292538D02*
X52280654Y-118387776D01*
X52280654Y-118387776D02*
X52233035Y-118483014D01*
X52233035Y-118483014D02*
X52185416Y-118673490D01*
X52185416Y-118673490D02*
X52185416Y-118816347D01*
X52185416Y-118816347D02*
X52233035Y-119006823D01*
X52233035Y-119006823D02*
X52280654Y-119102061D01*
X52280654Y-119102061D02*
X52375892Y-119197300D01*
X52375892Y-119197300D02*
X52518749Y-119244919D01*
X52518749Y-119244919D02*
X52756844Y-119244919D01*
X51233035Y-119244919D02*
X51804463Y-119244919D01*
X51518749Y-119244919D02*
X51518749Y-118244919D01*
X51518749Y-118244919D02*
X51613987Y-118387776D01*
X51613987Y-118387776D02*
X51709225Y-118483014D01*
X51709225Y-118483014D02*
X51804463Y-118530633D01*
X85666666Y-144362180D02*
X85714285Y-144409800D01*
X85714285Y-144409800D02*
X85857142Y-144457419D01*
X85857142Y-144457419D02*
X85952380Y-144457419D01*
X85952380Y-144457419D02*
X86095237Y-144409800D01*
X86095237Y-144409800D02*
X86190475Y-144314561D01*
X86190475Y-144314561D02*
X86238094Y-144219323D01*
X86238094Y-144219323D02*
X86285713Y-144028847D01*
X86285713Y-144028847D02*
X86285713Y-143885990D01*
X86285713Y-143885990D02*
X86238094Y-143695514D01*
X86238094Y-143695514D02*
X86190475Y-143600276D01*
X86190475Y-143600276D02*
X86095237Y-143505038D01*
X86095237Y-143505038D02*
X85952380Y-143457419D01*
X85952380Y-143457419D02*
X85857142Y-143457419D01*
X85857142Y-143457419D02*
X85714285Y-143505038D01*
X85714285Y-143505038D02*
X85666666Y-143552657D01*
X84714285Y-144457419D02*
X85285713Y-144457419D01*
X84999999Y-144457419D02*
X84999999Y-143457419D01*
X84999999Y-143457419D02*
X85095237Y-143600276D01*
X85095237Y-143600276D02*
X85190475Y-143695514D01*
X85190475Y-143695514D02*
X85285713Y-143743133D01*
X85666666Y-148457419D02*
X85999999Y-147981228D01*
X86238094Y-148457419D02*
X86238094Y-147457419D01*
X86238094Y-147457419D02*
X85857142Y-147457419D01*
X85857142Y-147457419D02*
X85761904Y-147505038D01*
X85761904Y-147505038D02*
X85714285Y-147552657D01*
X85714285Y-147552657D02*
X85666666Y-147647895D01*
X85666666Y-147647895D02*
X85666666Y-147790752D01*
X85666666Y-147790752D02*
X85714285Y-147885990D01*
X85714285Y-147885990D02*
X85761904Y-147933609D01*
X85761904Y-147933609D02*
X85857142Y-147981228D01*
X85857142Y-147981228D02*
X86238094Y-147981228D01*
X85333332Y-147457419D02*
X84714285Y-147457419D01*
X84714285Y-147457419D02*
X85047618Y-147838371D01*
X85047618Y-147838371D02*
X84904761Y-147838371D01*
X84904761Y-147838371D02*
X84809523Y-147885990D01*
X84809523Y-147885990D02*
X84761904Y-147933609D01*
X84761904Y-147933609D02*
X84714285Y-148028847D01*
X84714285Y-148028847D02*
X84714285Y-148266942D01*
X84714285Y-148266942D02*
X84761904Y-148362180D01*
X84761904Y-148362180D02*
X84809523Y-148409800D01*
X84809523Y-148409800D02*
X84904761Y-148457419D01*
X84904761Y-148457419D02*
X85190475Y-148457419D01*
X85190475Y-148457419D02*
X85285713Y-148409800D01*
X85285713Y-148409800D02*
X85333332Y-148362180D01*
X85666666Y-137362180D02*
X85714285Y-137409800D01*
X85714285Y-137409800D02*
X85857142Y-137457419D01*
X85857142Y-137457419D02*
X85952380Y-137457419D01*
X85952380Y-137457419D02*
X86095237Y-137409800D01*
X86095237Y-137409800D02*
X86190475Y-137314561D01*
X86190475Y-137314561D02*
X86238094Y-137219323D01*
X86238094Y-137219323D02*
X86285713Y-137028847D01*
X86285713Y-137028847D02*
X86285713Y-136885990D01*
X86285713Y-136885990D02*
X86238094Y-136695514D01*
X86238094Y-136695514D02*
X86190475Y-136600276D01*
X86190475Y-136600276D02*
X86095237Y-136505038D01*
X86095237Y-136505038D02*
X85952380Y-136457419D01*
X85952380Y-136457419D02*
X85857142Y-136457419D01*
X85857142Y-136457419D02*
X85714285Y-136505038D01*
X85714285Y-136505038D02*
X85666666Y-136552657D01*
X85285713Y-136552657D02*
X85238094Y-136505038D01*
X85238094Y-136505038D02*
X85142856Y-136457419D01*
X85142856Y-136457419D02*
X84904761Y-136457419D01*
X84904761Y-136457419D02*
X84809523Y-136505038D01*
X84809523Y-136505038D02*
X84761904Y-136552657D01*
X84761904Y-136552657D02*
X84714285Y-136647895D01*
X84714285Y-136647895D02*
X84714285Y-136743133D01*
X84714285Y-136743133D02*
X84761904Y-136885990D01*
X84761904Y-136885990D02*
X85333332Y-137457419D01*
X85333332Y-137457419D02*
X84714285Y-137457419D01*
X85666666Y-126862180D02*
X85714285Y-126909800D01*
X85714285Y-126909800D02*
X85857142Y-126957419D01*
X85857142Y-126957419D02*
X85952380Y-126957419D01*
X85952380Y-126957419D02*
X86095237Y-126909800D01*
X86095237Y-126909800D02*
X86190475Y-126814561D01*
X86190475Y-126814561D02*
X86238094Y-126719323D01*
X86238094Y-126719323D02*
X86285713Y-126528847D01*
X86285713Y-126528847D02*
X86285713Y-126385990D01*
X86285713Y-126385990D02*
X86238094Y-126195514D01*
X86238094Y-126195514D02*
X86190475Y-126100276D01*
X86190475Y-126100276D02*
X86095237Y-126005038D01*
X86095237Y-126005038D02*
X85952380Y-125957419D01*
X85952380Y-125957419D02*
X85857142Y-125957419D01*
X85857142Y-125957419D02*
X85714285Y-126005038D01*
X85714285Y-126005038D02*
X85666666Y-126052657D01*
X84809523Y-126290752D02*
X84809523Y-126957419D01*
X85047618Y-125909800D02*
X85285713Y-126624085D01*
X85285713Y-126624085D02*
X84666666Y-126624085D01*
X54185416Y-119244919D02*
X54518749Y-118768728D01*
X54756844Y-119244919D02*
X54756844Y-118244919D01*
X54756844Y-118244919D02*
X54375892Y-118244919D01*
X54375892Y-118244919D02*
X54280654Y-118292538D01*
X54280654Y-118292538D02*
X54233035Y-118340157D01*
X54233035Y-118340157D02*
X54185416Y-118435395D01*
X54185416Y-118435395D02*
X54185416Y-118578252D01*
X54185416Y-118578252D02*
X54233035Y-118673490D01*
X54233035Y-118673490D02*
X54280654Y-118721109D01*
X54280654Y-118721109D02*
X54375892Y-118768728D01*
X54375892Y-118768728D02*
X54756844Y-118768728D01*
X53233035Y-119244919D02*
X53804463Y-119244919D01*
X53518749Y-119244919D02*
X53518749Y-118244919D01*
X53518749Y-118244919D02*
X53613987Y-118387776D01*
X53613987Y-118387776D02*
X53709225Y-118483014D01*
X53709225Y-118483014D02*
X53804463Y-118530633D01*
X85666666Y-128957419D02*
X85999999Y-128481228D01*
X86238094Y-128957419D02*
X86238094Y-127957419D01*
X86238094Y-127957419D02*
X85857142Y-127957419D01*
X85857142Y-127957419D02*
X85761904Y-128005038D01*
X85761904Y-128005038D02*
X85714285Y-128052657D01*
X85714285Y-128052657D02*
X85666666Y-128147895D01*
X85666666Y-128147895D02*
X85666666Y-128290752D01*
X85666666Y-128290752D02*
X85714285Y-128385990D01*
X85714285Y-128385990D02*
X85761904Y-128433609D01*
X85761904Y-128433609D02*
X85857142Y-128481228D01*
X85857142Y-128481228D02*
X86238094Y-128481228D01*
X85285713Y-128052657D02*
X85238094Y-128005038D01*
X85238094Y-128005038D02*
X85142856Y-127957419D01*
X85142856Y-127957419D02*
X84904761Y-127957419D01*
X84904761Y-127957419D02*
X84809523Y-128005038D01*
X84809523Y-128005038D02*
X84761904Y-128052657D01*
X84761904Y-128052657D02*
X84714285Y-128147895D01*
X84714285Y-128147895D02*
X84714285Y-128243133D01*
X84714285Y-128243133D02*
X84761904Y-128385990D01*
X84761904Y-128385990D02*
X85333332Y-128957419D01*
X85333332Y-128957419D02*
X84714285Y-128957419D01*
D11*
%TO.C,C3*%
X82859420Y-118490000D02*
X83140580Y-118490000D01*
X82859420Y-119510000D02*
X83140580Y-119510000D01*
%TO.C,U2*%
X81640000Y-139390000D02*
X81640000Y-140065000D01*
X81640000Y-141935000D02*
X81640000Y-142610000D01*
X81640000Y-142610000D02*
X81815000Y-142610000D01*
X81815000Y-139390000D02*
X81640000Y-139390000D01*
X84185000Y-142610000D02*
X84360000Y-142610000D01*
X84360000Y-139390000D02*
X84185000Y-139390000D01*
X84360000Y-140065000D02*
X84360000Y-139390000D01*
X84360000Y-142610000D02*
X84360000Y-141935000D01*
X82250000Y-139260000D02*
X82010000Y-138930000D01*
X82490000Y-138930000D01*
X82250000Y-139260000D01*
G36*
X82250000Y-139260000D02*
G01*
X82010000Y-138930000D01*
X82490000Y-138930000D01*
X82250000Y-139260000D01*
G37*
%TO.C,D2*%
X82200000Y-129765000D02*
X84485000Y-129765000D01*
X84485000Y-129765000D02*
X84485000Y-131235000D01*
X84485000Y-131235000D02*
X82200000Y-131235000D01*
%TO.C,L1*%
X83162779Y-145490000D02*
X82837221Y-145490000D01*
X83162779Y-146510000D02*
X82837221Y-146510000D01*
%TO.C,D1*%
X51283750Y-122772500D02*
X51283750Y-120487500D01*
X52753750Y-120487500D02*
X52753750Y-122772500D01*
X52753750Y-122772500D02*
X51283750Y-122772500D01*
%TO.C,C1*%
X83140580Y-143490000D02*
X82859420Y-143490000D01*
X83140580Y-144510000D02*
X82859420Y-144510000D01*
%TO.C,R3*%
X83237258Y-147477500D02*
X82762742Y-147477500D01*
X83237258Y-148522500D02*
X82762742Y-148522500D01*
%TO.C,C2*%
X83140580Y-136490000D02*
X82859420Y-136490000D01*
X83140580Y-137510000D02*
X82859420Y-137510000D01*
%TO.C,C4*%
X83140580Y-125990000D02*
X82859420Y-125990000D01*
X83140580Y-127010000D02*
X82859420Y-127010000D01*
%TO.C,R1*%
X53496250Y-121524758D02*
X53496250Y-121050242D01*
X54541250Y-121524758D02*
X54541250Y-121050242D01*
%TO.C,R2*%
X83237258Y-127977500D02*
X82762742Y-127977500D01*
X83237258Y-129022500D02*
X82762742Y-129022500D01*
%TD*%
M02*
