%TF.GenerationSoftware,KiCad,Pcbnew,9.0.6*%
%TF.CreationDate,2026-02-28T19:58:39-08:00*%
%TF.ProjectId,C3_GestureDriver,43335f47-6573-4747-9572-654472697665,rev?*%
%TF.SameCoordinates,Original*%
%TF.FileFunction,Copper,L2,Bot*%
%TF.FilePolarity,Positive*%
%FSLAX46Y46*%
G04 Gerber Fmt 4.6, Leading zero omitted, Abs format (unit mm)*
G04 Created by KiCad (PCBNEW 9.0.6) date 2026-02-28 19:58:39*
%MOMM*%
%LPD*%
G01*
G04 APERTURE LIST*
G04 Aperture macros list*
%AMRoundRect*
0 Rectangle with rounded corners*
0 $1 Rounding radius*
0 $2 $3 $4 $5 $6 $7 $8 $9 X,Y pos of 4 corners*
0 Add a 4 corners polygon primitive as box body*
4,1,4,$2,$3,$4,$5,$6,$7,$8,$9,$2,$3,0*
0 Add four circle primitives for the rounded corners*
1,1,$1+$1,$2,$3*
1,1,$1+$1,$4,$5*
1,1,$1+$1,$6,$7*
1,1,$1+$1,$8,$9*
0 Add four rect primitives between the rounded corners*
20,1,$1+$1,$2,$3,$4,$5,0*
20,1,$1+$1,$4,$5,$6,$7,0*
20,1,$1+$1,$6,$7,$8,$9,0*
20,1,$1+$1,$8,$9,$2,$3,0*%
G04 Aperture macros list end*
%TA.AperFunction,ComponentPad*%
%ADD10O,1.778000X3.556000*%
%TD*%
%TA.AperFunction,ComponentPad*%
%ADD11C,1.905000*%
%TD*%
%TA.AperFunction,ComponentPad*%
%ADD12RoundRect,0.250000X-0.350000X-0.625000X0.350000X-0.625000X0.350000X0.625000X-0.350000X0.625000X0*%
%TD*%
%TA.AperFunction,ComponentPad*%
%ADD13O,1.200000X1.750000*%
%TD*%
%TA.AperFunction,ComponentPad*%
%ADD14C,1.524000*%
%TD*%
%TA.AperFunction,ComponentPad*%
%ADD15R,1.700000X1.700000*%
%TD*%
%TA.AperFunction,ComponentPad*%
%ADD16C,1.700000*%
%TD*%
%TA.AperFunction,ComponentPad*%
%ADD17R,1.498600X1.498600*%
%TD*%
%TA.AperFunction,ComponentPad*%
%ADD18C,1.498600*%
%TD*%
%TA.AperFunction,SMDPad,CuDef*%
%ADD19RoundRect,0.225000X-0.225000X-0.250000X0.225000X-0.250000X0.225000X0.250000X-0.225000X0.250000X0*%
%TD*%
%TA.AperFunction,SMDPad,CuDef*%
%ADD20RoundRect,0.087500X-0.087500X0.225000X-0.087500X-0.225000X0.087500X-0.225000X0.087500X0.225000X0*%
%TD*%
%TA.AperFunction,SMDPad,CuDef*%
%ADD21RoundRect,0.087500X-0.225000X0.087500X-0.225000X-0.087500X0.225000X-0.087500X0.225000X0.087500X0*%
%TD*%
%TA.AperFunction,SMDPad,CuDef*%
%ADD22RoundRect,0.218750X0.218750X0.256250X-0.218750X0.256250X-0.218750X-0.256250X0.218750X-0.256250X0*%
%TD*%
%TA.AperFunction,SMDPad,CuDef*%
%ADD23RoundRect,0.218750X0.256250X-0.218750X0.256250X0.218750X-0.256250X0.218750X-0.256250X-0.218750X0*%
%TD*%
%TA.AperFunction,SMDPad,CuDef*%
%ADD24RoundRect,0.225000X0.225000X0.250000X-0.225000X0.250000X-0.225000X-0.250000X0.225000X-0.250000X0*%
%TD*%
%TA.AperFunction,SMDPad,CuDef*%
%ADD25RoundRect,0.200000X0.200000X0.275000X-0.200000X0.275000X-0.200000X-0.275000X0.200000X-0.275000X0*%
%TD*%
%TA.AperFunction,SMDPad,CuDef*%
%ADD26RoundRect,0.200000X0.275000X-0.200000X0.275000X0.200000X-0.275000X0.200000X-0.275000X-0.200000X0*%
%TD*%
%TA.AperFunction,Conductor*%
%ADD27C,0.200000*%
%TD*%
G04 APERTURE END LIST*
D10*
%TO.P,U1,1,GPIO2_A0_D0*%
%TO.N,unconnected-(U1-GPIO2_A0_D0-Pad1)*%
X52800000Y-144382000D03*
%TO.P,U1,2,GPIO3_A1_D1*%
%TO.N,unconnected-(U1-GPIO3_A1_D1-Pad2)*%
X55340000Y-144382000D03*
%TO.P,U1,3,GPIO4_A2_D2*%
%TO.N,unconnected-(U1-GPIO4_A2_D2-Pad3)*%
X57880000Y-144382000D03*
%TO.P,U1,4,GPIO5_A3_D3*%
%TO.N,unconnected-(U1-GPIO5_A3_D3-Pad4)*%
X60420000Y-144382000D03*
%TO.P,U1,5,GPIO6_D4_SDA*%
%TO.N,/LSM6DS3_SDA*%
X62960000Y-144382000D03*
%TO.P,U1,6,GPIO7_D5_SCL*%
%TO.N,/LSM6DS3_SCL*%
X65500000Y-144382000D03*
%TO.P,U1,7,GPIO21_D6_TX*%
%TO.N,/TX*%
X68040000Y-144382000D03*
%TO.P,U1,8,GPIO20_D7_RX*%
%TO.N,/RX*%
X68040000Y-127618000D03*
%TO.P,U1,9,GPIO8_D8_SCK*%
%TO.N,unconnected-(U1-GPIO8_D8_SCK-Pad9)*%
X65500000Y-127618000D03*
%TO.P,U1,10,GPIO9_D9_MISO*%
%TO.N,unconnected-(U1-GPIO9_D9_MISO-Pad10)*%
X62960000Y-127618000D03*
%TO.P,U1,11,GPIO10_D10_MOSI*%
%TO.N,/D10_LED*%
X60420000Y-127618000D03*
%TO.P,U1,12,3V3*%
%TO.N,unconnected-(U1-3V3-Pad12)*%
X57880000Y-127618000D03*
%TO.P,U1,13,GND*%
%TO.N,GND*%
X55340000Y-127618000D03*
%TO.P,U1,14,VBUS*%
%TO.N,unconnected-(U1-VBUS-Pad14)*%
X52800000Y-127618000D03*
D11*
%TO.P,U1,15,BAT*%
%TO.N,+3.3V*%
X78200000Y-138540000D03*
%TO.P,U1,16,GND*%
%TO.N,GND*%
X78200000Y-133460000D03*
%TD*%
D12*
%TO.P,J1,1,Pin_1*%
%TO.N,GND*%
X65000000Y-120000000D03*
D13*
%TO.P,J1,2,Pin_2*%
%TO.N,Net-(J1-Pin_2)*%
X67000000Y-120000000D03*
%TD*%
D14*
%TO.P,SW2,1,A*%
%TO.N,unconnected-(SW2-A-Pad1)*%
X72000000Y-121000000D03*
%TO.P,SW2,2,B*%
%TO.N,Net-(J1-Pin_2)*%
X74500000Y-121000000D03*
%TO.P,SW2,3,C*%
%TO.N,Net-(SW2-C)*%
X77000000Y-121000000D03*
%TD*%
D15*
%TO.P,J2,1,Pin_1*%
%TO.N,/RX*%
X57000000Y-121000000D03*
D16*
%TO.P,J2,2,Pin_2*%
%TO.N,/TX*%
X59540000Y-121000000D03*
%TD*%
D17*
%TO.P,U3,1,GND*%
%TO.N,GND*%
X81738344Y-124083948D03*
D18*
%TO.P,U3,2,VIN*%
%TO.N,Net-(SW2-C)*%
X83008344Y-121543948D03*
%TO.P,U3,3,VOUT*%
%TO.N,+3.3V*%
X84278344Y-124083948D03*
%TD*%
D19*
%TO.P,C3,1*%
%TO.N,Net-(SW2-C)*%
X82225000Y-119000000D03*
%TO.P,C3,2*%
%TO.N,GND*%
X83775000Y-119000000D03*
%TD*%
D20*
%TO.P,U2,1,SDO/SA0*%
%TO.N,GND*%
X82250000Y-139837500D03*
%TO.P,U2,2,SDX*%
X82750000Y-139837500D03*
%TO.P,U2,3,SCX*%
X83250000Y-139837500D03*
%TO.P,U2,4,INT1*%
%TO.N,unconnected-(U2-INT1-Pad4)*%
X83750000Y-139837500D03*
D21*
%TO.P,U2,5,VDDIO*%
%TO.N,+3.3V*%
X83912500Y-140500000D03*
%TO.P,U2,6,GND*%
%TO.N,GND*%
X83912500Y-141000000D03*
%TO.P,U2,7,GND*%
X83912500Y-141500000D03*
D20*
%TO.P,U2,8,VDD*%
%TO.N,Net-(U2-VDD)*%
X83750000Y-142162500D03*
%TO.P,U2,9,INT2*%
%TO.N,unconnected-(U2-INT2-Pad9)*%
X83250000Y-142162500D03*
%TO.P,U2,10,NC*%
%TO.N,unconnected-(U2-NC-Pad10)*%
X82750000Y-142162500D03*
%TO.P,U2,11,NC*%
%TO.N,unconnected-(U2-NC-Pad11)*%
X82250000Y-142162500D03*
D21*
%TO.P,U2,12,CS*%
%TO.N,Net-(U2-CS)*%
X82087500Y-141500000D03*
%TO.P,U2,13,SCL*%
%TO.N,/LSM6DS3_SCL*%
X82087500Y-141000000D03*
%TO.P,U2,14,SDA*%
%TO.N,/LSM6DS3_SDA*%
X82087500Y-140500000D03*
%TD*%
D22*
%TO.P,D2,1,K*%
%TO.N,GND*%
X83787500Y-130500000D03*
%TO.P,D2,2,A*%
%TO.N,Net-(D2-A)*%
X82212500Y-130500000D03*
%TD*%
%TO.P,L1,1,1*%
%TO.N,+3.3V*%
X83787500Y-146000000D03*
%TO.P,L1,2,2*%
%TO.N,Net-(U2-VDD)*%
X82212500Y-146000000D03*
%TD*%
D23*
%TO.P,D1,1,K*%
%TO.N,GND*%
X52018750Y-122075000D03*
%TO.P,D1,2,A*%
%TO.N,Net-(D1-A)*%
X52018750Y-120500000D03*
%TD*%
D24*
%TO.P,C1,1*%
%TO.N,Net-(U2-VDD)*%
X83775000Y-144000000D03*
%TO.P,C1,2*%
%TO.N,GND*%
X82225000Y-144000000D03*
%TD*%
D25*
%TO.P,R3,1*%
%TO.N,+3.3V*%
X83825000Y-148000000D03*
%TO.P,R3,2*%
%TO.N,Net-(U2-CS)*%
X82175000Y-148000000D03*
%TD*%
D24*
%TO.P,C2,1*%
%TO.N,+3.3V*%
X83775000Y-137000000D03*
%TO.P,C2,2*%
%TO.N,GND*%
X82225000Y-137000000D03*
%TD*%
%TO.P,C4,1*%
%TO.N,+3.3V*%
X83775000Y-126500000D03*
%TO.P,C4,2*%
%TO.N,GND*%
X82225000Y-126500000D03*
%TD*%
D26*
%TO.P,R1,1*%
%TO.N,/D10_LED*%
X54018750Y-122112500D03*
%TO.P,R1,2*%
%TO.N,Net-(D1-A)*%
X54018750Y-120462500D03*
%TD*%
D25*
%TO.P,R2,1*%
%TO.N,+3.3V*%
X83825000Y-128500000D03*
%TO.P,R2,2*%
%TO.N,Net-(D2-A)*%
X82175000Y-128500000D03*
%TD*%
D27*
%TO.N,Net-(U2-VDD)*%
X83750000Y-143962500D02*
X83787500Y-144000000D01*
X83750000Y-142162500D02*
X83750000Y-143962500D01*
X83775000Y-144437500D02*
X82212500Y-146000000D01*
X83775000Y-144000000D02*
X83775000Y-144437500D01*
%TO.N,+3.3V*%
X84278344Y-124083948D02*
X84278344Y-125996656D01*
X86000000Y-124500000D02*
X86000000Y-134500000D01*
X83775000Y-137000000D02*
X86000000Y-137000000D01*
X86000000Y-146000000D02*
X86000000Y-147000000D01*
X83787500Y-145987500D02*
X83775000Y-146000000D01*
X83775000Y-126775000D02*
X83825000Y-126825000D01*
X86000000Y-140500000D02*
X86000000Y-140000000D01*
X86000000Y-135000000D02*
X86000000Y-135500000D01*
X86000000Y-134500000D02*
X86000000Y-135000000D01*
X85583948Y-124083948D02*
X86000000Y-124500000D01*
X83787500Y-146000000D02*
X86000000Y-146000000D01*
X84278344Y-124083948D02*
X85583948Y-124083948D01*
X86000000Y-137000000D02*
X86000000Y-140000000D01*
X80000000Y-135000000D02*
X85500000Y-135000000D01*
X86000000Y-135500000D02*
X86000000Y-137000000D01*
X86000000Y-143787500D02*
X86000000Y-146000000D01*
X83775000Y-126500000D02*
X83775000Y-126775000D01*
X85500000Y-135000000D02*
X86000000Y-135000000D01*
X78200000Y-138540000D02*
X78200000Y-136800000D01*
X86000000Y-147000000D02*
X85000000Y-148000000D01*
X83825000Y-126825000D02*
X83825000Y-128500000D01*
X83912500Y-140500000D02*
X86000000Y-140500000D01*
X78200000Y-136800000D02*
X80000000Y-135000000D01*
X86000000Y-140000000D02*
X86000000Y-143787500D01*
X84278344Y-125996656D02*
X83775000Y-126500000D01*
X85000000Y-148000000D02*
X83825000Y-148000000D01*
X86000000Y-135500000D02*
G75*
G03*
X85500000Y-135000000I-500000J0D01*
G01*
X85500000Y-137000000D02*
G75*
G03*
X86000000Y-136500000I0J500000D01*
G01*
X85500000Y-135000000D02*
G75*
G03*
X86000000Y-134500000I0J500000D01*
G01*
X86000000Y-137500000D02*
G75*
G03*
X85500000Y-137000000I-500000J0D01*
G01*
X85500000Y-140500000D02*
G75*
G03*
X86000000Y-140000000I0J500000D01*
G01*
X86000000Y-141000000D02*
G75*
G03*
X85500000Y-140500000I-500000J0D01*
G01*
X86000000Y-146500000D02*
G75*
G03*
X85500000Y-146000000I-500000J0D01*
G01*
X85500000Y-146000000D02*
G75*
G03*
X86000000Y-145500000I0J500000D01*
G01*
%TO.N,Net-(SW2-C)*%
X80000000Y-121000000D02*
X80543948Y-121543948D01*
X82225000Y-120760604D02*
X82225000Y-119000000D01*
X77000000Y-121000000D02*
X80000000Y-121000000D01*
X83008344Y-121543948D02*
X82225000Y-120760604D01*
X80543948Y-121543948D02*
X83008344Y-121543948D01*
%TO.N,Net-(D1-A)*%
X53981250Y-120500000D02*
X54018750Y-120462500D01*
X52018750Y-120500000D02*
X53981250Y-120500000D01*
%TO.N,Net-(D2-A)*%
X82212500Y-128537500D02*
X82175000Y-128500000D01*
X82212500Y-130500000D02*
X82212500Y-128537500D01*
%TO.N,Net-(J1-Pin_2)*%
X67000000Y-119950000D02*
X73450000Y-119950000D01*
X73450000Y-119950000D02*
X74500000Y-121000000D01*
%TO.N,/RX*%
X57000000Y-122000000D02*
X58000000Y-123000000D01*
X66000000Y-123000000D02*
X68040000Y-125040000D01*
X57000000Y-121000000D02*
X57000000Y-122000000D01*
X68040000Y-125040000D02*
X68040000Y-128380000D01*
X58000000Y-123000000D02*
X66000000Y-123000000D01*
%TO.N,/TX*%
X68040000Y-146960000D02*
X68040000Y-143620000D01*
X51000000Y-134000000D02*
X51000000Y-147000000D01*
X67000000Y-148000000D02*
X68040000Y-146960000D01*
X59540000Y-121000000D02*
X60540000Y-122000000D01*
X71000000Y-130000000D02*
X69000000Y-132000000D01*
X68000000Y-122000000D02*
X71000000Y-125000000D01*
X53000000Y-132000000D02*
X51000000Y-134000000D01*
X60540000Y-122000000D02*
X68000000Y-122000000D01*
X52000000Y-148000000D02*
X67000000Y-148000000D01*
X71000000Y-125000000D02*
X71000000Y-130000000D01*
X51000000Y-147000000D02*
X52000000Y-148000000D01*
X69000000Y-132000000D02*
X53000000Y-132000000D01*
%TO.N,/D10_LED*%
X60420000Y-125420000D02*
X59500000Y-124500000D01*
X55000000Y-124500000D02*
X54018750Y-123518750D01*
X59500000Y-124500000D02*
X55000000Y-124500000D01*
X54018750Y-123518750D02*
X54018750Y-122112500D01*
X60420000Y-128380000D02*
X60420000Y-125420000D01*
%TO.N,Net-(U2-CS)*%
X80500000Y-141500000D02*
X80000000Y-142000000D01*
X81000000Y-148000000D02*
X82175000Y-148000000D01*
X82087500Y-141500000D02*
X80500000Y-141500000D01*
X80000000Y-147000000D02*
X81000000Y-148000000D01*
X82212500Y-147987500D02*
X82225000Y-148000000D01*
X80000000Y-142000000D02*
X80000000Y-147000000D01*
%TO.N,/LSM6DS3_SDA*%
X63000000Y-141000000D02*
X63000000Y-143580000D01*
X82087500Y-140500000D02*
X63500000Y-140500000D01*
X63000000Y-143580000D02*
X62960000Y-143620000D01*
X63500000Y-140500000D02*
X63000000Y-141000000D01*
%TO.N,/LSM6DS3_SCL*%
X66000000Y-141000000D02*
X82087500Y-141000000D01*
X65500000Y-141500000D02*
X66000000Y-141000000D01*
X65500000Y-143620000D02*
X65500000Y-141500000D01*
%TD*%
%TA.AperFunction,Conductor*%
%TO.N,GND*%
G36*
X83041872Y-118020185D02*
G01*
X83087627Y-118072989D01*
X83097571Y-118142147D01*
X83068546Y-118205703D01*
X83062514Y-118212181D01*
X82977427Y-118297267D01*
X82977424Y-118297271D01*
X82888416Y-118441575D01*
X82836468Y-118488300D01*
X82767506Y-118499521D01*
X82703424Y-118471678D01*
X82695197Y-118464159D01*
X82671210Y-118440172D01*
X82558628Y-118385135D01*
X82558626Y-118385134D01*
X82558625Y-118385134D01*
X82485636Y-118374500D01*
X81964364Y-118374500D01*
X81891375Y-118385134D01*
X81891373Y-118385134D01*
X81891371Y-118385135D01*
X81778789Y-118440172D01*
X81690172Y-118528789D01*
X81635135Y-118641371D01*
X81635134Y-118641373D01*
X81635134Y-118641375D01*
X81624500Y-118714364D01*
X81624500Y-119285636D01*
X81635134Y-119358625D01*
X81635134Y-119358626D01*
X81635135Y-119358628D01*
X81690172Y-119471210D01*
X81778789Y-119559827D01*
X81900026Y-119619096D01*
X81898912Y-119621373D01*
X81945339Y-119652135D01*
X81973473Y-119716091D01*
X81974500Y-119732020D01*
X81974500Y-120810433D01*
X81994183Y-120857951D01*
X82012636Y-120902501D01*
X82157320Y-121047184D01*
X82166899Y-121064727D01*
X82180520Y-121079356D01*
X82183300Y-121094763D01*
X82190804Y-121108505D01*
X82189378Y-121128443D01*
X82192928Y-121148115D01*
X82186041Y-121175096D01*
X82185820Y-121178197D01*
X82184200Y-121182313D01*
X82169876Y-121216897D01*
X82126037Y-121271302D01*
X82059743Y-121293369D01*
X82055314Y-121293448D01*
X80699070Y-121293448D01*
X80632031Y-121273763D01*
X80611389Y-121257129D01*
X80379760Y-121025500D01*
X80141897Y-120787636D01*
X80117883Y-120777689D01*
X80049829Y-120749500D01*
X80049828Y-120749500D01*
X77966776Y-120749500D01*
X77899737Y-120729815D01*
X77853982Y-120677011D01*
X77852215Y-120672952D01*
X77808650Y-120567775D01*
X77808643Y-120567762D01*
X77708785Y-120418315D01*
X77708782Y-120418311D01*
X77581688Y-120291217D01*
X77581684Y-120291214D01*
X77432237Y-120191356D01*
X77432224Y-120191349D01*
X77266170Y-120122568D01*
X77266158Y-120122565D01*
X77089876Y-120087500D01*
X77089873Y-120087500D01*
X76910127Y-120087500D01*
X76910124Y-120087500D01*
X76733841Y-120122565D01*
X76733829Y-120122568D01*
X76567775Y-120191349D01*
X76567762Y-120191356D01*
X76418315Y-120291214D01*
X76418311Y-120291217D01*
X76291217Y-120418311D01*
X76291214Y-120418315D01*
X76191356Y-120567762D01*
X76191349Y-120567775D01*
X76122568Y-120733829D01*
X76122565Y-120733841D01*
X76087500Y-120910122D01*
X76087500Y-121089877D01*
X76122565Y-121266158D01*
X76122568Y-121266170D01*
X76191349Y-121432224D01*
X76191356Y-121432237D01*
X76291214Y-121581684D01*
X76291217Y-121581688D01*
X76418311Y-121708782D01*
X76418315Y-121708785D01*
X76567762Y-121808643D01*
X76567775Y-121808650D01*
X76733829Y-121877431D01*
X76733834Y-121877433D01*
X76853404Y-121901217D01*
X76910122Y-121912499D01*
X76910125Y-121912500D01*
X76910127Y-121912500D01*
X77089875Y-121912500D01*
X77089876Y-121912499D01*
X77266166Y-121877433D01*
X77432231Y-121808647D01*
X77581685Y-121708785D01*
X77708785Y-121581685D01*
X77808647Y-121432231D01*
X77836700Y-121364506D01*
X77852215Y-121327048D01*
X77896055Y-121272644D01*
X77962349Y-121250579D01*
X77966776Y-121250500D01*
X79844877Y-121250500D01*
X79911916Y-121270185D01*
X79932558Y-121286819D01*
X80154696Y-121508956D01*
X80331583Y-121685843D01*
X80331584Y-121685845D01*
X80402051Y-121756312D01*
X80440188Y-121772108D01*
X80494121Y-121794449D01*
X80494122Y-121794449D01*
X80608210Y-121794449D01*
X80608218Y-121794448D01*
X82055314Y-121794448D01*
X82122353Y-121814133D01*
X82168108Y-121866937D01*
X82169875Y-121870996D01*
X82210948Y-121970158D01*
X82210949Y-121970160D01*
X82309423Y-122117536D01*
X82309426Y-122117540D01*
X82434751Y-122242865D01*
X82434755Y-122242868D01*
X82582129Y-122341341D01*
X82582130Y-122341341D01*
X82582131Y-122341342D01*
X82582133Y-122341343D01*
X82691297Y-122386559D01*
X82745882Y-122409169D01*
X82745885Y-122409169D01*
X82745890Y-122409171D01*
X82919716Y-122443747D01*
X82919719Y-122443748D01*
X82919721Y-122443748D01*
X83096969Y-122443748D01*
X83096970Y-122443747D01*
X83182744Y-122426685D01*
X83270797Y-122409171D01*
X83270799Y-122409170D01*
X83270806Y-122409169D01*
X83434559Y-122341341D01*
X83581933Y-122242868D01*
X83707264Y-122117537D01*
X83805737Y-121970163D01*
X83873565Y-121806410D01*
X83875945Y-121794448D01*
X83907107Y-121637782D01*
X83908144Y-121632571D01*
X83908144Y-121455325D01*
X83908144Y-121455322D01*
X83908143Y-121455320D01*
X83873567Y-121281494D01*
X83873564Y-121281484D01*
X83869902Y-121272644D01*
X83838825Y-121197615D01*
X83805739Y-121117737D01*
X83805738Y-121117735D01*
X83792914Y-121098543D01*
X83707264Y-120970359D01*
X83707261Y-120970355D01*
X83581936Y-120845030D01*
X83581932Y-120845027D01*
X83434556Y-120746553D01*
X83434554Y-120746552D01*
X83270807Y-120678727D01*
X83270797Y-120678724D01*
X83096970Y-120644148D01*
X83096967Y-120644148D01*
X82919721Y-120644148D01*
X82919718Y-120644148D01*
X82745890Y-120678724D01*
X82745885Y-120678726D01*
X82745883Y-120678726D01*
X82745882Y-120678727D01*
X82704760Y-120695760D01*
X82646951Y-120719705D01*
X82577482Y-120727173D01*
X82515003Y-120695897D01*
X82479351Y-120635808D01*
X82475500Y-120605143D01*
X82475500Y-119732020D01*
X82495185Y-119664981D01*
X82536358Y-119625301D01*
X82552481Y-119615761D01*
X82558625Y-119614866D01*
X82671211Y-119559826D01*
X82706264Y-119524772D01*
X82719736Y-119516802D01*
X82739036Y-119511901D01*
X82756518Y-119502355D01*
X82772210Y-119503477D01*
X82787456Y-119499606D01*
X82806344Y-119505918D01*
X82826210Y-119507339D01*
X82838803Y-119516766D01*
X82853723Y-119521752D01*
X82866199Y-119537273D01*
X82882144Y-119549209D01*
X82888416Y-119558424D01*
X82977424Y-119702728D01*
X82977427Y-119702732D01*
X83097267Y-119822572D01*
X83097271Y-119822575D01*
X83241507Y-119911542D01*
X83241518Y-119911547D01*
X83402393Y-119964855D01*
X83501683Y-119974999D01*
X84025000Y-119974999D01*
X84048308Y-119974999D01*
X84048322Y-119974998D01*
X84147607Y-119964855D01*
X84308481Y-119911547D01*
X84308492Y-119911542D01*
X84452728Y-119822575D01*
X84452732Y-119822572D01*
X84572572Y-119702732D01*
X84572575Y-119702728D01*
X84661542Y-119558492D01*
X84661547Y-119558481D01*
X84714855Y-119397606D01*
X84724999Y-119298322D01*
X84725000Y-119298309D01*
X84725000Y-119250000D01*
X84025000Y-119250000D01*
X84025000Y-119974999D01*
X83501683Y-119974999D01*
X83525000Y-119974998D01*
X83525000Y-119124000D01*
X83544685Y-119056961D01*
X83597489Y-119011206D01*
X83649000Y-119000000D01*
X83775000Y-119000000D01*
X83775000Y-118874000D01*
X83794685Y-118806961D01*
X83847489Y-118761206D01*
X83899000Y-118750000D01*
X84724999Y-118750000D01*
X84724999Y-118701692D01*
X84724998Y-118701677D01*
X84714855Y-118602392D01*
X84661547Y-118441518D01*
X84661542Y-118441507D01*
X84572575Y-118297271D01*
X84572572Y-118297267D01*
X84487486Y-118212181D01*
X84454001Y-118150858D01*
X84458985Y-118081166D01*
X84500857Y-118025233D01*
X84566321Y-118000816D01*
X84575167Y-118000500D01*
X85934108Y-118000500D01*
X85993038Y-118000500D01*
X86006922Y-118001280D01*
X86097266Y-118011459D01*
X86124331Y-118017636D01*
X86203540Y-118045352D01*
X86228553Y-118057398D01*
X86299606Y-118102043D01*
X86321313Y-118119355D01*
X86380644Y-118178686D01*
X86397957Y-118200395D01*
X86442600Y-118271444D01*
X86454648Y-118296462D01*
X86482362Y-118375666D01*
X86488540Y-118402735D01*
X86498720Y-118493076D01*
X86499500Y-118506961D01*
X86499500Y-148993038D01*
X86498720Y-149006923D01*
X86488540Y-149097264D01*
X86482362Y-149124333D01*
X86454648Y-149203537D01*
X86442600Y-149228555D01*
X86397957Y-149299604D01*
X86380644Y-149321313D01*
X86321313Y-149380644D01*
X86299604Y-149397957D01*
X86228555Y-149442600D01*
X86203537Y-149454648D01*
X86124333Y-149482362D01*
X86097264Y-149488540D01*
X86017075Y-149497576D01*
X86006921Y-149498720D01*
X85993038Y-149499500D01*
X51006962Y-149499500D01*
X50993078Y-149498720D01*
X50980553Y-149497308D01*
X50902735Y-149488540D01*
X50875666Y-149482362D01*
X50796462Y-149454648D01*
X50771444Y-149442600D01*
X50700395Y-149397957D01*
X50678686Y-149380644D01*
X50619355Y-149321313D01*
X50602042Y-149299604D01*
X50557399Y-149228555D01*
X50545351Y-149203537D01*
X50517637Y-149124333D01*
X50511459Y-149097263D01*
X50501280Y-149006922D01*
X50500500Y-148993038D01*
X50500500Y-133950170D01*
X50749500Y-133950170D01*
X50749500Y-147049829D01*
X50787636Y-147141897D01*
X51787635Y-148141895D01*
X51787636Y-148141897D01*
X51858103Y-148212364D01*
X51896240Y-148228160D01*
X51950173Y-148250501D01*
X51950174Y-148250501D01*
X52064262Y-148250501D01*
X52064270Y-148250500D01*
X67049826Y-148250500D01*
X67049828Y-148250500D01*
X67141897Y-148212364D01*
X68252364Y-147101897D01*
X68290500Y-147009828D01*
X68290500Y-146910172D01*
X68290500Y-146375240D01*
X68310185Y-146308201D01*
X68362989Y-146262446D01*
X68367031Y-146260686D01*
X68450637Y-146226055D01*
X68532384Y-146192195D01*
X68532385Y-146192194D01*
X68532388Y-146192193D01*
X68702643Y-146078433D01*
X68847433Y-145933643D01*
X68961193Y-145763388D01*
X69039553Y-145574211D01*
X69079500Y-145373382D01*
X69079500Y-143390618D01*
X69039553Y-143189789D01*
X68961193Y-143000612D01*
X68847433Y-142830357D01*
X68847431Y-142830354D01*
X68702645Y-142685568D01*
X68612391Y-142625263D01*
X68532388Y-142571807D01*
X68532383Y-142571805D01*
X68343211Y-142493447D01*
X68343203Y-142493445D01*
X68142386Y-142453500D01*
X68142382Y-142453500D01*
X67937618Y-142453500D01*
X67937613Y-142453500D01*
X67736796Y-142493445D01*
X67736788Y-142493447D01*
X67547613Y-142571806D01*
X67377354Y-142685568D01*
X67232568Y-142830354D01*
X67118806Y-143000613D01*
X67040447Y-143189788D01*
X67040445Y-143189796D01*
X67000500Y-143390613D01*
X67000500Y-145373386D01*
X67040445Y-145574203D01*
X67040447Y-145574211D01*
X67118806Y-145763386D01*
X67232568Y-145933645D01*
X67377354Y-146078431D01*
X67547615Y-146192195D01*
X67660604Y-146238996D01*
X67712952Y-146260679D01*
X67767356Y-146304520D01*
X67789421Y-146370814D01*
X67789500Y-146375240D01*
X67789500Y-146804877D01*
X67769815Y-146871916D01*
X67753181Y-146892558D01*
X66932558Y-147713181D01*
X66871235Y-147746666D01*
X66844877Y-147749500D01*
X52155122Y-147749500D01*
X52088083Y-147729815D01*
X52067441Y-147713181D01*
X51286819Y-146932558D01*
X51253334Y-146871235D01*
X51250500Y-146844877D01*
X51250500Y-143390613D01*
X51760500Y-143390613D01*
X51760500Y-145373386D01*
X51800445Y-145574203D01*
X51800447Y-145574211D01*
X51878806Y-145763386D01*
X51992568Y-145933645D01*
X52137354Y-146078431D01*
X52137357Y-146078433D01*
X52307612Y-146192193D01*
X52496789Y-146270553D01*
X52686060Y-146308201D01*
X52697613Y-146310499D01*
X52697617Y-146310500D01*
X52697618Y-146310500D01*
X52902383Y-146310500D01*
X52902384Y-146310499D01*
X53103211Y-146270553D01*
X53292388Y-146192193D01*
X53462643Y-146078433D01*
X53607433Y-145933643D01*
X53721193Y-145763388D01*
X53799553Y-145574211D01*
X53839500Y-145373382D01*
X53839500Y-143390618D01*
X53839499Y-143390613D01*
X54300500Y-143390613D01*
X54300500Y-145373386D01*
X54340445Y-145574203D01*
X54340447Y-145574211D01*
X54418806Y-145763386D01*
X54532568Y-145933645D01*
X54677354Y-146078431D01*
X54677357Y-146078433D01*
X54847612Y-146192193D01*
X55036789Y-146270553D01*
X55226060Y-146308201D01*
X55237613Y-146310499D01*
X55237617Y-146310500D01*
X55237618Y-146310500D01*
X55442383Y-146310500D01*
X55442384Y-146310499D01*
X55643211Y-146270553D01*
X55832388Y-146192193D01*
X56002643Y-146078433D01*
X56147433Y-145933643D01*
X56261193Y-145763388D01*
X56339553Y-145574211D01*
X56379500Y-145373382D01*
X56379500Y-143390618D01*
X56379499Y-143390613D01*
X56840500Y-143390613D01*
X56840500Y-145373386D01*
X56880445Y-145574203D01*
X56880447Y-145574211D01*
X56958806Y-145763386D01*
X57072568Y-145933645D01*
X57217354Y-146078431D01*
X57217357Y-146078433D01*
X57387612Y-146192193D01*
X57576789Y-146270553D01*
X57766060Y-146308201D01*
X57777613Y-146310499D01*
X57777617Y-146310500D01*
X57777618Y-146310500D01*
X57982383Y-146310500D01*
X57982384Y-146310499D01*
X58183211Y-146270553D01*
X58372388Y-146192193D01*
X58542643Y-146078433D01*
X58687433Y-145933643D01*
X58801193Y-145763388D01*
X58879553Y-145574211D01*
X58919500Y-145373382D01*
X58919500Y-143390618D01*
X58919499Y-143390613D01*
X59380500Y-143390613D01*
X59380500Y-145373386D01*
X59420445Y-145574203D01*
X59420447Y-145574211D01*
X59498806Y-145763386D01*
X59612568Y-145933645D01*
X59757354Y-146078431D01*
X59757357Y-146078433D01*
X59927612Y-146192193D01*
X60116789Y-146270553D01*
X60306060Y-146308201D01*
X60317613Y-146310499D01*
X60317617Y-146310500D01*
X60317618Y-146310500D01*
X60522383Y-146310500D01*
X60522384Y-146310499D01*
X60723211Y-146270553D01*
X60912388Y-146192193D01*
X61082643Y-146078433D01*
X61227433Y-145933643D01*
X61341193Y-145763388D01*
X61419553Y-145574211D01*
X61459500Y-145373382D01*
X61459500Y-143390618D01*
X61459499Y-143390613D01*
X61920500Y-143390613D01*
X61920500Y-145373386D01*
X61960445Y-145574203D01*
X61960447Y-145574211D01*
X62038806Y-145763386D01*
X62152568Y-145933645D01*
X62297354Y-146078431D01*
X62297357Y-146078433D01*
X62467612Y-146192193D01*
X62656789Y-146270553D01*
X62846060Y-146308201D01*
X62857613Y-146310499D01*
X62857617Y-146310500D01*
X62857618Y-146310500D01*
X63062383Y-146310500D01*
X63062384Y-146310499D01*
X63263211Y-146270553D01*
X63452388Y-146192193D01*
X63622643Y-146078433D01*
X63767433Y-145933643D01*
X63881193Y-145763388D01*
X63959553Y-145574211D01*
X63999500Y-145373382D01*
X63999500Y-143390618D01*
X63959553Y-143189789D01*
X63881193Y-143000612D01*
X63767433Y-142830357D01*
X63767431Y-142830354D01*
X63622645Y-142685568D01*
X63452385Y-142571805D01*
X63327047Y-142519888D01*
X63272643Y-142476046D01*
X63250579Y-142409752D01*
X63250500Y-142405327D01*
X63250500Y-141155122D01*
X63270185Y-141088083D01*
X63286819Y-141067441D01*
X63567441Y-140786819D01*
X63628764Y-140753334D01*
X63655122Y-140750500D01*
X65595877Y-140750500D01*
X65662916Y-140770185D01*
X65708671Y-140822989D01*
X65718615Y-140892147D01*
X65689590Y-140955703D01*
X65683561Y-140962177D01*
X65490616Y-141155122D01*
X65340662Y-141305076D01*
X65340661Y-141305076D01*
X65340662Y-141305077D01*
X65287636Y-141358103D01*
X65249500Y-141450170D01*
X65249500Y-142388759D01*
X65229815Y-142455798D01*
X65177011Y-142501553D01*
X65172953Y-142503320D01*
X65007613Y-142571805D01*
X64837354Y-142685568D01*
X64692568Y-142830354D01*
X64578806Y-143000613D01*
X64500447Y-143189788D01*
X64500445Y-143189796D01*
X64460500Y-143390613D01*
X64460500Y-145373386D01*
X64500445Y-145574203D01*
X64500447Y-145574211D01*
X64578806Y-145763386D01*
X64692568Y-145933645D01*
X64837354Y-146078431D01*
X64837357Y-146078433D01*
X65007612Y-146192193D01*
X65196789Y-146270553D01*
X65386060Y-146308201D01*
X65397613Y-146310499D01*
X65397617Y-146310500D01*
X65397618Y-146310500D01*
X65602383Y-146310500D01*
X65602384Y-146310499D01*
X65803211Y-146270553D01*
X65992388Y-146192193D01*
X66162643Y-146078433D01*
X66307433Y-145933643D01*
X66421193Y-145763388D01*
X66499553Y-145574211D01*
X66539500Y-145373382D01*
X66539500Y-143390618D01*
X66499553Y-143189789D01*
X66421193Y-143000612D01*
X66307433Y-142830357D01*
X66307431Y-142830354D01*
X66162645Y-142685568D01*
X65992386Y-142571805D01*
X65827047Y-142503320D01*
X65772644Y-142459479D01*
X65750579Y-142393185D01*
X65750500Y-142388759D01*
X65750500Y-141655122D01*
X65770185Y-141588083D01*
X65786819Y-141567441D01*
X66067441Y-141286819D01*
X66128764Y-141253334D01*
X66155122Y-141250500D01*
X80095877Y-141250500D01*
X80162916Y-141270185D01*
X80208671Y-141322989D01*
X80218615Y-141392147D01*
X80189590Y-141455703D01*
X80183561Y-141462177D01*
X79990616Y-141655122D01*
X79840662Y-141805076D01*
X79840661Y-141805076D01*
X79840662Y-141805077D01*
X79787636Y-141858103D01*
X79749500Y-141950170D01*
X79749500Y-147049829D01*
X79787636Y-147141897D01*
X80787635Y-148141895D01*
X80787636Y-148141897D01*
X80858103Y-148212364D01*
X80896240Y-148228160D01*
X80950173Y-148250501D01*
X80950174Y-148250501D01*
X81064262Y-148250501D01*
X81064270Y-148250500D01*
X81508842Y-148250500D01*
X81575881Y-148270185D01*
X81621636Y-148322989D01*
X81631546Y-148356622D01*
X81634426Y-148376391D01*
X81685803Y-148481485D01*
X81768514Y-148564196D01*
X81768515Y-148564196D01*
X81768517Y-148564198D01*
X81873607Y-148615573D01*
X81907673Y-148620536D01*
X81941739Y-148625500D01*
X81941740Y-148625500D01*
X82408261Y-148625500D01*
X82430971Y-148622191D01*
X82476393Y-148615573D01*
X82581483Y-148564198D01*
X82664198Y-148481483D01*
X82715573Y-148376393D01*
X82725500Y-148308260D01*
X82725500Y-147691740D01*
X82715573Y-147623607D01*
X82664198Y-147518517D01*
X82664196Y-147518515D01*
X82664196Y-147518514D01*
X82581485Y-147435803D01*
X82476391Y-147384426D01*
X82408261Y-147374500D01*
X82408260Y-147374500D01*
X81941740Y-147374500D01*
X81941739Y-147374500D01*
X81873608Y-147384426D01*
X81768514Y-147435803D01*
X81685803Y-147518514D01*
X81634426Y-147623608D01*
X81631546Y-147643378D01*
X81602402Y-147706879D01*
X81543553Y-147744543D01*
X81508842Y-147749500D01*
X81155122Y-147749500D01*
X81088083Y-147729815D01*
X81067441Y-147713181D01*
X80286819Y-146932558D01*
X80253334Y-146871235D01*
X80250500Y-146844877D01*
X80250500Y-144298322D01*
X81275001Y-144298322D01*
X81285144Y-144397607D01*
X81338452Y-144558481D01*
X81338457Y-144558492D01*
X81427424Y-144702728D01*
X81427427Y-144702732D01*
X81547267Y-144822572D01*
X81547271Y-144822575D01*
X81691507Y-144911542D01*
X81691518Y-144911547D01*
X81852393Y-144964855D01*
X81951683Y-144974999D01*
X81975000Y-144974998D01*
X81975000Y-144250000D01*
X81275001Y-144250000D01*
X81275001Y-144298322D01*
X80250500Y-144298322D01*
X80250500Y-143701677D01*
X81275000Y-143701677D01*
X81275000Y-143750000D01*
X81975000Y-143750000D01*
X81975000Y-143024999D01*
X81951693Y-143025000D01*
X81951674Y-143025001D01*
X81852392Y-143035144D01*
X81691518Y-143088452D01*
X81691507Y-143088457D01*
X81547271Y-143177424D01*
X81547267Y-143177427D01*
X81427427Y-143297267D01*
X81427424Y-143297271D01*
X81338457Y-143441507D01*
X81338452Y-143441518D01*
X81285144Y-143602393D01*
X81275000Y-143701677D01*
X80250500Y-143701677D01*
X80250500Y-142155122D01*
X80270185Y-142088083D01*
X80286819Y-142067441D01*
X80567441Y-141786819D01*
X80628764Y-141753334D01*
X80655122Y-141750500D01*
X81640441Y-141750500D01*
X81689983Y-141760827D01*
X81700132Y-141765250D01*
X81769637Y-141811691D01*
X81837796Y-141825249D01*
X81850042Y-141830586D01*
X81867004Y-141844775D01*
X81886601Y-141855026D01*
X81893280Y-141866755D01*
X81903634Y-141875416D01*
X81910232Y-141896523D01*
X81921176Y-141915741D01*
X81924110Y-141940918D01*
X81924481Y-141942103D01*
X81924317Y-141942696D01*
X81924500Y-141944259D01*
X81924500Y-142410942D01*
X81924500Y-142410944D01*
X81924499Y-142410944D01*
X81938307Y-142480359D01*
X81938308Y-142480362D01*
X81947051Y-142493447D01*
X81990911Y-142559089D01*
X82062643Y-142607018D01*
X82069637Y-142611691D01*
X82069640Y-142611692D01*
X82139055Y-142625500D01*
X82139058Y-142625500D01*
X82360944Y-142625500D01*
X82430359Y-142611692D01*
X82430359Y-142611691D01*
X82430363Y-142611691D01*
X82431108Y-142611192D01*
X82432978Y-142610607D01*
X82441643Y-142607018D01*
X82441964Y-142607793D01*
X82497785Y-142590314D01*
X82565166Y-142608798D01*
X82568883Y-142611187D01*
X82569637Y-142611691D01*
X82569638Y-142611691D01*
X82569640Y-142611692D01*
X82639055Y-142625500D01*
X82639058Y-142625500D01*
X82860944Y-142625500D01*
X82930359Y-142611692D01*
X82930359Y-142611691D01*
X82930363Y-142611691D01*
X82931108Y-142611192D01*
X82932978Y-142610607D01*
X82941643Y-142607018D01*
X82941964Y-142607793D01*
X82997785Y-142590314D01*
X83065166Y-142608798D01*
X83068883Y-142611187D01*
X83069637Y-142611691D01*
X83069638Y-142611691D01*
X83069640Y-142611692D01*
X83139055Y-142625500D01*
X83139058Y-142625500D01*
X83360937Y-142625500D01*
X83360942Y-142625500D01*
X83360946Y-142625499D01*
X83363343Y-142625263D01*
X83364593Y-142625500D01*
X83367034Y-142625500D01*
X83367034Y-142625962D01*
X83431990Y-142638281D01*
X83482701Y-142686345D01*
X83499500Y-142748666D01*
X83499500Y-143279313D01*
X83496583Y-143289246D01*
X83497842Y-143299523D01*
X83486906Y-143322200D01*
X83479815Y-143346352D01*
X83471185Y-143354803D01*
X83467494Y-143362458D01*
X83449660Y-143375883D01*
X83440343Y-143385008D01*
X83435283Y-143388111D01*
X83328789Y-143440174D01*
X83294450Y-143474512D01*
X83281964Y-143482173D01*
X83261807Y-143487636D01*
X83243477Y-143497645D01*
X83228764Y-143496592D01*
X83214528Y-143500451D01*
X83194616Y-143494149D01*
X83173786Y-143492659D01*
X83161978Y-143483819D01*
X83147915Y-143479369D01*
X83134571Y-143463302D01*
X83117853Y-143450787D01*
X83111582Y-143441575D01*
X83022571Y-143297266D01*
X82902732Y-143177427D01*
X82902728Y-143177424D01*
X82758492Y-143088457D01*
X82758481Y-143088452D01*
X82597606Y-143035144D01*
X82498322Y-143025000D01*
X82475000Y-143025000D01*
X82475000Y-144974999D01*
X82498308Y-144974999D01*
X82498320Y-144974998D01*
X82580290Y-144966624D01*
X82608056Y-144971785D01*
X82636227Y-144973800D01*
X82641952Y-144978086D01*
X82648983Y-144979393D01*
X82669552Y-144998747D01*
X82692160Y-145015672D01*
X82694658Y-145022371D01*
X82699868Y-145027273D01*
X82706708Y-145054677D01*
X82716577Y-145081136D01*
X82715056Y-145088123D01*
X82716789Y-145095063D01*
X82707727Y-145121814D01*
X82701725Y-145149409D01*
X82695618Y-145157566D01*
X82694374Y-145161240D01*
X82680574Y-145177663D01*
X82520056Y-145338181D01*
X82458733Y-145371666D01*
X82432375Y-145374500D01*
X81958706Y-145374500D01*
X81886932Y-145384957D01*
X81776217Y-145439082D01*
X81689082Y-145526217D01*
X81665620Y-145574211D01*
X81634957Y-145636933D01*
X81624500Y-145708705D01*
X81624500Y-145708709D01*
X81624500Y-145708710D01*
X81624500Y-146291293D01*
X81634957Y-146363067D01*
X81689082Y-146473782D01*
X81776217Y-146560917D01*
X81776218Y-146560917D01*
X81776220Y-146560919D01*
X81886933Y-146615043D01*
X81958705Y-146625500D01*
X82466294Y-146625499D01*
X82538067Y-146615043D01*
X82648780Y-146560919D01*
X82735919Y-146473780D01*
X82790043Y-146363067D01*
X82800500Y-146291295D01*
X82800499Y-145817621D01*
X82809145Y-145788175D01*
X82815667Y-145758195D01*
X82819420Y-145753181D01*
X82820183Y-145750583D01*
X82836808Y-145729951D01*
X82993468Y-145573291D01*
X83054786Y-145539810D01*
X83124477Y-145544794D01*
X83180411Y-145586665D01*
X83204828Y-145652130D01*
X83203849Y-145678850D01*
X83199500Y-145708706D01*
X83199500Y-146291293D01*
X83209957Y-146363067D01*
X83264082Y-146473782D01*
X83351217Y-146560917D01*
X83351218Y-146560917D01*
X83351220Y-146560919D01*
X83461933Y-146615043D01*
X83533705Y-146625500D01*
X84041294Y-146625499D01*
X84113067Y-146615043D01*
X84223780Y-146560919D01*
X84310919Y-146473780D01*
X84365043Y-146363067D01*
X84365981Y-146356623D01*
X84395124Y-146293123D01*
X84453972Y-146255458D01*
X84488686Y-146250500D01*
X85455830Y-146250500D01*
X85490244Y-146250500D01*
X85509631Y-146252025D01*
X85557706Y-146259639D01*
X85594595Y-146271625D01*
X85629156Y-146289235D01*
X85660538Y-146312036D01*
X85687963Y-146339461D01*
X85710766Y-146370846D01*
X85728372Y-146405399D01*
X85740361Y-146442297D01*
X85747973Y-146490357D01*
X85749500Y-146509755D01*
X85749500Y-146844877D01*
X85729815Y-146911916D01*
X85713181Y-146932558D01*
X84932558Y-147713181D01*
X84871235Y-147746666D01*
X84844877Y-147749500D01*
X84491158Y-147749500D01*
X84424119Y-147729815D01*
X84378364Y-147677011D01*
X84368454Y-147643378D01*
X84365573Y-147623608D01*
X84365573Y-147623607D01*
X84314198Y-147518517D01*
X84314196Y-147518515D01*
X84314196Y-147518514D01*
X84231485Y-147435803D01*
X84126391Y-147384426D01*
X84058261Y-147374500D01*
X84058260Y-147374500D01*
X83591740Y-147374500D01*
X83591739Y-147374500D01*
X83523608Y-147384426D01*
X83418514Y-147435803D01*
X83335803Y-147518514D01*
X83284426Y-147623608D01*
X83274500Y-147691739D01*
X83274500Y-148308260D01*
X83284426Y-148376391D01*
X83335803Y-148481485D01*
X83418514Y-148564196D01*
X83418515Y-148564196D01*
X83418517Y-148564198D01*
X83523607Y-148615573D01*
X83557673Y-148620536D01*
X83591739Y-148625500D01*
X83591740Y-148625500D01*
X84058261Y-148625500D01*
X84080971Y-148622191D01*
X84126393Y-148615573D01*
X84231483Y-148564198D01*
X84314198Y-148481483D01*
X84365573Y-148376393D01*
X84368454Y-148356622D01*
X84397598Y-148293121D01*
X84456447Y-148255457D01*
X84491158Y-148250500D01*
X85049826Y-148250500D01*
X85049828Y-148250500D01*
X85141897Y-148212364D01*
X86141895Y-147212364D01*
X86141897Y-147212364D01*
X86212364Y-147141897D01*
X86228932Y-147101897D01*
X86250501Y-147049827D01*
X86250501Y-146950172D01*
X86250501Y-146940183D01*
X86250500Y-146940169D01*
X86250500Y-124450173D01*
X86250499Y-124450170D01*
X86224776Y-124388069D01*
X86212364Y-124358103D01*
X86141897Y-124287636D01*
X85725845Y-123871584D01*
X85633777Y-123833448D01*
X85633776Y-123833448D01*
X85231374Y-123833448D01*
X85164335Y-123813763D01*
X85118580Y-123760959D01*
X85116813Y-123756900D01*
X85075739Y-123657737D01*
X85075738Y-123657735D01*
X84977264Y-123510359D01*
X84977261Y-123510355D01*
X84851936Y-123385030D01*
X84851932Y-123385027D01*
X84704556Y-123286553D01*
X84704554Y-123286552D01*
X84540807Y-123218727D01*
X84540797Y-123218724D01*
X84366970Y-123184148D01*
X84366967Y-123184148D01*
X84189721Y-123184148D01*
X84189718Y-123184148D01*
X84015890Y-123218724D01*
X84015880Y-123218727D01*
X83852133Y-123286552D01*
X83852131Y-123286553D01*
X83704755Y-123385027D01*
X83704751Y-123385030D01*
X83579426Y-123510355D01*
X83579423Y-123510359D01*
X83480949Y-123657735D01*
X83480948Y-123657737D01*
X83413123Y-123821484D01*
X83413120Y-123821494D01*
X83378544Y-123995320D01*
X83378544Y-124172575D01*
X83413120Y-124346401D01*
X83413123Y-124346411D01*
X83480948Y-124510158D01*
X83480949Y-124510160D01*
X83579423Y-124657536D01*
X83579426Y-124657540D01*
X83704751Y-124782865D01*
X83704755Y-124782868D01*
X83852129Y-124881341D01*
X83852130Y-124881341D01*
X83852131Y-124881342D01*
X83852133Y-124881343D01*
X83951296Y-124922417D01*
X84005700Y-124966257D01*
X84027765Y-125032551D01*
X84027844Y-125036978D01*
X84027844Y-125750500D01*
X84008159Y-125817539D01*
X83955355Y-125863294D01*
X83903844Y-125874500D01*
X83514364Y-125874500D01*
X83441375Y-125885134D01*
X83441373Y-125885134D01*
X83441371Y-125885135D01*
X83328790Y-125940172D01*
X83304801Y-125964161D01*
X83243477Y-125997645D01*
X83173786Y-125992659D01*
X83117853Y-125950787D01*
X83111582Y-125941575D01*
X83022571Y-125797266D01*
X82902732Y-125677427D01*
X82902728Y-125677424D01*
X82758492Y-125588457D01*
X82758483Y-125588453D01*
X82634860Y-125547488D01*
X82577416Y-125507715D01*
X82550593Y-125443199D01*
X82562908Y-125374423D01*
X82610452Y-125323223D01*
X82630533Y-125313600D01*
X82729728Y-125276603D01*
X82729737Y-125276598D01*
X82844831Y-125190438D01*
X82844834Y-125190435D01*
X82930994Y-125075341D01*
X82930998Y-125075334D01*
X82981240Y-124940627D01*
X82981242Y-124940620D01*
X82987643Y-124881092D01*
X82987644Y-124881075D01*
X82987644Y-124333948D01*
X82165930Y-124333948D01*
X82199890Y-124275127D01*
X82233644Y-124149155D01*
X82233644Y-124018741D01*
X82199890Y-123892769D01*
X82165930Y-123833948D01*
X82987644Y-123833948D01*
X82987644Y-123286819D01*
X82987643Y-123286803D01*
X82981242Y-123227275D01*
X82981240Y-123227268D01*
X82930998Y-123092561D01*
X82930994Y-123092554D01*
X82844834Y-122977460D01*
X82844831Y-122977457D01*
X82729737Y-122891297D01*
X82729730Y-122891293D01*
X82595023Y-122841051D01*
X82595016Y-122841049D01*
X82535488Y-122834648D01*
X81988344Y-122834648D01*
X81988344Y-123656362D01*
X81929523Y-123622402D01*
X81803551Y-123588648D01*
X81673137Y-123588648D01*
X81547165Y-123622402D01*
X81488344Y-123656362D01*
X81488344Y-122834648D01*
X80941199Y-122834648D01*
X80881671Y-122841049D01*
X80881664Y-122841051D01*
X80746957Y-122891293D01*
X80746950Y-122891297D01*
X80631856Y-122977457D01*
X80631853Y-122977460D01*
X80545693Y-123092554D01*
X80545689Y-123092561D01*
X80495447Y-123227268D01*
X80495445Y-123227275D01*
X80489044Y-123286803D01*
X80489044Y-123833948D01*
X81310758Y-123833948D01*
X81276798Y-123892769D01*
X81243044Y-124018741D01*
X81243044Y-124149155D01*
X81276798Y-124275127D01*
X81310758Y-124333948D01*
X80489044Y-124333948D01*
X80489044Y-124881092D01*
X80495445Y-124940620D01*
X80495447Y-124940627D01*
X80545689Y-125075334D01*
X80545693Y-125075341D01*
X80631853Y-125190435D01*
X80631856Y-125190438D01*
X80746950Y-125276598D01*
X80746957Y-125276602D01*
X80881664Y-125326844D01*
X80881671Y-125326846D01*
X80941199Y-125333247D01*
X80941216Y-125333248D01*
X81488344Y-125333248D01*
X81488344Y-124511533D01*
X81547165Y-124545494D01*
X81673137Y-124579248D01*
X81803551Y-124579248D01*
X81929523Y-124545494D01*
X81988344Y-124511533D01*
X81988344Y-125344835D01*
X82007891Y-125380633D01*
X82002907Y-125450325D01*
X81961035Y-125506258D01*
X81899328Y-125530349D01*
X81852392Y-125535144D01*
X81691518Y-125588452D01*
X81691507Y-125588457D01*
X81547271Y-125677424D01*
X81547267Y-125677427D01*
X81427427Y-125797267D01*
X81427424Y-125797271D01*
X81338457Y-125941507D01*
X81338452Y-125941518D01*
X81285144Y-126102393D01*
X81275000Y-126201677D01*
X81275000Y-126250000D01*
X82101000Y-126250000D01*
X82168039Y-126269685D01*
X82213794Y-126322489D01*
X82225000Y-126374000D01*
X82225000Y-126500000D01*
X82351000Y-126500000D01*
X82418039Y-126519685D01*
X82463794Y-126572489D01*
X82475000Y-126624000D01*
X82475000Y-127474999D01*
X82498308Y-127474999D01*
X82498322Y-127474998D01*
X82597607Y-127464855D01*
X82758481Y-127411547D01*
X82758492Y-127411542D01*
X82902728Y-127322575D01*
X82902732Y-127322572D01*
X83022571Y-127202733D01*
X83111582Y-127058424D01*
X83163530Y-127011700D01*
X83232493Y-127000477D01*
X83296575Y-127028321D01*
X83304802Y-127035840D01*
X83328789Y-127059827D01*
X83404958Y-127097063D01*
X83441375Y-127114866D01*
X83468378Y-127118800D01*
X83531877Y-127147943D01*
X83569542Y-127206791D01*
X83574500Y-127241504D01*
X83574500Y-127782142D01*
X83554815Y-127849181D01*
X83504960Y-127893543D01*
X83418514Y-127935803D01*
X83335803Y-128018514D01*
X83284426Y-128123608D01*
X83274500Y-128191739D01*
X83274500Y-128808260D01*
X83284426Y-128876391D01*
X83335803Y-128981485D01*
X83418514Y-129064196D01*
X83418515Y-129064196D01*
X83418517Y-129064198D01*
X83523607Y-129115573D01*
X83552632Y-129119802D01*
X83591739Y-129125500D01*
X83591740Y-129125500D01*
X84058261Y-129125500D01*
X84091403Y-129120671D01*
X84126393Y-129115573D01*
X84231483Y-129064198D01*
X84314198Y-128981483D01*
X84365573Y-128876393D01*
X84375500Y-128808260D01*
X84375500Y-128191740D01*
X84374360Y-128183919D01*
X84365573Y-128123608D01*
X84365573Y-128123607D01*
X84314198Y-128018517D01*
X84314196Y-128018515D01*
X84314196Y-128018514D01*
X84231485Y-127935803D01*
X84145040Y-127893543D01*
X84093457Y-127846415D01*
X84075500Y-127782142D01*
X84075500Y-127208464D01*
X84095185Y-127141425D01*
X84145038Y-127097064D01*
X84221211Y-127059826D01*
X84309826Y-126971211D01*
X84309827Y-126971210D01*
X84345809Y-126897607D01*
X84364866Y-126858625D01*
X84375500Y-126785636D01*
X84375500Y-126305123D01*
X84395185Y-126238084D01*
X84411819Y-126217442D01*
X84420241Y-126209020D01*
X84490708Y-126138553D01*
X84528844Y-126046484D01*
X84528844Y-125036978D01*
X84548529Y-124969939D01*
X84601333Y-124924184D01*
X84605392Y-124922417D01*
X84704554Y-124881343D01*
X84704553Y-124881343D01*
X84704559Y-124881341D01*
X84851933Y-124782868D01*
X84977264Y-124657537D01*
X85075737Y-124510163D01*
X85116813Y-124410996D01*
X85129355Y-124395430D01*
X85137661Y-124377245D01*
X85150830Y-124368781D01*
X85160653Y-124356592D01*
X85179622Y-124350278D01*
X85196439Y-124339471D01*
X85223998Y-124335508D01*
X85226947Y-124334527D01*
X85231374Y-124334448D01*
X85428825Y-124334448D01*
X85495864Y-124354133D01*
X85516506Y-124370767D01*
X85713181Y-124567442D01*
X85746666Y-124628765D01*
X85749500Y-124655123D01*
X85749500Y-134490244D01*
X85747973Y-134509642D01*
X85740361Y-134557702D01*
X85739632Y-134559945D01*
X85739757Y-134561192D01*
X85728372Y-134594600D01*
X85710766Y-134629153D01*
X85687963Y-134660538D01*
X85660538Y-134687963D01*
X85629153Y-134710766D01*
X85594600Y-134728372D01*
X85557702Y-134740361D01*
X85522884Y-134745875D01*
X85509640Y-134747973D01*
X85490244Y-134749500D01*
X79950170Y-134749500D01*
X79858102Y-134787636D01*
X77987636Y-136658102D01*
X77949500Y-136750170D01*
X77949500Y-137371538D01*
X77929815Y-137438577D01*
X77877011Y-137484332D01*
X77863823Y-137489467D01*
X77837081Y-137498156D01*
X77776590Y-137517811D01*
X77621898Y-137596632D01*
X77481449Y-137698672D01*
X77358672Y-137821449D01*
X77256632Y-137961898D01*
X77177811Y-138116590D01*
X77150984Y-138199154D01*
X77124159Y-138281713D01*
X77124158Y-138281716D01*
X77124158Y-138281718D01*
X77097000Y-138453186D01*
X77097000Y-138626813D01*
X77124158Y-138798281D01*
X77124159Y-138798287D01*
X77164939Y-138923794D01*
X77177811Y-138963409D01*
X77256632Y-139118101D01*
X77358672Y-139258550D01*
X77481449Y-139381327D01*
X77612876Y-139476812D01*
X77621902Y-139483370D01*
X77693086Y-139519640D01*
X77776590Y-139562188D01*
X77776592Y-139562188D01*
X77776595Y-139562190D01*
X77941713Y-139615841D01*
X78027452Y-139629420D01*
X78113187Y-139643000D01*
X78113192Y-139643000D01*
X78286813Y-139643000D01*
X78364753Y-139630655D01*
X78458287Y-139615841D01*
X78587095Y-139573988D01*
X81575000Y-139573988D01*
X81575000Y-139662500D01*
X82075000Y-139662500D01*
X82425000Y-139662500D01*
X82575000Y-139662500D01*
X82925000Y-139662500D01*
X83075000Y-139662500D01*
X83075000Y-139031450D01*
X83074998Y-139031449D01*
X83016181Y-139039192D01*
X82983812Y-139039192D01*
X82925000Y-139031448D01*
X82925000Y-139662500D01*
X82575000Y-139662500D01*
X82575000Y-139031450D01*
X82574998Y-139031449D01*
X82516181Y-139039192D01*
X82483812Y-139039192D01*
X82425000Y-139031448D01*
X82425000Y-139662500D01*
X82075000Y-139662500D01*
X82075000Y-139031449D01*
X82074999Y-139031449D01*
X82009140Y-139040118D01*
X82009128Y-139040122D01*
X81866219Y-139099316D01*
X81866213Y-139099319D01*
X81743490Y-139193489D01*
X81743489Y-139193490D01*
X81649319Y-139316213D01*
X81649316Y-139316219D01*
X81590122Y-139459128D01*
X81590120Y-139459133D01*
X81575000Y-139573988D01*
X78587095Y-139573988D01*
X78623405Y-139562190D01*
X78778098Y-139483370D01*
X78918556Y-139381322D01*
X79041322Y-139258556D01*
X79041324Y-139258552D01*
X79041327Y-139258550D01*
X79088596Y-139193489D01*
X79143370Y-139118098D01*
X79222190Y-138963405D01*
X79275841Y-138798287D01*
X79290655Y-138704753D01*
X79303000Y-138626813D01*
X79303000Y-138453186D01*
X79288186Y-138359658D01*
X79275841Y-138281713D01*
X79222190Y-138116595D01*
X79222188Y-138116592D01*
X79222188Y-138116590D01*
X79193593Y-138060470D01*
X79143370Y-137961902D01*
X79136812Y-137952876D01*
X79041327Y-137821449D01*
X78918550Y-137698672D01*
X78778101Y-137596632D01*
X78778100Y-137596631D01*
X78778098Y-137596630D01*
X78705868Y-137559827D01*
X78623409Y-137517811D01*
X78568592Y-137500000D01*
X78536180Y-137489468D01*
X78515778Y-137475518D01*
X78493297Y-137465251D01*
X78487443Y-137456142D01*
X78478506Y-137450031D01*
X78468885Y-137427265D01*
X78455523Y-137406473D01*
X78453163Y-137390062D01*
X78451308Y-137385672D01*
X78450500Y-137371538D01*
X78450500Y-137298322D01*
X81275001Y-137298322D01*
X81285144Y-137397607D01*
X81338452Y-137558481D01*
X81338457Y-137558492D01*
X81427424Y-137702728D01*
X81427427Y-137702732D01*
X81547267Y-137822572D01*
X81547271Y-137822575D01*
X81691507Y-137911542D01*
X81691518Y-137911547D01*
X81852393Y-137964855D01*
X81951683Y-137974999D01*
X81975000Y-137974998D01*
X81975000Y-137250000D01*
X81275001Y-137250000D01*
X81275001Y-137298322D01*
X78450500Y-137298322D01*
X78450500Y-136955123D01*
X78470185Y-136888084D01*
X78486819Y-136867442D01*
X78652584Y-136701677D01*
X81275000Y-136701677D01*
X81275000Y-136750000D01*
X81975000Y-136750000D01*
X81975000Y-136024999D01*
X81951693Y-136025000D01*
X81951674Y-136025001D01*
X81852392Y-136035144D01*
X81691518Y-136088452D01*
X81691507Y-136088457D01*
X81547271Y-136177424D01*
X81547267Y-136177427D01*
X81427427Y-136297267D01*
X81427424Y-136297271D01*
X81338457Y-136441507D01*
X81338452Y-136441518D01*
X81285144Y-136602393D01*
X81275000Y-136701677D01*
X78652584Y-136701677D01*
X80067442Y-135286819D01*
X80128765Y-135253334D01*
X80155123Y-135250500D01*
X85450172Y-135250500D01*
X85455830Y-135250500D01*
X85490244Y-135250500D01*
X85509631Y-135252025D01*
X85557706Y-135259639D01*
X85594595Y-135271625D01*
X85629156Y-135289235D01*
X85660538Y-135312036D01*
X85687963Y-135339461D01*
X85710766Y-135370846D01*
X85728372Y-135405399D01*
X85740361Y-135442297D01*
X85747973Y-135490357D01*
X85749500Y-135509755D01*
X85749500Y-136490244D01*
X85747973Y-136509642D01*
X85740361Y-136557702D01*
X85728372Y-136594600D01*
X85710766Y-136629153D01*
X85687963Y-136660538D01*
X85660538Y-136687963D01*
X85629153Y-136710766D01*
X85594600Y-136728372D01*
X85557702Y-136740361D01*
X85522884Y-136745875D01*
X85509640Y-136747973D01*
X85490244Y-136749500D01*
X84487862Y-136749500D01*
X84420823Y-136729815D01*
X84375068Y-136677011D01*
X84365158Y-136643379D01*
X84364866Y-136641375D01*
X84323961Y-136557702D01*
X84309827Y-136528789D01*
X84221210Y-136440172D01*
X84108628Y-136385135D01*
X84108626Y-136385134D01*
X84108625Y-136385134D01*
X84035636Y-136374500D01*
X83514364Y-136374500D01*
X83441375Y-136385134D01*
X83441373Y-136385134D01*
X83441371Y-136385135D01*
X83328790Y-136440172D01*
X83304801Y-136464161D01*
X83243477Y-136497645D01*
X83173786Y-136492659D01*
X83117853Y-136450787D01*
X83111582Y-136441575D01*
X83022571Y-136297266D01*
X82902732Y-136177427D01*
X82902728Y-136177424D01*
X82758492Y-136088457D01*
X82758481Y-136088452D01*
X82597606Y-136035144D01*
X82498322Y-136025000D01*
X82475000Y-136025000D01*
X82475000Y-137974999D01*
X82498308Y-137974999D01*
X82498322Y-137974998D01*
X82597607Y-137964855D01*
X82758481Y-137911547D01*
X82758492Y-137911542D01*
X82902728Y-137822575D01*
X82902732Y-137822572D01*
X83022571Y-137702733D01*
X83111582Y-137558424D01*
X83163530Y-137511700D01*
X83232493Y-137500477D01*
X83296575Y-137528321D01*
X83304802Y-137535840D01*
X83328789Y-137559827D01*
X83436572Y-137612518D01*
X83441375Y-137614866D01*
X83514364Y-137625500D01*
X83514370Y-137625500D01*
X84035630Y-137625500D01*
X84035636Y-137625500D01*
X84108625Y-137614866D01*
X84166118Y-137586759D01*
X84221210Y-137559827D01*
X84309827Y-137471210D01*
X84336759Y-137416118D01*
X84364866Y-137358625D01*
X84365157Y-137356622D01*
X84366159Y-137354439D01*
X84367709Y-137349425D01*
X84368367Y-137349628D01*
X84394301Y-137293123D01*
X84453149Y-137255458D01*
X84487862Y-137250500D01*
X85455830Y-137250500D01*
X85490244Y-137250500D01*
X85509631Y-137252025D01*
X85557706Y-137259639D01*
X85594595Y-137271625D01*
X85629156Y-137289235D01*
X85660538Y-137312036D01*
X85687963Y-137339461D01*
X85710765Y-137370845D01*
X85724401Y-137397607D01*
X85728372Y-137405399D01*
X85740361Y-137442297D01*
X85744940Y-137471211D01*
X85747973Y-137490357D01*
X85749500Y-137509755D01*
X85749500Y-139990244D01*
X85747973Y-140009642D01*
X85740361Y-140057702D01*
X85728372Y-140094600D01*
X85710766Y-140129153D01*
X85687963Y-140160538D01*
X85660538Y-140187963D01*
X85629153Y-140210766D01*
X85594600Y-140228372D01*
X85557702Y-140240361D01*
X85522884Y-140245875D01*
X85509640Y-140247973D01*
X85490244Y-140249500D01*
X84359559Y-140249500D01*
X84310016Y-140239173D01*
X84299869Y-140234750D01*
X84230363Y-140188309D01*
X84162205Y-140174751D01*
X84149957Y-140169413D01*
X84132993Y-140155222D01*
X84113397Y-140144972D01*
X84106717Y-140133242D01*
X84096366Y-140124583D01*
X84089768Y-140103476D01*
X84078823Y-140084256D01*
X84075889Y-140059078D01*
X84075519Y-140057895D01*
X84075682Y-140057301D01*
X84075500Y-140055740D01*
X84075500Y-139589055D01*
X84061692Y-139519640D01*
X84061691Y-139519637D01*
X84009089Y-139440911D01*
X83930363Y-139388309D01*
X83930362Y-139388308D01*
X83919079Y-139383635D01*
X83920679Y-139379770D01*
X83879165Y-139358056D01*
X83855259Y-139322957D01*
X83854745Y-139323254D01*
X83850759Y-139316350D01*
X83850701Y-139316265D01*
X83850679Y-139316212D01*
X83756510Y-139193490D01*
X83756509Y-139193489D01*
X83633786Y-139099319D01*
X83633780Y-139099316D01*
X83490868Y-139040121D01*
X83425000Y-139031448D01*
X83425000Y-139577890D01*
X83424999Y-139578347D01*
X83424968Y-139586704D01*
X83424500Y-139589058D01*
X83424500Y-139713685D01*
X83424499Y-139713957D01*
X83414561Y-139747345D01*
X83404815Y-139780539D01*
X83404636Y-139780693D01*
X83404568Y-139780924D01*
X83378042Y-139803737D01*
X83352011Y-139826294D01*
X83351749Y-139826350D01*
X83351595Y-139826484D01*
X83350311Y-139826663D01*
X83300500Y-139837500D01*
X83250000Y-139837500D01*
X83250000Y-139888500D01*
X83230315Y-139955539D01*
X83177511Y-140001294D01*
X83126000Y-140012500D01*
X82925000Y-140012500D01*
X82925000Y-140643548D01*
X82973745Y-140637132D01*
X83042780Y-140647900D01*
X83095034Y-140694281D01*
X83113918Y-140761551D01*
X83112866Y-140776258D01*
X83106448Y-140824999D01*
X83106449Y-140825000D01*
X83652890Y-140825000D01*
X83663068Y-140825500D01*
X83664058Y-140825500D01*
X84161932Y-140825500D01*
X84172110Y-140825000D01*
X84718550Y-140825000D01*
X84746842Y-140792740D01*
X84805844Y-140755317D01*
X84840069Y-140750500D01*
X85455830Y-140750500D01*
X85490244Y-140750500D01*
X85509631Y-140752025D01*
X85557706Y-140759639D01*
X85594595Y-140771625D01*
X85629156Y-140789235D01*
X85660538Y-140812036D01*
X85687963Y-140839461D01*
X85710765Y-140870845D01*
X85721619Y-140892147D01*
X85728372Y-140905399D01*
X85740361Y-140942297D01*
X85747973Y-140990357D01*
X85749500Y-141009755D01*
X85749500Y-145490244D01*
X85747973Y-145509642D01*
X85740361Y-145557702D01*
X85728372Y-145594600D01*
X85710766Y-145629153D01*
X85687963Y-145660538D01*
X85660538Y-145687963D01*
X85629153Y-145710766D01*
X85594600Y-145728372D01*
X85557702Y-145740361D01*
X85522884Y-145745875D01*
X85509640Y-145747973D01*
X85490244Y-145749500D01*
X84488686Y-145749500D01*
X84421647Y-145729815D01*
X84375892Y-145677011D01*
X84365982Y-145643380D01*
X84365043Y-145636933D01*
X84310919Y-145526220D01*
X84310917Y-145526218D01*
X84310917Y-145526217D01*
X84223782Y-145439082D01*
X84113067Y-145384957D01*
X84041295Y-145374500D01*
X84041289Y-145374500D01*
X83533704Y-145374500D01*
X83503852Y-145378850D01*
X83434675Y-145369035D01*
X83381786Y-145323379D01*
X83361976Y-145256376D01*
X83381536Y-145189300D01*
X83398295Y-145168464D01*
X83601904Y-144964855D01*
X83901331Y-144665427D01*
X83904966Y-144661795D01*
X83935457Y-144645156D01*
X83966265Y-144628334D01*
X83966290Y-144628331D01*
X83966298Y-144628327D01*
X83966317Y-144628328D01*
X83992623Y-144625500D01*
X84035630Y-144625500D01*
X84035636Y-144625500D01*
X84108625Y-144614866D01*
X84166118Y-144586759D01*
X84221210Y-144559827D01*
X84309827Y-144471210D01*
X84345809Y-144397607D01*
X84364866Y-144358625D01*
X84375500Y-144285636D01*
X84375500Y-143714364D01*
X84364866Y-143641375D01*
X84345809Y-143602393D01*
X84309827Y-143528789D01*
X84221210Y-143440172D01*
X84108627Y-143385134D01*
X84108621Y-143385132D01*
X84106614Y-143384840D01*
X84104430Y-143383837D01*
X84099425Y-143382291D01*
X84099628Y-143381633D01*
X84043115Y-143355691D01*
X84005455Y-143296840D01*
X84000500Y-143262137D01*
X84000500Y-142609557D01*
X84020185Y-142542518D01*
X84021367Y-142540712D01*
X84061691Y-142480363D01*
X84065845Y-142459479D01*
X84075500Y-142410944D01*
X84075500Y-142296976D01*
X84095185Y-142229937D01*
X84147989Y-142184182D01*
X84183317Y-142174037D01*
X84290859Y-142159880D01*
X84290871Y-142159877D01*
X84433780Y-142100683D01*
X84433786Y-142100680D01*
X84556509Y-142006510D01*
X84556510Y-142006509D01*
X84650680Y-141883786D01*
X84650683Y-141883780D01*
X84709878Y-141740868D01*
X84718551Y-141675000D01*
X83106449Y-141675000D01*
X83091906Y-141691583D01*
X83074532Y-141702602D01*
X83060279Y-141717440D01*
X83045623Y-141720937D01*
X83032903Y-141729006D01*
X83012331Y-141728883D01*
X82992318Y-141733660D01*
X82977284Y-141728674D01*
X82963035Y-141728590D01*
X82948511Y-141719133D01*
X82942054Y-141716991D01*
X82941644Y-141717982D01*
X82930359Y-141713307D01*
X82860944Y-141699500D01*
X82860942Y-141699500D01*
X82674500Y-141699500D01*
X82607461Y-141679815D01*
X82561706Y-141627011D01*
X82550500Y-141575500D01*
X82550500Y-141390473D01*
X82550500Y-141389058D01*
X82537758Y-141324999D01*
X83106448Y-141324999D01*
X83106449Y-141325000D01*
X84718549Y-141325000D01*
X84718549Y-141324999D01*
X84710807Y-141266186D01*
X84710807Y-141233814D01*
X84718551Y-141175000D01*
X83106451Y-141175000D01*
X83106449Y-141175001D01*
X83114192Y-141233818D01*
X83114192Y-141266187D01*
X83106448Y-141324999D01*
X82537758Y-141324999D01*
X82536691Y-141319637D01*
X82525411Y-141302755D01*
X82520075Y-141284099D01*
X82520189Y-141267784D01*
X82515314Y-141252215D01*
X82520429Y-141233567D01*
X82520565Y-141214231D01*
X82529481Y-141200567D01*
X82533798Y-141184834D01*
X82536193Y-141181108D01*
X82536691Y-141180363D01*
X82550500Y-141110942D01*
X82550500Y-140889058D01*
X82550500Y-140889055D01*
X82536692Y-140819640D01*
X82532018Y-140808357D01*
X82533208Y-140807863D01*
X82516196Y-140753535D01*
X82534680Y-140686155D01*
X82558417Y-140658092D01*
X82575000Y-140643549D01*
X82575000Y-140012500D01*
X81575001Y-140012500D01*
X81575001Y-140101005D01*
X81576095Y-140109317D01*
X81565327Y-140178352D01*
X81518946Y-140230607D01*
X81453155Y-140249500D01*
X63564270Y-140249500D01*
X63564262Y-140249499D01*
X63549828Y-140249499D01*
X63450172Y-140249499D01*
X63450170Y-140249499D01*
X63450168Y-140249500D01*
X63385072Y-140276463D01*
X63385069Y-140276465D01*
X63358103Y-140287636D01*
X63358099Y-140287639D01*
X63287635Y-140358104D01*
X62840662Y-140805076D01*
X62840661Y-140805076D01*
X62840662Y-140805077D01*
X62787636Y-140858103D01*
X62749500Y-140950170D01*
X62749500Y-142373358D01*
X62729815Y-142440397D01*
X62677011Y-142486152D01*
X62661505Y-142492016D01*
X62656790Y-142493446D01*
X62467613Y-142571806D01*
X62297354Y-142685568D01*
X62152568Y-142830354D01*
X62038806Y-143000613D01*
X61960447Y-143189788D01*
X61960445Y-143189796D01*
X61920500Y-143390613D01*
X61459499Y-143390613D01*
X61419553Y-143189789D01*
X61341193Y-143000612D01*
X61227433Y-142830357D01*
X61227431Y-142830354D01*
X61082645Y-142685568D01*
X60992391Y-142625263D01*
X60912388Y-142571807D01*
X60912383Y-142571805D01*
X60723211Y-142493447D01*
X60723203Y-142493445D01*
X60522386Y-142453500D01*
X60522382Y-142453500D01*
X60317618Y-142453500D01*
X60317613Y-142453500D01*
X60116796Y-142493445D01*
X60116788Y-142493447D01*
X59927613Y-142571806D01*
X59757354Y-142685568D01*
X59612568Y-142830354D01*
X59498806Y-143000613D01*
X59420447Y-143189788D01*
X59420445Y-143189796D01*
X59380500Y-143390613D01*
X58919499Y-143390613D01*
X58879553Y-143189789D01*
X58801193Y-143000612D01*
X58687433Y-142830357D01*
X58687431Y-142830354D01*
X58542645Y-142685568D01*
X58452391Y-142625263D01*
X58372388Y-142571807D01*
X58372383Y-142571805D01*
X58183211Y-142493447D01*
X58183203Y-142493445D01*
X57982386Y-142453500D01*
X57982382Y-142453500D01*
X57777618Y-142453500D01*
X57777613Y-142453500D01*
X57576796Y-142493445D01*
X57576788Y-142493447D01*
X57387613Y-142571806D01*
X57217354Y-142685568D01*
X57072568Y-142830354D01*
X56958806Y-143000613D01*
X56880447Y-143189788D01*
X56880445Y-143189796D01*
X56840500Y-143390613D01*
X56379499Y-143390613D01*
X56339553Y-143189789D01*
X56261193Y-143000612D01*
X56147433Y-142830357D01*
X56147431Y-142830354D01*
X56002645Y-142685568D01*
X55912391Y-142625263D01*
X55832388Y-142571807D01*
X55832383Y-142571805D01*
X55643211Y-142493447D01*
X55643203Y-142493445D01*
X55442386Y-142453500D01*
X55442382Y-142453500D01*
X55237618Y-142453500D01*
X55237613Y-142453500D01*
X55036796Y-142493445D01*
X55036788Y-142493447D01*
X54847613Y-142571806D01*
X54677354Y-142685568D01*
X54532568Y-142830354D01*
X54418806Y-143000613D01*
X54340447Y-143189788D01*
X54340445Y-143189796D01*
X54300500Y-143390613D01*
X53839499Y-143390613D01*
X53799553Y-143189789D01*
X53721193Y-143000612D01*
X53607433Y-142830357D01*
X53607431Y-142830354D01*
X53462645Y-142685568D01*
X53372391Y-142625263D01*
X53292388Y-142571807D01*
X53292383Y-142571805D01*
X53103211Y-142493447D01*
X53103203Y-142493445D01*
X52902386Y-142453500D01*
X52902382Y-142453500D01*
X52697618Y-142453500D01*
X52697613Y-142453500D01*
X52496796Y-142493445D01*
X52496788Y-142493447D01*
X52307613Y-142571806D01*
X52137354Y-142685568D01*
X51992568Y-142830354D01*
X51878806Y-143000613D01*
X51800447Y-143189788D01*
X51800445Y-143189796D01*
X51760500Y-143390613D01*
X51250500Y-143390613D01*
X51250500Y-134155123D01*
X51270185Y-134088084D01*
X51286819Y-134067442D01*
X52008575Y-133345686D01*
X76747500Y-133345686D01*
X76747500Y-133574313D01*
X76783265Y-133800124D01*
X76783265Y-133800125D01*
X76853917Y-134017568D01*
X76957711Y-134221276D01*
X77011347Y-134295098D01*
X77011347Y-134295099D01*
X77710504Y-133595941D01*
X77726619Y-133656081D01*
X77793498Y-133771920D01*
X77888080Y-133866502D01*
X78003919Y-133933381D01*
X78064057Y-133949494D01*
X77364899Y-134648651D01*
X77438725Y-134702288D01*
X77438731Y-134702292D01*
X77642431Y-134806082D01*
X77859875Y-134876734D01*
X78085687Y-134912500D01*
X78314313Y-134912500D01*
X78540124Y-134876734D01*
X78540125Y-134876734D01*
X78757568Y-134806082D01*
X78961276Y-134702288D01*
X79035098Y-134648651D01*
X78335942Y-133949495D01*
X78396081Y-133933381D01*
X78511920Y-133866502D01*
X78606502Y-133771920D01*
X78673381Y-133656081D01*
X78689494Y-133595942D01*
X79388651Y-134295099D01*
X79388651Y-134295098D01*
X79442288Y-134221276D01*
X79546082Y-134017568D01*
X79616734Y-133800125D01*
X79616734Y-133800124D01*
X79652500Y-133574313D01*
X79652500Y-133345686D01*
X79616734Y-133119875D01*
X79616734Y-133119874D01*
X79546082Y-132902431D01*
X79442292Y-132698731D01*
X79442288Y-132698725D01*
X79388651Y-132624900D01*
X79388651Y-132624899D01*
X78689494Y-133324056D01*
X78673381Y-133263919D01*
X78606502Y-133148080D01*
X78511920Y-133053498D01*
X78396081Y-132986619D01*
X78335940Y-132970504D01*
X79035099Y-132271347D01*
X78961276Y-132217711D01*
X78757568Y-132113917D01*
X78540124Y-132043265D01*
X78314313Y-132007500D01*
X78085687Y-132007500D01*
X77859875Y-132043265D01*
X77859874Y-132043265D01*
X77642431Y-132113917D01*
X77438719Y-132217713D01*
X77364900Y-132271346D01*
X77364899Y-132271347D01*
X78064057Y-132970504D01*
X78003919Y-132986619D01*
X77888080Y-133053498D01*
X77793498Y-133148080D01*
X77726619Y-133263919D01*
X77710504Y-133324057D01*
X77011347Y-132624899D01*
X77011346Y-132624900D01*
X76957713Y-132698719D01*
X76853917Y-132902431D01*
X76783265Y-133119874D01*
X76783265Y-133119875D01*
X76747500Y-133345686D01*
X52008575Y-133345686D01*
X53067442Y-132286819D01*
X53128765Y-132253334D01*
X53155123Y-132250500D01*
X69049826Y-132250500D01*
X69049828Y-132250500D01*
X69141897Y-132212364D01*
X71212364Y-130141897D01*
X71250500Y-130049828D01*
X71250500Y-129950172D01*
X71250500Y-128191739D01*
X81624500Y-128191739D01*
X81624500Y-128808260D01*
X81634426Y-128876391D01*
X81685803Y-128981485D01*
X81768514Y-129064196D01*
X81768515Y-129064196D01*
X81768517Y-129064198D01*
X81817459Y-129088124D01*
X81873607Y-129115573D01*
X81874604Y-129115881D01*
X81875634Y-129116564D01*
X81882258Y-129119802D01*
X81881832Y-129120671D01*
X81932845Y-129154478D01*
X81960974Y-129218435D01*
X81962000Y-129234355D01*
X81962000Y-129770854D01*
X81942315Y-129837893D01*
X81892460Y-129882254D01*
X81776220Y-129939079D01*
X81689082Y-130026217D01*
X81654276Y-130097416D01*
X81634957Y-130136933D01*
X81624500Y-130208705D01*
X81624500Y-130208709D01*
X81624500Y-130208710D01*
X81624500Y-130791293D01*
X81634957Y-130863067D01*
X81689082Y-130973782D01*
X81776217Y-131060917D01*
X81776218Y-131060917D01*
X81776220Y-131060919D01*
X81886933Y-131115043D01*
X81958705Y-131125500D01*
X82466294Y-131125499D01*
X82538067Y-131115043D01*
X82648780Y-131060919D01*
X82704729Y-131004969D01*
X82766050Y-130971486D01*
X82835742Y-130976470D01*
X82891676Y-131018341D01*
X82910115Y-131053648D01*
X82912906Y-131062072D01*
X82912908Y-131062077D01*
X83001114Y-131205080D01*
X83119919Y-131323885D01*
X83262922Y-131412091D01*
X83262927Y-131412093D01*
X83422416Y-131464942D01*
X83520856Y-131474999D01*
X84037500Y-131474999D01*
X84054136Y-131474999D01*
X84054152Y-131474998D01*
X84152583Y-131464943D01*
X84312072Y-131412093D01*
X84312077Y-131412091D01*
X84455080Y-131323885D01*
X84573885Y-131205080D01*
X84662091Y-131062077D01*
X84662093Y-131062072D01*
X84714942Y-130902583D01*
X84724999Y-130804150D01*
X84725000Y-130804137D01*
X84725000Y-130750000D01*
X84037500Y-130750000D01*
X84037500Y-131474999D01*
X83520856Y-131474999D01*
X83537500Y-131474998D01*
X83537500Y-130250000D01*
X84037500Y-130250000D01*
X84724999Y-130250000D01*
X84724999Y-130195864D01*
X84724998Y-130195847D01*
X84714943Y-130097416D01*
X84662093Y-129937927D01*
X84662091Y-129937922D01*
X84573885Y-129794919D01*
X84455080Y-129676114D01*
X84312077Y-129587908D01*
X84312072Y-129587906D01*
X84152583Y-129535057D01*
X84054150Y-129525000D01*
X84037500Y-129525000D01*
X84037500Y-130250000D01*
X83537500Y-130250000D01*
X83537500Y-129524999D01*
X83520856Y-129525000D01*
X83422415Y-129535057D01*
X83262927Y-129587906D01*
X83262922Y-129587908D01*
X83119919Y-129676114D01*
X83001114Y-129794919D01*
X82912908Y-129937922D01*
X82912905Y-129937928D01*
X82910114Y-129946354D01*
X82870340Y-130003798D01*
X82805824Y-130030619D01*
X82737048Y-130018303D01*
X82723782Y-130010625D01*
X82713475Y-130003776D01*
X82648780Y-129939081D01*
X82538067Y-129884957D01*
X82533707Y-129884321D01*
X82518373Y-129874132D01*
X82500953Y-129853395D01*
X82480957Y-129835127D01*
X82478640Y-129826835D01*
X82473431Y-129820634D01*
X82470482Y-129797636D01*
X82463000Y-129770854D01*
X82463000Y-129199525D01*
X82482685Y-129132486D01*
X82532538Y-129088125D01*
X82581483Y-129064198D01*
X82664198Y-128981483D01*
X82715573Y-128876393D01*
X82725500Y-128808260D01*
X82725500Y-128191740D01*
X82724360Y-128183919D01*
X82715573Y-128123608D01*
X82715573Y-128123607D01*
X82664198Y-128018517D01*
X82664196Y-128018515D01*
X82664196Y-128018514D01*
X82581485Y-127935803D01*
X82476391Y-127884426D01*
X82408261Y-127874500D01*
X82408260Y-127874500D01*
X81941740Y-127874500D01*
X81941739Y-127874500D01*
X81873608Y-127884426D01*
X81768514Y-127935803D01*
X81685803Y-128018514D01*
X81634426Y-128123608D01*
X81624500Y-128191739D01*
X71250500Y-128191739D01*
X71250500Y-126798322D01*
X81275001Y-126798322D01*
X81285144Y-126897607D01*
X81338452Y-127058481D01*
X81338457Y-127058492D01*
X81427424Y-127202728D01*
X81427427Y-127202732D01*
X81547267Y-127322572D01*
X81547271Y-127322575D01*
X81691507Y-127411542D01*
X81691518Y-127411547D01*
X81852393Y-127464855D01*
X81951683Y-127474999D01*
X81975000Y-127474998D01*
X81975000Y-126750000D01*
X81275001Y-126750000D01*
X81275001Y-126798322D01*
X71250500Y-126798322D01*
X71250500Y-125064270D01*
X71250501Y-125064261D01*
X71250501Y-124950174D01*
X71250500Y-124950170D01*
X71212364Y-124858104D01*
X71212363Y-124858102D01*
X71134832Y-124780571D01*
X71134825Y-124780565D01*
X69725440Y-123371180D01*
X69641079Y-123286819D01*
X68141897Y-121787636D01*
X68104409Y-121772108D01*
X68049829Y-121749500D01*
X68049828Y-121749500D01*
X60695122Y-121749500D01*
X60665681Y-121740855D01*
X60635695Y-121734332D01*
X60630679Y-121730577D01*
X60628083Y-121729815D01*
X60607445Y-121713185D01*
X60468095Y-121573834D01*
X60434612Y-121512513D01*
X60439596Y-121442821D01*
X60441217Y-121438703D01*
X60494793Y-121309358D01*
X60502051Y-121291835D01*
X60534552Y-121128443D01*
X60540500Y-121098543D01*
X60540500Y-120901456D01*
X60502052Y-120708170D01*
X60502051Y-120708169D01*
X60502051Y-120708165D01*
X60502049Y-120708160D01*
X60426635Y-120526092D01*
X60426628Y-120526079D01*
X60317139Y-120362218D01*
X60317136Y-120362214D01*
X60177785Y-120222863D01*
X60177781Y-120222860D01*
X60013920Y-120113371D01*
X60013907Y-120113364D01*
X59831839Y-120037950D01*
X59831829Y-120037947D01*
X59638543Y-119999500D01*
X59638541Y-119999500D01*
X59441459Y-119999500D01*
X59441457Y-119999500D01*
X59248170Y-120037947D01*
X59248160Y-120037950D01*
X59066092Y-120113364D01*
X59066079Y-120113371D01*
X58902218Y-120222860D01*
X58902214Y-120222863D01*
X58762863Y-120362214D01*
X58762860Y-120362218D01*
X58653371Y-120526079D01*
X58653364Y-120526092D01*
X58577950Y-120708160D01*
X58577947Y-120708170D01*
X58539500Y-120901456D01*
X58539500Y-120901459D01*
X58539500Y-121098541D01*
X58539500Y-121098543D01*
X58539499Y-121098543D01*
X58577947Y-121291829D01*
X58577950Y-121291839D01*
X58653364Y-121473907D01*
X58653371Y-121473920D01*
X58762860Y-121637781D01*
X58762863Y-121637785D01*
X58902214Y-121777136D01*
X58902218Y-121777139D01*
X59066079Y-121886628D01*
X59066092Y-121886635D01*
X59248160Y-121962049D01*
X59248165Y-121962051D01*
X59248169Y-121962051D01*
X59248170Y-121962052D01*
X59441456Y-122000500D01*
X59441459Y-122000500D01*
X59638543Y-122000500D01*
X59768582Y-121974632D01*
X59831835Y-121962051D01*
X59960596Y-121908717D01*
X59978703Y-121901217D01*
X60048172Y-121893748D01*
X60110651Y-121925023D01*
X60113836Y-121928097D01*
X60235568Y-122049828D01*
X60327635Y-122141895D01*
X60327636Y-122141897D01*
X60398103Y-122212364D01*
X60436240Y-122228160D01*
X60490173Y-122250501D01*
X60490174Y-122250501D01*
X60604262Y-122250501D01*
X60604270Y-122250500D01*
X67844877Y-122250500D01*
X67911916Y-122270185D01*
X67932558Y-122286819D01*
X70713181Y-125067441D01*
X70746666Y-125128764D01*
X70749500Y-125155122D01*
X70749500Y-129844877D01*
X70729815Y-129911916D01*
X70713181Y-129932558D01*
X68932558Y-131713181D01*
X68871235Y-131746666D01*
X68844877Y-131749500D01*
X52950170Y-131749500D01*
X52858102Y-131787636D01*
X50787636Y-133858102D01*
X50749500Y-133950170D01*
X50500500Y-133950170D01*
X50500500Y-126626613D01*
X51760500Y-126626613D01*
X51760500Y-128609386D01*
X51800445Y-128810203D01*
X51800447Y-128810211D01*
X51878806Y-128999386D01*
X51992568Y-129169645D01*
X52137354Y-129314431D01*
X52137357Y-129314433D01*
X52307612Y-129428193D01*
X52496789Y-129506553D01*
X52640090Y-129535057D01*
X52697613Y-129546499D01*
X52697617Y-129546500D01*
X52697618Y-129546500D01*
X52902383Y-129546500D01*
X52902384Y-129546499D01*
X53103211Y-129506553D01*
X53292388Y-129428193D01*
X53462643Y-129314433D01*
X53607433Y-129169643D01*
X53721193Y-128999388D01*
X53770950Y-128879263D01*
X53814791Y-128824860D01*
X53881085Y-128802795D01*
X53948784Y-128820074D01*
X53996395Y-128871211D01*
X54003442Y-128888398D01*
X54052761Y-129040188D01*
X54052762Y-129040191D01*
X54152023Y-129234998D01*
X54280524Y-129411866D01*
X54280528Y-129411871D01*
X54435128Y-129566471D01*
X54435133Y-129566475D01*
X54612001Y-129694976D01*
X54806808Y-129794237D01*
X54806811Y-129794238D01*
X55014739Y-129861797D01*
X55089999Y-129873717D01*
X55090000Y-129873717D01*
X55090000Y-128822251D01*
X55143919Y-128853381D01*
X55273120Y-128888000D01*
X55406880Y-128888000D01*
X55536081Y-128853381D01*
X55590000Y-128822251D01*
X55590000Y-129873717D01*
X55665258Y-129861797D01*
X55665261Y-129861797D01*
X55873188Y-129794238D01*
X55873191Y-129794237D01*
X56067998Y-129694976D01*
X56244866Y-129566475D01*
X56244871Y-129566471D01*
X56399471Y-129411871D01*
X56399475Y-129411866D01*
X56527976Y-129234998D01*
X56627237Y-129040191D01*
X56627238Y-129040188D01*
X56676557Y-128888398D01*
X56715994Y-128830723D01*
X56780352Y-128803524D01*
X56849199Y-128815438D01*
X56900675Y-128862682D01*
X56909049Y-128879263D01*
X56958805Y-128999386D01*
X57072568Y-129169645D01*
X57217354Y-129314431D01*
X57217357Y-129314433D01*
X57387612Y-129428193D01*
X57576789Y-129506553D01*
X57720090Y-129535057D01*
X57777613Y-129546499D01*
X57777617Y-129546500D01*
X57777618Y-129546500D01*
X57982383Y-129546500D01*
X57982384Y-129546499D01*
X58183211Y-129506553D01*
X58372388Y-129428193D01*
X58542643Y-129314433D01*
X58687433Y-129169643D01*
X58801193Y-128999388D01*
X58879553Y-128810211D01*
X58919500Y-128609382D01*
X58919500Y-126626618D01*
X58879553Y-126425789D01*
X58801193Y-126236612D01*
X58687433Y-126066357D01*
X58687431Y-126066354D01*
X58542645Y-125921568D01*
X58455431Y-125863294D01*
X58372388Y-125807807D01*
X58372383Y-125807805D01*
X58183211Y-125729447D01*
X58183203Y-125729445D01*
X57982386Y-125689500D01*
X57982382Y-125689500D01*
X57777618Y-125689500D01*
X57777613Y-125689500D01*
X57576796Y-125729445D01*
X57576788Y-125729447D01*
X57387613Y-125807806D01*
X57217354Y-125921568D01*
X57072568Y-126066354D01*
X56958805Y-126236614D01*
X56909049Y-126356736D01*
X56865207Y-126411140D01*
X56798913Y-126433204D01*
X56731214Y-126415924D01*
X56683604Y-126364787D01*
X56676557Y-126347601D01*
X56627238Y-126195811D01*
X56627237Y-126195808D01*
X56527976Y-126001001D01*
X56399475Y-125824133D01*
X56399471Y-125824128D01*
X56244871Y-125669528D01*
X56244866Y-125669524D01*
X56067998Y-125541023D01*
X55873191Y-125441762D01*
X55873188Y-125441761D01*
X55665258Y-125374201D01*
X55590000Y-125362281D01*
X55590000Y-127937748D01*
X55536081Y-127906619D01*
X55406880Y-127872000D01*
X55273120Y-127872000D01*
X55143919Y-127906619D01*
X55090000Y-127937748D01*
X55090000Y-125362281D01*
X55014741Y-125374201D01*
X54806811Y-125441761D01*
X54806808Y-125441762D01*
X54612001Y-125541023D01*
X54435133Y-125669524D01*
X54435128Y-125669528D01*
X54280528Y-125824128D01*
X54280524Y-125824133D01*
X54152023Y-126001001D01*
X54052762Y-126195808D01*
X54052761Y-126195811D01*
X54003442Y-126347601D01*
X53964004Y-126405277D01*
X53899646Y-126432475D01*
X53830799Y-126420560D01*
X53779324Y-126373316D01*
X53770950Y-126356736D01*
X53767166Y-126347601D01*
X53721193Y-126236612D01*
X53607433Y-126066357D01*
X53607431Y-126066354D01*
X53462645Y-125921568D01*
X53375431Y-125863294D01*
X53292388Y-125807807D01*
X53292383Y-125807805D01*
X53103211Y-125729447D01*
X53103203Y-125729445D01*
X52902386Y-125689500D01*
X52902382Y-125689500D01*
X52697618Y-125689500D01*
X52697613Y-125689500D01*
X52496796Y-125729445D01*
X52496788Y-125729447D01*
X52307613Y-125807806D01*
X52137354Y-125921568D01*
X51992568Y-126066354D01*
X51878806Y-126236613D01*
X51800447Y-126425788D01*
X51800445Y-126425796D01*
X51760500Y-126626613D01*
X50500500Y-126626613D01*
X50500500Y-122341652D01*
X51043751Y-122341652D01*
X51053806Y-122440083D01*
X51106656Y-122599572D01*
X51106658Y-122599577D01*
X51194864Y-122742580D01*
X51313669Y-122861385D01*
X51456672Y-122949591D01*
X51456677Y-122949593D01*
X51616166Y-123002442D01*
X51714605Y-123012499D01*
X52268750Y-123012499D01*
X52322886Y-123012499D01*
X52322902Y-123012498D01*
X52421333Y-123002443D01*
X52580822Y-122949593D01*
X52580827Y-122949591D01*
X52723830Y-122861385D01*
X52842635Y-122742580D01*
X52930841Y-122599577D01*
X52930843Y-122599572D01*
X52983692Y-122440083D01*
X52993749Y-122341650D01*
X52993750Y-122341637D01*
X52993750Y-122325000D01*
X52268750Y-122325000D01*
X52268750Y-123012499D01*
X51714605Y-123012499D01*
X51768749Y-123012498D01*
X51768750Y-123012498D01*
X51768750Y-122325000D01*
X51043751Y-122325000D01*
X51043751Y-122341652D01*
X50500500Y-122341652D01*
X50500500Y-121879239D01*
X53393250Y-121879239D01*
X53393250Y-122345760D01*
X53403176Y-122413891D01*
X53454553Y-122518985D01*
X53537264Y-122601696D01*
X53537265Y-122601696D01*
X53537267Y-122601698D01*
X53642357Y-122653073D01*
X53662127Y-122655953D01*
X53725626Y-122685094D01*
X53763292Y-122743942D01*
X53768250Y-122778657D01*
X53768250Y-123468922D01*
X53768250Y-123568578D01*
X53806386Y-123660647D01*
X54787636Y-124641897D01*
X54858103Y-124712364D01*
X54950172Y-124750500D01*
X59344877Y-124750500D01*
X59411916Y-124770185D01*
X59432558Y-124786819D01*
X60133181Y-125487442D01*
X60147884Y-125514369D01*
X60164477Y-125540188D01*
X60165368Y-125546388D01*
X60166666Y-125548765D01*
X60169500Y-125575123D01*
X60169500Y-125624759D01*
X60149815Y-125691798D01*
X60097011Y-125737553D01*
X60092953Y-125739320D01*
X59927613Y-125807805D01*
X59757354Y-125921568D01*
X59612568Y-126066354D01*
X59498806Y-126236613D01*
X59420447Y-126425788D01*
X59420445Y-126425796D01*
X59380500Y-126626613D01*
X59380500Y-128609386D01*
X59420445Y-128810203D01*
X59420447Y-128810211D01*
X59498806Y-128999386D01*
X59612568Y-129169645D01*
X59757354Y-129314431D01*
X59757357Y-129314433D01*
X59927612Y-129428193D01*
X60116789Y-129506553D01*
X60260090Y-129535057D01*
X60317613Y-129546499D01*
X60317617Y-129546500D01*
X60317618Y-129546500D01*
X60522383Y-129546500D01*
X60522384Y-129546499D01*
X60723211Y-129506553D01*
X60912388Y-129428193D01*
X61082643Y-129314433D01*
X61227433Y-129169643D01*
X61341193Y-128999388D01*
X61419553Y-128810211D01*
X61459500Y-128609382D01*
X61459500Y-126626618D01*
X61459499Y-126626613D01*
X61920500Y-126626613D01*
X61920500Y-128609386D01*
X61960445Y-128810203D01*
X61960447Y-128810211D01*
X62038806Y-128999386D01*
X62152568Y-129169645D01*
X62297354Y-129314431D01*
X62297357Y-129314433D01*
X62467612Y-129428193D01*
X62656789Y-129506553D01*
X62800090Y-129535057D01*
X62857613Y-129546499D01*
X62857617Y-129546500D01*
X62857618Y-129546500D01*
X63062383Y-129546500D01*
X63062384Y-129546499D01*
X63263211Y-129506553D01*
X63452388Y-129428193D01*
X63622643Y-129314433D01*
X63767433Y-129169643D01*
X63881193Y-128999388D01*
X63959553Y-128810211D01*
X63999500Y-128609382D01*
X63999500Y-126626618D01*
X63999499Y-126626613D01*
X64460500Y-126626613D01*
X64460500Y-128609386D01*
X64500445Y-128810203D01*
X64500447Y-128810211D01*
X64578806Y-128999386D01*
X64692568Y-129169645D01*
X64837354Y-129314431D01*
X64837357Y-129314433D01*
X65007612Y-129428193D01*
X65196789Y-129506553D01*
X65340090Y-129535057D01*
X65397613Y-129546499D01*
X65397617Y-129546500D01*
X65397618Y-129546500D01*
X65602383Y-129546500D01*
X65602384Y-129546499D01*
X65803211Y-129506553D01*
X65992388Y-129428193D01*
X66162643Y-129314433D01*
X66307433Y-129169643D01*
X66421193Y-128999388D01*
X66499553Y-128810211D01*
X66539500Y-128609382D01*
X66539500Y-126626618D01*
X66499553Y-126425789D01*
X66421193Y-126236612D01*
X66307433Y-126066357D01*
X66307431Y-126066354D01*
X66162645Y-125921568D01*
X66075431Y-125863294D01*
X65992388Y-125807807D01*
X65992383Y-125807805D01*
X65803211Y-125729447D01*
X65803203Y-125729445D01*
X65602386Y-125689500D01*
X65602382Y-125689500D01*
X65397618Y-125689500D01*
X65397613Y-125689500D01*
X65196796Y-125729445D01*
X65196788Y-125729447D01*
X65007613Y-125807806D01*
X64837354Y-125921568D01*
X64692568Y-126066354D01*
X64578806Y-126236613D01*
X64500447Y-126425788D01*
X64500445Y-126425796D01*
X64460500Y-126626613D01*
X63999499Y-126626613D01*
X63959553Y-126425789D01*
X63881193Y-126236612D01*
X63767433Y-126066357D01*
X63767431Y-126066354D01*
X63622645Y-125921568D01*
X63535431Y-125863294D01*
X63452388Y-125807807D01*
X63452383Y-125807805D01*
X63263211Y-125729447D01*
X63263203Y-125729445D01*
X63062386Y-125689500D01*
X63062382Y-125689500D01*
X62857618Y-125689500D01*
X62857613Y-125689500D01*
X62656796Y-125729445D01*
X62656788Y-125729447D01*
X62467613Y-125807806D01*
X62297354Y-125921568D01*
X62152568Y-126066354D01*
X62038806Y-126236613D01*
X61960447Y-126425788D01*
X61960445Y-126425796D01*
X61920500Y-126626613D01*
X61459499Y-126626613D01*
X61419553Y-126425789D01*
X61341193Y-126236612D01*
X61227433Y-126066357D01*
X61227431Y-126066354D01*
X61082645Y-125921568D01*
X60912386Y-125807805D01*
X60747047Y-125739320D01*
X60692644Y-125695479D01*
X60670579Y-125629185D01*
X60670500Y-125624759D01*
X60670500Y-125370173D01*
X60670499Y-125370170D01*
X60660005Y-125344835D01*
X60632364Y-125278103D01*
X60561897Y-125207636D01*
X59641897Y-124287636D01*
X59549829Y-124249500D01*
X59549828Y-124249500D01*
X55155123Y-124249500D01*
X55088084Y-124229815D01*
X55067442Y-124213181D01*
X54305569Y-123451308D01*
X54272084Y-123389985D01*
X54269250Y-123363627D01*
X54269250Y-122778657D01*
X54288935Y-122711618D01*
X54341739Y-122665863D01*
X54375368Y-122655954D01*
X54395143Y-122653073D01*
X54500233Y-122601698D01*
X54582948Y-122518983D01*
X54634323Y-122413893D01*
X54644250Y-122345760D01*
X54644250Y-121879240D01*
X54643986Y-121877431D01*
X54642149Y-121864822D01*
X55999499Y-121864822D01*
X56008231Y-121908717D01*
X56008234Y-121908724D01*
X56010757Y-121912500D01*
X56041496Y-121958504D01*
X56091278Y-121991767D01*
X56091281Y-121991767D01*
X56091282Y-121991768D01*
X56135177Y-122000500D01*
X56135180Y-122000500D01*
X56646214Y-122000500D01*
X56713253Y-122020185D01*
X56759008Y-122072989D01*
X56760771Y-122077039D01*
X56787636Y-122141897D01*
X57787635Y-123141895D01*
X57787636Y-123141897D01*
X57858103Y-123212364D01*
X57873465Y-123218727D01*
X57950173Y-123250501D01*
X57950174Y-123250501D01*
X58064262Y-123250501D01*
X58064270Y-123250500D01*
X65844877Y-123250500D01*
X65911916Y-123270185D01*
X65932558Y-123286819D01*
X67753181Y-125107441D01*
X67786666Y-125168764D01*
X67789500Y-125195122D01*
X67789500Y-125624759D01*
X67769815Y-125691798D01*
X67717011Y-125737553D01*
X67712953Y-125739320D01*
X67547613Y-125807805D01*
X67377354Y-125921568D01*
X67232568Y-126066354D01*
X67118806Y-126236613D01*
X67040447Y-126425788D01*
X67040445Y-126425796D01*
X67000500Y-126626613D01*
X67000500Y-128609386D01*
X67040445Y-128810203D01*
X67040447Y-128810211D01*
X67118806Y-128999386D01*
X67232568Y-129169645D01*
X67377354Y-129314431D01*
X67377357Y-129314433D01*
X67547612Y-129428193D01*
X67736789Y-129506553D01*
X67880090Y-129535057D01*
X67937613Y-129546499D01*
X67937617Y-129546500D01*
X67937618Y-129546500D01*
X68142383Y-129546500D01*
X68142384Y-129546499D01*
X68343211Y-129506553D01*
X68532388Y-129428193D01*
X68702643Y-129314433D01*
X68847433Y-129169643D01*
X68961193Y-128999388D01*
X69039553Y-128810211D01*
X69079500Y-128609382D01*
X69079500Y-126626618D01*
X69039553Y-126425789D01*
X68961193Y-126236612D01*
X68847433Y-126066357D01*
X68847431Y-126066354D01*
X68702645Y-125921568D01*
X68532386Y-125807805D01*
X68367047Y-125739320D01*
X68312644Y-125695479D01*
X68290579Y-125629185D01*
X68290500Y-125624759D01*
X68290500Y-125104270D01*
X68290501Y-125104261D01*
X68290501Y-124990174D01*
X68290500Y-124990170D01*
X68252364Y-124898104D01*
X68252363Y-124898102D01*
X68174832Y-124820571D01*
X68174825Y-124820565D01*
X66141897Y-122787636D01*
X66049829Y-122749500D01*
X66049828Y-122749500D01*
X58155122Y-122749500D01*
X58088083Y-122729815D01*
X58067441Y-122713181D01*
X57566442Y-122212181D01*
X57532957Y-122150858D01*
X57537941Y-122081166D01*
X57579813Y-122025233D01*
X57645277Y-122000816D01*
X57654123Y-122000500D01*
X57864822Y-122000500D01*
X57908717Y-121991768D01*
X57908717Y-121991767D01*
X57908722Y-121991767D01*
X57958504Y-121958504D01*
X57991767Y-121908722D01*
X57997991Y-121877433D01*
X58000500Y-121864822D01*
X58000500Y-120135177D01*
X57991768Y-120091282D01*
X57991767Y-120091281D01*
X57991767Y-120091278D01*
X57958504Y-120041496D01*
X57953197Y-120037950D01*
X57908724Y-120008234D01*
X57908717Y-120008231D01*
X57864822Y-119999500D01*
X57864820Y-119999500D01*
X56135180Y-119999500D01*
X56135178Y-119999500D01*
X56091282Y-120008231D01*
X56091275Y-120008234D01*
X56041496Y-120041495D01*
X56041495Y-120041496D01*
X56008234Y-120091275D01*
X56008231Y-120091282D01*
X55999500Y-120135177D01*
X55999500Y-120135180D01*
X55999500Y-121864820D01*
X55999500Y-121864822D01*
X55999499Y-121864822D01*
X54642149Y-121864822D01*
X54634323Y-121811108D01*
X54634323Y-121811107D01*
X54582948Y-121706017D01*
X54582946Y-121706015D01*
X54582946Y-121706014D01*
X54500235Y-121623303D01*
X54395141Y-121571926D01*
X54327011Y-121562000D01*
X54327010Y-121562000D01*
X53710490Y-121562000D01*
X53710489Y-121562000D01*
X53642358Y-121571926D01*
X53537264Y-121623303D01*
X53454553Y-121706014D01*
X53403176Y-121811108D01*
X53393250Y-121879239D01*
X50500500Y-121879239D01*
X50500500Y-121808349D01*
X51043750Y-121808349D01*
X51043750Y-121825000D01*
X52993749Y-121825000D01*
X52993749Y-121808364D01*
X52993748Y-121808347D01*
X52983693Y-121709916D01*
X52930843Y-121550427D01*
X52930841Y-121550422D01*
X52842635Y-121407419D01*
X52723830Y-121288614D01*
X52580827Y-121200408D01*
X52580822Y-121200406D01*
X52572398Y-121197615D01*
X52514953Y-121157842D01*
X52488130Y-121093326D01*
X52500445Y-121024550D01*
X52508125Y-121011281D01*
X52514971Y-121000977D01*
X52579669Y-120936280D01*
X52633793Y-120825567D01*
X52634428Y-120821208D01*
X52644619Y-120805872D01*
X52665354Y-120788452D01*
X52683623Y-120768457D01*
X52691914Y-120766140D01*
X52698116Y-120760931D01*
X52721111Y-120757983D01*
X52747896Y-120750500D01*
X53319225Y-120750500D01*
X53386264Y-120770185D01*
X53430624Y-120820038D01*
X53449159Y-120857951D01*
X53454553Y-120868985D01*
X53537264Y-120951696D01*
X53537265Y-120951696D01*
X53537267Y-120951698D01*
X53642357Y-121003073D01*
X53676423Y-121008036D01*
X53710489Y-121013000D01*
X53710490Y-121013000D01*
X54327011Y-121013000D01*
X54349721Y-121009691D01*
X54395143Y-121003073D01*
X54500233Y-120951698D01*
X54582948Y-120868983D01*
X54634323Y-120763893D01*
X54644250Y-120695760D01*
X54644250Y-120229240D01*
X54643320Y-120222860D01*
X54635521Y-120169332D01*
X54634323Y-120161107D01*
X54582948Y-120056017D01*
X54582946Y-120056015D01*
X54582946Y-120056014D01*
X54500235Y-119973303D01*
X54395141Y-119921926D01*
X54327011Y-119912000D01*
X54327010Y-119912000D01*
X53710490Y-119912000D01*
X53710489Y-119912000D01*
X53642358Y-119921926D01*
X53537264Y-119973303D01*
X53454553Y-120056014D01*
X53403176Y-120161107D01*
X53402869Y-120162104D01*
X53402185Y-120163134D01*
X53398948Y-120169758D01*
X53398078Y-120169332D01*
X53364272Y-120220345D01*
X53300315Y-120248474D01*
X53284395Y-120249500D01*
X52747895Y-120249500D01*
X52680856Y-120229815D01*
X52636494Y-120179960D01*
X52633793Y-120174435D01*
X52633793Y-120174433D01*
X52579669Y-120063720D01*
X52579667Y-120063718D01*
X52579667Y-120063717D01*
X52492532Y-119976582D01*
X52381817Y-119922457D01*
X52378172Y-119921926D01*
X52310045Y-119912000D01*
X52310039Y-119912000D01*
X51727456Y-119912000D01*
X51655682Y-119922457D01*
X51544967Y-119976582D01*
X51457832Y-120063717D01*
X51406201Y-120169332D01*
X51403707Y-120174433D01*
X51393250Y-120246205D01*
X51393250Y-120246209D01*
X51393250Y-120246210D01*
X51393250Y-120753793D01*
X51403707Y-120825567D01*
X51457832Y-120936282D01*
X51513778Y-120992228D01*
X51547263Y-121053551D01*
X51542279Y-121123243D01*
X51500407Y-121179176D01*
X51465104Y-121197614D01*
X51456678Y-121200405D01*
X51456672Y-121200408D01*
X51313669Y-121288614D01*
X51194864Y-121407419D01*
X51106658Y-121550422D01*
X51106656Y-121550427D01*
X51053807Y-121709916D01*
X51043750Y-121808349D01*
X50500500Y-121808349D01*
X50500500Y-119325013D01*
X63900000Y-119325013D01*
X63900000Y-119750000D01*
X64719670Y-119750000D01*
X64699925Y-119769745D01*
X64650556Y-119855255D01*
X64625000Y-119950630D01*
X64625000Y-120049370D01*
X64650556Y-120144745D01*
X64699925Y-120230255D01*
X64719670Y-120250000D01*
X63900001Y-120250000D01*
X63900001Y-120674986D01*
X63910494Y-120777697D01*
X63965641Y-120944119D01*
X63965643Y-120944124D01*
X64057684Y-121093345D01*
X64181654Y-121217315D01*
X64330875Y-121309356D01*
X64330880Y-121309358D01*
X64497302Y-121364505D01*
X64497309Y-121364506D01*
X64600019Y-121374999D01*
X64749999Y-121374999D01*
X64750000Y-121374998D01*
X64750000Y-120280330D01*
X64769745Y-120300075D01*
X64855255Y-120349444D01*
X64950630Y-120375000D01*
X65049370Y-120375000D01*
X65144745Y-120349444D01*
X65230255Y-120300075D01*
X65250000Y-120280330D01*
X65250000Y-121374999D01*
X65399972Y-121374999D01*
X65399986Y-121374998D01*
X65502697Y-121364505D01*
X65669119Y-121309358D01*
X65669124Y-121309356D01*
X65818345Y-121217315D01*
X65942315Y-121093345D01*
X66034356Y-120944124D01*
X66034358Y-120944119D01*
X66089505Y-120777697D01*
X66089506Y-120777689D01*
X66100235Y-120672672D01*
X66126631Y-120607980D01*
X66183811Y-120567829D01*
X66253622Y-120564965D01*
X66313899Y-120600299D01*
X66332950Y-120626818D01*
X66334916Y-120630496D01*
X66417048Y-120753415D01*
X66417051Y-120753419D01*
X66521580Y-120857948D01*
X66521584Y-120857951D01*
X66644498Y-120940080D01*
X66644511Y-120940087D01*
X66717595Y-120970359D01*
X66781087Y-120996658D01*
X66781091Y-120996658D01*
X66781092Y-120996659D01*
X66926079Y-121025500D01*
X66926082Y-121025500D01*
X67073920Y-121025500D01*
X67186663Y-121003073D01*
X67218913Y-120996658D01*
X67355495Y-120940084D01*
X67478416Y-120857951D01*
X67582951Y-120753416D01*
X67665084Y-120630495D01*
X67721658Y-120493913D01*
X67737916Y-120412181D01*
X67750500Y-120348920D01*
X67750500Y-120324500D01*
X67770185Y-120257461D01*
X67822989Y-120211706D01*
X67874500Y-120200500D01*
X71209667Y-120200500D01*
X71276706Y-120220185D01*
X71322461Y-120272989D01*
X71332405Y-120342147D01*
X71303380Y-120405703D01*
X71297348Y-120412181D01*
X71291217Y-120418311D01*
X71291214Y-120418315D01*
X71191356Y-120567762D01*
X71191349Y-120567775D01*
X71122568Y-120733829D01*
X71122565Y-120733841D01*
X71087500Y-120910122D01*
X71087500Y-121089877D01*
X71122565Y-121266158D01*
X71122568Y-121266170D01*
X71191349Y-121432224D01*
X71191356Y-121432237D01*
X71291214Y-121581684D01*
X71291217Y-121581688D01*
X71418311Y-121708782D01*
X71418315Y-121708785D01*
X71567762Y-121808643D01*
X71567775Y-121808650D01*
X71733829Y-121877431D01*
X71733834Y-121877433D01*
X71853404Y-121901217D01*
X71910122Y-121912499D01*
X71910125Y-121912500D01*
X71910127Y-121912500D01*
X72089875Y-121912500D01*
X72089876Y-121912499D01*
X72266166Y-121877433D01*
X72432231Y-121808647D01*
X72581685Y-121708785D01*
X72708785Y-121581685D01*
X72808647Y-121432231D01*
X72877433Y-121266166D01*
X72912500Y-121089873D01*
X72912500Y-120910127D01*
X72912500Y-120910124D01*
X72912499Y-120910122D01*
X72904316Y-120868983D01*
X72877433Y-120733834D01*
X72853896Y-120677011D01*
X72808650Y-120567775D01*
X72808643Y-120567762D01*
X72708785Y-120418315D01*
X72708782Y-120418311D01*
X72702652Y-120412181D01*
X72669167Y-120350858D01*
X72674151Y-120281166D01*
X72716023Y-120225233D01*
X72781487Y-120200816D01*
X72790333Y-120200500D01*
X73294877Y-120200500D01*
X73361916Y-120220185D01*
X73382558Y-120236819D01*
X73639255Y-120493516D01*
X73672740Y-120554839D01*
X73667756Y-120624531D01*
X73666135Y-120628649D01*
X73622568Y-120733829D01*
X73622565Y-120733841D01*
X73587500Y-120910122D01*
X73587500Y-121089877D01*
X73622565Y-121266158D01*
X73622568Y-121266170D01*
X73691349Y-121432224D01*
X73691356Y-121432237D01*
X73791214Y-121581684D01*
X73791217Y-121581688D01*
X73918311Y-121708782D01*
X73918315Y-121708785D01*
X74067762Y-121808643D01*
X74067775Y-121808650D01*
X74233829Y-121877431D01*
X74233834Y-121877433D01*
X74353404Y-121901217D01*
X74410122Y-121912499D01*
X74410125Y-121912500D01*
X74410127Y-121912500D01*
X74589875Y-121912500D01*
X74589876Y-121912499D01*
X74766166Y-121877433D01*
X74932231Y-121808647D01*
X75081685Y-121708785D01*
X75208785Y-121581685D01*
X75308647Y-121432231D01*
X75377433Y-121266166D01*
X75412500Y-121089873D01*
X75412500Y-120910127D01*
X75412500Y-120910124D01*
X75412499Y-120910122D01*
X75404316Y-120868983D01*
X75377433Y-120733834D01*
X75353896Y-120677011D01*
X75308650Y-120567775D01*
X75308643Y-120567762D01*
X75208785Y-120418315D01*
X75208782Y-120418311D01*
X75081688Y-120291217D01*
X75081684Y-120291214D01*
X74932237Y-120191356D01*
X74932224Y-120191349D01*
X74766170Y-120122568D01*
X74766158Y-120122565D01*
X74589876Y-120087500D01*
X74589873Y-120087500D01*
X74410127Y-120087500D01*
X74410124Y-120087500D01*
X74233841Y-120122565D01*
X74233829Y-120122568D01*
X74128649Y-120166135D01*
X74059180Y-120173604D01*
X73996701Y-120142328D01*
X73993516Y-120139255D01*
X73591897Y-119737636D01*
X73499829Y-119699500D01*
X73499828Y-119699500D01*
X67861895Y-119699500D01*
X67794856Y-119679815D01*
X67749101Y-119627011D01*
X67740278Y-119599692D01*
X67721659Y-119506092D01*
X67721658Y-119506091D01*
X67721658Y-119506087D01*
X67720112Y-119502355D01*
X67665087Y-119369511D01*
X67665080Y-119369498D01*
X67582951Y-119246584D01*
X67582948Y-119246580D01*
X67478419Y-119142051D01*
X67478415Y-119142048D01*
X67355501Y-119059919D01*
X67355488Y-119059912D01*
X67218917Y-119003343D01*
X67218907Y-119003340D01*
X67073920Y-118974500D01*
X67073918Y-118974500D01*
X66926082Y-118974500D01*
X66926080Y-118974500D01*
X66781092Y-119003340D01*
X66781082Y-119003343D01*
X66644511Y-119059912D01*
X66644498Y-119059919D01*
X66521584Y-119142048D01*
X66521580Y-119142051D01*
X66417051Y-119246580D01*
X66417048Y-119246584D01*
X66334915Y-119369504D01*
X66332947Y-119373187D01*
X66283981Y-119423028D01*
X66215842Y-119438485D01*
X66150164Y-119414649D01*
X66107799Y-119359088D01*
X66100234Y-119327328D01*
X66089505Y-119222303D01*
X66034358Y-119055880D01*
X66034356Y-119055875D01*
X65942315Y-118906654D01*
X65818345Y-118782684D01*
X65669124Y-118690643D01*
X65669119Y-118690641D01*
X65502697Y-118635494D01*
X65502690Y-118635493D01*
X65399986Y-118625000D01*
X65250000Y-118625000D01*
X65250000Y-119719670D01*
X65230255Y-119699925D01*
X65144745Y-119650556D01*
X65049370Y-119625000D01*
X64950630Y-119625000D01*
X64855255Y-119650556D01*
X64769745Y-119699925D01*
X64750000Y-119719670D01*
X64750000Y-118625000D01*
X64600027Y-118625000D01*
X64600012Y-118625001D01*
X64497302Y-118635494D01*
X64330880Y-118690641D01*
X64330875Y-118690643D01*
X64181654Y-118782684D01*
X64057684Y-118906654D01*
X63965643Y-119055875D01*
X63965641Y-119055880D01*
X63910494Y-119222302D01*
X63910493Y-119222309D01*
X63900000Y-119325013D01*
X50500500Y-119325013D01*
X50500500Y-118506961D01*
X50501280Y-118493077D01*
X50507083Y-118441575D01*
X50511460Y-118402729D01*
X50517635Y-118375670D01*
X50545353Y-118296456D01*
X50557396Y-118271450D01*
X50602046Y-118200389D01*
X50619351Y-118178690D01*
X50678690Y-118119351D01*
X50700389Y-118102046D01*
X50771450Y-118057396D01*
X50796456Y-118045353D01*
X50875670Y-118017635D01*
X50902733Y-118011459D01*
X50965419Y-118004396D01*
X50993079Y-118001280D01*
X51006962Y-118000500D01*
X51065892Y-118000500D01*
X82974833Y-118000500D01*
X83041872Y-118020185D01*
G37*
%TD.AperFunction*%
%TD*%
M02*
