%TF.GenerationSoftware,KiCad,Pcbnew,9.0.6*%
%TF.CreationDate,2026-02-28T19:58:39-08:00*%
%TF.ProjectId,C3_GestureDriver,43335f47-6573-4747-9572-654472697665,rev?*%
%TF.SameCoordinates,Original*%
%TF.FileFunction,Legend,Top*%
%TF.FilePolarity,Positive*%
%FSLAX46Y46*%
G04 Gerber Fmt 4.6, Leading zero omitted, Abs format (unit mm)*
G04 Created by KiCad (PCBNEW 9.0.6) date 2026-02-28 19:58:39*
%MOMM*%
%LPD*%
G01*
G04 APERTURE LIST*
%ADD10C,0.100000*%
%ADD11C,0.120000*%
G04 APERTURE END LIST*
D10*
X70594360Y-117922419D02*
X70784836Y-117922419D01*
X70784836Y-117922419D02*
X70880074Y-117970038D01*
X70880074Y-117970038D02*
X70975312Y-118065276D01*
X70975312Y-118065276D02*
X71022931Y-118255752D01*
X71022931Y-118255752D02*
X71022931Y-118589085D01*
X71022931Y-118589085D02*
X70975312Y-118779561D01*
X70975312Y-118779561D02*
X70880074Y-118874800D01*
X70880074Y-118874800D02*
X70784836Y-118922419D01*
X70784836Y-118922419D02*
X70594360Y-118922419D01*
X70594360Y-118922419D02*
X70499122Y-118874800D01*
X70499122Y-118874800D02*
X70403884Y-118779561D01*
X70403884Y-118779561D02*
X70356265Y-118589085D01*
X70356265Y-118589085D02*
X70356265Y-118255752D01*
X70356265Y-118255752D02*
X70403884Y-118065276D01*
X70403884Y-118065276D02*
X70499122Y-117970038D01*
X70499122Y-117970038D02*
X70594360Y-117922419D01*
X71784836Y-118398609D02*
X71451503Y-118398609D01*
X71451503Y-118922419D02*
X71451503Y-117922419D01*
X71451503Y-117922419D02*
X71927693Y-117922419D01*
X72641979Y-118398609D02*
X72308646Y-118398609D01*
X72308646Y-118922419D02*
X72308646Y-117922419D01*
X72308646Y-117922419D02*
X72784836Y-117922419D01*
X77494360Y-117872419D02*
X77684836Y-117872419D01*
X77684836Y-117872419D02*
X77780074Y-117920038D01*
X77780074Y-117920038D02*
X77875312Y-118015276D01*
X77875312Y-118015276D02*
X77922931Y-118205752D01*
X77922931Y-118205752D02*
X77922931Y-118539085D01*
X77922931Y-118539085D02*
X77875312Y-118729561D01*
X77875312Y-118729561D02*
X77780074Y-118824800D01*
X77780074Y-118824800D02*
X77684836Y-118872419D01*
X77684836Y-118872419D02*
X77494360Y-118872419D01*
X77494360Y-118872419D02*
X77399122Y-118824800D01*
X77399122Y-118824800D02*
X77303884Y-118729561D01*
X77303884Y-118729561D02*
X77256265Y-118539085D01*
X77256265Y-118539085D02*
X77256265Y-118205752D01*
X77256265Y-118205752D02*
X77303884Y-118015276D01*
X77303884Y-118015276D02*
X77399122Y-117920038D01*
X77399122Y-117920038D02*
X77494360Y-117872419D01*
X78351503Y-118872419D02*
X78351503Y-117872419D01*
X78351503Y-117872419D02*
X78922931Y-118872419D01*
X78922931Y-118872419D02*
X78922931Y-117872419D01*
X50658095Y-146457419D02*
X50658095Y-147266942D01*
X50658095Y-147266942D02*
X50705714Y-147362180D01*
X50705714Y-147362180D02*
X50753333Y-147409800D01*
X50753333Y-147409800D02*
X50848571Y-147457419D01*
X50848571Y-147457419D02*
X51039047Y-147457419D01*
X51039047Y-147457419D02*
X51134285Y-147409800D01*
X51134285Y-147409800D02*
X51181904Y-147362180D01*
X51181904Y-147362180D02*
X51229523Y-147266942D01*
X51229523Y-147266942D02*
X51229523Y-146457419D01*
X52229523Y-147457419D02*
X51658095Y-147457419D01*
X51943809Y-147457419D02*
X51943809Y-146457419D01*
X51943809Y-146457419D02*
X51848571Y-146600276D01*
X51848571Y-146600276D02*
X51753333Y-146695514D01*
X51753333Y-146695514D02*
X51658095Y-146743133D01*
X61166666Y-118007419D02*
X61166666Y-118721704D01*
X61166666Y-118721704D02*
X61119047Y-118864561D01*
X61119047Y-118864561D02*
X61023809Y-118959800D01*
X61023809Y-118959800D02*
X60880952Y-119007419D01*
X60880952Y-119007419D02*
X60785714Y-119007419D01*
X62166666Y-119007419D02*
X61595238Y-119007419D01*
X61880952Y-119007419D02*
X61880952Y-118007419D01*
X61880952Y-118007419D02*
X61785714Y-118150276D01*
X61785714Y-118150276D02*
X61690476Y-118245514D01*
X61690476Y-118245514D02*
X61595238Y-118293133D01*
X76166667Y-124409800D02*
X76309524Y-124457419D01*
X76309524Y-124457419D02*
X76547619Y-124457419D01*
X76547619Y-124457419D02*
X76642857Y-124409800D01*
X76642857Y-124409800D02*
X76690476Y-124362180D01*
X76690476Y-124362180D02*
X76738095Y-124266942D01*
X76738095Y-124266942D02*
X76738095Y-124171704D01*
X76738095Y-124171704D02*
X76690476Y-124076466D01*
X76690476Y-124076466D02*
X76642857Y-124028847D01*
X76642857Y-124028847D02*
X76547619Y-123981228D01*
X76547619Y-123981228D02*
X76357143Y-123933609D01*
X76357143Y-123933609D02*
X76261905Y-123885990D01*
X76261905Y-123885990D02*
X76214286Y-123838371D01*
X76214286Y-123838371D02*
X76166667Y-123743133D01*
X76166667Y-123743133D02*
X76166667Y-123647895D01*
X76166667Y-123647895D02*
X76214286Y-123552657D01*
X76214286Y-123552657D02*
X76261905Y-123505038D01*
X76261905Y-123505038D02*
X76357143Y-123457419D01*
X76357143Y-123457419D02*
X76595238Y-123457419D01*
X76595238Y-123457419D02*
X76738095Y-123505038D01*
X77071429Y-123457419D02*
X77309524Y-124457419D01*
X77309524Y-124457419D02*
X77500000Y-123743133D01*
X77500000Y-123743133D02*
X77690476Y-124457419D01*
X77690476Y-124457419D02*
X77928572Y-123457419D01*
X78261905Y-123552657D02*
X78309524Y-123505038D01*
X78309524Y-123505038D02*
X78404762Y-123457419D01*
X78404762Y-123457419D02*
X78642857Y-123457419D01*
X78642857Y-123457419D02*
X78738095Y-123505038D01*
X78738095Y-123505038D02*
X78785714Y-123552657D01*
X78785714Y-123552657D02*
X78833333Y-123647895D01*
X78833333Y-123647895D02*
X78833333Y-123743133D01*
X78833333Y-123743133D02*
X78785714Y-123885990D01*
X78785714Y-123885990D02*
X78214286Y-124457419D01*
X78214286Y-124457419D02*
X78833333Y-124457419D01*
X55941666Y-117957419D02*
X55941666Y-118671704D01*
X55941666Y-118671704D02*
X55894047Y-118814561D01*
X55894047Y-118814561D02*
X55798809Y-118909800D01*
X55798809Y-118909800D02*
X55655952Y-118957419D01*
X55655952Y-118957419D02*
X55560714Y-118957419D01*
X56370238Y-118052657D02*
X56417857Y-118005038D01*
X56417857Y-118005038D02*
X56513095Y-117957419D01*
X56513095Y-117957419D02*
X56751190Y-117957419D01*
X56751190Y-117957419D02*
X56846428Y-118005038D01*
X56846428Y-118005038D02*
X56894047Y-118052657D01*
X56894047Y-118052657D02*
X56941666Y-118147895D01*
X56941666Y-118147895D02*
X56941666Y-118243133D01*
X56941666Y-118243133D02*
X56894047Y-118385990D01*
X56894047Y-118385990D02*
X56322619Y-118957419D01*
X56322619Y-118957419D02*
X56941666Y-118957419D01*
X79238095Y-119957419D02*
X79238095Y-120766942D01*
X79238095Y-120766942D02*
X79285714Y-120862180D01*
X79285714Y-120862180D02*
X79333333Y-120909800D01*
X79333333Y-120909800D02*
X79428571Y-120957419D01*
X79428571Y-120957419D02*
X79619047Y-120957419D01*
X79619047Y-120957419D02*
X79714285Y-120909800D01*
X79714285Y-120909800D02*
X79761904Y-120862180D01*
X79761904Y-120862180D02*
X79809523Y-120766942D01*
X79809523Y-120766942D02*
X79809523Y-119957419D01*
X80190476Y-119957419D02*
X80809523Y-119957419D01*
X80809523Y-119957419D02*
X80476190Y-120338371D01*
X80476190Y-120338371D02*
X80619047Y-120338371D01*
X80619047Y-120338371D02*
X80714285Y-120385990D01*
X80714285Y-120385990D02*
X80761904Y-120433609D01*
X80761904Y-120433609D02*
X80809523Y-120528847D01*
X80809523Y-120528847D02*
X80809523Y-120766942D01*
X80809523Y-120766942D02*
X80761904Y-120862180D01*
X80761904Y-120862180D02*
X80714285Y-120909800D01*
X80714285Y-120909800D02*
X80619047Y-120957419D01*
X80619047Y-120957419D02*
X80333333Y-120957419D01*
X80333333Y-120957419D02*
X80238095Y-120909800D01*
X80238095Y-120909800D02*
X80190476Y-120862180D01*
%TO.C,U1*%
X50260000Y-139810000D02*
X54070000Y-139810000D01*
X54070000Y-132190000D02*
X50260000Y-132190000D01*
X54070000Y-139810000D02*
X54070000Y-132190000D01*
X76676000Y-131936000D02*
X79724000Y-131936000D01*
X76676000Y-134984000D02*
X76676000Y-131936000D01*
X79724000Y-131936000D02*
X79724000Y-134984000D01*
X79724000Y-134984000D02*
X76676000Y-134984000D01*
X80232000Y-134476000D02*
X80232000Y-132444000D01*
X80740000Y-133968000D02*
X80740000Y-132952000D01*
D11*
%TO.C,J1*%
X62640000Y-117890000D02*
X62640000Y-119140000D01*
X62940000Y-119500000D02*
X63550000Y-119500000D01*
X62940000Y-120800000D02*
X63550000Y-120800000D01*
X63550000Y-118800000D02*
X63550000Y-122300000D01*
X63550000Y-122300000D02*
X68450000Y-122300000D01*
X63890000Y-117890000D02*
X62640000Y-117890000D01*
X64400000Y-117990000D02*
X64400000Y-118190000D01*
X64700000Y-117990000D02*
X64400000Y-117990000D01*
X64700000Y-118090000D02*
X64400000Y-118090000D01*
X64700000Y-118190000D02*
X64700000Y-117990000D01*
X65500000Y-118190000D02*
X65500000Y-118800000D01*
X65500000Y-118800000D02*
X63550000Y-118800000D01*
X65900000Y-121800000D02*
X66100000Y-121800000D01*
X65900000Y-122300000D02*
X65900000Y-121800000D01*
X66000000Y-122300000D02*
X66000000Y-121800000D01*
X66100000Y-121800000D02*
X66100000Y-122300000D01*
X66500000Y-118800000D02*
X66500000Y-118190000D01*
X68450000Y-118800000D02*
X66500000Y-118800000D01*
X68450000Y-122300000D02*
X68450000Y-118800000D01*
X69060000Y-119500000D02*
X68450000Y-119500000D01*
X69060000Y-120800000D02*
X68450000Y-120800000D01*
X62940000Y-118190000D02*
X69060000Y-118190000D01*
X69060000Y-122910000D01*
X62940000Y-122910000D01*
X62940000Y-118190000D01*
%TO.C,SW2*%
D10*
X70100000Y-119050000D02*
X78900000Y-119050000D01*
X78900000Y-122950000D01*
X70100000Y-122950000D01*
X70100000Y-119050000D01*
D11*
%TO.C,J2*%
X55620000Y-122380000D02*
X55620000Y-121000000D01*
X57000000Y-122380000D02*
X55620000Y-122380000D01*
X58270000Y-119620000D02*
X60920000Y-119620000D01*
X58270000Y-122380000D02*
X58270000Y-119620000D01*
X58270000Y-122380000D02*
X60920000Y-122380000D01*
X60920000Y-122380000D02*
X60920000Y-119620000D01*
D10*
%TO.C,U3*%
X80646144Y-123931548D02*
G75*
G02*
X85599144Y-122813948I2352617J1107827D01*
G01*
X85599144Y-122813948D02*
G75*
G02*
X85345144Y-123956948I-2704885J1363D01*
G01*
%TD*%
M02*
