%TF.GenerationSoftware,KiCad,Pcbnew,9.0.6*%
%TF.CreationDate,2026-01-31T12:13:37-08:00*%
%TF.ProjectId,techin514_final_sensor_pcb,74656368-696e-4353-9134-5f66696e616c,rev?*%
%TF.SameCoordinates,Original*%
%TF.FileFunction,Copper,L1,Top*%
%TF.FilePolarity,Positive*%
%FSLAX46Y46*%
G04 Gerber Fmt 4.6, Leading zero omitted, Abs format (unit mm)*
G04 Created by KiCad (PCBNEW 9.0.6) date 2026-01-31 12:13:37*
%MOMM*%
%LPD*%
G01*
G04 APERTURE LIST*
G04 Aperture macros list*
%AMRoundRect*
0 Rectangle with rounded corners*
0 $1 Rounding radius*
0 $2 $3 $4 $5 $6 $7 $8 $9 X,Y pos of 4 corners*
0 Add a 4 corners polygon primitive as box body*
4,1,4,$2,$3,$4,$5,$6,$7,$8,$9,$2,$3,0*
0 Add four circle primitives for the rounded corners*
1,1,$1+$1,$2,$3*
1,1,$1+$1,$4,$5*
1,1,$1+$1,$6,$7*
1,1,$1+$1,$8,$9*
0 Add four rect primitives between the rounded corners*
20,1,$1+$1,$2,$3,$4,$5,0*
20,1,$1+$1,$4,$5,$6,$7,0*
20,1,$1+$1,$6,$7,$8,$9,0*
20,1,$1+$1,$8,$9,$2,$3,0*%
G04 Aperture macros list end*
%TA.AperFunction,SMDPad,CuDef*%
%ADD10RoundRect,0.087500X-0.175000X-0.087500X0.175000X-0.087500X0.175000X0.087500X-0.175000X0.087500X0*%
%TD*%
%TA.AperFunction,HeatsinkPad*%
%ADD11R,1.400000X1.600000*%
%TD*%
%TA.AperFunction,ComponentPad*%
%ADD12R,0.850000X0.850000*%
%TD*%
%TA.AperFunction,ComponentPad*%
%ADD13C,0.850000*%
%TD*%
%TA.AperFunction,SMDPad,CuDef*%
%ADD14RoundRect,0.200000X0.275000X-0.200000X0.275000X0.200000X-0.275000X0.200000X-0.275000X-0.200000X0*%
%TD*%
%TA.AperFunction,ComponentPad*%
%ADD15RoundRect,0.250000X-1.250000X-1.250000X1.250000X-1.250000X1.250000X1.250000X-1.250000X1.250000X0*%
%TD*%
%TA.AperFunction,ComponentPad*%
%ADD16C,3.000000*%
%TD*%
%TA.AperFunction,SMDPad,CuDef*%
%ADD17RoundRect,0.200000X-0.275000X0.200000X-0.275000X-0.200000X0.275000X-0.200000X0.275000X0.200000X0*%
%TD*%
%TA.AperFunction,SMDPad,CuDef*%
%ADD18RoundRect,0.087500X-0.225000X-0.087500X0.225000X-0.087500X0.225000X0.087500X-0.225000X0.087500X0*%
%TD*%
%TA.AperFunction,SMDPad,CuDef*%
%ADD19RoundRect,0.087500X-0.087500X-0.225000X0.087500X-0.225000X0.087500X0.225000X-0.087500X0.225000X0*%
%TD*%
%TA.AperFunction,SMDPad,CuDef*%
%ADD20R,1.000000X0.900000*%
%TD*%
%TA.AperFunction,SMDPad,CuDef*%
%ADD21R,0.550000X1.700000*%
%TD*%
%TA.AperFunction,ComponentPad*%
%ADD22R,1.500000X1.500000*%
%TD*%
%TA.AperFunction,ComponentPad*%
%ADD23C,1.500000*%
%TD*%
%TA.AperFunction,SMDPad,CuDef*%
%ADD24RoundRect,0.200000X0.200000X0.275000X-0.200000X0.275000X-0.200000X-0.275000X0.200000X-0.275000X0*%
%TD*%
%TA.AperFunction,ComponentPad*%
%ADD25RoundRect,0.250000X0.550000X0.550000X-0.550000X0.550000X-0.550000X-0.550000X0.550000X-0.550000X0*%
%TD*%
%TA.AperFunction,ComponentPad*%
%ADD26C,1.600000*%
%TD*%
%TA.AperFunction,SMDPad,CuDef*%
%ADD27R,1.500000X1.000000*%
%TD*%
%TA.AperFunction,Conductor*%
%ADD28C,0.200000*%
%TD*%
G04 APERTURE END LIST*
D10*
%TO.P,U5,1,IN*%
%TO.N,/BATT*%
X56000000Y-72500000D03*
%TO.P,U5,2,GND*%
%TO.N,GND*%
X56000000Y-73000000D03*
%TO.P,U5,3,EN*%
%TO.N,/BATT*%
X56000000Y-73500000D03*
%TO.P,U5,4,BP*%
%TO.N,unconnected-(U5-BP-Pad4)*%
X56000000Y-74000000D03*
%TO.P,U5,5,FB*%
%TO.N,Net-(U5-FB)*%
X58575000Y-74000000D03*
%TO.P,U5,6,OUT*%
%TO.N,+3V3*%
X58575000Y-73500000D03*
%TO.P,U5,7*%
%TO.N,N/C*%
X58575000Y-73000000D03*
%TO.P,U5,8*%
X58575000Y-72500000D03*
D11*
%TO.P,U5,9*%
X57287500Y-73250000D03*
%TD*%
D12*
%TO.P,J1,1,Pin_1*%
%TO.N,Net-(J1-Pin_1)*%
X137000000Y-92500000D03*
D13*
%TO.P,J1,2,Pin_2*%
%TO.N,Net-(J1-Pin_2)*%
X136000000Y-92500000D03*
%TO.P,J1,3,Pin_3*%
%TO.N,Net-(J1-Pin_3)*%
X135000000Y-92500000D03*
%TO.P,J1,4,Pin_4*%
%TO.N,Net-(J1-Pin_4)*%
X134000000Y-92500000D03*
%TO.P,J1,5,Pin_5*%
%TO.N,/BATT(5V)*%
X133000000Y-92500000D03*
%TD*%
D14*
%TO.P,R3,1*%
%TO.N,Net-(U1-IO0)*%
X61500000Y-93650000D03*
%TO.P,R3,2*%
%TO.N,+3V3*%
X61500000Y-92000000D03*
%TD*%
D15*
%TO.P,BT1,1,+*%
%TO.N,/BATT*%
X58487500Y-56330000D03*
D16*
%TO.P,BT1,2,-*%
%TO.N,GND*%
X107387500Y-56330000D03*
%TD*%
D17*
%TO.P,R4,1*%
%TO.N,Net-(U1-IO1)*%
X61500000Y-98500000D03*
%TO.P,R4,2*%
%TO.N,+3V3*%
X61500000Y-100150000D03*
%TD*%
D18*
%TO.P,U6,1,SDO/SA0*%
%TO.N,GND*%
X55837500Y-98500000D03*
%TO.P,U6,2,SDX*%
%TO.N,unconnected-(U6-SDX-Pad2)*%
X55837500Y-99000000D03*
%TO.P,U6,3,SCX*%
%TO.N,unconnected-(U6-SCX-Pad3)*%
X55837500Y-99500000D03*
%TO.P,U6,4,INT1*%
%TO.N,unconnected-(U6-INT1-Pad4)*%
X55837500Y-100000000D03*
D19*
%TO.P,U6,5,VDDIO*%
%TO.N,+3V3*%
X56500000Y-100162500D03*
%TO.P,U6,6,GND*%
%TO.N,GND*%
X57000000Y-100162500D03*
%TO.P,U6,7,GND*%
X57500000Y-100162500D03*
D18*
%TO.P,U6,8,VDD*%
%TO.N,+3V3*%
X58162500Y-100000000D03*
%TO.P,U6,9,INT2*%
%TO.N,unconnected-(U6-INT2-Pad9)*%
X58162500Y-99500000D03*
%TO.P,U6,10,NC*%
%TO.N,unconnected-(U6-NC-Pad10)*%
X58162500Y-99000000D03*
%TO.P,U6,11,NC*%
%TO.N,unconnected-(U6-NC-Pad11)*%
X58162500Y-98500000D03*
D19*
%TO.P,U6,12,CS*%
%TO.N,+3V3*%
X57500000Y-98337500D03*
%TO.P,U6,13,SCL*%
%TO.N,Net-(U1-IO1)*%
X57000000Y-98337500D03*
%TO.P,U6,14,SDA*%
%TO.N,Net-(U1-IO0)*%
X56500000Y-98337500D03*
%TD*%
D20*
%TO.P,SW1,1,1*%
%TO.N,GND*%
X183700000Y-95475000D03*
X183700000Y-91375000D03*
%TO.P,SW1,2,2*%
%TO.N,Net-(U2-IO5)*%
X185300000Y-95475000D03*
X185300000Y-91375000D03*
D21*
%TO.P,SW1,SH,B*%
%TO.N,GND*%
X183075000Y-93425000D03*
%TD*%
D22*
%TO.P,U2,1,GND*%
%TO.N,GND*%
X155640000Y-68545000D03*
D23*
%TO.P,U2,2,3V3*%
%TO.N,Net-(U2-3V3-Pad2)*%
X155640000Y-71085000D03*
%TO.P,U2,3,3V3*%
X155640000Y-73625000D03*
%TO.P,U2,4,IO2*%
%TO.N,Net-(U2-IO2)*%
X155640000Y-76165000D03*
%TO.P,U2,5,IO3*%
%TO.N,Net-(U2-IO3)*%
X155640000Y-78705000D03*
%TO.P,U2,6,GND*%
%TO.N,GND*%
X155640000Y-81245000D03*
%TO.P,U2,7,RST*%
%TO.N,unconnected-(U2-RST-Pad7)*%
X155640000Y-83785000D03*
%TO.P,U2,8,GND*%
%TO.N,GND*%
X155640000Y-86325000D03*
%TO.P,U2,9,IO0*%
%TO.N,Net-(U2-IO0)*%
X155640000Y-88865000D03*
%TO.P,U2,10,IO1*%
%TO.N,Net-(U2-IO1)*%
X155640000Y-91405000D03*
%TO.P,U2,11,IO10*%
%TO.N,unconnected-(U2-IO10-Pad11)*%
X155640000Y-93945000D03*
%TO.P,U2,12,GND*%
%TO.N,GND*%
X155640000Y-96485000D03*
%TO.P,U2,13,5V*%
%TO.N,/BATT(5V)*%
X155640000Y-99025000D03*
%TO.P,U2,14,5V*%
X155640000Y-101565000D03*
%TO.P,U2,15,GND*%
%TO.N,GND*%
X155640000Y-104105000D03*
%TO.P,U2,16,GND*%
X178500000Y-104105000D03*
%TO.P,U2,17,IO19*%
%TO.N,unconnected-(U2-IO19-Pad17)*%
X178500000Y-101565000D03*
%TO.P,U2,18,IO18*%
%TO.N,unconnected-(U2-IO18-Pad18)*%
X178500000Y-99025000D03*
%TO.P,U2,19,GND*%
%TO.N,GND*%
X178500000Y-96485000D03*
%TO.P,U2,20,IO4*%
%TO.N,Net-(D1-DIN)*%
X178500000Y-93945000D03*
%TO.P,U2,21,IO5*%
%TO.N,Net-(U2-IO5)*%
X178500000Y-91405000D03*
%TO.P,U2,22,IO6*%
%TO.N,unconnected-(U2-IO6-Pad22)*%
X178500000Y-88865000D03*
%TO.P,U2,23,IO7*%
%TO.N,unconnected-(U2-IO7-Pad23)*%
X178500000Y-86325000D03*
%TO.P,U2,24,GND*%
%TO.N,GND*%
X178500000Y-83785000D03*
%TO.P,U2,25,IO8*%
%TO.N,unconnected-(U2-IO8-Pad25)*%
X178500000Y-81245000D03*
%TO.P,U2,26,IO9*%
%TO.N,unconnected-(U2-IO9-Pad26)*%
X178500000Y-78705000D03*
%TO.P,U2,27,GND*%
%TO.N,GND*%
X178500000Y-76165000D03*
%TO.P,U2,28,RX*%
%TO.N,unconnected-(U2-RX-Pad28)*%
X178500000Y-73625000D03*
%TO.P,U2,29,TX*%
%TO.N,unconnected-(U2-TX-Pad29)*%
X178500000Y-71085000D03*
%TO.P,U2,30,GND*%
%TO.N,GND*%
X178500000Y-68545000D03*
%TD*%
D22*
%TO.P,U1,1,GND*%
%TO.N,GND*%
X67140000Y-74340000D03*
D23*
%TO.P,U1,2,3V3*%
%TO.N,+3V3*%
X67140000Y-76880000D03*
%TO.P,U1,3,3V3*%
X67140000Y-79420000D03*
%TO.P,U1,4,IO2*%
%TO.N,unconnected-(U1-IO2-Pad4)*%
X67140000Y-81960000D03*
%TO.P,U1,5,IO3*%
%TO.N,unconnected-(U1-IO3-Pad5)*%
X67140000Y-84500000D03*
%TO.P,U1,6,GND*%
%TO.N,GND*%
X67140000Y-87040000D03*
%TO.P,U1,7,RST*%
%TO.N,unconnected-(U1-RST-Pad7)*%
X67140000Y-89580000D03*
%TO.P,U1,8,GND*%
%TO.N,GND*%
X67140000Y-92120000D03*
%TO.P,U1,9,IO0*%
%TO.N,Net-(U1-IO0)*%
X67140000Y-94660000D03*
%TO.P,U1,10,IO1*%
%TO.N,Net-(U1-IO1)*%
X67140000Y-97200000D03*
%TO.P,U1,11,IO10*%
%TO.N,unconnected-(U1-IO10-Pad11)*%
X67140000Y-99740000D03*
%TO.P,U1,12,GND*%
%TO.N,GND*%
X67140000Y-102280000D03*
%TO.P,U1,13,5V*%
%TO.N,Net-(U1-5V-Pad13)*%
X67140000Y-104820000D03*
%TO.P,U1,14,5V*%
X67140000Y-107360000D03*
%TO.P,U1,15,GND*%
%TO.N,GND*%
X67140000Y-109900000D03*
%TO.P,U1,16,GND*%
X90000000Y-109900000D03*
%TO.P,U1,17,IO19*%
%TO.N,unconnected-(U1-IO19-Pad17)*%
X90000000Y-107360000D03*
%TO.P,U1,18,IO18*%
%TO.N,unconnected-(U1-IO18-Pad18)*%
X90000000Y-104820000D03*
%TO.P,U1,19,GND*%
%TO.N,GND*%
X90000000Y-102280000D03*
%TO.P,U1,20,IO4*%
%TO.N,unconnected-(U1-IO4-Pad20)*%
X90000000Y-99740000D03*
%TO.P,U1,21,IO5*%
%TO.N,unconnected-(U1-IO5-Pad21)*%
X90000000Y-97200000D03*
%TO.P,U1,22,IO6*%
%TO.N,unconnected-(U1-IO6-Pad22)*%
X90000000Y-94660000D03*
%TO.P,U1,23,IO7*%
%TO.N,unconnected-(U1-IO7-Pad23)*%
X90000000Y-92120000D03*
%TO.P,U1,24,GND*%
%TO.N,GND*%
X90000000Y-89580000D03*
%TO.P,U1,25,IO8*%
%TO.N,unconnected-(U1-IO8-Pad25)*%
X90000000Y-87040000D03*
%TO.P,U1,26,IO9*%
%TO.N,unconnected-(U1-IO9-Pad26)*%
X90000000Y-84500000D03*
%TO.P,U1,27,GND*%
%TO.N,GND*%
X90000000Y-81960000D03*
%TO.P,U1,28,RX*%
%TO.N,unconnected-(U1-RX-Pad28)*%
X90000000Y-79420000D03*
%TO.P,U1,29,TX*%
%TO.N,unconnected-(U1-TX-Pad29)*%
X90000000Y-76880000D03*
%TO.P,U1,30,GND*%
%TO.N,GND*%
X90000000Y-74340000D03*
%TD*%
D12*
%TO.P,BT2,1,+*%
%TO.N,/BATT(5V)*%
X150500000Y-102500000D03*
D13*
%TO.P,BT2,2,-*%
%TO.N,GND*%
X150500000Y-103500000D03*
%TD*%
D24*
%TO.P,R2,1*%
%TO.N,Net-(U5-FB)*%
X58325000Y-78000000D03*
%TO.P,R2,2*%
%TO.N,GND*%
X56675000Y-78000000D03*
%TD*%
D17*
%TO.P,R1,1*%
%TO.N,+3V3*%
X61500000Y-72500000D03*
%TO.P,R1,2*%
%TO.N,Net-(U5-FB)*%
X61500000Y-74150000D03*
%TD*%
D25*
%TO.P,U4,1,I1*%
%TO.N,Net-(U2-IO0)*%
X150120000Y-96500000D03*
D26*
%TO.P,U4,2,I2*%
%TO.N,Net-(U2-IO1)*%
X150120000Y-93960000D03*
%TO.P,U4,3,I3*%
%TO.N,Net-(U2-IO2)*%
X150120000Y-91420000D03*
%TO.P,U4,4,I4*%
%TO.N,Net-(U2-IO3)*%
X150120000Y-88880000D03*
%TO.P,U4,5,I5*%
%TO.N,unconnected-(U4-I5-Pad5)*%
X150120000Y-86340000D03*
%TO.P,U4,6,I6*%
%TO.N,unconnected-(U4-I6-Pad6)*%
X150120000Y-83800000D03*
%TO.P,U4,7,I7*%
%TO.N,unconnected-(U4-I7-Pad7)*%
X150120000Y-81260000D03*
%TO.P,U4,8,GND*%
%TO.N,unconnected-(U4-GND-Pad8)*%
X150120000Y-78720000D03*
%TO.P,U4,9,COM*%
%TO.N,unconnected-(U4-COM-Pad9)*%
X142500000Y-78720000D03*
%TO.P,U4,10,O7*%
%TO.N,unconnected-(U4-O7-Pad10)*%
X142500000Y-81260000D03*
%TO.P,U4,11,O6*%
%TO.N,unconnected-(U4-O6-Pad11)*%
X142500000Y-83800000D03*
%TO.P,U4,12,O5*%
%TO.N,unconnected-(U4-O5-Pad12)*%
X142500000Y-86340000D03*
%TO.P,U4,13,O4*%
%TO.N,Net-(J1-Pin_4)*%
X142500000Y-88880000D03*
%TO.P,U4,14,O3*%
%TO.N,Net-(J1-Pin_3)*%
X142500000Y-91420000D03*
%TO.P,U4,15,O2*%
%TO.N,Net-(J1-Pin_2)*%
X142500000Y-93960000D03*
%TO.P,U4,16,O1*%
%TO.N,Net-(J1-Pin_1)*%
X142500000Y-96500000D03*
%TD*%
D27*
%TO.P,D1,1,DOUT*%
%TO.N,unconnected-(D1-DOUT-Pad1)*%
X138100000Y-101500000D03*
%TO.P,D1,2,DIN*%
%TO.N,Net-(D1-DIN)*%
X138100000Y-103100000D03*
%TO.P,D1,3,VCC*%
%TO.N,unconnected-(D1-VCC-Pad3)*%
X138100000Y-104700000D03*
%TO.P,D1,4,NC*%
%TO.N,unconnected-(D1-NC-Pad4)*%
X143000000Y-104700000D03*
%TO.P,D1,5,VDD*%
%TO.N,/BATT(5V)*%
X143000000Y-103100000D03*
%TO.P,D1,6,VSS*%
%TO.N,GND*%
X143000000Y-101500000D03*
%TD*%
D28*
%TO.N,/BATT*%
X58487500Y-56330000D02*
X54170000Y-56330000D01*
X54170000Y-56330000D02*
X54000000Y-56500000D01*
X54000000Y-70500000D02*
X56000000Y-72500000D01*
X54000000Y-56500000D02*
X54000000Y-70500000D01*
%TO.N,GND*%
X57000000Y-100162500D02*
X59117500Y-102280000D01*
X67091500Y-87088500D02*
X67140000Y-87040000D01*
X155545000Y-68545000D02*
X155500000Y-68500000D01*
X59117500Y-102280000D02*
X67140000Y-102280000D01*
X155640000Y-68545000D02*
X155545000Y-68545000D01*
%TO.N,/BATT(5V)*%
X148749000Y-100749000D02*
X150500000Y-102500000D01*
X143000000Y-103100000D02*
X142848000Y-103100000D01*
X150500000Y-102500000D02*
X154705000Y-102500000D01*
X139525000Y-99025000D02*
X155640000Y-99025000D01*
X154705000Y-102500000D02*
X155640000Y-101565000D01*
X142848000Y-103100000D02*
X141999000Y-102251000D01*
X141999000Y-102251000D02*
X141999000Y-100749000D01*
X141999000Y-100749000D02*
X148749000Y-100749000D01*
X133000000Y-92500000D02*
X139525000Y-99025000D01*
%TO.N,Net-(D1-DIN)*%
X144001000Y-103851000D02*
X145256000Y-105106000D01*
X138100000Y-103100000D02*
X138851000Y-103851000D01*
X138851000Y-103851000D02*
X144001000Y-103851000D01*
X145256000Y-105106000D02*
X167339000Y-105106000D01*
X167339000Y-105106000D02*
X178500000Y-93945000D01*
%TO.N,Net-(J1-Pin_3)*%
X135000000Y-92500000D02*
X136080000Y-91420000D01*
X136080000Y-91420000D02*
X142500000Y-91420000D01*
%TO.N,Net-(J1-Pin_1)*%
X143551000Y-93524661D02*
X143551000Y-95449000D01*
X143551000Y-95449000D02*
X142500000Y-96500000D01*
X137000000Y-92500000D02*
X142526339Y-92500000D01*
X142526339Y-92500000D02*
X143551000Y-93524661D01*
%TO.N,Net-(J1-Pin_4)*%
X134000000Y-92500000D02*
X137620000Y-88880000D01*
X137620000Y-88880000D02*
X142500000Y-88880000D01*
%TO.N,Net-(J1-Pin_2)*%
X136000000Y-93101040D02*
X136858960Y-93960000D01*
X136000000Y-92500000D02*
X136000000Y-93101040D01*
X136858960Y-93960000D02*
X142500000Y-93960000D01*
%TO.N,+3V3*%
X58312500Y-100150000D02*
X58162500Y-100000000D01*
X61500000Y-100150000D02*
X58312500Y-100150000D01*
X67140000Y-76880000D02*
X67140000Y-76800936D01*
X61500000Y-92000000D02*
X61500000Y-82520000D01*
X60500000Y-73500000D02*
X61500000Y-72500000D01*
X62760000Y-72500000D02*
X67140000Y-76880000D01*
X58575000Y-73500000D02*
X60500000Y-73500000D01*
X61500000Y-72500000D02*
X62760000Y-72500000D01*
X61500000Y-82520000D02*
X67140000Y-76880000D01*
%TO.N,Net-(U5-FB)*%
X58575000Y-74000000D02*
X58500000Y-74000000D01*
X58325000Y-78000000D02*
X58325000Y-74250000D01*
X58575000Y-74000000D02*
X61350000Y-74000000D01*
X61350000Y-74000000D02*
X61500000Y-74150000D01*
X58325000Y-74250000D02*
X58575000Y-74000000D01*
%TO.N,Net-(U1-IO0)*%
X59840000Y-94660000D02*
X67140000Y-94660000D01*
X61500000Y-93650000D02*
X66130000Y-93650000D01*
X56500000Y-98000000D02*
X59840000Y-94660000D01*
X66130000Y-93650000D02*
X67140000Y-94660000D01*
X56500000Y-98337500D02*
X56500000Y-98000000D01*
%TO.N,Net-(U1-IO1)*%
X60774000Y-97774000D02*
X61500000Y-98500000D01*
X57000000Y-98043864D02*
X57843864Y-97200000D01*
X57000000Y-98043864D02*
X57269864Y-97774000D01*
X57843864Y-97200000D02*
X67140000Y-97200000D01*
X57269864Y-97774000D02*
X60774000Y-97774000D01*
X57000000Y-98337500D02*
X57000000Y-98043864D01*
%TO.N,Net-(U2-IO5)*%
X185300000Y-95475000D02*
X185300000Y-91375000D01*
X184599000Y-90674000D02*
X179231000Y-90674000D01*
X185300000Y-91375000D02*
X184599000Y-90674000D01*
X179231000Y-90674000D02*
X178500000Y-91405000D01*
%TO.N,Net-(U2-IO2)*%
X149069000Y-88444661D02*
X149684661Y-87829000D01*
X151171000Y-80634000D02*
X155640000Y-76165000D01*
X149684661Y-87829000D02*
X150171000Y-87829000D01*
X149069000Y-90369000D02*
X149069000Y-88444661D01*
X150120000Y-91420000D02*
X149069000Y-90369000D01*
X151171000Y-86829000D02*
X151171000Y-80634000D01*
X150171000Y-87829000D02*
X151171000Y-86829000D01*
%TO.N,Net-(U2-IO1)*%
X153085000Y-93960000D02*
X155640000Y-91405000D01*
X150120000Y-93960000D02*
X153085000Y-93960000D01*
%TO.N,Net-(U2-IO3)*%
X150120000Y-88880000D02*
X154639000Y-84361000D01*
X154639000Y-79706000D02*
X155640000Y-78705000D01*
X154639000Y-84361000D02*
X154639000Y-79706000D01*
%TO.N,Net-(U2-IO0)*%
X149069000Y-95449000D02*
X149069000Y-93524661D01*
X149684661Y-92909000D02*
X151596000Y-92909000D01*
X151596000Y-92909000D02*
X155640000Y-88865000D01*
X150120000Y-96500000D02*
X149069000Y-95449000D01*
X149069000Y-93524661D02*
X149684661Y-92909000D01*
%TD*%
%TA.AperFunction,Conductor*%
%TO.N,GND*%
G36*
X148515942Y-101369185D02*
G01*
X148536584Y-101385819D01*
X149538181Y-102387416D01*
X149571666Y-102448739D01*
X149574500Y-102475097D01*
X149574500Y-102972870D01*
X149574501Y-102972876D01*
X149580908Y-103032483D01*
X149616702Y-103128451D01*
X149621686Y-103198143D01*
X149615085Y-103219227D01*
X149610549Y-103230180D01*
X149610545Y-103230190D01*
X149575000Y-103408891D01*
X149575000Y-103591109D01*
X149610545Y-103769805D01*
X149610548Y-103769817D01*
X149680271Y-103938145D01*
X149691498Y-103954947D01*
X150184627Y-103461818D01*
X150211554Y-103447114D01*
X150237373Y-103430522D01*
X150243573Y-103429630D01*
X150245950Y-103428333D01*
X150259699Y-103426854D01*
X150250000Y-103450272D01*
X150250000Y-103549728D01*
X150288060Y-103641614D01*
X150358386Y-103711940D01*
X150450272Y-103750000D01*
X150549728Y-103750000D01*
X150641614Y-103711940D01*
X150711940Y-103641614D01*
X150750000Y-103549728D01*
X150750000Y-103450272D01*
X150741407Y-103429526D01*
X150794730Y-103445184D01*
X150815372Y-103461818D01*
X151308500Y-103954948D01*
X151319724Y-103938152D01*
X151319724Y-103938151D01*
X151389452Y-103769813D01*
X151389454Y-103769805D01*
X151424999Y-103591109D01*
X151425000Y-103591106D01*
X151425000Y-103408894D01*
X151424999Y-103408890D01*
X151393134Y-103248691D01*
X151399361Y-103179100D01*
X151442224Y-103123922D01*
X151508114Y-103100678D01*
X151514751Y-103100500D01*
X154618331Y-103100500D01*
X154618347Y-103100501D01*
X154625943Y-103100501D01*
X154784055Y-103100501D01*
X154784057Y-103100501D01*
X154876580Y-103075709D01*
X154946428Y-103077371D01*
X154996354Y-103107802D01*
X155551415Y-103662861D01*
X155466306Y-103685667D01*
X155363694Y-103744910D01*
X155279910Y-103828694D01*
X155220667Y-103931306D01*
X155197862Y-104016414D01*
X154596320Y-103414872D01*
X154596320Y-103414873D01*
X154570902Y-103449859D01*
X154570899Y-103449863D01*
X154481582Y-103625161D01*
X154420778Y-103812294D01*
X154390000Y-104006617D01*
X154390000Y-104203382D01*
X154415139Y-104362102D01*
X154406185Y-104431395D01*
X154361188Y-104484847D01*
X154294437Y-104505487D01*
X154292666Y-104505500D01*
X151068885Y-104505500D01*
X151001846Y-104485815D01*
X150956091Y-104433011D01*
X150946147Y-104363853D01*
X150950418Y-104354499D01*
X150954948Y-104308500D01*
X150500001Y-103853553D01*
X150500000Y-103853553D01*
X150045050Y-104308500D01*
X150050799Y-104366865D01*
X150049203Y-104367022D01*
X150053512Y-104401344D01*
X150023353Y-104464369D01*
X149963907Y-104501084D01*
X149931110Y-104505500D01*
X145556097Y-104505500D01*
X145489058Y-104485815D01*
X145468416Y-104469181D01*
X144488590Y-103489355D01*
X144488588Y-103489352D01*
X144369717Y-103370481D01*
X144369712Y-103370477D01*
X144312499Y-103337445D01*
X144264283Y-103286878D01*
X144250499Y-103230058D01*
X144250499Y-102552129D01*
X144250498Y-102552123D01*
X144250497Y-102552116D01*
X144244091Y-102492517D01*
X144244091Y-102492516D01*
X144190697Y-102349359D01*
X144192266Y-102348773D01*
X144179616Y-102290630D01*
X144191314Y-102250793D01*
X144190253Y-102250398D01*
X144243597Y-102107376D01*
X144243598Y-102107372D01*
X144249999Y-102047844D01*
X144250000Y-102047827D01*
X144250000Y-101750000D01*
X143124000Y-101750000D01*
X143115314Y-101747449D01*
X143106353Y-101748738D01*
X143082312Y-101737759D01*
X143056961Y-101730315D01*
X143051033Y-101723474D01*
X143042797Y-101719713D01*
X143028507Y-101697478D01*
X143011206Y-101677511D01*
X143008918Y-101666996D01*
X143005023Y-101660935D01*
X143000000Y-101626000D01*
X143000000Y-101473500D01*
X143019685Y-101406461D01*
X143072489Y-101360706D01*
X143124000Y-101349500D01*
X148448903Y-101349500D01*
X148515942Y-101369185D01*
G37*
%TD.AperFunction*%
%TA.AperFunction,Conductor*%
G36*
X155058606Y-84893141D02*
G01*
X155071566Y-84898838D01*
X155161763Y-84944795D01*
X155212559Y-84992769D01*
X155229355Y-85060590D01*
X155206818Y-85126725D01*
X155161764Y-85165765D01*
X154984859Y-85255902D01*
X154949873Y-85281320D01*
X154949872Y-85281320D01*
X155551415Y-85882861D01*
X155466306Y-85905667D01*
X155363694Y-85964910D01*
X155279910Y-86048694D01*
X155220667Y-86151306D01*
X155197861Y-86236414D01*
X154596320Y-85634872D01*
X154596320Y-85634873D01*
X154570902Y-85669859D01*
X154570899Y-85669863D01*
X154481582Y-85845161D01*
X154420778Y-86032294D01*
X154390000Y-86226617D01*
X154390000Y-86423382D01*
X154420778Y-86617705D01*
X154481581Y-86804835D01*
X154570905Y-86980145D01*
X154596319Y-87015125D01*
X154596320Y-87015125D01*
X155197861Y-86413584D01*
X155220667Y-86498694D01*
X155279910Y-86601306D01*
X155363694Y-86685090D01*
X155466306Y-86744333D01*
X155551414Y-86767137D01*
X154949873Y-87368677D01*
X154949873Y-87368678D01*
X154984858Y-87394096D01*
X155161764Y-87484234D01*
X155212560Y-87532209D01*
X155229355Y-87600030D01*
X155206818Y-87666164D01*
X155161764Y-87705204D01*
X154984594Y-87795476D01*
X154893741Y-87861485D01*
X154825354Y-87911172D01*
X154825352Y-87911174D01*
X154825351Y-87911174D01*
X154686174Y-88050351D01*
X154686174Y-88050352D01*
X154686172Y-88050354D01*
X154636485Y-88118741D01*
X154570476Y-88209594D01*
X154481117Y-88384970D01*
X154420290Y-88572173D01*
X154389500Y-88766577D01*
X154389500Y-88963422D01*
X154421023Y-89162453D01*
X154412068Y-89231747D01*
X154386231Y-89269532D01*
X151451514Y-92204250D01*
X151390191Y-92237735D01*
X151320499Y-92232751D01*
X151264566Y-92190879D01*
X151240149Y-92125415D01*
X151253349Y-92060274D01*
X151325216Y-91919228D01*
X151325218Y-91919223D01*
X151325220Y-91919219D01*
X151388477Y-91724534D01*
X151420500Y-91522352D01*
X151420500Y-91317648D01*
X151418747Y-91306581D01*
X151388477Y-91115465D01*
X151342888Y-90975157D01*
X151325220Y-90920781D01*
X151325218Y-90920778D01*
X151325218Y-90920776D01*
X151288911Y-90849520D01*
X151232287Y-90738390D01*
X151224556Y-90727749D01*
X151111971Y-90572786D01*
X150967213Y-90428028D01*
X150801614Y-90307715D01*
X150766734Y-90289943D01*
X150708917Y-90260483D01*
X150658123Y-90212511D01*
X150641328Y-90144690D01*
X150663865Y-90078555D01*
X150708917Y-90039516D01*
X150801610Y-89992287D01*
X150822770Y-89976913D01*
X150967213Y-89871971D01*
X150967215Y-89871968D01*
X150967219Y-89871966D01*
X151111966Y-89727219D01*
X151111968Y-89727215D01*
X151111971Y-89727213D01*
X151164732Y-89654590D01*
X151232287Y-89561610D01*
X151325220Y-89379219D01*
X151388477Y-89184534D01*
X151420500Y-88982352D01*
X151420500Y-88777648D01*
X151418747Y-88766583D01*
X151388478Y-88575472D01*
X151388477Y-88575471D01*
X151388477Y-88575466D01*
X151383825Y-88561151D01*
X151381832Y-88491312D01*
X151414075Y-88435158D01*
X154927593Y-84921640D01*
X154988914Y-84888157D01*
X155058606Y-84893141D01*
G37*
%TD.AperFunction*%
%TA.AperFunction,Conductor*%
G36*
X191442539Y-46020185D02*
G01*
X191488294Y-46072989D01*
X191499500Y-46124500D01*
X191499500Y-119875500D01*
X191479815Y-119942539D01*
X191427011Y-119988294D01*
X191375500Y-119999500D01*
X125624500Y-119999500D01*
X125557461Y-119979815D01*
X125511706Y-119927011D01*
X125500500Y-119875500D01*
X125500500Y-92591156D01*
X132074499Y-92591156D01*
X132110065Y-92769952D01*
X132110068Y-92769962D01*
X132179831Y-92938387D01*
X132179833Y-92938391D01*
X132281113Y-93089967D01*
X132281119Y-93089975D01*
X132410024Y-93218880D01*
X132410032Y-93218886D01*
X132561608Y-93320166D01*
X132561612Y-93320168D01*
X132730037Y-93389931D01*
X132730042Y-93389933D01*
X132730046Y-93389933D01*
X132730047Y-93389934D01*
X132908843Y-93425500D01*
X132908846Y-93425500D01*
X133024903Y-93425500D01*
X133091942Y-93445185D01*
X133112584Y-93461819D01*
X139040139Y-99389374D01*
X139040149Y-99389385D01*
X139044479Y-99393715D01*
X139044480Y-99393716D01*
X139156284Y-99505520D01*
X139156286Y-99505521D01*
X139156290Y-99505524D01*
X139293209Y-99584573D01*
X139293216Y-99584577D01*
X139405019Y-99614534D01*
X139445942Y-99625500D01*
X139445943Y-99625500D01*
X154467404Y-99625500D01*
X154534443Y-99645185D01*
X154567722Y-99676614D01*
X154570475Y-99680403D01*
X154570476Y-99680405D01*
X154686172Y-99839646D01*
X154825354Y-99978828D01*
X154984595Y-100094524D01*
X155090528Y-100148499D01*
X155161213Y-100184515D01*
X155212009Y-100232489D01*
X155228804Y-100300310D01*
X155206267Y-100366445D01*
X155161213Y-100405485D01*
X154984594Y-100495476D01*
X154901008Y-100556206D01*
X154825354Y-100611172D01*
X154825352Y-100611174D01*
X154825351Y-100611174D01*
X154686174Y-100750351D01*
X154686174Y-100750352D01*
X154686172Y-100750354D01*
X154680856Y-100757671D01*
X154570476Y-100909594D01*
X154481117Y-101084970D01*
X154420290Y-101272173D01*
X154389500Y-101466577D01*
X154389500Y-101663422D01*
X154404179Y-101756102D01*
X154395224Y-101825396D01*
X154350228Y-101878848D01*
X154283477Y-101899487D01*
X154281706Y-101899500D01*
X151478861Y-101899500D01*
X151411822Y-101879815D01*
X151374362Y-101839581D01*
X151374112Y-101839769D01*
X151372364Y-101837434D01*
X151370027Y-101834924D01*
X151368797Y-101832673D01*
X151368796Y-101832669D01*
X151363351Y-101825396D01*
X151282547Y-101717455D01*
X151282544Y-101717452D01*
X151167335Y-101631206D01*
X151167328Y-101631202D01*
X151032482Y-101580908D01*
X151032483Y-101580908D01*
X150972883Y-101574501D01*
X150972881Y-101574500D01*
X150972873Y-101574500D01*
X150972865Y-101574500D01*
X150475097Y-101574500D01*
X150408058Y-101554815D01*
X150387416Y-101538181D01*
X149236590Y-100387355D01*
X149236588Y-100387352D01*
X149117717Y-100268481D01*
X149117716Y-100268480D01*
X149030904Y-100218360D01*
X149030904Y-100218359D01*
X149030900Y-100218358D01*
X148980785Y-100189423D01*
X148828057Y-100148499D01*
X148669943Y-100148499D01*
X148662347Y-100148499D01*
X148662331Y-100148500D01*
X141919943Y-100148500D01*
X141767216Y-100189423D01*
X141767209Y-100189426D01*
X141630290Y-100268475D01*
X141630282Y-100268481D01*
X141518481Y-100380282D01*
X141518475Y-100380290D01*
X141439426Y-100517209D01*
X141439423Y-100517216D01*
X141398500Y-100669943D01*
X141398500Y-102164330D01*
X141398499Y-102164348D01*
X141398499Y-102330054D01*
X141398498Y-102330054D01*
X141413869Y-102387416D01*
X141439423Y-102482785D01*
X141449651Y-102500500D01*
X141518477Y-102619712D01*
X141518481Y-102619717D01*
X141637349Y-102738585D01*
X141637355Y-102738590D01*
X141713181Y-102814416D01*
X141746666Y-102875739D01*
X141749500Y-102902096D01*
X141749500Y-103035905D01*
X141749501Y-103126499D01*
X141729817Y-103193539D01*
X141677013Y-103239294D01*
X141625501Y-103250500D01*
X139474500Y-103250500D01*
X139407461Y-103230815D01*
X139361706Y-103178011D01*
X139350500Y-103126500D01*
X139350499Y-102552129D01*
X139350498Y-102552123D01*
X139350497Y-102552116D01*
X139344091Y-102492517D01*
X139293796Y-102357669D01*
X139293794Y-102357666D01*
X139290696Y-102349360D01*
X139292426Y-102348714D01*
X139279902Y-102291163D01*
X139291691Y-102251011D01*
X139290696Y-102250640D01*
X139293794Y-102242333D01*
X139293796Y-102242331D01*
X139344091Y-102107483D01*
X139350500Y-102047873D01*
X139350499Y-100952128D01*
X139344091Y-100892517D01*
X139293796Y-100757669D01*
X139293795Y-100757668D01*
X139293793Y-100757664D01*
X139207547Y-100642455D01*
X139207544Y-100642452D01*
X139092335Y-100556206D01*
X139092328Y-100556202D01*
X138957482Y-100505908D01*
X138957483Y-100505908D01*
X138897883Y-100499501D01*
X138897881Y-100499500D01*
X138897873Y-100499500D01*
X138897864Y-100499500D01*
X137302129Y-100499500D01*
X137302123Y-100499501D01*
X137242516Y-100505908D01*
X137107671Y-100556202D01*
X137107664Y-100556206D01*
X136992455Y-100642452D01*
X136992452Y-100642455D01*
X136906206Y-100757664D01*
X136906202Y-100757671D01*
X136855908Y-100892517D01*
X136849501Y-100952116D01*
X136849501Y-100952123D01*
X136849500Y-100952135D01*
X136849500Y-102047870D01*
X136849501Y-102047876D01*
X136855908Y-102107483D01*
X136909303Y-102250641D01*
X136907575Y-102251285D01*
X136920095Y-102308853D01*
X136908310Y-102348988D01*
X136909303Y-102349359D01*
X136855908Y-102492517D01*
X136853080Y-102518825D01*
X136849501Y-102552123D01*
X136849500Y-102552135D01*
X136849500Y-103647870D01*
X136849501Y-103647876D01*
X136855908Y-103707483D01*
X136909303Y-103850641D01*
X136907575Y-103851285D01*
X136920095Y-103908853D01*
X136908310Y-103948988D01*
X136909303Y-103949359D01*
X136855908Y-104092517D01*
X136849501Y-104152116D01*
X136849500Y-104152135D01*
X136849500Y-105247870D01*
X136849501Y-105247876D01*
X136855908Y-105307483D01*
X136906202Y-105442328D01*
X136906206Y-105442335D01*
X136992452Y-105557544D01*
X136992455Y-105557547D01*
X137107664Y-105643793D01*
X137107671Y-105643797D01*
X137242517Y-105694091D01*
X137242516Y-105694091D01*
X137249444Y-105694835D01*
X137302127Y-105700500D01*
X138897872Y-105700499D01*
X138957483Y-105694091D01*
X139092331Y-105643796D01*
X139207546Y-105557546D01*
X139293796Y-105442331D01*
X139344091Y-105307483D01*
X139350500Y-105247873D01*
X139350499Y-104575499D01*
X139370183Y-104508461D01*
X139422987Y-104462706D01*
X139474499Y-104451500D01*
X141625500Y-104451500D01*
X141692539Y-104471185D01*
X141738294Y-104523989D01*
X141749500Y-104575500D01*
X141749500Y-105247870D01*
X141749501Y-105247876D01*
X141755908Y-105307483D01*
X141806202Y-105442328D01*
X141806206Y-105442335D01*
X141892452Y-105557544D01*
X141892455Y-105557547D01*
X142007664Y-105643793D01*
X142007671Y-105643797D01*
X142142517Y-105694091D01*
X142142516Y-105694091D01*
X142149444Y-105694835D01*
X142202127Y-105700500D01*
X143797872Y-105700499D01*
X143857483Y-105694091D01*
X143992331Y-105643796D01*
X144107546Y-105557546D01*
X144193796Y-105442331D01*
X144244091Y-105307483D01*
X144250500Y-105247873D01*
X144250499Y-105247845D01*
X144250678Y-105244547D01*
X144251831Y-105244608D01*
X144270152Y-105182106D01*
X144322934Y-105136326D01*
X144392088Y-105126350D01*
X144455657Y-105155344D01*
X144462180Y-105161415D01*
X144771139Y-105470374D01*
X144771149Y-105470385D01*
X144775479Y-105474715D01*
X144775480Y-105474716D01*
X144887284Y-105586520D01*
X144974095Y-105636639D01*
X144974097Y-105636641D01*
X145012151Y-105658611D01*
X145024215Y-105665577D01*
X145176943Y-105706501D01*
X145176946Y-105706501D01*
X145342653Y-105706501D01*
X145342669Y-105706500D01*
X167252331Y-105706500D01*
X167252347Y-105706501D01*
X167259943Y-105706501D01*
X167418054Y-105706501D01*
X167418057Y-105706501D01*
X167570785Y-105665577D01*
X167620904Y-105636639D01*
X167707716Y-105586520D01*
X167819520Y-105474716D01*
X167819520Y-105474714D01*
X167829728Y-105464507D01*
X167829730Y-105464504D01*
X177044583Y-96249650D01*
X177105902Y-96216168D01*
X177175594Y-96221152D01*
X177231527Y-96263024D01*
X177255944Y-96328488D01*
X177254734Y-96356730D01*
X177250000Y-96386621D01*
X177250000Y-96583382D01*
X177280778Y-96777705D01*
X177341581Y-96964835D01*
X177430905Y-97140145D01*
X177456319Y-97175125D01*
X177456320Y-97175125D01*
X178057861Y-96573584D01*
X178080667Y-96658694D01*
X178139910Y-96761306D01*
X178223694Y-96845090D01*
X178326306Y-96904333D01*
X178411414Y-96927137D01*
X177809873Y-97528677D01*
X177809873Y-97528678D01*
X177844858Y-97554096D01*
X178021764Y-97644234D01*
X178072560Y-97692209D01*
X178089355Y-97760030D01*
X178066818Y-97826164D01*
X178021764Y-97865204D01*
X177844594Y-97955476D01*
X177753741Y-98021485D01*
X177685354Y-98071172D01*
X177685352Y-98071174D01*
X177685351Y-98071174D01*
X177546174Y-98210351D01*
X177546174Y-98210352D01*
X177546172Y-98210354D01*
X177496485Y-98278741D01*
X177430476Y-98369594D01*
X177341117Y-98544970D01*
X177280290Y-98732173D01*
X177249500Y-98926577D01*
X177249500Y-99123422D01*
X177280290Y-99317826D01*
X177341117Y-99505029D01*
X177428544Y-99676614D01*
X177430476Y-99680405D01*
X177546172Y-99839646D01*
X177685354Y-99978828D01*
X177844595Y-100094524D01*
X177950528Y-100148499D01*
X178021213Y-100184515D01*
X178072009Y-100232489D01*
X178088804Y-100300310D01*
X178066267Y-100366445D01*
X178021213Y-100405485D01*
X177844594Y-100495476D01*
X177761008Y-100556206D01*
X177685354Y-100611172D01*
X177685352Y-100611174D01*
X177685351Y-100611174D01*
X177546174Y-100750351D01*
X177546174Y-100750352D01*
X177546172Y-100750354D01*
X177540856Y-100757671D01*
X177430476Y-100909594D01*
X177341117Y-101084970D01*
X177280290Y-101272173D01*
X177249500Y-101466577D01*
X177249500Y-101663422D01*
X177280290Y-101857826D01*
X177341117Y-102045029D01*
X177430476Y-102220405D01*
X177546172Y-102379646D01*
X177685354Y-102518828D01*
X177804784Y-102605600D01*
X177844596Y-102634525D01*
X178021763Y-102724795D01*
X178072560Y-102772769D01*
X178089355Y-102840590D01*
X178066818Y-102906725D01*
X178021764Y-102945765D01*
X177844859Y-103035902D01*
X177809873Y-103061320D01*
X177809872Y-103061320D01*
X178411415Y-103662861D01*
X178326306Y-103685667D01*
X178223694Y-103744910D01*
X178139910Y-103828694D01*
X178080667Y-103931306D01*
X178057861Y-104016414D01*
X177456320Y-103414872D01*
X177456320Y-103414873D01*
X177430902Y-103449859D01*
X177430899Y-103449863D01*
X177341582Y-103625161D01*
X177280778Y-103812294D01*
X177250000Y-104006617D01*
X177250000Y-104203382D01*
X177280778Y-104397705D01*
X177341581Y-104584835D01*
X177430905Y-104760145D01*
X177456319Y-104795125D01*
X177456320Y-104795125D01*
X178057861Y-104193584D01*
X178080667Y-104278694D01*
X178139910Y-104381306D01*
X178223694Y-104465090D01*
X178326306Y-104524333D01*
X178411414Y-104547137D01*
X177809873Y-105148677D01*
X177809873Y-105148678D01*
X177844858Y-105174096D01*
X178020164Y-105263418D01*
X178207294Y-105324221D01*
X178401618Y-105355000D01*
X178598382Y-105355000D01*
X178792705Y-105324221D01*
X178979835Y-105263418D01*
X179155143Y-105174095D01*
X179190125Y-105148678D01*
X179190126Y-105148678D01*
X178588585Y-104547137D01*
X178673694Y-104524333D01*
X178776306Y-104465090D01*
X178860090Y-104381306D01*
X178919333Y-104278694D01*
X178942137Y-104193585D01*
X179543678Y-104795126D01*
X179543678Y-104795125D01*
X179569095Y-104760143D01*
X179658418Y-104584835D01*
X179719221Y-104397705D01*
X179750000Y-104203382D01*
X179750000Y-104006617D01*
X179719221Y-103812294D01*
X179658418Y-103625164D01*
X179569096Y-103449858D01*
X179543678Y-103414873D01*
X179543677Y-103414873D01*
X178942137Y-104016413D01*
X178919333Y-103931306D01*
X178860090Y-103828694D01*
X178776306Y-103744910D01*
X178673694Y-103685667D01*
X178588584Y-103662861D01*
X179190125Y-103061320D01*
X179190125Y-103061319D01*
X179155145Y-103035905D01*
X178978235Y-102945765D01*
X178927439Y-102897790D01*
X178910644Y-102829969D01*
X178933182Y-102763834D01*
X178978236Y-102724795D01*
X178980022Y-102723884D01*
X178980025Y-102723884D01*
X179155405Y-102634524D01*
X179314646Y-102518828D01*
X179453828Y-102379646D01*
X179569524Y-102220405D01*
X179658884Y-102045025D01*
X179719709Y-101857826D01*
X179723336Y-101834924D01*
X179750500Y-101663422D01*
X179750500Y-101466577D01*
X179719709Y-101272173D01*
X179658882Y-101084970D01*
X179591196Y-100952129D01*
X179569524Y-100909595D01*
X179453828Y-100750354D01*
X179314646Y-100611172D01*
X179235025Y-100553324D01*
X179155403Y-100495474D01*
X178978787Y-100405485D01*
X178927990Y-100357511D01*
X178911195Y-100289690D01*
X178933732Y-100223555D01*
X178978787Y-100184515D01*
X179155403Y-100094525D01*
X179155402Y-100094525D01*
X179155405Y-100094524D01*
X179314646Y-99978828D01*
X179453828Y-99839646D01*
X179569524Y-99680405D01*
X179658884Y-99505025D01*
X179719709Y-99317826D01*
X179750500Y-99123422D01*
X179750500Y-98926577D01*
X179719709Y-98732173D01*
X179658882Y-98544970D01*
X179578994Y-98388181D01*
X179569524Y-98369595D01*
X179453828Y-98210354D01*
X179314646Y-98071172D01*
X179155405Y-97955476D01*
X178980025Y-97866116D01*
X178980024Y-97866115D01*
X178978235Y-97865204D01*
X178927439Y-97817230D01*
X178910644Y-97749409D01*
X178933181Y-97683274D01*
X178978236Y-97644234D01*
X179155141Y-97554097D01*
X179190125Y-97528678D01*
X179190126Y-97528678D01*
X178588585Y-96927137D01*
X178673694Y-96904333D01*
X178776306Y-96845090D01*
X178860090Y-96761306D01*
X178919333Y-96658694D01*
X178942137Y-96573585D01*
X179543678Y-97175126D01*
X179543678Y-97175125D01*
X179569095Y-97140143D01*
X179658418Y-96964835D01*
X179719221Y-96777705D01*
X179750000Y-96583382D01*
X179750000Y-96386617D01*
X179719221Y-96192294D01*
X179658418Y-96005164D01*
X179641950Y-95972844D01*
X182700000Y-95972844D01*
X182706401Y-96032372D01*
X182706403Y-96032379D01*
X182756645Y-96167086D01*
X182756649Y-96167093D01*
X182842809Y-96282187D01*
X182842812Y-96282190D01*
X182957906Y-96368350D01*
X182957913Y-96368354D01*
X183092620Y-96418596D01*
X183092627Y-96418598D01*
X183152155Y-96424999D01*
X183152172Y-96425000D01*
X183450000Y-96425000D01*
X183450000Y-95725000D01*
X182700000Y-95725000D01*
X182700000Y-95972844D01*
X179641950Y-95972844D01*
X179569096Y-95829858D01*
X179543678Y-95794873D01*
X179543677Y-95794873D01*
X178942137Y-96396413D01*
X178919333Y-96311306D01*
X178860090Y-96208694D01*
X178776306Y-96124910D01*
X178673694Y-96065667D01*
X178588583Y-96042861D01*
X179190125Y-95441320D01*
X179190125Y-95441319D01*
X179155145Y-95415905D01*
X178978235Y-95325765D01*
X178927439Y-95277790D01*
X178910644Y-95209969D01*
X178933182Y-95143834D01*
X178978236Y-95104795D01*
X178980022Y-95103884D01*
X178980025Y-95103884D01*
X179155405Y-95014524D01*
X179314646Y-94898828D01*
X179453828Y-94759646D01*
X179569524Y-94600405D01*
X179658884Y-94425025D01*
X179719709Y-94237826D01*
X179750500Y-94043422D01*
X179750500Y-93846577D01*
X179719709Y-93652173D01*
X179672268Y-93506166D01*
X179658884Y-93464975D01*
X179658882Y-93464972D01*
X179658882Y-93464970D01*
X179595112Y-93339815D01*
X179569524Y-93289595D01*
X179453828Y-93130354D01*
X179314646Y-92991172D01*
X179235025Y-92933324D01*
X179155403Y-92875474D01*
X178978787Y-92785485D01*
X178927990Y-92737511D01*
X178911195Y-92669690D01*
X178933732Y-92603555D01*
X178978787Y-92564515D01*
X179155403Y-92474525D01*
X179155402Y-92474525D01*
X179155405Y-92474524D01*
X179314646Y-92358828D01*
X179453828Y-92219646D01*
X179569524Y-92060405D01*
X179658884Y-91885025D01*
X179719709Y-91697826D01*
X179722291Y-91681525D01*
X179750500Y-91503422D01*
X179750500Y-91398500D01*
X179770185Y-91331461D01*
X179822989Y-91285706D01*
X179874500Y-91274500D01*
X183576000Y-91274500D01*
X183584685Y-91277050D01*
X183593647Y-91275762D01*
X183617687Y-91286740D01*
X183643039Y-91294185D01*
X183648966Y-91301025D01*
X183657203Y-91304787D01*
X183671492Y-91327021D01*
X183688794Y-91346989D01*
X183691081Y-91357503D01*
X183694977Y-91363565D01*
X183700000Y-91398500D01*
X183700000Y-91501000D01*
X183680315Y-91568039D01*
X183627511Y-91613794D01*
X183576000Y-91625000D01*
X182700000Y-91625000D01*
X182700000Y-91872844D01*
X182706401Y-91932372D01*
X182706403Y-91932383D01*
X182710181Y-91942510D01*
X182715165Y-92012202D01*
X182681679Y-92073524D01*
X182637333Y-92102024D01*
X182557911Y-92131646D01*
X182557906Y-92131649D01*
X182442812Y-92217809D01*
X182442809Y-92217812D01*
X182356649Y-92332906D01*
X182356645Y-92332913D01*
X182306403Y-92467620D01*
X182306401Y-92467627D01*
X182300000Y-92527155D01*
X182300000Y-93175000D01*
X183850000Y-93175000D01*
X183850000Y-92527172D01*
X183849999Y-92527155D01*
X183843021Y-92462256D01*
X183855426Y-92393497D01*
X183903035Y-92342359D01*
X183966310Y-92325000D01*
X184247828Y-92325000D01*
X184247844Y-92324999D01*
X184307372Y-92318598D01*
X184307376Y-92318597D01*
X184450398Y-92265253D01*
X184450962Y-92266766D01*
X184474950Y-92261874D01*
X184508306Y-92254615D01*
X184509374Y-92254854D01*
X184509927Y-92254742D01*
X184513023Y-92255673D01*
X184544314Y-92262692D01*
X184555107Y-92266878D01*
X184557669Y-92268796D01*
X184619637Y-92291908D01*
X184620342Y-92292182D01*
X184647418Y-92313006D01*
X184674766Y-92333478D01*
X184675059Y-92334265D01*
X184675726Y-92334778D01*
X184687246Y-92366937D01*
X184699184Y-92398942D01*
X184699236Y-92400408D01*
X184699289Y-92400555D01*
X184699247Y-92400732D01*
X184699500Y-92407790D01*
X184699500Y-94442209D01*
X184679815Y-94509248D01*
X184627011Y-94555003D01*
X184618833Y-94558391D01*
X184549359Y-94584303D01*
X184548774Y-94582734D01*
X184490624Y-94595383D01*
X184450794Y-94583686D01*
X184450399Y-94584746D01*
X184307379Y-94531403D01*
X184307372Y-94531401D01*
X184247844Y-94525000D01*
X183966310Y-94525000D01*
X183899271Y-94505315D01*
X183853516Y-94452511D01*
X183843021Y-94387744D01*
X183849999Y-94322844D01*
X183850000Y-94322827D01*
X183850000Y-93675000D01*
X182300000Y-93675000D01*
X182300000Y-94322844D01*
X182306401Y-94382372D01*
X182306403Y-94382379D01*
X182356645Y-94517086D01*
X182356649Y-94517093D01*
X182442809Y-94632187D01*
X182442812Y-94632190D01*
X182557906Y-94718350D01*
X182557915Y-94718355D01*
X182637331Y-94747975D01*
X182693265Y-94789846D01*
X182717683Y-94855310D01*
X182710182Y-94907487D01*
X182706403Y-94917617D01*
X182706401Y-94917627D01*
X182700000Y-94977155D01*
X182700000Y-95225000D01*
X183576000Y-95225000D01*
X183643039Y-95244685D01*
X183688794Y-95297489D01*
X183700000Y-95349000D01*
X183700000Y-95475000D01*
X183826000Y-95475000D01*
X183893039Y-95494685D01*
X183938794Y-95547489D01*
X183950000Y-95599000D01*
X183950000Y-96425000D01*
X184247828Y-96425000D01*
X184247844Y-96424999D01*
X184307372Y-96418598D01*
X184307376Y-96418597D01*
X184450398Y-96365253D01*
X184451076Y-96367070D01*
X184508306Y-96354615D01*
X184549032Y-96366572D01*
X184549359Y-96365697D01*
X184692517Y-96419091D01*
X184692516Y-96419091D01*
X184699444Y-96419835D01*
X184752127Y-96425500D01*
X185847872Y-96425499D01*
X185907483Y-96419091D01*
X186042331Y-96368796D01*
X186157546Y-96282546D01*
X186243796Y-96167331D01*
X186294091Y-96032483D01*
X186300500Y-95972873D01*
X186300499Y-94977128D01*
X186294091Y-94917517D01*
X186287120Y-94898828D01*
X186243797Y-94782671D01*
X186243793Y-94782664D01*
X186157547Y-94667455D01*
X186157544Y-94667452D01*
X186042335Y-94581206D01*
X186042328Y-94581202D01*
X185981167Y-94558391D01*
X185925233Y-94516520D01*
X185900816Y-94451056D01*
X185900500Y-94442209D01*
X185900500Y-92407790D01*
X185920185Y-92340751D01*
X185972989Y-92294996D01*
X185981146Y-92291616D01*
X186042331Y-92268796D01*
X186157546Y-92182546D01*
X186243796Y-92067331D01*
X186294091Y-91932483D01*
X186300500Y-91872873D01*
X186300499Y-90877128D01*
X186294091Y-90817517D01*
X186269578Y-90751795D01*
X186243797Y-90682671D01*
X186243793Y-90682664D01*
X186157547Y-90567455D01*
X186157544Y-90567452D01*
X186042335Y-90481206D01*
X186042328Y-90481202D01*
X185907482Y-90430908D01*
X185907483Y-90430908D01*
X185847883Y-90424501D01*
X185847881Y-90424500D01*
X185847873Y-90424500D01*
X185847865Y-90424500D01*
X185250097Y-90424500D01*
X185220656Y-90415855D01*
X185190670Y-90409332D01*
X185185654Y-90405577D01*
X185183058Y-90404815D01*
X185162416Y-90388181D01*
X185086590Y-90312355D01*
X185086588Y-90312352D01*
X184967717Y-90193481D01*
X184967716Y-90193480D01*
X184870261Y-90137215D01*
X184870260Y-90137214D01*
X184830783Y-90114422D01*
X184774881Y-90099443D01*
X184678057Y-90073499D01*
X184519943Y-90073499D01*
X184512347Y-90073499D01*
X184512331Y-90073500D01*
X179345753Y-90073500D01*
X179278714Y-90053815D01*
X179232959Y-90001011D01*
X179223015Y-89931853D01*
X179252040Y-89868297D01*
X179272864Y-89849183D01*
X179314646Y-89818828D01*
X179453828Y-89679646D01*
X179569524Y-89520405D01*
X179658884Y-89345025D01*
X179719709Y-89157826D01*
X179750500Y-88963422D01*
X179750500Y-88766577D01*
X179719709Y-88572173D01*
X179663597Y-88399480D01*
X179658884Y-88384975D01*
X179658882Y-88384972D01*
X179658882Y-88384970D01*
X179605142Y-88279500D01*
X179569524Y-88209595D01*
X179453828Y-88050354D01*
X179314646Y-87911172D01*
X179235025Y-87853324D01*
X179155403Y-87795474D01*
X178978787Y-87705485D01*
X178927990Y-87657511D01*
X178911195Y-87589690D01*
X178933732Y-87523555D01*
X178978787Y-87484515D01*
X179155403Y-87394525D01*
X179155402Y-87394525D01*
X179155405Y-87394524D01*
X179314646Y-87278828D01*
X179453828Y-87139646D01*
X179569524Y-86980405D01*
X179658884Y-86805025D01*
X179719709Y-86617826D01*
X179719728Y-86617705D01*
X179750500Y-86423422D01*
X179750500Y-86226577D01*
X179719709Y-86032173D01*
X179658882Y-85844970D01*
X179611743Y-85752455D01*
X179569524Y-85669595D01*
X179453828Y-85510354D01*
X179314646Y-85371172D01*
X179155405Y-85255476D01*
X178980025Y-85166116D01*
X178980024Y-85166115D01*
X178978235Y-85165204D01*
X178927439Y-85117230D01*
X178910644Y-85049409D01*
X178933181Y-84983274D01*
X178978236Y-84944234D01*
X179155141Y-84854097D01*
X179190125Y-84828678D01*
X179190126Y-84828678D01*
X178588585Y-84227137D01*
X178673694Y-84204333D01*
X178776306Y-84145090D01*
X178860090Y-84061306D01*
X178919333Y-83958694D01*
X178942137Y-83873585D01*
X179543678Y-84475126D01*
X179543678Y-84475125D01*
X179569095Y-84440143D01*
X179658418Y-84264835D01*
X179719221Y-84077705D01*
X179750000Y-83883382D01*
X179750000Y-83686617D01*
X179719221Y-83492294D01*
X179658418Y-83305164D01*
X179569096Y-83129858D01*
X179543678Y-83094873D01*
X179543677Y-83094873D01*
X178942137Y-83696413D01*
X178919333Y-83611306D01*
X178860090Y-83508694D01*
X178776306Y-83424910D01*
X178673694Y-83365667D01*
X178588584Y-83342861D01*
X179190125Y-82741320D01*
X179190125Y-82741319D01*
X179155145Y-82715905D01*
X178978235Y-82625765D01*
X178927439Y-82577790D01*
X178910644Y-82509969D01*
X178933182Y-82443834D01*
X178978236Y-82404795D01*
X178980022Y-82403884D01*
X178980025Y-82403884D01*
X179155405Y-82314524D01*
X179314646Y-82198828D01*
X179453828Y-82059646D01*
X179569524Y-81900405D01*
X179658884Y-81725025D01*
X179719709Y-81537826D01*
X179719728Y-81537705D01*
X179750500Y-81343422D01*
X179750500Y-81146577D01*
X179719709Y-80952173D01*
X179658882Y-80764970D01*
X179569523Y-80589594D01*
X179561380Y-80578386D01*
X179453828Y-80430354D01*
X179314646Y-80291172D01*
X179190975Y-80201319D01*
X179155403Y-80175474D01*
X178978787Y-80085485D01*
X178927990Y-80037511D01*
X178911195Y-79969690D01*
X178933732Y-79903555D01*
X178978787Y-79864515D01*
X179155403Y-79774525D01*
X179155402Y-79774525D01*
X179155405Y-79774524D01*
X179314646Y-79658828D01*
X179453828Y-79519646D01*
X179569524Y-79360405D01*
X179658884Y-79185025D01*
X179719709Y-78997826D01*
X179750500Y-78803422D01*
X179750500Y-78606577D01*
X179719709Y-78412173D01*
X179658882Y-78224970D01*
X179569523Y-78049594D01*
X179561380Y-78038386D01*
X179453828Y-77890354D01*
X179314646Y-77751172D01*
X179155405Y-77635476D01*
X178980025Y-77546116D01*
X178980024Y-77546115D01*
X178978235Y-77545204D01*
X178927439Y-77497230D01*
X178910644Y-77429409D01*
X178933181Y-77363274D01*
X178978236Y-77324234D01*
X179155141Y-77234097D01*
X179190125Y-77208678D01*
X179190126Y-77208678D01*
X178588585Y-76607137D01*
X178673694Y-76584333D01*
X178776306Y-76525090D01*
X178860090Y-76441306D01*
X178919333Y-76338694D01*
X178942137Y-76253585D01*
X179543678Y-76855126D01*
X179543678Y-76855125D01*
X179569095Y-76820143D01*
X179658418Y-76644835D01*
X179719221Y-76457705D01*
X179750000Y-76263382D01*
X179750000Y-76066617D01*
X179719221Y-75872294D01*
X179658418Y-75685164D01*
X179569096Y-75509858D01*
X179543678Y-75474873D01*
X179543677Y-75474873D01*
X178942137Y-76076413D01*
X178919333Y-75991306D01*
X178860090Y-75888694D01*
X178776306Y-75804910D01*
X178673694Y-75745667D01*
X178588584Y-75722861D01*
X179190125Y-75121320D01*
X179190125Y-75121319D01*
X179155145Y-75095905D01*
X178978235Y-75005765D01*
X178927439Y-74957790D01*
X178910644Y-74889969D01*
X178933182Y-74823834D01*
X178978236Y-74784795D01*
X178980022Y-74783884D01*
X178980025Y-74783884D01*
X179155405Y-74694524D01*
X179314646Y-74578828D01*
X179453828Y-74439646D01*
X179569524Y-74280405D01*
X179658884Y-74105025D01*
X179719709Y-73917826D01*
X179750500Y-73723422D01*
X179750500Y-73526577D01*
X179719709Y-73332173D01*
X179658882Y-73144970D01*
X179569523Y-72969594D01*
X179453828Y-72810354D01*
X179314646Y-72671172D01*
X179235025Y-72613324D01*
X179155403Y-72555474D01*
X178978787Y-72465485D01*
X178927990Y-72417511D01*
X178911195Y-72349690D01*
X178933732Y-72283555D01*
X178978787Y-72244515D01*
X179155403Y-72154525D01*
X179155402Y-72154525D01*
X179155405Y-72154524D01*
X179314646Y-72038828D01*
X179453828Y-71899646D01*
X179569524Y-71740405D01*
X179658884Y-71565025D01*
X179719709Y-71377826D01*
X179750500Y-71183422D01*
X179750500Y-70986577D01*
X179719709Y-70792173D01*
X179658882Y-70604970D01*
X179569523Y-70429594D01*
X179453828Y-70270354D01*
X179314646Y-70131172D01*
X179155405Y-70015476D01*
X178980025Y-69926116D01*
X178980024Y-69926115D01*
X178978235Y-69925204D01*
X178927439Y-69877230D01*
X178910644Y-69809409D01*
X178933181Y-69743274D01*
X178978236Y-69704234D01*
X179155141Y-69614097D01*
X179190125Y-69588678D01*
X179190126Y-69588678D01*
X178588585Y-68987137D01*
X178673694Y-68964333D01*
X178776306Y-68905090D01*
X178860090Y-68821306D01*
X178919333Y-68718694D01*
X178942137Y-68633585D01*
X179543678Y-69235126D01*
X179543678Y-69235125D01*
X179569095Y-69200143D01*
X179658418Y-69024835D01*
X179719221Y-68837705D01*
X179750000Y-68643382D01*
X179750000Y-68446617D01*
X179719221Y-68252294D01*
X179658418Y-68065164D01*
X179569096Y-67889858D01*
X179543678Y-67854873D01*
X179543677Y-67854873D01*
X178942137Y-68456413D01*
X178919333Y-68371306D01*
X178860090Y-68268694D01*
X178776306Y-68184910D01*
X178673694Y-68125667D01*
X178588584Y-68102861D01*
X179190125Y-67501320D01*
X179190125Y-67501319D01*
X179155145Y-67475905D01*
X178979835Y-67386581D01*
X178792705Y-67325778D01*
X178598382Y-67295000D01*
X178401618Y-67295000D01*
X178207294Y-67325778D01*
X178020161Y-67386582D01*
X177844863Y-67475899D01*
X177844859Y-67475902D01*
X177809873Y-67501320D01*
X177809872Y-67501320D01*
X178411415Y-68102861D01*
X178326306Y-68125667D01*
X178223694Y-68184910D01*
X178139910Y-68268694D01*
X178080667Y-68371306D01*
X178057861Y-68456414D01*
X177456320Y-67854872D01*
X177456320Y-67854873D01*
X177430902Y-67889859D01*
X177430899Y-67889863D01*
X177341582Y-68065161D01*
X177280778Y-68252294D01*
X177250000Y-68446617D01*
X177250000Y-68643382D01*
X177280778Y-68837705D01*
X177341581Y-69024835D01*
X177430905Y-69200145D01*
X177456319Y-69235125D01*
X177456320Y-69235125D01*
X178057861Y-68633584D01*
X178080667Y-68718694D01*
X178139910Y-68821306D01*
X178223694Y-68905090D01*
X178326306Y-68964333D01*
X178411414Y-68987137D01*
X177809873Y-69588677D01*
X177809873Y-69588678D01*
X177844858Y-69614096D01*
X178021764Y-69704234D01*
X178072560Y-69752209D01*
X178089355Y-69820030D01*
X178066818Y-69886164D01*
X178021764Y-69925204D01*
X177844594Y-70015476D01*
X177753741Y-70081485D01*
X177685354Y-70131172D01*
X177685352Y-70131174D01*
X177685351Y-70131174D01*
X177546174Y-70270351D01*
X177546174Y-70270352D01*
X177546172Y-70270354D01*
X177496485Y-70338741D01*
X177430476Y-70429594D01*
X177341117Y-70604970D01*
X177280290Y-70792173D01*
X177249500Y-70986577D01*
X177249500Y-71183422D01*
X177280290Y-71377826D01*
X177341117Y-71565029D01*
X177430476Y-71740405D01*
X177546172Y-71899646D01*
X177685354Y-72038828D01*
X177844595Y-72154524D01*
X177967992Y-72217397D01*
X178021213Y-72244515D01*
X178072009Y-72292489D01*
X178088804Y-72360310D01*
X178066267Y-72426445D01*
X178021213Y-72465485D01*
X177844594Y-72555476D01*
X177753741Y-72621485D01*
X177685354Y-72671172D01*
X177685352Y-72671174D01*
X177685351Y-72671174D01*
X177546174Y-72810351D01*
X177546174Y-72810352D01*
X177546172Y-72810354D01*
X177496485Y-72878741D01*
X177430476Y-72969594D01*
X177341117Y-73144970D01*
X177280290Y-73332173D01*
X177249500Y-73526577D01*
X177249500Y-73723422D01*
X177280290Y-73917826D01*
X177341117Y-74105029D01*
X177430476Y-74280405D01*
X177546172Y-74439646D01*
X177685354Y-74578828D01*
X177804784Y-74665600D01*
X177844596Y-74694525D01*
X178021763Y-74784795D01*
X178072560Y-74832769D01*
X178089355Y-74900590D01*
X178066818Y-74966725D01*
X178021764Y-75005765D01*
X177844859Y-75095902D01*
X177809873Y-75121320D01*
X177809872Y-75121320D01*
X178411415Y-75722861D01*
X178326306Y-75745667D01*
X178223694Y-75804910D01*
X178139910Y-75888694D01*
X178080667Y-75991306D01*
X178057861Y-76076414D01*
X177456320Y-75474872D01*
X177456320Y-75474873D01*
X177430902Y-75509859D01*
X177430899Y-75509863D01*
X177341582Y-75685161D01*
X177280778Y-75872294D01*
X177250000Y-76066617D01*
X177250000Y-76263382D01*
X177280778Y-76457705D01*
X177341581Y-76644835D01*
X177430905Y-76820145D01*
X177456319Y-76855125D01*
X177456320Y-76855125D01*
X178057861Y-76253584D01*
X178080667Y-76338694D01*
X178139910Y-76441306D01*
X178223694Y-76525090D01*
X178326306Y-76584333D01*
X178411414Y-76607137D01*
X177809873Y-77208677D01*
X177809873Y-77208678D01*
X177844858Y-77234096D01*
X178021764Y-77324234D01*
X178072560Y-77372209D01*
X178089355Y-77440030D01*
X178066818Y-77506164D01*
X178021764Y-77545204D01*
X177844594Y-77635476D01*
X177753741Y-77701485D01*
X177685354Y-77751172D01*
X177685352Y-77751174D01*
X177685351Y-77751174D01*
X177546174Y-77890351D01*
X177546174Y-77890352D01*
X177546172Y-77890354D01*
X177496485Y-77958741D01*
X177430476Y-78049594D01*
X177341117Y-78224970D01*
X177280290Y-78412173D01*
X177249500Y-78606577D01*
X177249500Y-78803422D01*
X177280290Y-78997826D01*
X177341117Y-79185029D01*
X177418694Y-79337282D01*
X177430476Y-79360405D01*
X177546172Y-79519646D01*
X177685354Y-79658828D01*
X177844595Y-79774524D01*
X177957956Y-79832284D01*
X178021213Y-79864515D01*
X178072009Y-79912489D01*
X178088804Y-79980310D01*
X178066267Y-80046445D01*
X178021213Y-80085485D01*
X177844594Y-80175476D01*
X177753741Y-80241485D01*
X177685354Y-80291172D01*
X177685352Y-80291174D01*
X177685351Y-80291174D01*
X177546174Y-80430351D01*
X177546174Y-80430352D01*
X177546172Y-80430354D01*
X177496485Y-80498741D01*
X177430476Y-80589594D01*
X177341117Y-80764970D01*
X177280290Y-80952173D01*
X177249500Y-81146577D01*
X177249500Y-81343422D01*
X177280290Y-81537826D01*
X177341117Y-81725029D01*
X177430343Y-81900143D01*
X177430476Y-81900405D01*
X177546172Y-82059646D01*
X177685354Y-82198828D01*
X177758492Y-82251966D01*
X177844596Y-82314525D01*
X178021763Y-82404795D01*
X178072560Y-82452769D01*
X178089355Y-82520590D01*
X178066818Y-82586725D01*
X178021764Y-82625765D01*
X177844859Y-82715902D01*
X177809873Y-82741320D01*
X177809872Y-82741320D01*
X178411415Y-83342861D01*
X178326306Y-83365667D01*
X178223694Y-83424910D01*
X178139910Y-83508694D01*
X178080667Y-83611306D01*
X178057861Y-83696414D01*
X177456320Y-83094872D01*
X177456320Y-83094873D01*
X177430902Y-83129859D01*
X177430899Y-83129863D01*
X177341582Y-83305161D01*
X177280778Y-83492294D01*
X177250000Y-83686617D01*
X177250000Y-83883382D01*
X177280778Y-84077705D01*
X177341581Y-84264835D01*
X177430905Y-84440145D01*
X177456319Y-84475125D01*
X177456320Y-84475125D01*
X178057861Y-83873584D01*
X178080667Y-83958694D01*
X178139910Y-84061306D01*
X178223694Y-84145090D01*
X178326306Y-84204333D01*
X178411414Y-84227137D01*
X177809873Y-84828677D01*
X177809873Y-84828678D01*
X177844858Y-84854096D01*
X178021764Y-84944234D01*
X178072560Y-84992209D01*
X178089355Y-85060030D01*
X178066818Y-85126164D01*
X178021764Y-85165204D01*
X177844594Y-85255476D01*
X177753741Y-85321485D01*
X177685354Y-85371172D01*
X177685352Y-85371174D01*
X177685351Y-85371174D01*
X177546174Y-85510351D01*
X177546174Y-85510352D01*
X177546172Y-85510354D01*
X177496485Y-85578741D01*
X177430476Y-85669594D01*
X177341117Y-85844970D01*
X177280290Y-86032173D01*
X177249500Y-86226577D01*
X177249500Y-86423422D01*
X177280290Y-86617826D01*
X177341117Y-86805029D01*
X177430343Y-86980143D01*
X177430476Y-86980405D01*
X177546172Y-87139646D01*
X177685354Y-87278828D01*
X177844595Y-87394524D01*
X177952447Y-87449477D01*
X178021213Y-87484515D01*
X178072009Y-87532489D01*
X178088804Y-87600310D01*
X178066267Y-87666445D01*
X178021213Y-87705485D01*
X177844594Y-87795476D01*
X177753741Y-87861485D01*
X177685354Y-87911172D01*
X177685352Y-87911174D01*
X177685351Y-87911174D01*
X177546174Y-88050351D01*
X177546174Y-88050352D01*
X177546172Y-88050354D01*
X177496485Y-88118741D01*
X177430476Y-88209594D01*
X177341117Y-88384970D01*
X177280290Y-88572173D01*
X177249500Y-88766577D01*
X177249500Y-88963422D01*
X177280290Y-89157826D01*
X177341117Y-89345029D01*
X177420173Y-89500185D01*
X177430476Y-89520405D01*
X177546172Y-89679646D01*
X177685354Y-89818828D01*
X177844595Y-89934524D01*
X177957956Y-89992284D01*
X178021213Y-90024515D01*
X178072009Y-90072489D01*
X178088804Y-90140310D01*
X178066267Y-90206445D01*
X178021213Y-90245485D01*
X177844594Y-90335476D01*
X177772053Y-90388181D01*
X177685354Y-90451172D01*
X177685352Y-90451174D01*
X177685351Y-90451174D01*
X177546174Y-90590351D01*
X177546174Y-90590352D01*
X177546172Y-90590354D01*
X177523191Y-90621985D01*
X177430476Y-90749594D01*
X177341117Y-90924970D01*
X177280290Y-91112173D01*
X177249500Y-91306577D01*
X177249500Y-91503422D01*
X177280290Y-91697826D01*
X177341117Y-91885029D01*
X177430409Y-92060274D01*
X177430476Y-92060405D01*
X177546172Y-92219646D01*
X177685354Y-92358828D01*
X177844595Y-92474524D01*
X177952447Y-92529477D01*
X178021213Y-92564515D01*
X178072009Y-92612489D01*
X178088804Y-92680310D01*
X178066267Y-92746445D01*
X178021213Y-92785485D01*
X177844594Y-92875476D01*
X177758006Y-92938387D01*
X177685354Y-92991172D01*
X177685352Y-92991174D01*
X177685351Y-92991174D01*
X177546174Y-93130351D01*
X177546174Y-93130352D01*
X177546172Y-93130354D01*
X177515196Y-93172989D01*
X177430476Y-93289594D01*
X177341117Y-93464970D01*
X177280290Y-93652173D01*
X177249500Y-93846577D01*
X177249500Y-94043422D01*
X177281023Y-94242453D01*
X177272068Y-94311747D01*
X177246231Y-94349532D01*
X167126584Y-104469181D01*
X167065261Y-104502666D01*
X167038903Y-104505500D01*
X156987334Y-104505500D01*
X156920295Y-104485815D01*
X156874540Y-104433011D01*
X156864596Y-104363853D01*
X156864861Y-104362102D01*
X156890000Y-104203382D01*
X156890000Y-104006617D01*
X156859221Y-103812294D01*
X156798418Y-103625164D01*
X156709096Y-103449858D01*
X156683678Y-103414873D01*
X156683677Y-103414873D01*
X156082137Y-104016413D01*
X156059333Y-103931306D01*
X156000090Y-103828694D01*
X155916306Y-103744910D01*
X155813694Y-103685667D01*
X155728584Y-103662861D01*
X156330125Y-103061320D01*
X156330125Y-103061319D01*
X156295145Y-103035905D01*
X156118235Y-102945765D01*
X156067439Y-102897790D01*
X156050644Y-102829969D01*
X156073182Y-102763834D01*
X156118236Y-102724795D01*
X156120022Y-102723884D01*
X156120025Y-102723884D01*
X156295405Y-102634524D01*
X156454646Y-102518828D01*
X156593828Y-102379646D01*
X156709524Y-102220405D01*
X156798884Y-102045025D01*
X156859709Y-101857826D01*
X156863336Y-101834924D01*
X156890500Y-101663422D01*
X156890500Y-101466577D01*
X156859709Y-101272173D01*
X156798882Y-101084970D01*
X156731196Y-100952129D01*
X156709524Y-100909595D01*
X156593828Y-100750354D01*
X156454646Y-100611172D01*
X156375025Y-100553324D01*
X156295403Y-100495474D01*
X156118787Y-100405485D01*
X156067990Y-100357511D01*
X156051195Y-100289690D01*
X156073732Y-100223555D01*
X156118787Y-100184515D01*
X156295403Y-100094525D01*
X156295402Y-100094525D01*
X156295405Y-100094524D01*
X156454646Y-99978828D01*
X156593828Y-99839646D01*
X156709524Y-99680405D01*
X156798884Y-99505025D01*
X156859709Y-99317826D01*
X156890500Y-99123422D01*
X156890500Y-98926577D01*
X156859709Y-98732173D01*
X156798882Y-98544970D01*
X156718994Y-98388181D01*
X156709524Y-98369595D01*
X156593828Y-98210354D01*
X156454646Y-98071172D01*
X156295405Y-97955476D01*
X156120025Y-97866116D01*
X156120024Y-97866115D01*
X156118235Y-97865204D01*
X156067439Y-97817230D01*
X156050644Y-97749409D01*
X156073181Y-97683274D01*
X156118236Y-97644234D01*
X156295141Y-97554097D01*
X156330125Y-97528678D01*
X156330126Y-97528678D01*
X155728585Y-96927137D01*
X155813694Y-96904333D01*
X155916306Y-96845090D01*
X156000090Y-96761306D01*
X156059333Y-96658694D01*
X156082137Y-96573585D01*
X156683678Y-97175126D01*
X156683678Y-97175125D01*
X156709095Y-97140143D01*
X156798418Y-96964835D01*
X156859221Y-96777705D01*
X156890000Y-96583382D01*
X156890000Y-96386617D01*
X156859221Y-96192294D01*
X156798418Y-96005164D01*
X156709096Y-95829858D01*
X156683678Y-95794873D01*
X156683677Y-95794873D01*
X156082137Y-96396413D01*
X156059333Y-96311306D01*
X156000090Y-96208694D01*
X155916306Y-96124910D01*
X155813694Y-96065667D01*
X155728584Y-96042861D01*
X156330125Y-95441320D01*
X156330125Y-95441319D01*
X156295145Y-95415905D01*
X156118235Y-95325765D01*
X156067439Y-95277790D01*
X156050644Y-95209969D01*
X156073182Y-95143834D01*
X156118236Y-95104795D01*
X156120022Y-95103884D01*
X156120025Y-95103884D01*
X156295405Y-95014524D01*
X156454646Y-94898828D01*
X156593828Y-94759646D01*
X156709524Y-94600405D01*
X156798884Y-94425025D01*
X156859709Y-94237826D01*
X156890500Y-94043422D01*
X156890500Y-93846577D01*
X156859709Y-93652173D01*
X156812268Y-93506166D01*
X156798884Y-93464975D01*
X156798882Y-93464972D01*
X156798882Y-93464970D01*
X156735112Y-93339815D01*
X156709524Y-93289595D01*
X156593828Y-93130354D01*
X156454646Y-92991172D01*
X156375025Y-92933324D01*
X156295403Y-92875474D01*
X156118787Y-92785485D01*
X156067990Y-92737511D01*
X156051195Y-92669690D01*
X156073732Y-92603555D01*
X156118787Y-92564515D01*
X156295403Y-92474525D01*
X156295402Y-92474525D01*
X156295405Y-92474524D01*
X156454646Y-92358828D01*
X156593828Y-92219646D01*
X156709524Y-92060405D01*
X156798884Y-91885025D01*
X156859709Y-91697826D01*
X156862291Y-91681525D01*
X156890500Y-91503422D01*
X156890500Y-91306577D01*
X156859709Y-91112173D01*
X156798882Y-90924970D01*
X156744131Y-90817516D01*
X156709524Y-90749595D01*
X156593828Y-90590354D01*
X156454646Y-90451172D01*
X156367947Y-90388181D01*
X156295403Y-90335474D01*
X156118787Y-90245485D01*
X156067990Y-90197511D01*
X156051195Y-90129690D01*
X156073732Y-90063555D01*
X156118787Y-90024515D01*
X156295403Y-89934525D01*
X156295402Y-89934525D01*
X156295405Y-89934524D01*
X156454646Y-89818828D01*
X156593828Y-89679646D01*
X156709524Y-89520405D01*
X156798884Y-89345025D01*
X156859709Y-89157826D01*
X156890500Y-88963422D01*
X156890500Y-88766577D01*
X156859709Y-88572173D01*
X156803597Y-88399480D01*
X156798884Y-88384975D01*
X156798882Y-88384972D01*
X156798882Y-88384970D01*
X156745142Y-88279500D01*
X156709524Y-88209595D01*
X156593828Y-88050354D01*
X156454646Y-87911172D01*
X156295405Y-87795476D01*
X156120025Y-87706116D01*
X156120024Y-87706115D01*
X156118235Y-87705204D01*
X156067439Y-87657230D01*
X156050644Y-87589409D01*
X156073181Y-87523274D01*
X156118236Y-87484234D01*
X156295141Y-87394097D01*
X156330125Y-87368678D01*
X156330126Y-87368678D01*
X155728585Y-86767137D01*
X155813694Y-86744333D01*
X155916306Y-86685090D01*
X156000090Y-86601306D01*
X156059333Y-86498694D01*
X156082137Y-86413585D01*
X156683678Y-87015126D01*
X156683678Y-87015125D01*
X156709095Y-86980143D01*
X156798418Y-86804835D01*
X156859221Y-86617705D01*
X156890000Y-86423382D01*
X156890000Y-86226617D01*
X156859221Y-86032294D01*
X156798418Y-85845164D01*
X156709096Y-85669858D01*
X156683678Y-85634873D01*
X156683677Y-85634873D01*
X156082137Y-86236413D01*
X156059333Y-86151306D01*
X156000090Y-86048694D01*
X155916306Y-85964910D01*
X155813694Y-85905667D01*
X155728584Y-85882861D01*
X156330125Y-85281320D01*
X156330125Y-85281319D01*
X156295145Y-85255905D01*
X156118235Y-85165765D01*
X156067439Y-85117790D01*
X156050644Y-85049969D01*
X156073182Y-84983834D01*
X156118236Y-84944795D01*
X156120022Y-84943884D01*
X156120025Y-84943884D01*
X156295405Y-84854524D01*
X156454646Y-84738828D01*
X156593828Y-84599646D01*
X156709524Y-84440405D01*
X156798884Y-84265025D01*
X156859709Y-84077826D01*
X156859728Y-84077705D01*
X156890500Y-83883422D01*
X156890500Y-83686577D01*
X156859709Y-83492173D01*
X156798882Y-83304970D01*
X156751743Y-83212455D01*
X156709524Y-83129595D01*
X156593828Y-82970354D01*
X156454646Y-82831172D01*
X156295405Y-82715476D01*
X156120025Y-82626116D01*
X156120024Y-82626115D01*
X156118235Y-82625204D01*
X156067439Y-82577230D01*
X156050644Y-82509409D01*
X156073181Y-82443274D01*
X156118236Y-82404234D01*
X156295141Y-82314097D01*
X156330125Y-82288678D01*
X156330126Y-82288678D01*
X155728585Y-81687137D01*
X155813694Y-81664333D01*
X155916306Y-81605090D01*
X156000090Y-81521306D01*
X156059333Y-81418694D01*
X156082137Y-81333585D01*
X156683678Y-81935126D01*
X156683678Y-81935125D01*
X156709095Y-81900143D01*
X156798418Y-81724835D01*
X156859221Y-81537705D01*
X156890000Y-81343382D01*
X156890000Y-81146617D01*
X156859221Y-80952294D01*
X156798418Y-80765164D01*
X156709096Y-80589858D01*
X156683678Y-80554873D01*
X156683677Y-80554873D01*
X156082137Y-81156413D01*
X156059333Y-81071306D01*
X156000090Y-80968694D01*
X155916306Y-80884910D01*
X155813694Y-80825667D01*
X155728584Y-80802861D01*
X156330125Y-80201320D01*
X156330125Y-80201319D01*
X156295145Y-80175905D01*
X156118235Y-80085765D01*
X156067439Y-80037790D01*
X156050644Y-79969969D01*
X156073182Y-79903834D01*
X156118236Y-79864795D01*
X156120022Y-79863884D01*
X156120025Y-79863884D01*
X156295405Y-79774524D01*
X156454646Y-79658828D01*
X156593828Y-79519646D01*
X156709524Y-79360405D01*
X156798884Y-79185025D01*
X156859709Y-78997826D01*
X156890500Y-78803422D01*
X156890500Y-78606577D01*
X156859709Y-78412173D01*
X156798882Y-78224970D01*
X156709523Y-78049594D01*
X156701380Y-78038386D01*
X156593828Y-77890354D01*
X156454646Y-77751172D01*
X156375025Y-77693324D01*
X156295403Y-77635474D01*
X156118787Y-77545485D01*
X156067990Y-77497511D01*
X156051195Y-77429690D01*
X156073732Y-77363555D01*
X156118787Y-77324515D01*
X156295403Y-77234525D01*
X156295402Y-77234525D01*
X156295405Y-77234524D01*
X156454646Y-77118828D01*
X156593828Y-76979646D01*
X156709524Y-76820405D01*
X156798884Y-76645025D01*
X156859709Y-76457826D01*
X156859728Y-76457705D01*
X156890500Y-76263422D01*
X156890500Y-76066577D01*
X156859709Y-75872173D01*
X156798882Y-75684970D01*
X156751743Y-75592455D01*
X156709524Y-75509595D01*
X156593828Y-75350354D01*
X156454646Y-75211172D01*
X156330975Y-75121319D01*
X156295403Y-75095474D01*
X156118787Y-75005485D01*
X156067990Y-74957511D01*
X156051195Y-74889690D01*
X156073732Y-74823555D01*
X156118787Y-74784515D01*
X156295403Y-74694525D01*
X156295402Y-74694525D01*
X156295405Y-74694524D01*
X156454646Y-74578828D01*
X156593828Y-74439646D01*
X156709524Y-74280405D01*
X156798884Y-74105025D01*
X156859709Y-73917826D01*
X156890500Y-73723422D01*
X156890500Y-73526577D01*
X156859709Y-73332173D01*
X156798882Y-73144970D01*
X156709523Y-72969594D01*
X156593828Y-72810354D01*
X156454646Y-72671172D01*
X156375025Y-72613324D01*
X156295403Y-72555474D01*
X156118787Y-72465485D01*
X156067990Y-72417511D01*
X156051195Y-72349690D01*
X156073732Y-72283555D01*
X156118787Y-72244515D01*
X156295403Y-72154525D01*
X156295402Y-72154525D01*
X156295405Y-72154524D01*
X156454646Y-72038828D01*
X156593828Y-71899646D01*
X156709524Y-71740405D01*
X156798884Y-71565025D01*
X156859709Y-71377826D01*
X156890500Y-71183422D01*
X156890500Y-70986577D01*
X156859709Y-70792173D01*
X156798882Y-70604970D01*
X156709523Y-70429594D01*
X156593828Y-70270354D01*
X156454646Y-70131172D01*
X156300692Y-70019317D01*
X156258028Y-69963988D01*
X156252049Y-69894374D01*
X156284655Y-69832579D01*
X156345494Y-69798222D01*
X156373579Y-69795000D01*
X156437828Y-69795000D01*
X156437844Y-69794999D01*
X156497372Y-69788598D01*
X156497379Y-69788596D01*
X156632086Y-69738354D01*
X156632093Y-69738350D01*
X156747187Y-69652190D01*
X156747190Y-69652187D01*
X156833350Y-69537093D01*
X156833354Y-69537086D01*
X156883596Y-69402379D01*
X156883598Y-69402372D01*
X156889999Y-69342844D01*
X156890000Y-69342827D01*
X156890000Y-68795000D01*
X156015278Y-68795000D01*
X156059333Y-68718694D01*
X156090000Y-68604244D01*
X156090000Y-68485756D01*
X156059333Y-68371306D01*
X156015278Y-68295000D01*
X156890000Y-68295000D01*
X156890000Y-67747172D01*
X156889999Y-67747155D01*
X156883598Y-67687627D01*
X156883596Y-67687620D01*
X156847900Y-67591912D01*
X156833354Y-67552913D01*
X156833350Y-67552906D01*
X156747190Y-67437812D01*
X156747187Y-67437809D01*
X156632093Y-67351649D01*
X156632086Y-67351645D01*
X156497379Y-67301403D01*
X156497372Y-67301401D01*
X156437844Y-67295000D01*
X155890000Y-67295000D01*
X155890000Y-68169722D01*
X155813694Y-68125667D01*
X155699244Y-68095000D01*
X155580756Y-68095000D01*
X155466306Y-68125667D01*
X155390000Y-68169722D01*
X155390000Y-67295000D01*
X154842155Y-67295000D01*
X154782627Y-67301401D01*
X154782620Y-67301403D01*
X154647913Y-67351645D01*
X154647906Y-67351649D01*
X154532812Y-67437809D01*
X154532809Y-67437812D01*
X154446649Y-67552906D01*
X154446645Y-67552913D01*
X154396403Y-67687620D01*
X154396401Y-67687627D01*
X154390000Y-67747155D01*
X154390000Y-68295000D01*
X155264722Y-68295000D01*
X155220667Y-68371306D01*
X155190000Y-68485756D01*
X155190000Y-68604244D01*
X155220667Y-68718694D01*
X155264722Y-68795000D01*
X154390000Y-68795000D01*
X154390000Y-69342844D01*
X154396401Y-69402372D01*
X154396403Y-69402379D01*
X154446645Y-69537086D01*
X154446649Y-69537093D01*
X154532809Y-69652187D01*
X154532812Y-69652190D01*
X154647906Y-69738350D01*
X154647913Y-69738354D01*
X154782620Y-69788596D01*
X154782627Y-69788598D01*
X154842155Y-69794999D01*
X154842172Y-69795000D01*
X154906421Y-69795000D01*
X154973460Y-69814685D01*
X155019215Y-69867489D01*
X155029159Y-69936647D01*
X155000134Y-70000203D01*
X154979307Y-70019317D01*
X154825354Y-70131172D01*
X154825352Y-70131174D01*
X154825351Y-70131174D01*
X154686174Y-70270351D01*
X154686174Y-70270352D01*
X154686172Y-70270354D01*
X154636485Y-70338741D01*
X154570476Y-70429594D01*
X154481117Y-70604970D01*
X154420290Y-70792173D01*
X154389500Y-70986577D01*
X154389500Y-71183422D01*
X154420290Y-71377826D01*
X154481117Y-71565029D01*
X154570476Y-71740405D01*
X154686172Y-71899646D01*
X154825354Y-72038828D01*
X154984595Y-72154524D01*
X155107992Y-72217397D01*
X155161213Y-72244515D01*
X155212009Y-72292489D01*
X155228804Y-72360310D01*
X155206267Y-72426445D01*
X155161213Y-72465485D01*
X154984594Y-72555476D01*
X154893741Y-72621485D01*
X154825354Y-72671172D01*
X154825352Y-72671174D01*
X154825351Y-72671174D01*
X154686174Y-72810351D01*
X154686174Y-72810352D01*
X154686172Y-72810354D01*
X154636485Y-72878741D01*
X154570476Y-72969594D01*
X154481117Y-73144970D01*
X154420290Y-73332173D01*
X154389500Y-73526577D01*
X154389500Y-73723422D01*
X154420290Y-73917826D01*
X154481117Y-74105029D01*
X154570476Y-74280405D01*
X154686172Y-74439646D01*
X154825354Y-74578828D01*
X154984595Y-74694524D01*
X155107992Y-74757397D01*
X155161213Y-74784515D01*
X155212009Y-74832489D01*
X155228804Y-74900310D01*
X155206267Y-74966445D01*
X155161213Y-75005485D01*
X154984594Y-75095476D01*
X154893741Y-75161485D01*
X154825354Y-75211172D01*
X154825352Y-75211174D01*
X154825351Y-75211174D01*
X154686174Y-75350351D01*
X154686174Y-75350352D01*
X154686172Y-75350354D01*
X154636485Y-75418741D01*
X154570476Y-75509594D01*
X154481117Y-75684970D01*
X154420290Y-75872173D01*
X154389500Y-76066577D01*
X154389500Y-76263422D01*
X154421023Y-76462453D01*
X154412068Y-76531747D01*
X154386231Y-76569532D01*
X151451515Y-79504248D01*
X151390192Y-79537733D01*
X151320500Y-79532749D01*
X151264567Y-79490877D01*
X151240150Y-79425413D01*
X151253350Y-79360272D01*
X151325216Y-79219228D01*
X151325218Y-79219223D01*
X151325220Y-79219219D01*
X151388477Y-79024534D01*
X151420500Y-78822352D01*
X151420500Y-78617648D01*
X151418747Y-78606581D01*
X151388477Y-78415465D01*
X151359127Y-78325137D01*
X151325220Y-78220781D01*
X151325218Y-78220778D01*
X151325218Y-78220776D01*
X151291503Y-78154607D01*
X151232287Y-78038390D01*
X151224556Y-78027749D01*
X151111971Y-77872786D01*
X150967213Y-77728028D01*
X150801613Y-77607715D01*
X150801612Y-77607714D01*
X150801610Y-77607713D01*
X150744653Y-77578691D01*
X150619223Y-77514781D01*
X150424534Y-77451522D01*
X150249995Y-77423878D01*
X150222352Y-77419500D01*
X150017648Y-77419500D01*
X149993329Y-77423351D01*
X149815465Y-77451522D01*
X149620776Y-77514781D01*
X149438386Y-77607715D01*
X149272786Y-77728028D01*
X149128028Y-77872786D01*
X149007715Y-78038386D01*
X148914781Y-78220776D01*
X148851522Y-78415465D01*
X148819500Y-78617648D01*
X148819500Y-78822351D01*
X148851522Y-79024534D01*
X148914781Y-79219223D01*
X149007715Y-79401613D01*
X149128028Y-79567213D01*
X149272786Y-79711971D01*
X149427749Y-79824556D01*
X149438390Y-79832287D01*
X149529840Y-79878883D01*
X149531080Y-79879515D01*
X149581876Y-79927490D01*
X149598671Y-79995311D01*
X149576134Y-80061446D01*
X149531080Y-80100485D01*
X149438386Y-80147715D01*
X149272786Y-80268028D01*
X149128028Y-80412786D01*
X149007715Y-80578386D01*
X148914781Y-80760776D01*
X148851522Y-80955465D01*
X148819500Y-81157648D01*
X148819500Y-81362351D01*
X148851522Y-81564534D01*
X148914781Y-81759223D01*
X148978691Y-81884653D01*
X149004409Y-81935126D01*
X149007715Y-81941613D01*
X149128028Y-82107213D01*
X149272786Y-82251971D01*
X149427749Y-82364556D01*
X149438390Y-82372287D01*
X149529840Y-82418883D01*
X149531080Y-82419515D01*
X149581876Y-82467490D01*
X149598671Y-82535311D01*
X149576134Y-82601446D01*
X149531080Y-82640485D01*
X149438386Y-82687715D01*
X149272786Y-82808028D01*
X149128028Y-82952786D01*
X149007715Y-83118386D01*
X148914781Y-83300776D01*
X148851522Y-83495465D01*
X148819500Y-83697648D01*
X148819500Y-83902351D01*
X148851522Y-84104534D01*
X148914781Y-84299223D01*
X148978691Y-84424653D01*
X149004409Y-84475126D01*
X149007715Y-84481613D01*
X149128028Y-84647213D01*
X149272786Y-84791971D01*
X149419879Y-84898838D01*
X149438390Y-84912287D01*
X149529840Y-84958883D01*
X149531080Y-84959515D01*
X149581876Y-85007490D01*
X149598671Y-85075311D01*
X149576134Y-85141446D01*
X149531080Y-85180485D01*
X149438386Y-85227715D01*
X149272786Y-85348028D01*
X149128028Y-85492786D01*
X149007715Y-85658386D01*
X148914781Y-85840776D01*
X148851522Y-86035465D01*
X148819500Y-86237648D01*
X148819500Y-86442351D01*
X148851522Y-86644534D01*
X148914781Y-86839223D01*
X148978691Y-86964653D01*
X149004409Y-87015126D01*
X149007715Y-87021613D01*
X149128028Y-87187213D01*
X149214938Y-87274123D01*
X149219273Y-87282062D01*
X149226517Y-87287484D01*
X149235756Y-87312249D01*
X149248423Y-87335446D01*
X149247777Y-87344469D01*
X149250940Y-87352946D01*
X149245324Y-87378772D01*
X149243439Y-87405138D01*
X149237624Y-87414185D01*
X149236095Y-87421221D01*
X149214952Y-87449467D01*
X149214946Y-87449477D01*
X149204147Y-87460278D01*
X149204144Y-87460279D01*
X149204144Y-87460280D01*
X149204143Y-87460279D01*
X149204143Y-87460280D01*
X149204139Y-87460286D01*
X148588481Y-88075943D01*
X148588480Y-88075945D01*
X148559178Y-88126698D01*
X148519938Y-88194662D01*
X148517787Y-88198390D01*
X148509423Y-88212876D01*
X148468499Y-88365604D01*
X148468499Y-88523718D01*
X148468499Y-88523720D01*
X148468500Y-88533714D01*
X148468500Y-90282330D01*
X148468499Y-90282348D01*
X148468499Y-90448054D01*
X148468498Y-90448054D01*
X148469334Y-90451174D01*
X148506627Y-90590352D01*
X148509424Y-90600787D01*
X148521663Y-90621985D01*
X148521664Y-90621987D01*
X148588477Y-90737712D01*
X148588481Y-90737717D01*
X148707349Y-90856585D01*
X148707355Y-90856590D01*
X148825922Y-90975157D01*
X148859407Y-91036480D01*
X148856173Y-91101155D01*
X148851522Y-91115468D01*
X148819500Y-91317648D01*
X148819500Y-91522351D01*
X148851522Y-91724534D01*
X148914781Y-91919223D01*
X148926647Y-91942510D01*
X148993402Y-92073524D01*
X149007715Y-92101613D01*
X149128028Y-92267213D01*
X149214938Y-92354123D01*
X149219273Y-92362062D01*
X149226517Y-92367484D01*
X149235756Y-92392249D01*
X149248423Y-92415446D01*
X149247777Y-92424469D01*
X149250940Y-92432946D01*
X149245324Y-92458772D01*
X149243439Y-92485138D01*
X149237624Y-92494185D01*
X149236095Y-92501221D01*
X149214952Y-92529467D01*
X149214946Y-92529477D01*
X149204147Y-92540278D01*
X149204144Y-92540279D01*
X149204144Y-92540280D01*
X149204143Y-92540279D01*
X149204143Y-92540280D01*
X149204139Y-92540286D01*
X148588481Y-93155943D01*
X148588479Y-93155946D01*
X148577479Y-93175000D01*
X148559178Y-93206698D01*
X148535661Y-93247431D01*
X148515906Y-93281648D01*
X148509423Y-93292876D01*
X148468499Y-93445604D01*
X148468499Y-93445606D01*
X148468499Y-93613707D01*
X148468500Y-93613720D01*
X148468500Y-95362330D01*
X148468499Y-95362348D01*
X148468499Y-95528054D01*
X148468498Y-95528054D01*
X148468499Y-95528056D01*
X148468499Y-95528057D01*
X148509422Y-95680783D01*
X148509424Y-95680787D01*
X148521663Y-95701985D01*
X148521664Y-95701987D01*
X148588477Y-95817712D01*
X148588481Y-95817717D01*
X148707349Y-95936585D01*
X148707355Y-95936590D01*
X148783181Y-96012416D01*
X148816666Y-96073739D01*
X148819500Y-96100097D01*
X148819500Y-97100001D01*
X148819501Y-97100019D01*
X148830000Y-97202796D01*
X148830001Y-97202799D01*
X148877856Y-97347213D01*
X148885186Y-97369334D01*
X148977288Y-97518656D01*
X149101344Y-97642712D01*
X149250666Y-97734814D01*
X149417203Y-97789999D01*
X149519991Y-97800500D01*
X150720008Y-97800499D01*
X150822797Y-97789999D01*
X150989334Y-97734814D01*
X151138656Y-97642712D01*
X151262712Y-97518656D01*
X151354814Y-97369334D01*
X151409999Y-97202797D01*
X151420500Y-97100009D01*
X151420499Y-95899992D01*
X151409999Y-95797203D01*
X151354814Y-95630666D01*
X151262712Y-95481344D01*
X151138656Y-95357288D01*
X151037314Y-95294780D01*
X150989336Y-95265187D01*
X150989335Y-95265186D01*
X150989334Y-95265186D01*
X150907427Y-95238044D01*
X150849984Y-95198272D01*
X150823161Y-95133756D01*
X150835476Y-95064980D01*
X150873547Y-95020021D01*
X150967219Y-94951966D01*
X151111966Y-94807219D01*
X151111968Y-94807215D01*
X151111971Y-94807213D01*
X151232284Y-94641614D01*
X151232283Y-94641614D01*
X151232287Y-94641610D01*
X151239117Y-94628204D01*
X151287091Y-94577409D01*
X151349602Y-94560500D01*
X152998331Y-94560500D01*
X152998347Y-94560501D01*
X153005943Y-94560501D01*
X153164054Y-94560501D01*
X153164057Y-94560501D01*
X153316785Y-94519577D01*
X153366904Y-94490639D01*
X153453716Y-94440520D01*
X153565520Y-94328716D01*
X153565520Y-94328714D01*
X153575728Y-94318507D01*
X153575729Y-94318504D01*
X154183978Y-93710256D01*
X154245300Y-93676772D01*
X154314992Y-93681756D01*
X154370925Y-93723628D01*
X154395342Y-93789092D01*
X154394132Y-93817334D01*
X154389500Y-93846581D01*
X154389500Y-94043422D01*
X154420290Y-94237826D01*
X154481117Y-94425029D01*
X154550144Y-94560501D01*
X154570476Y-94600405D01*
X154686172Y-94759646D01*
X154825354Y-94898828D01*
X154933161Y-94977155D01*
X154984596Y-95014525D01*
X155161763Y-95104795D01*
X155212560Y-95152769D01*
X155229355Y-95220590D01*
X155206818Y-95286725D01*
X155161764Y-95325765D01*
X154984859Y-95415902D01*
X154949873Y-95441320D01*
X154949872Y-95441320D01*
X155551415Y-96042861D01*
X155466306Y-96065667D01*
X155363694Y-96124910D01*
X155279910Y-96208694D01*
X155220667Y-96311306D01*
X155197861Y-96396414D01*
X154596320Y-95794872D01*
X154596320Y-95794873D01*
X154570902Y-95829859D01*
X154570899Y-95829863D01*
X154481582Y-96005161D01*
X154420778Y-96192294D01*
X154390000Y-96386617D01*
X154390000Y-96583382D01*
X154420778Y-96777705D01*
X154481581Y-96964835D01*
X154570905Y-97140145D01*
X154596319Y-97175125D01*
X154596320Y-97175125D01*
X155197861Y-96573584D01*
X155220667Y-96658694D01*
X155279910Y-96761306D01*
X155363694Y-96845090D01*
X155466306Y-96904333D01*
X155551414Y-96927137D01*
X154949873Y-97528677D01*
X154949873Y-97528678D01*
X154984858Y-97554096D01*
X155161764Y-97644234D01*
X155212560Y-97692209D01*
X155229355Y-97760030D01*
X155206818Y-97826164D01*
X155161764Y-97865204D01*
X154984594Y-97955476D01*
X154893741Y-98021485D01*
X154825354Y-98071172D01*
X154825352Y-98071174D01*
X154825351Y-98071174D01*
X154686174Y-98210351D01*
X154686174Y-98210352D01*
X154686172Y-98210354D01*
X154570477Y-98369594D01*
X154567722Y-98373386D01*
X154512392Y-98416051D01*
X154467404Y-98424500D01*
X139825097Y-98424500D01*
X139758058Y-98404815D01*
X139737416Y-98388181D01*
X134986416Y-93637181D01*
X134952931Y-93575858D01*
X134957915Y-93506166D01*
X134999787Y-93450233D01*
X135065251Y-93425816D01*
X135074097Y-93425500D01*
X135091156Y-93425500D01*
X135211445Y-93401572D01*
X135269958Y-93389933D01*
X135333667Y-93363543D01*
X135403132Y-93356075D01*
X135465612Y-93387349D01*
X135488504Y-93416105D01*
X135519477Y-93469752D01*
X135519481Y-93469757D01*
X135638349Y-93588625D01*
X135638355Y-93588630D01*
X136374099Y-94324374D01*
X136374109Y-94324385D01*
X136378439Y-94328715D01*
X136378440Y-94328716D01*
X136490244Y-94440520D01*
X136511014Y-94452511D01*
X136577055Y-94490639D01*
X136577057Y-94490641D01*
X136609285Y-94509248D01*
X136627175Y-94519577D01*
X136779903Y-94560501D01*
X136779906Y-94560501D01*
X136945613Y-94560501D01*
X136945629Y-94560500D01*
X141270398Y-94560500D01*
X141337437Y-94580185D01*
X141380883Y-94628205D01*
X141387715Y-94641614D01*
X141508028Y-94807213D01*
X141652786Y-94951971D01*
X141807749Y-95064556D01*
X141818390Y-95072287D01*
X141909840Y-95118883D01*
X141911080Y-95119515D01*
X141961876Y-95167490D01*
X141978671Y-95235311D01*
X141956134Y-95301446D01*
X141911080Y-95340485D01*
X141818386Y-95387715D01*
X141652786Y-95508028D01*
X141508028Y-95652786D01*
X141387715Y-95818386D01*
X141294781Y-96000776D01*
X141231522Y-96195465D01*
X141199500Y-96397648D01*
X141199500Y-96602351D01*
X141231522Y-96804534D01*
X141294781Y-96999223D01*
X141346135Y-97100009D01*
X141384409Y-97175126D01*
X141387715Y-97181613D01*
X141508028Y-97347213D01*
X141652786Y-97491971D01*
X141807749Y-97604556D01*
X141818390Y-97612287D01*
X141934607Y-97671503D01*
X142000776Y-97705218D01*
X142000778Y-97705218D01*
X142000781Y-97705220D01*
X142091856Y-97734812D01*
X142195465Y-97768477D01*
X142296557Y-97784488D01*
X142397648Y-97800500D01*
X142397649Y-97800500D01*
X142602351Y-97800500D01*
X142602352Y-97800500D01*
X142804534Y-97768477D01*
X142999219Y-97705220D01*
X143181610Y-97612287D01*
X143310482Y-97518657D01*
X143347213Y-97491971D01*
X143347215Y-97491968D01*
X143347219Y-97491966D01*
X143491966Y-97347219D01*
X143491968Y-97347215D01*
X143491971Y-97347213D01*
X143596892Y-97202799D01*
X143612287Y-97181610D01*
X143705220Y-96999219D01*
X143768477Y-96804534D01*
X143800500Y-96602352D01*
X143800500Y-96397648D01*
X143786825Y-96311306D01*
X143768478Y-96195472D01*
X143768477Y-96195471D01*
X143768477Y-96195466D01*
X143763825Y-96181151D01*
X143763391Y-96165940D01*
X143758074Y-96151683D01*
X143762414Y-96131728D01*
X143761832Y-96111312D01*
X143769920Y-96097225D01*
X143772926Y-96083410D01*
X143794074Y-96055159D01*
X143909506Y-95939728D01*
X143909511Y-95939724D01*
X143919714Y-95929520D01*
X143919716Y-95929520D01*
X144031520Y-95817716D01*
X144110577Y-95680784D01*
X144151500Y-95528057D01*
X144151500Y-93445604D01*
X144110577Y-93292877D01*
X144110573Y-93292870D01*
X144031524Y-93155951D01*
X144031521Y-93155947D01*
X144031520Y-93155945D01*
X143919716Y-93044141D01*
X143919715Y-93044140D01*
X143915385Y-93039810D01*
X143915374Y-93039800D01*
X143405060Y-92529486D01*
X143371575Y-92468163D01*
X143376559Y-92398471D01*
X143405056Y-92354128D01*
X143491966Y-92267219D01*
X143493395Y-92265253D01*
X143526529Y-92219647D01*
X143612287Y-92101610D01*
X143705220Y-91919219D01*
X143768477Y-91724534D01*
X143800500Y-91522352D01*
X143800500Y-91317648D01*
X143798747Y-91306581D01*
X143768477Y-91115465D01*
X143722888Y-90975157D01*
X143705220Y-90920781D01*
X143705218Y-90920778D01*
X143705218Y-90920776D01*
X143668911Y-90849520D01*
X143612287Y-90738390D01*
X143604556Y-90727749D01*
X143491971Y-90572786D01*
X143347213Y-90428028D01*
X143181614Y-90307715D01*
X143146734Y-90289943D01*
X143088917Y-90260483D01*
X143038123Y-90212511D01*
X143021328Y-90144690D01*
X143043865Y-90078555D01*
X143088917Y-90039516D01*
X143181610Y-89992287D01*
X143202770Y-89976913D01*
X143347213Y-89871971D01*
X143347215Y-89871968D01*
X143347219Y-89871966D01*
X143491966Y-89727219D01*
X143491968Y-89727215D01*
X143491971Y-89727213D01*
X143544732Y-89654590D01*
X143612287Y-89561610D01*
X143705220Y-89379219D01*
X143768477Y-89184534D01*
X143800500Y-88982352D01*
X143800500Y-88777648D01*
X143768477Y-88575466D01*
X143768476Y-88575462D01*
X143768476Y-88575461D01*
X143710098Y-88395794D01*
X143710097Y-88395792D01*
X143705220Y-88380780D01*
X143673037Y-88317620D01*
X143612287Y-88198390D01*
X143560201Y-88126699D01*
X143491971Y-88032786D01*
X143347213Y-87888028D01*
X143181614Y-87767715D01*
X143175006Y-87764348D01*
X143088917Y-87720483D01*
X143038123Y-87672511D01*
X143021328Y-87604690D01*
X143043865Y-87538555D01*
X143088917Y-87499516D01*
X143181610Y-87452287D01*
X143224369Y-87421221D01*
X143347213Y-87331971D01*
X143347215Y-87331968D01*
X143347219Y-87331966D01*
X143491966Y-87187219D01*
X143491968Y-87187215D01*
X143491971Y-87187213D01*
X143544732Y-87114590D01*
X143612287Y-87021610D01*
X143705220Y-86839219D01*
X143768477Y-86644534D01*
X143800500Y-86442352D01*
X143800500Y-86237648D01*
X143798747Y-86226583D01*
X143768477Y-86035465D01*
X143706643Y-85845161D01*
X143705220Y-85840781D01*
X143705218Y-85840778D01*
X143705218Y-85840776D01*
X143671503Y-85774607D01*
X143612287Y-85658390D01*
X143595200Y-85634872D01*
X143491971Y-85492786D01*
X143347213Y-85348028D01*
X143181614Y-85227715D01*
X143175006Y-85224348D01*
X143088917Y-85180483D01*
X143038123Y-85132511D01*
X143021328Y-85064690D01*
X143043865Y-84998555D01*
X143088917Y-84959516D01*
X143181610Y-84912287D01*
X143256416Y-84857938D01*
X143347213Y-84791971D01*
X143347215Y-84791968D01*
X143347219Y-84791966D01*
X143491966Y-84647219D01*
X143491968Y-84647215D01*
X143491971Y-84647213D01*
X143544732Y-84574590D01*
X143612287Y-84481610D01*
X143705220Y-84299219D01*
X143768477Y-84104534D01*
X143800500Y-83902352D01*
X143800500Y-83697648D01*
X143798747Y-83686583D01*
X143768477Y-83495465D01*
X143706643Y-83305161D01*
X143705220Y-83300781D01*
X143705218Y-83300778D01*
X143705218Y-83300776D01*
X143671503Y-83234607D01*
X143612287Y-83118390D01*
X143595200Y-83094872D01*
X143491971Y-82952786D01*
X143347213Y-82808028D01*
X143181614Y-82687715D01*
X143175006Y-82684348D01*
X143088917Y-82640483D01*
X143038123Y-82592511D01*
X143021328Y-82524690D01*
X143043865Y-82458555D01*
X143088917Y-82419516D01*
X143181610Y-82372287D01*
X143202770Y-82356913D01*
X143347213Y-82251971D01*
X143347215Y-82251968D01*
X143347219Y-82251966D01*
X143491966Y-82107219D01*
X143491968Y-82107215D01*
X143491971Y-82107213D01*
X143544732Y-82034590D01*
X143612287Y-81941610D01*
X143705220Y-81759219D01*
X143768477Y-81564534D01*
X143800500Y-81362352D01*
X143800500Y-81157648D01*
X143798747Y-81146583D01*
X143768477Y-80955465D01*
X143706644Y-80765164D01*
X143705220Y-80760781D01*
X143705218Y-80760778D01*
X143705218Y-80760776D01*
X143671503Y-80694607D01*
X143612287Y-80578390D01*
X143595201Y-80554873D01*
X143491971Y-80412786D01*
X143347213Y-80268028D01*
X143181614Y-80147715D01*
X143175006Y-80144348D01*
X143088917Y-80100483D01*
X143038123Y-80052511D01*
X143021328Y-79984690D01*
X143043865Y-79918555D01*
X143088917Y-79879516D01*
X143181610Y-79832287D01*
X143202770Y-79816913D01*
X143347213Y-79711971D01*
X143347215Y-79711968D01*
X143347219Y-79711966D01*
X143491966Y-79567219D01*
X143491968Y-79567215D01*
X143491971Y-79567213D01*
X143559537Y-79474215D01*
X143612287Y-79401610D01*
X143705220Y-79219219D01*
X143768477Y-79024534D01*
X143800500Y-78822352D01*
X143800500Y-78617648D01*
X143798747Y-78606581D01*
X143768477Y-78415465D01*
X143739127Y-78325137D01*
X143705220Y-78220781D01*
X143705218Y-78220778D01*
X143705218Y-78220776D01*
X143671503Y-78154607D01*
X143612287Y-78038390D01*
X143604556Y-78027749D01*
X143491971Y-77872786D01*
X143347213Y-77728028D01*
X143181613Y-77607715D01*
X143181612Y-77607714D01*
X143181610Y-77607713D01*
X143124653Y-77578691D01*
X142999223Y-77514781D01*
X142804534Y-77451522D01*
X142629995Y-77423878D01*
X142602352Y-77419500D01*
X142397648Y-77419500D01*
X142373329Y-77423351D01*
X142195465Y-77451522D01*
X142000776Y-77514781D01*
X141818386Y-77607715D01*
X141652786Y-77728028D01*
X141508028Y-77872786D01*
X141387715Y-78038386D01*
X141294781Y-78220776D01*
X141231522Y-78415465D01*
X141199500Y-78617648D01*
X141199500Y-78822351D01*
X141231522Y-79024534D01*
X141294781Y-79219223D01*
X141387715Y-79401613D01*
X141508028Y-79567213D01*
X141652786Y-79711971D01*
X141807749Y-79824556D01*
X141818390Y-79832287D01*
X141909840Y-79878883D01*
X141911080Y-79879515D01*
X141961876Y-79927490D01*
X141978671Y-79995311D01*
X141956134Y-80061446D01*
X141911080Y-80100485D01*
X141818386Y-80147715D01*
X141652786Y-80268028D01*
X141508028Y-80412786D01*
X141387715Y-80578386D01*
X141294781Y-80760776D01*
X141231522Y-80955465D01*
X141199500Y-81157648D01*
X141199500Y-81362351D01*
X141231522Y-81564534D01*
X141294781Y-81759223D01*
X141358691Y-81884653D01*
X141384409Y-81935126D01*
X141387715Y-81941613D01*
X141508028Y-82107213D01*
X141652786Y-82251971D01*
X141807749Y-82364556D01*
X141818390Y-82372287D01*
X141909840Y-82418883D01*
X141911080Y-82419515D01*
X141961876Y-82467490D01*
X141978671Y-82535311D01*
X141956134Y-82601446D01*
X141911080Y-82640485D01*
X141818386Y-82687715D01*
X141652786Y-82808028D01*
X141508028Y-82952786D01*
X141387715Y-83118386D01*
X141294781Y-83300776D01*
X141231522Y-83495465D01*
X141199500Y-83697648D01*
X141199500Y-83902351D01*
X141231522Y-84104534D01*
X141294781Y-84299223D01*
X141358691Y-84424653D01*
X141384409Y-84475126D01*
X141387715Y-84481613D01*
X141508028Y-84647213D01*
X141652786Y-84791971D01*
X141799879Y-84898838D01*
X141818390Y-84912287D01*
X141909840Y-84958883D01*
X141911080Y-84959515D01*
X141961876Y-85007490D01*
X141978671Y-85075311D01*
X141956134Y-85141446D01*
X141911080Y-85180485D01*
X141818386Y-85227715D01*
X141652786Y-85348028D01*
X141508028Y-85492786D01*
X141387715Y-85658386D01*
X141294781Y-85840776D01*
X141231522Y-86035465D01*
X141199500Y-86237648D01*
X141199500Y-86442351D01*
X141231522Y-86644534D01*
X141294781Y-86839223D01*
X141358691Y-86964653D01*
X141384409Y-87015126D01*
X141387715Y-87021613D01*
X141508028Y-87187213D01*
X141652786Y-87331971D01*
X141775631Y-87421221D01*
X141818390Y-87452287D01*
X141881641Y-87484515D01*
X141911080Y-87499515D01*
X141961876Y-87547490D01*
X141978671Y-87615311D01*
X141956134Y-87681446D01*
X141911080Y-87720485D01*
X141818386Y-87767715D01*
X141652786Y-87888028D01*
X141508028Y-88032786D01*
X141387715Y-88198385D01*
X141380883Y-88211795D01*
X141332909Y-88262591D01*
X141270398Y-88279500D01*
X137699057Y-88279500D01*
X137540943Y-88279500D01*
X137388215Y-88320423D01*
X137388214Y-88320423D01*
X137388212Y-88320424D01*
X137388209Y-88320425D01*
X137338096Y-88349359D01*
X137338095Y-88349360D01*
X137309956Y-88365606D01*
X137251285Y-88399479D01*
X137251282Y-88399481D01*
X137161876Y-88488888D01*
X137139480Y-88511284D01*
X137139478Y-88511286D01*
X135611250Y-90039515D01*
X134112584Y-91538181D01*
X134051261Y-91571666D01*
X134024903Y-91574500D01*
X133908844Y-91574500D01*
X133730047Y-91610065D01*
X133730041Y-91610067D01*
X133561605Y-91679835D01*
X133558444Y-91681525D01*
X133556600Y-91681908D01*
X133555984Y-91682164D01*
X133555935Y-91682047D01*
X133490040Y-91695761D01*
X133441556Y-91681525D01*
X133438394Y-91679835D01*
X133269958Y-91610067D01*
X133269952Y-91610065D01*
X133091156Y-91574500D01*
X133091154Y-91574500D01*
X132908846Y-91574500D01*
X132908844Y-91574500D01*
X132730047Y-91610065D01*
X132730037Y-91610068D01*
X132561612Y-91679831D01*
X132561608Y-91679833D01*
X132410032Y-91781113D01*
X132410024Y-91781119D01*
X132281119Y-91910024D01*
X132281113Y-91910032D01*
X132179833Y-92061608D01*
X132179831Y-92061612D01*
X132110068Y-92230037D01*
X132110065Y-92230047D01*
X132074500Y-92408843D01*
X132074500Y-92408846D01*
X132074500Y-92591154D01*
X132074500Y-92591156D01*
X132074499Y-92591156D01*
X125500500Y-92591156D01*
X125500500Y-46124500D01*
X125520185Y-46057461D01*
X125572989Y-46011706D01*
X125624500Y-46000500D01*
X191375500Y-46000500D01*
X191442539Y-46020185D01*
G37*
%TD.AperFunction*%
%TD*%
%TA.AperFunction,Conductor*%
%TO.N,GND*%
G36*
X65814992Y-79156755D02*
G01*
X65870925Y-79198627D01*
X65895342Y-79264091D01*
X65894132Y-79292333D01*
X65889500Y-79321581D01*
X65889500Y-79518422D01*
X65920290Y-79712826D01*
X65981117Y-79900029D01*
X66070476Y-80075405D01*
X66186172Y-80234646D01*
X66325354Y-80373828D01*
X66484595Y-80489524D01*
X66607992Y-80552397D01*
X66661213Y-80579515D01*
X66712009Y-80627489D01*
X66728804Y-80695310D01*
X66706267Y-80761445D01*
X66661213Y-80800485D01*
X66484594Y-80890476D01*
X66393741Y-80956485D01*
X66325354Y-81006172D01*
X66325352Y-81006174D01*
X66325351Y-81006174D01*
X66186174Y-81145351D01*
X66186174Y-81145352D01*
X66186172Y-81145354D01*
X66136485Y-81213741D01*
X66070476Y-81304594D01*
X65981117Y-81479970D01*
X65920290Y-81667173D01*
X65889500Y-81861577D01*
X65889500Y-82058422D01*
X65920290Y-82252826D01*
X65981117Y-82440029D01*
X66062146Y-82599057D01*
X66070476Y-82615405D01*
X66186172Y-82774646D01*
X66325354Y-82913828D01*
X66484595Y-83029524D01*
X66607992Y-83092397D01*
X66661213Y-83119515D01*
X66712009Y-83167489D01*
X66728804Y-83235310D01*
X66706267Y-83301445D01*
X66661213Y-83340485D01*
X66484594Y-83430476D01*
X66393741Y-83496485D01*
X66325354Y-83546172D01*
X66325352Y-83546174D01*
X66325351Y-83546174D01*
X66186174Y-83685351D01*
X66186174Y-83685352D01*
X66186172Y-83685354D01*
X66136485Y-83753741D01*
X66070476Y-83844594D01*
X65981117Y-84019970D01*
X65920290Y-84207173D01*
X65889500Y-84401577D01*
X65889500Y-84598422D01*
X65920290Y-84792826D01*
X65981117Y-84980029D01*
X66070476Y-85155405D01*
X66186172Y-85314646D01*
X66325354Y-85453828D01*
X66444784Y-85540600D01*
X66484596Y-85569525D01*
X66661763Y-85659795D01*
X66712560Y-85707769D01*
X66729355Y-85775590D01*
X66706818Y-85841725D01*
X66661764Y-85880765D01*
X66484859Y-85970902D01*
X66449873Y-85996320D01*
X66449872Y-85996320D01*
X67051415Y-86597861D01*
X66966306Y-86620667D01*
X66863694Y-86679910D01*
X66779910Y-86763694D01*
X66720667Y-86866306D01*
X66697861Y-86951414D01*
X66096320Y-86349872D01*
X66096320Y-86349873D01*
X66070902Y-86384859D01*
X66070899Y-86384863D01*
X65981582Y-86560161D01*
X65920778Y-86747294D01*
X65890000Y-86941617D01*
X65890000Y-87138382D01*
X65920778Y-87332705D01*
X65981581Y-87519835D01*
X66070905Y-87695145D01*
X66096319Y-87730125D01*
X66096320Y-87730125D01*
X66697861Y-87128584D01*
X66720667Y-87213694D01*
X66779910Y-87316306D01*
X66863694Y-87400090D01*
X66966306Y-87459333D01*
X67051414Y-87482137D01*
X66449873Y-88083677D01*
X66449873Y-88083678D01*
X66484858Y-88109096D01*
X66661764Y-88199234D01*
X66712560Y-88247209D01*
X66729355Y-88315030D01*
X66706818Y-88381164D01*
X66661764Y-88420204D01*
X66484594Y-88510476D01*
X66393741Y-88576485D01*
X66325354Y-88626172D01*
X66325352Y-88626174D01*
X66325351Y-88626174D01*
X66186174Y-88765351D01*
X66186174Y-88765352D01*
X66186172Y-88765354D01*
X66136485Y-88833741D01*
X66070476Y-88924594D01*
X65981117Y-89099970D01*
X65920290Y-89287173D01*
X65889500Y-89481577D01*
X65889500Y-89678422D01*
X65920290Y-89872826D01*
X65981117Y-90060029D01*
X66070343Y-90235143D01*
X66070476Y-90235405D01*
X66186172Y-90394646D01*
X66325354Y-90533828D01*
X66444784Y-90620600D01*
X66484596Y-90649525D01*
X66661763Y-90739795D01*
X66712560Y-90787769D01*
X66729355Y-90855590D01*
X66706818Y-90921725D01*
X66661764Y-90960765D01*
X66484859Y-91050902D01*
X66449873Y-91076320D01*
X66449872Y-91076320D01*
X67051415Y-91677861D01*
X66966306Y-91700667D01*
X66863694Y-91759910D01*
X66779910Y-91843694D01*
X66720667Y-91946306D01*
X66697861Y-92031415D01*
X66096320Y-91429872D01*
X66096320Y-91429873D01*
X66070902Y-91464859D01*
X66070899Y-91464863D01*
X65981582Y-91640161D01*
X65920778Y-91827294D01*
X65890000Y-92021617D01*
X65890000Y-92218382D01*
X65920778Y-92412705D01*
X65981581Y-92599835D01*
X66070904Y-92775143D01*
X66127191Y-92852614D01*
X66150671Y-92918420D01*
X66134846Y-92986474D01*
X66084741Y-93035169D01*
X66026873Y-93049500D01*
X62416520Y-93049500D01*
X62387079Y-93040855D01*
X62357093Y-93034332D01*
X62352077Y-93030577D01*
X62349481Y-93029815D01*
X62328839Y-93013181D01*
X62228339Y-92912681D01*
X62194854Y-92851358D01*
X62199838Y-92781666D01*
X62228339Y-92737319D01*
X62330468Y-92635189D01*
X62330469Y-92635188D01*
X62330472Y-92635185D01*
X62418478Y-92489606D01*
X62469086Y-92327196D01*
X62475500Y-92256616D01*
X62475500Y-91743384D01*
X62469086Y-91672804D01*
X62418478Y-91510394D01*
X62330472Y-91364815D01*
X62330470Y-91364813D01*
X62330469Y-91364811D01*
X62210188Y-91244530D01*
X62160348Y-91214400D01*
X62113162Y-91162871D01*
X62100500Y-91108284D01*
X62100500Y-82820096D01*
X62120185Y-82753057D01*
X62136814Y-82732420D01*
X65683979Y-79185254D01*
X65745300Y-79151771D01*
X65814992Y-79156755D01*
G37*
%TD.AperFunction*%
%TA.AperFunction,Conductor*%
G36*
X114442539Y-45020185D02*
G01*
X114488294Y-45072989D01*
X114499500Y-45124500D01*
X114499500Y-119875500D01*
X114479815Y-119942539D01*
X114427011Y-119988294D01*
X114375500Y-119999500D01*
X51124500Y-119999500D01*
X51057461Y-119979815D01*
X51011706Y-119927011D01*
X51000500Y-119875500D01*
X51000500Y-78331582D01*
X55775001Y-78331582D01*
X55781408Y-78402102D01*
X55781409Y-78402107D01*
X55831981Y-78564396D01*
X55919927Y-78709877D01*
X56040122Y-78830072D01*
X56185604Y-78918019D01*
X56185603Y-78918019D01*
X56347894Y-78968590D01*
X56347893Y-78968590D01*
X56418408Y-78974998D01*
X56418426Y-78974999D01*
X56424999Y-78974998D01*
X56425000Y-78974998D01*
X56425000Y-78250000D01*
X55775001Y-78250000D01*
X55775001Y-78331582D01*
X51000500Y-78331582D01*
X51000500Y-77668427D01*
X55775000Y-77668427D01*
X55775000Y-77750000D01*
X56425000Y-77750000D01*
X56425000Y-77025000D01*
X56424999Y-77024999D01*
X56418436Y-77025000D01*
X56418417Y-77025001D01*
X56347897Y-77031408D01*
X56347892Y-77031409D01*
X56185603Y-77081981D01*
X56040122Y-77169927D01*
X55919927Y-77290122D01*
X55831980Y-77435604D01*
X55781409Y-77597893D01*
X55775000Y-77668427D01*
X51000500Y-77668427D01*
X51000500Y-70579054D01*
X53399498Y-70579054D01*
X53440423Y-70731785D01*
X53469358Y-70781900D01*
X53469359Y-70781904D01*
X53469360Y-70781904D01*
X53519479Y-70868714D01*
X53519481Y-70868717D01*
X53638349Y-70987585D01*
X53638355Y-70987590D01*
X55201206Y-72550441D01*
X55212162Y-72570505D01*
X55226926Y-72587961D01*
X55231385Y-72605709D01*
X55234691Y-72611764D01*
X55236465Y-72621942D01*
X55237000Y-72626006D01*
X55237000Y-72626040D01*
X55250491Y-72728511D01*
X55251441Y-72735730D01*
X55251440Y-72735736D01*
X55251440Y-72768095D01*
X55243948Y-72824999D01*
X55257212Y-72840124D01*
X55272745Y-72844685D01*
X55276809Y-72848460D01*
X55279791Y-72849565D01*
X55288325Y-72859157D01*
X55304804Y-72874465D01*
X55310622Y-72882200D01*
X55311383Y-72884037D01*
X55342753Y-72924919D01*
X55343163Y-72925465D01*
X55355242Y-72957628D01*
X55367635Y-72989684D01*
X55367510Y-72990291D01*
X55367729Y-72990873D01*
X55360493Y-73024501D01*
X55353596Y-73058129D01*
X55353088Y-73058919D01*
X55353032Y-73059180D01*
X55352717Y-73059495D01*
X55342442Y-73075485D01*
X55306436Y-73122410D01*
X55304657Y-73121045D01*
X55262520Y-73161219D01*
X55254284Y-73163216D01*
X55243949Y-73175001D01*
X55251440Y-73231905D01*
X55251440Y-73264273D01*
X55237001Y-73373949D01*
X55237000Y-73373966D01*
X55237000Y-73626047D01*
X55251189Y-73733814D01*
X55251189Y-73766186D01*
X55237000Y-73873952D01*
X55237000Y-74126047D01*
X55252135Y-74240997D01*
X55252136Y-74241002D01*
X55311382Y-74384036D01*
X55311383Y-74384037D01*
X55405633Y-74506867D01*
X55528463Y-74601117D01*
X55528462Y-74601117D01*
X55589021Y-74626201D01*
X55671501Y-74660365D01*
X55786460Y-74675500D01*
X55786467Y-74675500D01*
X56213533Y-74675500D01*
X56213540Y-74675500D01*
X56328499Y-74660365D01*
X56471537Y-74601117D01*
X56504107Y-74576124D01*
X56569271Y-74550929D01*
X56579569Y-74550499D01*
X57600500Y-74550499D01*
X57667539Y-74570184D01*
X57713294Y-74622988D01*
X57724500Y-74674499D01*
X57724500Y-77083480D01*
X57715855Y-77112920D01*
X57709332Y-77142907D01*
X57705577Y-77147922D01*
X57704815Y-77150519D01*
X57688181Y-77171161D01*
X57587327Y-77272015D01*
X57526004Y-77305500D01*
X57456312Y-77300516D01*
X57411965Y-77272015D01*
X57309877Y-77169927D01*
X57164395Y-77081980D01*
X57164396Y-77081980D01*
X57002105Y-77031409D01*
X57002106Y-77031409D01*
X56931572Y-77025000D01*
X56925000Y-77025000D01*
X56925000Y-78974999D01*
X56931581Y-78974999D01*
X57002102Y-78968591D01*
X57002107Y-78968590D01*
X57164396Y-78918018D01*
X57309877Y-78830072D01*
X57309878Y-78830071D01*
X57411963Y-78727985D01*
X57473286Y-78694499D01*
X57542977Y-78699483D01*
X57587326Y-78727984D01*
X57689811Y-78830469D01*
X57689813Y-78830470D01*
X57689815Y-78830472D01*
X57835394Y-78918478D01*
X57997804Y-78969086D01*
X58068384Y-78975500D01*
X58068387Y-78975500D01*
X58581613Y-78975500D01*
X58581616Y-78975500D01*
X58652196Y-78969086D01*
X58814606Y-78918478D01*
X58960185Y-78830472D01*
X59080472Y-78710185D01*
X59168478Y-78564606D01*
X59219086Y-78402196D01*
X59225500Y-78331616D01*
X59225500Y-77668384D01*
X59219086Y-77597804D01*
X59168478Y-77435394D01*
X59080472Y-77289815D01*
X59080470Y-77289813D01*
X59080469Y-77289811D01*
X58961819Y-77171161D01*
X58928334Y-77109838D01*
X58925500Y-77083480D01*
X58925500Y-74734105D01*
X58931133Y-74714920D01*
X58931848Y-74694940D01*
X58940775Y-74682083D01*
X58945185Y-74667066D01*
X58960293Y-74653974D01*
X58971699Y-74637549D01*
X58995642Y-74623343D01*
X58997989Y-74621311D01*
X59001985Y-74619570D01*
X59025246Y-74609935D01*
X59072692Y-74600500D01*
X60487946Y-74600500D01*
X60554985Y-74620185D01*
X60594061Y-74660347D01*
X60638649Y-74734105D01*
X60669530Y-74785188D01*
X60789811Y-74905469D01*
X60789813Y-74905470D01*
X60789815Y-74905472D01*
X60935394Y-74993478D01*
X61097804Y-75044086D01*
X61168384Y-75050500D01*
X61168387Y-75050500D01*
X61831613Y-75050500D01*
X61831616Y-75050500D01*
X61902196Y-75044086D01*
X62064606Y-74993478D01*
X62210185Y-74905472D01*
X62330472Y-74785185D01*
X62418478Y-74639606D01*
X62469086Y-74477196D01*
X62475500Y-74406616D01*
X62475500Y-73893384D01*
X62469086Y-73822804D01*
X62418478Y-73660394D01*
X62330472Y-73514815D01*
X62330470Y-73514813D01*
X62330469Y-73514811D01*
X62228339Y-73412681D01*
X62224000Y-73404735D01*
X62216753Y-73399310D01*
X62207518Y-73374550D01*
X62194854Y-73351358D01*
X62195499Y-73342328D01*
X62192336Y-73333846D01*
X62197952Y-73308025D01*
X62199838Y-73281666D01*
X62205656Y-73272612D01*
X62207188Y-73265573D01*
X62228339Y-73237319D01*
X62328839Y-73136819D01*
X62390162Y-73103334D01*
X62416520Y-73100500D01*
X62459903Y-73100500D01*
X62526942Y-73120185D01*
X62547584Y-73136819D01*
X65886231Y-76475466D01*
X65919716Y-76536789D01*
X65921023Y-76582544D01*
X65889500Y-76781576D01*
X65889500Y-76978422D01*
X65921023Y-77177453D01*
X65912068Y-77246747D01*
X65886231Y-77284532D01*
X61131286Y-82039478D01*
X61019481Y-82151282D01*
X60969847Y-82237251D01*
X60940424Y-82288212D01*
X60940423Y-82288213D01*
X60931882Y-82320090D01*
X60899499Y-82440943D01*
X60899499Y-82440945D01*
X60899499Y-82609046D01*
X60899500Y-82609059D01*
X60899500Y-91108284D01*
X60879815Y-91175323D01*
X60839652Y-91214400D01*
X60789811Y-91244530D01*
X60669530Y-91364811D01*
X60581522Y-91510393D01*
X60530913Y-91672807D01*
X60524500Y-91743386D01*
X60524500Y-92256613D01*
X60530913Y-92327192D01*
X60581522Y-92489606D01*
X60669530Y-92635188D01*
X60771661Y-92737319D01*
X60805146Y-92798642D01*
X60800162Y-92868334D01*
X60771661Y-92912681D01*
X60669531Y-93014810D01*
X60669530Y-93014811D01*
X60581522Y-93160393D01*
X60530913Y-93322807D01*
X60524500Y-93393386D01*
X60524500Y-93906615D01*
X60526105Y-93924280D01*
X60512568Y-93992825D01*
X60464121Y-94043170D01*
X60402614Y-94059500D01*
X59919057Y-94059500D01*
X59760942Y-94059500D01*
X59608215Y-94100423D01*
X59608214Y-94100423D01*
X59608212Y-94100424D01*
X59608209Y-94100425D01*
X59558096Y-94129359D01*
X59558095Y-94129360D01*
X59514689Y-94154420D01*
X59471285Y-94179479D01*
X59471282Y-94179481D01*
X56019481Y-97631282D01*
X56019479Y-97631285D01*
X55991340Y-97680025D01*
X55991338Y-97680027D01*
X55959386Y-97735368D01*
X55950377Y-97748852D01*
X55898882Y-97815963D01*
X55898881Y-97815964D01*
X55898017Y-97818052D01*
X55896816Y-97819541D01*
X55894820Y-97823000D01*
X55894280Y-97822688D01*
X55854174Y-97872454D01*
X55787879Y-97894516D01*
X55720180Y-97877234D01*
X55695777Y-97858277D01*
X55662499Y-97824999D01*
X55573987Y-97825000D01*
X55459140Y-97840118D01*
X55459128Y-97840122D01*
X55316219Y-97899316D01*
X55316213Y-97899319D01*
X55193490Y-97993489D01*
X55193489Y-97993490D01*
X55099319Y-98116213D01*
X55099316Y-98116219D01*
X55040121Y-98259131D01*
X55031448Y-98324999D01*
X55031449Y-98325000D01*
X55070699Y-98325000D01*
X55084040Y-98328917D01*
X55097917Y-98328024D01*
X55116903Y-98338567D01*
X55137738Y-98344685D01*
X55146842Y-98355192D01*
X55159001Y-98361944D01*
X55169273Y-98381079D01*
X55183493Y-98397489D01*
X55185471Y-98411251D01*
X55192049Y-98423503D01*
X55190346Y-98445151D01*
X55193437Y-98466647D01*
X55187548Y-98480722D01*
X55186570Y-98493158D01*
X55169726Y-98523318D01*
X55169436Y-98524014D01*
X55169298Y-98524194D01*
X55098883Y-98615963D01*
X55098048Y-98617977D01*
X55091943Y-98626014D01*
X55069870Y-98642294D01*
X55050020Y-98661219D01*
X55041784Y-98663216D01*
X55031449Y-98675001D01*
X55038940Y-98731905D01*
X55038940Y-98764273D01*
X55024501Y-98873949D01*
X55024500Y-98873966D01*
X55024500Y-99126047D01*
X55038689Y-99233814D01*
X55038689Y-99266186D01*
X55024500Y-99373952D01*
X55024500Y-99626047D01*
X55038689Y-99733814D01*
X55038689Y-99766186D01*
X55024500Y-99873952D01*
X55024500Y-100126047D01*
X55039635Y-100240997D01*
X55039636Y-100241002D01*
X55098882Y-100384036D01*
X55098883Y-100384037D01*
X55193133Y-100506867D01*
X55315963Y-100601117D01*
X55315962Y-100601117D01*
X55394189Y-100633519D01*
X55459001Y-100660365D01*
X55573960Y-100675500D01*
X55831182Y-100675500D01*
X55898221Y-100695185D01*
X55929558Y-100724014D01*
X55993133Y-100806867D01*
X56115963Y-100901117D01*
X56115962Y-100901117D01*
X56184003Y-100929300D01*
X56259001Y-100960365D01*
X56373960Y-100975500D01*
X56373967Y-100975500D01*
X56626033Y-100975500D01*
X56626040Y-100975500D01*
X56740999Y-100960365D01*
X56884037Y-100901117D01*
X56975517Y-100830922D01*
X57040682Y-100805730D01*
X57109127Y-100819768D01*
X57159117Y-100868582D01*
X57175000Y-100929300D01*
X57175000Y-100968548D01*
X57233819Y-100960806D01*
X57266186Y-100960807D01*
X57324999Y-100968549D01*
X57325000Y-100968549D01*
X57325000Y-100610117D01*
X57329000Y-100596493D01*
X57328156Y-100582319D01*
X57338648Y-100563634D01*
X57344685Y-100543078D01*
X57355414Y-100533780D01*
X57362368Y-100521399D01*
X57381297Y-100511353D01*
X57397489Y-100497323D01*
X57411542Y-100495302D01*
X57424085Y-100488646D01*
X57445437Y-100490428D01*
X57466647Y-100487379D01*
X57480920Y-100493390D01*
X57493713Y-100494459D01*
X57524482Y-100511738D01*
X57626486Y-100590009D01*
X57667689Y-100646436D01*
X57675000Y-100688384D01*
X57675000Y-100968548D01*
X57740869Y-100959878D01*
X57883781Y-100900682D01*
X58006510Y-100806509D01*
X58030419Y-100775350D01*
X58086846Y-100734146D01*
X58156592Y-100729989D01*
X58160867Y-100731054D01*
X58233443Y-100750501D01*
X58233444Y-100750501D01*
X58399153Y-100750501D01*
X58399169Y-100750500D01*
X60583480Y-100750500D01*
X60650519Y-100770185D01*
X60671161Y-100786819D01*
X60789811Y-100905469D01*
X60789813Y-100905470D01*
X60789815Y-100905472D01*
X60935394Y-100993478D01*
X61097804Y-101044086D01*
X61168384Y-101050500D01*
X61168387Y-101050500D01*
X61831613Y-101050500D01*
X61831616Y-101050500D01*
X61902196Y-101044086D01*
X62064606Y-100993478D01*
X62210185Y-100905472D01*
X62330472Y-100785185D01*
X62418478Y-100639606D01*
X62469086Y-100477196D01*
X62475500Y-100406616D01*
X62475500Y-99893384D01*
X62469086Y-99822804D01*
X62418478Y-99660394D01*
X62330472Y-99514815D01*
X62330470Y-99514813D01*
X62330469Y-99514811D01*
X62228339Y-99412681D01*
X62194854Y-99351358D01*
X62199838Y-99281666D01*
X62228339Y-99237319D01*
X62330468Y-99135189D01*
X62330469Y-99135188D01*
X62330472Y-99135185D01*
X62418478Y-98989606D01*
X62469086Y-98827196D01*
X62475500Y-98756616D01*
X62475500Y-98243384D01*
X62469086Y-98172804D01*
X62418478Y-98010394D01*
X62405332Y-97988649D01*
X62387497Y-97921095D01*
X62409015Y-97854621D01*
X62463055Y-97810334D01*
X62511450Y-97800500D01*
X65967404Y-97800500D01*
X66034443Y-97820185D01*
X66067722Y-97851614D01*
X66070475Y-97855403D01*
X66070476Y-97855405D01*
X66186172Y-98014646D01*
X66325354Y-98153828D01*
X66484595Y-98269524D01*
X66601161Y-98328917D01*
X66661213Y-98359515D01*
X66712009Y-98407489D01*
X66728804Y-98475310D01*
X66706267Y-98541445D01*
X66661213Y-98580485D01*
X66484594Y-98670476D01*
X66400046Y-98731905D01*
X66325354Y-98786172D01*
X66325352Y-98786174D01*
X66325351Y-98786174D01*
X66186174Y-98925351D01*
X66186174Y-98925352D01*
X66186172Y-98925354D01*
X66139490Y-98989606D01*
X66070476Y-99084594D01*
X65981117Y-99259970D01*
X65920290Y-99447173D01*
X65889500Y-99641577D01*
X65889500Y-99838422D01*
X65920290Y-100032826D01*
X65981117Y-100220029D01*
X66064683Y-100384036D01*
X66070476Y-100395405D01*
X66186172Y-100554646D01*
X66325354Y-100693828D01*
X66430450Y-100770185D01*
X66484596Y-100809525D01*
X66661763Y-100899795D01*
X66712560Y-100947769D01*
X66729355Y-101015590D01*
X66706818Y-101081725D01*
X66661764Y-101120765D01*
X66484859Y-101210902D01*
X66449873Y-101236320D01*
X66449872Y-101236320D01*
X67051415Y-101837861D01*
X66966306Y-101860667D01*
X66863694Y-101919910D01*
X66779910Y-102003694D01*
X66720667Y-102106306D01*
X66697861Y-102191414D01*
X66096320Y-101589872D01*
X66096320Y-101589873D01*
X66070902Y-101624859D01*
X66070899Y-101624863D01*
X65981582Y-101800161D01*
X65920778Y-101987294D01*
X65890000Y-102181617D01*
X65890000Y-102378382D01*
X65920778Y-102572705D01*
X65981581Y-102759835D01*
X66070905Y-102935145D01*
X66096319Y-102970125D01*
X66096320Y-102970125D01*
X66697861Y-102368584D01*
X66720667Y-102453694D01*
X66779910Y-102556306D01*
X66863694Y-102640090D01*
X66966306Y-102699333D01*
X67051414Y-102722137D01*
X66449873Y-103323677D01*
X66449873Y-103323678D01*
X66484858Y-103349096D01*
X66661764Y-103439234D01*
X66712560Y-103487209D01*
X66729355Y-103555030D01*
X66706818Y-103621164D01*
X66661764Y-103660204D01*
X66484594Y-103750476D01*
X66393741Y-103816485D01*
X66325354Y-103866172D01*
X66325352Y-103866174D01*
X66325351Y-103866174D01*
X66186174Y-104005351D01*
X66186174Y-104005352D01*
X66186172Y-104005354D01*
X66136485Y-104073741D01*
X66070476Y-104164594D01*
X65981117Y-104339970D01*
X65920290Y-104527173D01*
X65889500Y-104721577D01*
X65889500Y-104918422D01*
X65920290Y-105112826D01*
X65981117Y-105300029D01*
X66070476Y-105475405D01*
X66186172Y-105634646D01*
X66325354Y-105773828D01*
X66484595Y-105889524D01*
X66607992Y-105952397D01*
X66661213Y-105979515D01*
X66712009Y-106027489D01*
X66728804Y-106095310D01*
X66706267Y-106161445D01*
X66661213Y-106200485D01*
X66484594Y-106290476D01*
X66393741Y-106356485D01*
X66325354Y-106406172D01*
X66325352Y-106406174D01*
X66325351Y-106406174D01*
X66186174Y-106545351D01*
X66186174Y-106545352D01*
X66186172Y-106545354D01*
X66136485Y-106613741D01*
X66070476Y-106704594D01*
X65981117Y-106879970D01*
X65920290Y-107067173D01*
X65889500Y-107261577D01*
X65889500Y-107458422D01*
X65920290Y-107652826D01*
X65981117Y-107840029D01*
X66070476Y-108015405D01*
X66186172Y-108174646D01*
X66325354Y-108313828D01*
X66444784Y-108400600D01*
X66484596Y-108429525D01*
X66661763Y-108519795D01*
X66712560Y-108567769D01*
X66729355Y-108635590D01*
X66706818Y-108701725D01*
X66661764Y-108740765D01*
X66484859Y-108830902D01*
X66449873Y-108856320D01*
X66449872Y-108856320D01*
X67051415Y-109457861D01*
X66966306Y-109480667D01*
X66863694Y-109539910D01*
X66779910Y-109623694D01*
X66720667Y-109726306D01*
X66697861Y-109811414D01*
X66096320Y-109209872D01*
X66096320Y-109209873D01*
X66070902Y-109244859D01*
X66070899Y-109244863D01*
X65981582Y-109420161D01*
X65920778Y-109607294D01*
X65890000Y-109801617D01*
X65890000Y-109998382D01*
X65920778Y-110192705D01*
X65981581Y-110379835D01*
X66070905Y-110555145D01*
X66096319Y-110590125D01*
X66096320Y-110590125D01*
X66697861Y-109988584D01*
X66720667Y-110073694D01*
X66779910Y-110176306D01*
X66863694Y-110260090D01*
X66966306Y-110319333D01*
X67051414Y-110342137D01*
X66449873Y-110943677D01*
X66449873Y-110943678D01*
X66484858Y-110969096D01*
X66660164Y-111058418D01*
X66847294Y-111119221D01*
X67041618Y-111150000D01*
X67238382Y-111150000D01*
X67432705Y-111119221D01*
X67619835Y-111058418D01*
X67795143Y-110969095D01*
X67830125Y-110943678D01*
X67830126Y-110943678D01*
X67228585Y-110342137D01*
X67313694Y-110319333D01*
X67416306Y-110260090D01*
X67500090Y-110176306D01*
X67559333Y-110073694D01*
X67582137Y-109988585D01*
X68183678Y-110590126D01*
X68183678Y-110590125D01*
X68209095Y-110555143D01*
X68298418Y-110379835D01*
X68359221Y-110192705D01*
X68390000Y-109998382D01*
X68390000Y-109801617D01*
X68359221Y-109607294D01*
X68298418Y-109420164D01*
X68209096Y-109244858D01*
X68183678Y-109209873D01*
X68183677Y-109209873D01*
X67582137Y-109811413D01*
X67559333Y-109726306D01*
X67500090Y-109623694D01*
X67416306Y-109539910D01*
X67313694Y-109480667D01*
X67228584Y-109457861D01*
X67830125Y-108856320D01*
X67830125Y-108856319D01*
X67795145Y-108830905D01*
X67618235Y-108740765D01*
X67567439Y-108692790D01*
X67550644Y-108624969D01*
X67573182Y-108558834D01*
X67618236Y-108519795D01*
X67620022Y-108518884D01*
X67620025Y-108518884D01*
X67795405Y-108429524D01*
X67954646Y-108313828D01*
X68093828Y-108174646D01*
X68209524Y-108015405D01*
X68298884Y-107840025D01*
X68359709Y-107652826D01*
X68390500Y-107458422D01*
X68390500Y-107261577D01*
X68359709Y-107067173D01*
X68298882Y-106879970D01*
X68209523Y-106704594D01*
X68093828Y-106545354D01*
X67954646Y-106406172D01*
X67875025Y-106348324D01*
X67795403Y-106290474D01*
X67618787Y-106200485D01*
X67567990Y-106152511D01*
X67551195Y-106084690D01*
X67573732Y-106018555D01*
X67618787Y-105979515D01*
X67795403Y-105889525D01*
X67795402Y-105889525D01*
X67795405Y-105889524D01*
X67954646Y-105773828D01*
X68093828Y-105634646D01*
X68209524Y-105475405D01*
X68298884Y-105300025D01*
X68359709Y-105112826D01*
X68390500Y-104918422D01*
X68390500Y-104721577D01*
X68359709Y-104527173D01*
X68298882Y-104339970D01*
X68209523Y-104164594D01*
X68093828Y-104005354D01*
X67954646Y-103866172D01*
X67795405Y-103750476D01*
X67620025Y-103661116D01*
X67620024Y-103661115D01*
X67618235Y-103660204D01*
X67567439Y-103612230D01*
X67550644Y-103544409D01*
X67573181Y-103478274D01*
X67618236Y-103439234D01*
X67795141Y-103349097D01*
X67830125Y-103323678D01*
X67830126Y-103323678D01*
X67228585Y-102722137D01*
X67313694Y-102699333D01*
X67416306Y-102640090D01*
X67500090Y-102556306D01*
X67559333Y-102453694D01*
X67582137Y-102368585D01*
X68183678Y-102970126D01*
X68183678Y-102970125D01*
X68209095Y-102935143D01*
X68298418Y-102759835D01*
X68359221Y-102572705D01*
X68390000Y-102378382D01*
X68390000Y-102181617D01*
X68359221Y-101987294D01*
X68298418Y-101800164D01*
X68209096Y-101624858D01*
X68183678Y-101589873D01*
X68183677Y-101589873D01*
X67582137Y-102191413D01*
X67559333Y-102106306D01*
X67500090Y-102003694D01*
X67416306Y-101919910D01*
X67313694Y-101860667D01*
X67228584Y-101837861D01*
X67830125Y-101236320D01*
X67830125Y-101236319D01*
X67795145Y-101210905D01*
X67618235Y-101120765D01*
X67567439Y-101072790D01*
X67550644Y-101004969D01*
X67573182Y-100938834D01*
X67618236Y-100899795D01*
X67620022Y-100898884D01*
X67620025Y-100898884D01*
X67795405Y-100809524D01*
X67954646Y-100693828D01*
X68093828Y-100554646D01*
X68209524Y-100395405D01*
X68298884Y-100220025D01*
X68359709Y-100032826D01*
X68390500Y-99838422D01*
X68390500Y-99641577D01*
X68359709Y-99447173D01*
X68298882Y-99259970D01*
X68233492Y-99131636D01*
X68209524Y-99084595D01*
X68093828Y-98925354D01*
X67954646Y-98786172D01*
X67875025Y-98728324D01*
X67795403Y-98670474D01*
X67618787Y-98580485D01*
X67567990Y-98532511D01*
X67551195Y-98464690D01*
X67573732Y-98398555D01*
X67618787Y-98359515D01*
X67795403Y-98269525D01*
X67795402Y-98269525D01*
X67795405Y-98269524D01*
X67954646Y-98153828D01*
X68093828Y-98014646D01*
X68209524Y-97855405D01*
X68298884Y-97680025D01*
X68359709Y-97492826D01*
X68390500Y-97298422D01*
X68390500Y-97101577D01*
X68359709Y-96907173D01*
X68298882Y-96719970D01*
X68227469Y-96579815D01*
X68209524Y-96544595D01*
X68093828Y-96385354D01*
X67954646Y-96246172D01*
X67875025Y-96188324D01*
X67795403Y-96130474D01*
X67618787Y-96040485D01*
X67567990Y-95992511D01*
X67551195Y-95924690D01*
X67573732Y-95858555D01*
X67618787Y-95819515D01*
X67795403Y-95729525D01*
X67795402Y-95729525D01*
X67795405Y-95729524D01*
X67954646Y-95613828D01*
X68093828Y-95474646D01*
X68209524Y-95315405D01*
X68298884Y-95140025D01*
X68359709Y-94952826D01*
X68390500Y-94758422D01*
X68390500Y-94561577D01*
X68359709Y-94367173D01*
X68298882Y-94179970D01*
X68209523Y-94004594D01*
X68093828Y-93845354D01*
X67954646Y-93706172D01*
X67795405Y-93590476D01*
X67620025Y-93501116D01*
X67620024Y-93501115D01*
X67618235Y-93500204D01*
X67567439Y-93452230D01*
X67550644Y-93384409D01*
X67573181Y-93318274D01*
X67618236Y-93279234D01*
X67795141Y-93189097D01*
X67830125Y-93163678D01*
X67830126Y-93163678D01*
X67228584Y-92562138D01*
X67313694Y-92539333D01*
X67416306Y-92480090D01*
X67500090Y-92396306D01*
X67559333Y-92293694D01*
X67582137Y-92208585D01*
X68183678Y-92810126D01*
X68183678Y-92810125D01*
X68209095Y-92775143D01*
X68298418Y-92599835D01*
X68359221Y-92412705D01*
X68390000Y-92218382D01*
X68390000Y-92021617D01*
X68359221Y-91827294D01*
X68298418Y-91640164D01*
X68209096Y-91464858D01*
X68183678Y-91429873D01*
X68183677Y-91429873D01*
X67582137Y-92031413D01*
X67559333Y-91946306D01*
X67500090Y-91843694D01*
X67416306Y-91759910D01*
X67313694Y-91700667D01*
X67228584Y-91677861D01*
X67830125Y-91076320D01*
X67830125Y-91076319D01*
X67795145Y-91050905D01*
X67618235Y-90960765D01*
X67567439Y-90912790D01*
X67550644Y-90844969D01*
X67573182Y-90778834D01*
X67618236Y-90739795D01*
X67620022Y-90738884D01*
X67620025Y-90738884D01*
X67795405Y-90649524D01*
X67954646Y-90533828D01*
X68093828Y-90394646D01*
X68209524Y-90235405D01*
X68298884Y-90060025D01*
X68359709Y-89872826D01*
X68359728Y-89872705D01*
X68390500Y-89678422D01*
X68390500Y-89481577D01*
X68359709Y-89287173D01*
X68298882Y-89099970D01*
X68251743Y-89007455D01*
X68209524Y-88924595D01*
X68093828Y-88765354D01*
X67954646Y-88626172D01*
X67795405Y-88510476D01*
X67620025Y-88421116D01*
X67620024Y-88421115D01*
X67618235Y-88420204D01*
X67567439Y-88372230D01*
X67550644Y-88304409D01*
X67573181Y-88238274D01*
X67618236Y-88199234D01*
X67795141Y-88109097D01*
X67830125Y-88083678D01*
X67830126Y-88083678D01*
X67228585Y-87482137D01*
X67313694Y-87459333D01*
X67416306Y-87400090D01*
X67500090Y-87316306D01*
X67559333Y-87213694D01*
X67582137Y-87128585D01*
X68183678Y-87730126D01*
X68183678Y-87730125D01*
X68209095Y-87695143D01*
X68298418Y-87519835D01*
X68359221Y-87332705D01*
X68390000Y-87138382D01*
X68390000Y-86941617D01*
X68359221Y-86747294D01*
X68298418Y-86560164D01*
X68209096Y-86384858D01*
X68183678Y-86349873D01*
X68183677Y-86349873D01*
X67582137Y-86951413D01*
X67559333Y-86866306D01*
X67500090Y-86763694D01*
X67416306Y-86679910D01*
X67313694Y-86620667D01*
X67228584Y-86597861D01*
X67830125Y-85996320D01*
X67830125Y-85996319D01*
X67795145Y-85970905D01*
X67618235Y-85880765D01*
X67567439Y-85832790D01*
X67550644Y-85764969D01*
X67573182Y-85698834D01*
X67618236Y-85659795D01*
X67620022Y-85658884D01*
X67620025Y-85658884D01*
X67795405Y-85569524D01*
X67954646Y-85453828D01*
X68093828Y-85314646D01*
X68209524Y-85155405D01*
X68298884Y-84980025D01*
X68359709Y-84792826D01*
X68390500Y-84598422D01*
X68390500Y-84401577D01*
X68359709Y-84207173D01*
X68298882Y-84019970D01*
X68209523Y-83844594D01*
X68093828Y-83685354D01*
X67954646Y-83546172D01*
X67875025Y-83488324D01*
X67795403Y-83430474D01*
X67618787Y-83340485D01*
X67567990Y-83292511D01*
X67551195Y-83224690D01*
X67573732Y-83158555D01*
X67618787Y-83119515D01*
X67795403Y-83029525D01*
X67795402Y-83029525D01*
X67795405Y-83029524D01*
X67954646Y-82913828D01*
X68093828Y-82774646D01*
X68209524Y-82615405D01*
X68298884Y-82440025D01*
X68359709Y-82252826D01*
X68362176Y-82237251D01*
X68390500Y-82058422D01*
X68390500Y-81861577D01*
X68359709Y-81667173D01*
X68298882Y-81479970D01*
X68251743Y-81387455D01*
X68209524Y-81304595D01*
X68093828Y-81145354D01*
X67954646Y-81006172D01*
X67830975Y-80916319D01*
X67795403Y-80890474D01*
X67618787Y-80800485D01*
X67567990Y-80752511D01*
X67551195Y-80684690D01*
X67573732Y-80618555D01*
X67618787Y-80579515D01*
X67795403Y-80489525D01*
X67795402Y-80489525D01*
X67795405Y-80489524D01*
X67954646Y-80373828D01*
X68093828Y-80234646D01*
X68209524Y-80075405D01*
X68298884Y-79900025D01*
X68359709Y-79712826D01*
X68390500Y-79518422D01*
X68390500Y-79321577D01*
X68359709Y-79127173D01*
X68310264Y-78974999D01*
X68298884Y-78939975D01*
X68298882Y-78939972D01*
X68298882Y-78939970D01*
X68209523Y-78764594D01*
X68182924Y-78727984D01*
X68093828Y-78605354D01*
X67954646Y-78466172D01*
X67866462Y-78402102D01*
X67795403Y-78350474D01*
X67618787Y-78260485D01*
X67567990Y-78212511D01*
X67551195Y-78144690D01*
X67573732Y-78078555D01*
X67618787Y-78039515D01*
X67795403Y-77949525D01*
X67795402Y-77949525D01*
X67795405Y-77949524D01*
X67954646Y-77833828D01*
X68093828Y-77694646D01*
X68209524Y-77535405D01*
X68298884Y-77360025D01*
X68359709Y-77172826D01*
X68373860Y-77083480D01*
X68390500Y-76978422D01*
X68390500Y-76781577D01*
X88749500Y-76781577D01*
X88749500Y-76978422D01*
X88780290Y-77172826D01*
X88841117Y-77360029D01*
X88879518Y-77435394D01*
X88930476Y-77535405D01*
X89046172Y-77694646D01*
X89185354Y-77833828D01*
X89344595Y-77949524D01*
X89467992Y-78012397D01*
X89521213Y-78039515D01*
X89572009Y-78087489D01*
X89588804Y-78155310D01*
X89566267Y-78221445D01*
X89521213Y-78260485D01*
X89344594Y-78350476D01*
X89273538Y-78402102D01*
X89185354Y-78466172D01*
X89185352Y-78466174D01*
X89185351Y-78466174D01*
X89046174Y-78605351D01*
X89046174Y-78605352D01*
X89046172Y-78605354D01*
X88996485Y-78673741D01*
X88930476Y-78764594D01*
X88841117Y-78939970D01*
X88780290Y-79127173D01*
X88749500Y-79321577D01*
X88749500Y-79518422D01*
X88780290Y-79712826D01*
X88841117Y-79900029D01*
X88930476Y-80075405D01*
X89046172Y-80234646D01*
X89185354Y-80373828D01*
X89304784Y-80460600D01*
X89344596Y-80489525D01*
X89521763Y-80579795D01*
X89572560Y-80627769D01*
X89589355Y-80695590D01*
X89566818Y-80761725D01*
X89521764Y-80800765D01*
X89344859Y-80890902D01*
X89309873Y-80916320D01*
X89309872Y-80916320D01*
X89911415Y-81517861D01*
X89826306Y-81540667D01*
X89723694Y-81599910D01*
X89639910Y-81683694D01*
X89580667Y-81786306D01*
X89557861Y-81871414D01*
X88956320Y-81269872D01*
X88956320Y-81269873D01*
X88930902Y-81304859D01*
X88930899Y-81304863D01*
X88841582Y-81480161D01*
X88780778Y-81667294D01*
X88750000Y-81861617D01*
X88750000Y-82058382D01*
X88780778Y-82252705D01*
X88841581Y-82439835D01*
X88930905Y-82615145D01*
X88956319Y-82650125D01*
X88956320Y-82650125D01*
X89557861Y-82048584D01*
X89580667Y-82133694D01*
X89639910Y-82236306D01*
X89723694Y-82320090D01*
X89826306Y-82379333D01*
X89911414Y-82402137D01*
X89309873Y-83003677D01*
X89309873Y-83003678D01*
X89344858Y-83029096D01*
X89521764Y-83119234D01*
X89572560Y-83167209D01*
X89589355Y-83235030D01*
X89566818Y-83301164D01*
X89521764Y-83340204D01*
X89344594Y-83430476D01*
X89253741Y-83496485D01*
X89185354Y-83546172D01*
X89185352Y-83546174D01*
X89185351Y-83546174D01*
X89046174Y-83685351D01*
X89046174Y-83685352D01*
X89046172Y-83685354D01*
X88996485Y-83753741D01*
X88930476Y-83844594D01*
X88841117Y-84019970D01*
X88780290Y-84207173D01*
X88749500Y-84401577D01*
X88749500Y-84598422D01*
X88780290Y-84792826D01*
X88841117Y-84980029D01*
X88930476Y-85155405D01*
X89046172Y-85314646D01*
X89185354Y-85453828D01*
X89344595Y-85569524D01*
X89467992Y-85632397D01*
X89521213Y-85659515D01*
X89572009Y-85707489D01*
X89588804Y-85775310D01*
X89566267Y-85841445D01*
X89521213Y-85880485D01*
X89344594Y-85970476D01*
X89253741Y-86036485D01*
X89185354Y-86086172D01*
X89185352Y-86086174D01*
X89185351Y-86086174D01*
X89046174Y-86225351D01*
X89046174Y-86225352D01*
X89046172Y-86225354D01*
X88996485Y-86293741D01*
X88930476Y-86384594D01*
X88841117Y-86559970D01*
X88780290Y-86747173D01*
X88749500Y-86941577D01*
X88749500Y-87138422D01*
X88780290Y-87332826D01*
X88841117Y-87520029D01*
X88930343Y-87695143D01*
X88930476Y-87695405D01*
X89046172Y-87854646D01*
X89185354Y-87993828D01*
X89304784Y-88080600D01*
X89344596Y-88109525D01*
X89521763Y-88199795D01*
X89572560Y-88247769D01*
X89589355Y-88315590D01*
X89566818Y-88381725D01*
X89521764Y-88420765D01*
X89344859Y-88510902D01*
X89309873Y-88536320D01*
X89309872Y-88536320D01*
X89911415Y-89137861D01*
X89826306Y-89160667D01*
X89723694Y-89219910D01*
X89639910Y-89303694D01*
X89580667Y-89406306D01*
X89557861Y-89491414D01*
X88956320Y-88889872D01*
X88956320Y-88889873D01*
X88930902Y-88924859D01*
X88930899Y-88924863D01*
X88841582Y-89100161D01*
X88780778Y-89287294D01*
X88750000Y-89481617D01*
X88750000Y-89678382D01*
X88780778Y-89872705D01*
X88841581Y-90059835D01*
X88930905Y-90235145D01*
X88956319Y-90270125D01*
X88956320Y-90270125D01*
X89557861Y-89668584D01*
X89580667Y-89753694D01*
X89639910Y-89856306D01*
X89723694Y-89940090D01*
X89826306Y-89999333D01*
X89911414Y-90022137D01*
X89309873Y-90623677D01*
X89309873Y-90623678D01*
X89344858Y-90649096D01*
X89521764Y-90739234D01*
X89572560Y-90787209D01*
X89589355Y-90855030D01*
X89566818Y-90921164D01*
X89521764Y-90960204D01*
X89344594Y-91050476D01*
X89253741Y-91116485D01*
X89185354Y-91166172D01*
X89185352Y-91166174D01*
X89185351Y-91166174D01*
X89046174Y-91305351D01*
X89046174Y-91305352D01*
X89046172Y-91305354D01*
X89002974Y-91364811D01*
X88930476Y-91464594D01*
X88841117Y-91639970D01*
X88780290Y-91827173D01*
X88749500Y-92021577D01*
X88749500Y-92218422D01*
X88780290Y-92412826D01*
X88841117Y-92600029D01*
X88911070Y-92737319D01*
X88930476Y-92775405D01*
X89046172Y-92934646D01*
X89185354Y-93073828D01*
X89344595Y-93189524D01*
X89467992Y-93252397D01*
X89521213Y-93279515D01*
X89572009Y-93327489D01*
X89588804Y-93395310D01*
X89566267Y-93461445D01*
X89521213Y-93500485D01*
X89344594Y-93590476D01*
X89253741Y-93656485D01*
X89185354Y-93706172D01*
X89185352Y-93706174D01*
X89185351Y-93706174D01*
X89046174Y-93845351D01*
X89046174Y-93845352D01*
X89046172Y-93845354D01*
X89001663Y-93906615D01*
X88930476Y-94004594D01*
X88841117Y-94179970D01*
X88780290Y-94367173D01*
X88749500Y-94561577D01*
X88749500Y-94758422D01*
X88780290Y-94952826D01*
X88841117Y-95140029D01*
X88914905Y-95284845D01*
X88930476Y-95315405D01*
X89046172Y-95474646D01*
X89185354Y-95613828D01*
X89344595Y-95729524D01*
X89467992Y-95792397D01*
X89521213Y-95819515D01*
X89572009Y-95867489D01*
X89588804Y-95935310D01*
X89566267Y-96001445D01*
X89521213Y-96040485D01*
X89344594Y-96130476D01*
X89253741Y-96196485D01*
X89185354Y-96246172D01*
X89185352Y-96246174D01*
X89185351Y-96246174D01*
X89046174Y-96385351D01*
X89046174Y-96385352D01*
X89046172Y-96385354D01*
X88996485Y-96453741D01*
X88930476Y-96544594D01*
X88841117Y-96719970D01*
X88780290Y-96907173D01*
X88749500Y-97101577D01*
X88749500Y-97298422D01*
X88780290Y-97492826D01*
X88788951Y-97519480D01*
X88841116Y-97680025D01*
X88930476Y-97855405D01*
X89046172Y-98014646D01*
X89185354Y-98153828D01*
X89344595Y-98269524D01*
X89461161Y-98328917D01*
X89521213Y-98359515D01*
X89572009Y-98407489D01*
X89588804Y-98475310D01*
X89566267Y-98541445D01*
X89521213Y-98580485D01*
X89344594Y-98670476D01*
X89260046Y-98731905D01*
X89185354Y-98786172D01*
X89185352Y-98786174D01*
X89185351Y-98786174D01*
X89046174Y-98925351D01*
X89046174Y-98925352D01*
X89046172Y-98925354D01*
X88999490Y-98989606D01*
X88930476Y-99084594D01*
X88841117Y-99259970D01*
X88780290Y-99447173D01*
X88749500Y-99641577D01*
X88749500Y-99838422D01*
X88780290Y-100032826D01*
X88841117Y-100220029D01*
X88924683Y-100384036D01*
X88930476Y-100395405D01*
X89046172Y-100554646D01*
X89185354Y-100693828D01*
X89290450Y-100770185D01*
X89344596Y-100809525D01*
X89521763Y-100899795D01*
X89572560Y-100947769D01*
X89589355Y-101015590D01*
X89566818Y-101081725D01*
X89521764Y-101120765D01*
X89344859Y-101210902D01*
X89309873Y-101236320D01*
X89309872Y-101236320D01*
X89911415Y-101837861D01*
X89826306Y-101860667D01*
X89723694Y-101919910D01*
X89639910Y-102003694D01*
X89580667Y-102106306D01*
X89557861Y-102191414D01*
X88956320Y-101589872D01*
X88956320Y-101589873D01*
X88930902Y-101624859D01*
X88930899Y-101624863D01*
X88841582Y-101800161D01*
X88780778Y-101987294D01*
X88750000Y-102181617D01*
X88750000Y-102378382D01*
X88780778Y-102572705D01*
X88841581Y-102759835D01*
X88930905Y-102935145D01*
X88956319Y-102970125D01*
X88956320Y-102970125D01*
X89557861Y-102368584D01*
X89580667Y-102453694D01*
X89639910Y-102556306D01*
X89723694Y-102640090D01*
X89826306Y-102699333D01*
X89911414Y-102722137D01*
X89309873Y-103323677D01*
X89309873Y-103323678D01*
X89344858Y-103349096D01*
X89521764Y-103439234D01*
X89572560Y-103487209D01*
X89589355Y-103555030D01*
X89566818Y-103621164D01*
X89521764Y-103660204D01*
X89344594Y-103750476D01*
X89253741Y-103816485D01*
X89185354Y-103866172D01*
X89185352Y-103866174D01*
X89185351Y-103866174D01*
X89046174Y-104005351D01*
X89046174Y-104005352D01*
X89046172Y-104005354D01*
X88996485Y-104073741D01*
X88930476Y-104164594D01*
X88841117Y-104339970D01*
X88780290Y-104527173D01*
X88749500Y-104721577D01*
X88749500Y-104918422D01*
X88780290Y-105112826D01*
X88841117Y-105300029D01*
X88930476Y-105475405D01*
X89046172Y-105634646D01*
X89185354Y-105773828D01*
X89344595Y-105889524D01*
X89467992Y-105952397D01*
X89521213Y-105979515D01*
X89572009Y-106027489D01*
X89588804Y-106095310D01*
X89566267Y-106161445D01*
X89521213Y-106200485D01*
X89344594Y-106290476D01*
X89253741Y-106356485D01*
X89185354Y-106406172D01*
X89185352Y-106406174D01*
X89185351Y-106406174D01*
X89046174Y-106545351D01*
X89046174Y-106545352D01*
X89046172Y-106545354D01*
X88996485Y-106613741D01*
X88930476Y-106704594D01*
X88841117Y-106879970D01*
X88780290Y-107067173D01*
X88749500Y-107261577D01*
X88749500Y-107458422D01*
X88780290Y-107652826D01*
X88841117Y-107840029D01*
X88930476Y-108015405D01*
X89046172Y-108174646D01*
X89185354Y-108313828D01*
X89304784Y-108400600D01*
X89344596Y-108429525D01*
X89521763Y-108519795D01*
X89572560Y-108567769D01*
X89589355Y-108635590D01*
X89566818Y-108701725D01*
X89521764Y-108740765D01*
X89344859Y-108830902D01*
X89309873Y-108856320D01*
X89309872Y-108856320D01*
X89911415Y-109457861D01*
X89826306Y-109480667D01*
X89723694Y-109539910D01*
X89639910Y-109623694D01*
X89580667Y-109726306D01*
X89557861Y-109811414D01*
X88956320Y-109209872D01*
X88956320Y-109209873D01*
X88930902Y-109244859D01*
X88930899Y-109244863D01*
X88841582Y-109420161D01*
X88780778Y-109607294D01*
X88750000Y-109801617D01*
X88750000Y-109998382D01*
X88780778Y-110192705D01*
X88841581Y-110379835D01*
X88930905Y-110555145D01*
X88956319Y-110590125D01*
X88956320Y-110590125D01*
X89557861Y-109988584D01*
X89580667Y-110073694D01*
X89639910Y-110176306D01*
X89723694Y-110260090D01*
X89826306Y-110319333D01*
X89911414Y-110342137D01*
X89309873Y-110943677D01*
X89309873Y-110943678D01*
X89344858Y-110969096D01*
X89520164Y-111058418D01*
X89707294Y-111119221D01*
X89901618Y-111150000D01*
X90098382Y-111150000D01*
X90292705Y-111119221D01*
X90479835Y-111058418D01*
X90655143Y-110969095D01*
X90690125Y-110943678D01*
X90690126Y-110943678D01*
X90088585Y-110342137D01*
X90173694Y-110319333D01*
X90276306Y-110260090D01*
X90360090Y-110176306D01*
X90419333Y-110073694D01*
X90442137Y-109988585D01*
X91043678Y-110590126D01*
X91043678Y-110590125D01*
X91069095Y-110555143D01*
X91158418Y-110379835D01*
X91219221Y-110192705D01*
X91250000Y-109998382D01*
X91250000Y-109801617D01*
X91219221Y-109607294D01*
X91158418Y-109420164D01*
X91069096Y-109244858D01*
X91043678Y-109209873D01*
X91043677Y-109209873D01*
X90442137Y-109811413D01*
X90419333Y-109726306D01*
X90360090Y-109623694D01*
X90276306Y-109539910D01*
X90173694Y-109480667D01*
X90088584Y-109457861D01*
X90690125Y-108856320D01*
X90690125Y-108856319D01*
X90655145Y-108830905D01*
X90478235Y-108740765D01*
X90427439Y-108692790D01*
X90410644Y-108624969D01*
X90433182Y-108558834D01*
X90478236Y-108519795D01*
X90480022Y-108518884D01*
X90480025Y-108518884D01*
X90655405Y-108429524D01*
X90814646Y-108313828D01*
X90953828Y-108174646D01*
X91069524Y-108015405D01*
X91158884Y-107840025D01*
X91219709Y-107652826D01*
X91250500Y-107458422D01*
X91250500Y-107261577D01*
X91219709Y-107067173D01*
X91158882Y-106879970D01*
X91069523Y-106704594D01*
X90953828Y-106545354D01*
X90814646Y-106406172D01*
X90735025Y-106348324D01*
X90655403Y-106290474D01*
X90478787Y-106200485D01*
X90427990Y-106152511D01*
X90411195Y-106084690D01*
X90433732Y-106018555D01*
X90478787Y-105979515D01*
X90655403Y-105889525D01*
X90655402Y-105889525D01*
X90655405Y-105889524D01*
X90814646Y-105773828D01*
X90953828Y-105634646D01*
X91069524Y-105475405D01*
X91158884Y-105300025D01*
X91219709Y-105112826D01*
X91250500Y-104918422D01*
X91250500Y-104721577D01*
X91219709Y-104527173D01*
X91158882Y-104339970D01*
X91069523Y-104164594D01*
X90953828Y-104005354D01*
X90814646Y-103866172D01*
X90655405Y-103750476D01*
X90480025Y-103661116D01*
X90480024Y-103661115D01*
X90478235Y-103660204D01*
X90427439Y-103612230D01*
X90410644Y-103544409D01*
X90433181Y-103478274D01*
X90478236Y-103439234D01*
X90655141Y-103349097D01*
X90690125Y-103323678D01*
X90690126Y-103323678D01*
X90088585Y-102722137D01*
X90173694Y-102699333D01*
X90276306Y-102640090D01*
X90360090Y-102556306D01*
X90419333Y-102453694D01*
X90442137Y-102368585D01*
X91043678Y-102970126D01*
X91043678Y-102970125D01*
X91069095Y-102935143D01*
X91158418Y-102759835D01*
X91219221Y-102572705D01*
X91250000Y-102378382D01*
X91250000Y-102181617D01*
X91219221Y-101987294D01*
X91158418Y-101800164D01*
X91069096Y-101624858D01*
X91043678Y-101589873D01*
X91043677Y-101589873D01*
X90442137Y-102191413D01*
X90419333Y-102106306D01*
X90360090Y-102003694D01*
X90276306Y-101919910D01*
X90173694Y-101860667D01*
X90088584Y-101837861D01*
X90690125Y-101236320D01*
X90690125Y-101236319D01*
X90655145Y-101210905D01*
X90478235Y-101120765D01*
X90427439Y-101072790D01*
X90410644Y-101004969D01*
X90433182Y-100938834D01*
X90478236Y-100899795D01*
X90480022Y-100898884D01*
X90480025Y-100898884D01*
X90655405Y-100809524D01*
X90814646Y-100693828D01*
X90953828Y-100554646D01*
X91069524Y-100395405D01*
X91158884Y-100220025D01*
X91219709Y-100032826D01*
X91250500Y-99838422D01*
X91250500Y-99641577D01*
X91219709Y-99447173D01*
X91158882Y-99259970D01*
X91093492Y-99131636D01*
X91069524Y-99084595D01*
X90953828Y-98925354D01*
X90814646Y-98786172D01*
X90735025Y-98728324D01*
X90655403Y-98670474D01*
X90478787Y-98580485D01*
X90427990Y-98532511D01*
X90411195Y-98464690D01*
X90433732Y-98398555D01*
X90478787Y-98359515D01*
X90655403Y-98269525D01*
X90655402Y-98269525D01*
X90655405Y-98269524D01*
X90814646Y-98153828D01*
X90953828Y-98014646D01*
X91069524Y-97855405D01*
X91158884Y-97680025D01*
X91219709Y-97492826D01*
X91250500Y-97298422D01*
X91250500Y-97101577D01*
X91219709Y-96907173D01*
X91158882Y-96719970D01*
X91087469Y-96579815D01*
X91069524Y-96544595D01*
X90953828Y-96385354D01*
X90814646Y-96246172D01*
X90735025Y-96188324D01*
X90655403Y-96130474D01*
X90478787Y-96040485D01*
X90427990Y-95992511D01*
X90411195Y-95924690D01*
X90433732Y-95858555D01*
X90478787Y-95819515D01*
X90655403Y-95729525D01*
X90655402Y-95729525D01*
X90655405Y-95729524D01*
X90814646Y-95613828D01*
X90953828Y-95474646D01*
X91069524Y-95315405D01*
X91158884Y-95140025D01*
X91219709Y-94952826D01*
X91250500Y-94758422D01*
X91250500Y-94561577D01*
X91219709Y-94367173D01*
X91158882Y-94179970D01*
X91069523Y-94004594D01*
X90953828Y-93845354D01*
X90814646Y-93706172D01*
X90735025Y-93648324D01*
X90655403Y-93590474D01*
X90478787Y-93500485D01*
X90427990Y-93452511D01*
X90411195Y-93384690D01*
X90433732Y-93318555D01*
X90478787Y-93279515D01*
X90655403Y-93189525D01*
X90655402Y-93189525D01*
X90655405Y-93189524D01*
X90814646Y-93073828D01*
X90953828Y-92934646D01*
X91069524Y-92775405D01*
X91158884Y-92600025D01*
X91219709Y-92412826D01*
X91219728Y-92412705D01*
X91250500Y-92218422D01*
X91250500Y-92021577D01*
X91219709Y-91827173D01*
X91158882Y-91639970D01*
X91111743Y-91547455D01*
X91069524Y-91464595D01*
X90953828Y-91305354D01*
X90814646Y-91166172D01*
X90655405Y-91050476D01*
X90480025Y-90961116D01*
X90480024Y-90961115D01*
X90478235Y-90960204D01*
X90427439Y-90912230D01*
X90410644Y-90844409D01*
X90433181Y-90778274D01*
X90478236Y-90739234D01*
X90655141Y-90649097D01*
X90690125Y-90623678D01*
X90690126Y-90623678D01*
X90088585Y-90022137D01*
X90173694Y-89999333D01*
X90276306Y-89940090D01*
X90360090Y-89856306D01*
X90419333Y-89753694D01*
X90442137Y-89668585D01*
X91043678Y-90270126D01*
X91043678Y-90270125D01*
X91069095Y-90235143D01*
X91158418Y-90059835D01*
X91219221Y-89872705D01*
X91250000Y-89678382D01*
X91250000Y-89481617D01*
X91219221Y-89287294D01*
X91158418Y-89100164D01*
X91069096Y-88924858D01*
X91043678Y-88889873D01*
X91043677Y-88889873D01*
X90442137Y-89491413D01*
X90419333Y-89406306D01*
X90360090Y-89303694D01*
X90276306Y-89219910D01*
X90173694Y-89160667D01*
X90088584Y-89137861D01*
X90690125Y-88536320D01*
X90690125Y-88536319D01*
X90655145Y-88510905D01*
X90478235Y-88420765D01*
X90427439Y-88372790D01*
X90410644Y-88304969D01*
X90433182Y-88238834D01*
X90478236Y-88199795D01*
X90480022Y-88198884D01*
X90480025Y-88198884D01*
X90655405Y-88109524D01*
X90814646Y-87993828D01*
X90953828Y-87854646D01*
X91069524Y-87695405D01*
X91158884Y-87520025D01*
X91219709Y-87332826D01*
X91219728Y-87332705D01*
X91250500Y-87138422D01*
X91250500Y-86941577D01*
X91219709Y-86747173D01*
X91158882Y-86559970D01*
X91111743Y-86467455D01*
X91069524Y-86384595D01*
X90953828Y-86225354D01*
X90814646Y-86086172D01*
X90690975Y-85996319D01*
X90655403Y-85970474D01*
X90478787Y-85880485D01*
X90427990Y-85832511D01*
X90411195Y-85764690D01*
X90433732Y-85698555D01*
X90478787Y-85659515D01*
X90655403Y-85569525D01*
X90655402Y-85569525D01*
X90655405Y-85569524D01*
X90814646Y-85453828D01*
X90953828Y-85314646D01*
X91069524Y-85155405D01*
X91158884Y-84980025D01*
X91219709Y-84792826D01*
X91250500Y-84598422D01*
X91250500Y-84401577D01*
X91219709Y-84207173D01*
X91158882Y-84019970D01*
X91069523Y-83844594D01*
X90953828Y-83685354D01*
X90814646Y-83546172D01*
X90655405Y-83430476D01*
X90480025Y-83341116D01*
X90480024Y-83341115D01*
X90478235Y-83340204D01*
X90427439Y-83292230D01*
X90410644Y-83224409D01*
X90433181Y-83158274D01*
X90478236Y-83119234D01*
X90655141Y-83029097D01*
X90690125Y-83003678D01*
X90690126Y-83003678D01*
X90088585Y-82402137D01*
X90173694Y-82379333D01*
X90276306Y-82320090D01*
X90360090Y-82236306D01*
X90419333Y-82133694D01*
X90442137Y-82048585D01*
X91043678Y-82650126D01*
X91043678Y-82650125D01*
X91069095Y-82615143D01*
X91158418Y-82439835D01*
X91219221Y-82252705D01*
X91250000Y-82058382D01*
X91250000Y-81861617D01*
X91219221Y-81667294D01*
X91158418Y-81480164D01*
X91069096Y-81304858D01*
X91043678Y-81269873D01*
X91043677Y-81269873D01*
X90442137Y-81871413D01*
X90419333Y-81786306D01*
X90360090Y-81683694D01*
X90276306Y-81599910D01*
X90173694Y-81540667D01*
X90088584Y-81517861D01*
X90690125Y-80916320D01*
X90690125Y-80916319D01*
X90655145Y-80890905D01*
X90478235Y-80800765D01*
X90427439Y-80752790D01*
X90410644Y-80684969D01*
X90433182Y-80618834D01*
X90478236Y-80579795D01*
X90480022Y-80578884D01*
X90480025Y-80578884D01*
X90655405Y-80489524D01*
X90814646Y-80373828D01*
X90953828Y-80234646D01*
X91069524Y-80075405D01*
X91158884Y-79900025D01*
X91219709Y-79712826D01*
X91250500Y-79518422D01*
X91250500Y-79321577D01*
X91219709Y-79127173D01*
X91170264Y-78974999D01*
X91158884Y-78939975D01*
X91158882Y-78939972D01*
X91158882Y-78939970D01*
X91069523Y-78764594D01*
X91042924Y-78727984D01*
X90953828Y-78605354D01*
X90814646Y-78466172D01*
X90726462Y-78402102D01*
X90655403Y-78350474D01*
X90478787Y-78260485D01*
X90427990Y-78212511D01*
X90411195Y-78144690D01*
X90433732Y-78078555D01*
X90478787Y-78039515D01*
X90655403Y-77949525D01*
X90655402Y-77949525D01*
X90655405Y-77949524D01*
X90814646Y-77833828D01*
X90953828Y-77694646D01*
X91069524Y-77535405D01*
X91158884Y-77360025D01*
X91219709Y-77172826D01*
X91233860Y-77083480D01*
X91250500Y-76978422D01*
X91250500Y-76781577D01*
X91219709Y-76587173D01*
X91158882Y-76399970D01*
X91069523Y-76224594D01*
X90953828Y-76065354D01*
X90814646Y-75926172D01*
X90655405Y-75810476D01*
X90480025Y-75721116D01*
X90480024Y-75721115D01*
X90478235Y-75720204D01*
X90427439Y-75672230D01*
X90410644Y-75604409D01*
X90433181Y-75538274D01*
X90478236Y-75499234D01*
X90655141Y-75409097D01*
X90690125Y-75383678D01*
X90690126Y-75383678D01*
X90088585Y-74782137D01*
X90173694Y-74759333D01*
X90276306Y-74700090D01*
X90360090Y-74616306D01*
X90419333Y-74513694D01*
X90442137Y-74428585D01*
X91043678Y-75030126D01*
X91043678Y-75030125D01*
X91069095Y-74995143D01*
X91158418Y-74819835D01*
X91219221Y-74632705D01*
X91250000Y-74438382D01*
X91250000Y-74241617D01*
X91219221Y-74047294D01*
X91158418Y-73860164D01*
X91069096Y-73684858D01*
X91043678Y-73649873D01*
X91043677Y-73649873D01*
X90442137Y-74251413D01*
X90419333Y-74166306D01*
X90360090Y-74063694D01*
X90276306Y-73979910D01*
X90173694Y-73920667D01*
X90088584Y-73897861D01*
X90690125Y-73296320D01*
X90690125Y-73296319D01*
X90655145Y-73270905D01*
X90479835Y-73181581D01*
X90292705Y-73120778D01*
X90098382Y-73090000D01*
X89901618Y-73090000D01*
X89707294Y-73120778D01*
X89520161Y-73181582D01*
X89344863Y-73270899D01*
X89344859Y-73270902D01*
X89309873Y-73296320D01*
X89309872Y-73296320D01*
X89911415Y-73897861D01*
X89826306Y-73920667D01*
X89723694Y-73979910D01*
X89639910Y-74063694D01*
X89580667Y-74166306D01*
X89557861Y-74251414D01*
X88956320Y-73649872D01*
X88956320Y-73649873D01*
X88930902Y-73684859D01*
X88930899Y-73684863D01*
X88841582Y-73860161D01*
X88780778Y-74047294D01*
X88750000Y-74241617D01*
X88750000Y-74438382D01*
X88780778Y-74632705D01*
X88841581Y-74819835D01*
X88930905Y-74995145D01*
X88956319Y-75030125D01*
X88956320Y-75030125D01*
X89557861Y-74428584D01*
X89580667Y-74513694D01*
X89639910Y-74616306D01*
X89723694Y-74700090D01*
X89826306Y-74759333D01*
X89911414Y-74782137D01*
X89309873Y-75383677D01*
X89309873Y-75383678D01*
X89344858Y-75409096D01*
X89521764Y-75499234D01*
X89572560Y-75547209D01*
X89589355Y-75615030D01*
X89566818Y-75681164D01*
X89521764Y-75720204D01*
X89344594Y-75810476D01*
X89253741Y-75876485D01*
X89185354Y-75926172D01*
X89185352Y-75926174D01*
X89185351Y-75926174D01*
X89046174Y-76065351D01*
X89046174Y-76065352D01*
X89046172Y-76065354D01*
X88996485Y-76133741D01*
X88930476Y-76224594D01*
X88841117Y-76399970D01*
X88780290Y-76587173D01*
X88749500Y-76781577D01*
X68390500Y-76781577D01*
X68359709Y-76587173D01*
X68298882Y-76399970D01*
X68209523Y-76224594D01*
X68093828Y-76065354D01*
X67954646Y-75926172D01*
X67800692Y-75814317D01*
X67758028Y-75758988D01*
X67752049Y-75689374D01*
X67784655Y-75627579D01*
X67845494Y-75593222D01*
X67873579Y-75590000D01*
X67937828Y-75590000D01*
X67937844Y-75589999D01*
X67997372Y-75583598D01*
X67997379Y-75583596D01*
X68132086Y-75533354D01*
X68132093Y-75533350D01*
X68247187Y-75447190D01*
X68247190Y-75447187D01*
X68333350Y-75332093D01*
X68333354Y-75332086D01*
X68383596Y-75197379D01*
X68383598Y-75197372D01*
X68389999Y-75137844D01*
X68390000Y-75137827D01*
X68390000Y-74590000D01*
X67515278Y-74590000D01*
X67559333Y-74513694D01*
X67590000Y-74399244D01*
X67590000Y-74280756D01*
X67559333Y-74166306D01*
X67515278Y-74090000D01*
X68390000Y-74090000D01*
X68390000Y-73542172D01*
X68389999Y-73542155D01*
X68383598Y-73482627D01*
X68383596Y-73482620D01*
X68347900Y-73386912D01*
X68333354Y-73347913D01*
X68333350Y-73347906D01*
X68247190Y-73232812D01*
X68247187Y-73232809D01*
X68132093Y-73146649D01*
X68132086Y-73146645D01*
X67997379Y-73096403D01*
X67997372Y-73096401D01*
X67937844Y-73090000D01*
X67390000Y-73090000D01*
X67390000Y-73964722D01*
X67313694Y-73920667D01*
X67199244Y-73890000D01*
X67080756Y-73890000D01*
X66966306Y-73920667D01*
X66890000Y-73964722D01*
X66890000Y-73090000D01*
X66342155Y-73090000D01*
X66282627Y-73096401D01*
X66282620Y-73096403D01*
X66147913Y-73146645D01*
X66147906Y-73146649D01*
X66032812Y-73232809D01*
X66032809Y-73232812D01*
X65946649Y-73347906D01*
X65946645Y-73347913D01*
X65896403Y-73482620D01*
X65896401Y-73482627D01*
X65890000Y-73542155D01*
X65890000Y-74090000D01*
X66764722Y-74090000D01*
X66720667Y-74166306D01*
X66690000Y-74280756D01*
X66690000Y-74399244D01*
X66720667Y-74513694D01*
X66764722Y-74590000D01*
X65889999Y-74590000D01*
X65882297Y-74597702D01*
X65820974Y-74631187D01*
X65751282Y-74626201D01*
X65706936Y-74597701D01*
X63247590Y-72138355D01*
X63247588Y-72138352D01*
X63128717Y-72019481D01*
X63128709Y-72019475D01*
X63007509Y-71949501D01*
X63007506Y-71949500D01*
X63006761Y-71949070D01*
X62991785Y-71940423D01*
X62839057Y-71899499D01*
X62680943Y-71899499D01*
X62673347Y-71899499D01*
X62673331Y-71899500D01*
X62416520Y-71899500D01*
X62349481Y-71879815D01*
X62328839Y-71863181D01*
X62210188Y-71744530D01*
X62064606Y-71656522D01*
X61902196Y-71605914D01*
X61902194Y-71605913D01*
X61902192Y-71605913D01*
X61852778Y-71601423D01*
X61831616Y-71599500D01*
X61168384Y-71599500D01*
X61149145Y-71601248D01*
X61097807Y-71605913D01*
X60935393Y-71656522D01*
X60789811Y-71744530D01*
X60669530Y-71864811D01*
X60581522Y-72010393D01*
X60530913Y-72172807D01*
X60524500Y-72243386D01*
X60524500Y-72574902D01*
X60504815Y-72641941D01*
X60488181Y-72662583D01*
X60287584Y-72863181D01*
X60226261Y-72896666D01*
X60199903Y-72899500D01*
X59450107Y-72899500D01*
X59449372Y-72899284D01*
X59448636Y-72899491D01*
X59415882Y-72889450D01*
X59383068Y-72879815D01*
X59382568Y-72879238D01*
X59381834Y-72879013D01*
X59359678Y-72852821D01*
X59337313Y-72827011D01*
X59337039Y-72826060D01*
X59336709Y-72825669D01*
X59327169Y-72791692D01*
X59323810Y-72766178D01*
X59323810Y-72733821D01*
X59338000Y-72626040D01*
X59338000Y-72373960D01*
X59322865Y-72259001D01*
X59263617Y-72115963D01*
X59169367Y-71993133D01*
X59046537Y-71898883D01*
X59046536Y-71898882D01*
X59046537Y-71898882D01*
X58903502Y-71839636D01*
X58903500Y-71839635D01*
X58903499Y-71839635D01*
X58877952Y-71836271D01*
X58788547Y-71824500D01*
X58788540Y-71824500D01*
X58361460Y-71824500D01*
X58361452Y-71824500D01*
X58259274Y-71837953D01*
X58246501Y-71839635D01*
X58246500Y-71839635D01*
X58246497Y-71839636D01*
X58103463Y-71898882D01*
X58070889Y-71923877D01*
X58005720Y-71949070D01*
X57995404Y-71949500D01*
X56579596Y-71949500D01*
X56512557Y-71929815D01*
X56504111Y-71923877D01*
X56471536Y-71898882D01*
X56471537Y-71898882D01*
X56328502Y-71839636D01*
X56328500Y-71839635D01*
X56328499Y-71839635D01*
X56238827Y-71827829D01*
X56209515Y-71823970D01*
X56209745Y-71822217D01*
X56150875Y-71799964D01*
X56137941Y-71788706D01*
X54636819Y-70287584D01*
X54603334Y-70226261D01*
X54600500Y-70199903D01*
X54600500Y-57054500D01*
X54620185Y-56987461D01*
X54672989Y-56941706D01*
X54724500Y-56930500D01*
X56363001Y-56930500D01*
X56430040Y-56950185D01*
X56475795Y-57002989D01*
X56487001Y-57054500D01*
X56487001Y-57630018D01*
X56497500Y-57732796D01*
X56497501Y-57732799D01*
X56552685Y-57899331D01*
X56552687Y-57899336D01*
X56559214Y-57909918D01*
X56644788Y-58048656D01*
X56768844Y-58172712D01*
X56918166Y-58264814D01*
X57084703Y-58319999D01*
X57187491Y-58330500D01*
X59787508Y-58330499D01*
X59890297Y-58319999D01*
X60056834Y-58264814D01*
X60206156Y-58172712D01*
X60330212Y-58048656D01*
X60422314Y-57899334D01*
X60477499Y-57732797D01*
X60488000Y-57630009D01*
X60487999Y-56208711D01*
X67137000Y-56208711D01*
X67137000Y-56451288D01*
X67167577Y-56683553D01*
X67168662Y-56691789D01*
X67200054Y-56808944D01*
X67231447Y-56926104D01*
X67251392Y-56974255D01*
X67324276Y-57150212D01*
X67445564Y-57360289D01*
X67445566Y-57360292D01*
X67445567Y-57360293D01*
X67593233Y-57552736D01*
X67593239Y-57552743D01*
X67764756Y-57724260D01*
X67764763Y-57724266D01*
X67816010Y-57763589D01*
X67957211Y-57871936D01*
X68167288Y-57993224D01*
X68391400Y-58086054D01*
X68625711Y-58148838D01*
X68806086Y-58172584D01*
X68866211Y-58180500D01*
X68866212Y-58180500D01*
X69108789Y-58180500D01*
X69167960Y-58172710D01*
X69349289Y-58148838D01*
X69583600Y-58086054D01*
X69807712Y-57993224D01*
X70017789Y-57871936D01*
X70210238Y-57724265D01*
X70381765Y-57552738D01*
X70529436Y-57360289D01*
X70650724Y-57150212D01*
X70743554Y-56926100D01*
X70806338Y-56691789D01*
X70838000Y-56451288D01*
X70838000Y-56208712D01*
X70838000Y-56208711D01*
X95037000Y-56208711D01*
X95037000Y-56451288D01*
X95067577Y-56683553D01*
X95068662Y-56691789D01*
X95100054Y-56808944D01*
X95131447Y-56926104D01*
X95151392Y-56974255D01*
X95224276Y-57150212D01*
X95345564Y-57360289D01*
X95345566Y-57360292D01*
X95345567Y-57360293D01*
X95493233Y-57552736D01*
X95493239Y-57552743D01*
X95664756Y-57724260D01*
X95664763Y-57724266D01*
X95716010Y-57763589D01*
X95857211Y-57871936D01*
X96067288Y-57993224D01*
X96291400Y-58086054D01*
X96525711Y-58148838D01*
X96706086Y-58172584D01*
X96766211Y-58180500D01*
X96766212Y-58180500D01*
X97008789Y-58180500D01*
X97067960Y-58172710D01*
X97249289Y-58148838D01*
X97483600Y-58086054D01*
X97707712Y-57993224D01*
X97917789Y-57871936D01*
X98110238Y-57724265D01*
X98281765Y-57552738D01*
X98429436Y-57360289D01*
X98550724Y-57150212D01*
X98643554Y-56926100D01*
X98706338Y-56691789D01*
X98738000Y-56451288D01*
X98738000Y-56208712D01*
X98736709Y-56198905D01*
X105387500Y-56198905D01*
X105387500Y-56461094D01*
X105421720Y-56721009D01*
X105421722Y-56721020D01*
X105489575Y-56974255D01*
X105589904Y-57216471D01*
X105589909Y-57216482D01*
X105720988Y-57443516D01*
X105720994Y-57443524D01*
X105807580Y-57556365D01*
X106671652Y-56692292D01*
X106678549Y-56708942D01*
X106766099Y-56839970D01*
X106877530Y-56951401D01*
X107008558Y-57038951D01*
X107025205Y-57045846D01*
X106161133Y-57909917D01*
X106161133Y-57909918D01*
X106273975Y-57996505D01*
X106273983Y-57996511D01*
X106501017Y-58127590D01*
X106501028Y-58127595D01*
X106743244Y-58227924D01*
X106996479Y-58295777D01*
X106996490Y-58295779D01*
X107256405Y-58329999D01*
X107256420Y-58330000D01*
X107518580Y-58330000D01*
X107518594Y-58329999D01*
X107778509Y-58295779D01*
X107778520Y-58295777D01*
X108031755Y-58227924D01*
X108273971Y-58127595D01*
X108273982Y-58127590D01*
X108501016Y-57996511D01*
X108501034Y-57996499D01*
X108613865Y-57909919D01*
X108613865Y-57909917D01*
X107749794Y-57045846D01*
X107766442Y-57038951D01*
X107897470Y-56951401D01*
X108008901Y-56839970D01*
X108096451Y-56708942D01*
X108103346Y-56692294D01*
X108967417Y-57556365D01*
X108967419Y-57556365D01*
X109053999Y-57443534D01*
X109054011Y-57443516D01*
X109185090Y-57216482D01*
X109185095Y-57216471D01*
X109285424Y-56974255D01*
X109353277Y-56721020D01*
X109353279Y-56721009D01*
X109387499Y-56461094D01*
X109387500Y-56461080D01*
X109387500Y-56198919D01*
X109387499Y-56198905D01*
X109353279Y-55938990D01*
X109353277Y-55938979D01*
X109285424Y-55685744D01*
X109185095Y-55443528D01*
X109185090Y-55443517D01*
X109054011Y-55216483D01*
X109054005Y-55216475D01*
X108967418Y-55103633D01*
X108967417Y-55103633D01*
X108103346Y-55967704D01*
X108096451Y-55951058D01*
X108008901Y-55820030D01*
X107897470Y-55708599D01*
X107766442Y-55621049D01*
X107749792Y-55614152D01*
X108613865Y-54750080D01*
X108501024Y-54663494D01*
X108501016Y-54663488D01*
X108273982Y-54532409D01*
X108273971Y-54532404D01*
X108031755Y-54432075D01*
X107778520Y-54364222D01*
X107778509Y-54364220D01*
X107518594Y-54330000D01*
X107256405Y-54330000D01*
X106996490Y-54364220D01*
X106996479Y-54364222D01*
X106743244Y-54432075D01*
X106501028Y-54532404D01*
X106501017Y-54532409D01*
X106273971Y-54663496D01*
X106161133Y-54750079D01*
X106161133Y-54750080D01*
X107025206Y-55614153D01*
X107008558Y-55621049D01*
X106877530Y-55708599D01*
X106766099Y-55820030D01*
X106678549Y-55951058D01*
X106671653Y-55967706D01*
X105807580Y-55103633D01*
X105807579Y-55103633D01*
X105720996Y-55216471D01*
X105589909Y-55443517D01*
X105589904Y-55443528D01*
X105489575Y-55685744D01*
X105421722Y-55938979D01*
X105421720Y-55938990D01*
X105387500Y-56198905D01*
X98736709Y-56198905D01*
X98706338Y-55968211D01*
X98643554Y-55733900D01*
X98641731Y-55729500D01*
X98623607Y-55685744D01*
X98550724Y-55509788D01*
X98429436Y-55299711D01*
X98281765Y-55107262D01*
X98281760Y-55107256D01*
X98110243Y-54935739D01*
X98110236Y-54935733D01*
X98058988Y-54896409D01*
X97917793Y-54788067D01*
X97917792Y-54788066D01*
X97917789Y-54788064D01*
X97707712Y-54666776D01*
X97707705Y-54666773D01*
X97483604Y-54573947D01*
X97328583Y-54532409D01*
X97249289Y-54511162D01*
X97249288Y-54511161D01*
X97249285Y-54511161D01*
X97008789Y-54479500D01*
X97008788Y-54479500D01*
X96766212Y-54479500D01*
X96766211Y-54479500D01*
X96525714Y-54511161D01*
X96291395Y-54573947D01*
X96067294Y-54666773D01*
X96067285Y-54666777D01*
X95857206Y-54788067D01*
X95664763Y-54935733D01*
X95664756Y-54935739D01*
X95493239Y-55107256D01*
X95493233Y-55107263D01*
X95345567Y-55299706D01*
X95224277Y-55509785D01*
X95224273Y-55509794D01*
X95131447Y-55733895D01*
X95068661Y-55968214D01*
X95037000Y-56208711D01*
X70838000Y-56208711D01*
X70806338Y-55968211D01*
X70743554Y-55733900D01*
X70741731Y-55729500D01*
X70723607Y-55685744D01*
X70650724Y-55509788D01*
X70529436Y-55299711D01*
X70381765Y-55107262D01*
X70381760Y-55107256D01*
X70210243Y-54935739D01*
X70210236Y-54935733D01*
X70017793Y-54788067D01*
X70017792Y-54788066D01*
X70017789Y-54788064D01*
X69807712Y-54666776D01*
X69807705Y-54666773D01*
X69583604Y-54573947D01*
X69428583Y-54532409D01*
X69349289Y-54511162D01*
X69349288Y-54511161D01*
X69349285Y-54511161D01*
X69108789Y-54479500D01*
X69108788Y-54479500D01*
X68866212Y-54479500D01*
X68866211Y-54479500D01*
X68625714Y-54511161D01*
X68391395Y-54573947D01*
X68167294Y-54666773D01*
X68167285Y-54666777D01*
X67957206Y-54788067D01*
X67764763Y-54935733D01*
X67764756Y-54935739D01*
X67593239Y-55107256D01*
X67593233Y-55107263D01*
X67445567Y-55299706D01*
X67324277Y-55509785D01*
X67324273Y-55509794D01*
X67231447Y-55733895D01*
X67168661Y-55968214D01*
X67137000Y-56208711D01*
X60487999Y-56208711D01*
X60487999Y-55029992D01*
X60477499Y-54927203D01*
X60422314Y-54760666D01*
X60330212Y-54611344D01*
X60206156Y-54487288D01*
X60056834Y-54395186D01*
X59890297Y-54340001D01*
X59890295Y-54340000D01*
X59787510Y-54329500D01*
X57187498Y-54329500D01*
X57187481Y-54329501D01*
X57084703Y-54340000D01*
X57084700Y-54340001D01*
X56918168Y-54395185D01*
X56918163Y-54395187D01*
X56768842Y-54487289D01*
X56644789Y-54611342D01*
X56552687Y-54760663D01*
X56552686Y-54760666D01*
X56497501Y-54927203D01*
X56497501Y-54927204D01*
X56497500Y-54927204D01*
X56487000Y-55029983D01*
X56487000Y-55605500D01*
X56467315Y-55672539D01*
X56414511Y-55718294D01*
X56363000Y-55729500D01*
X54249057Y-55729500D01*
X54090942Y-55729500D01*
X53938215Y-55770423D01*
X53938214Y-55770423D01*
X53938212Y-55770424D01*
X53938209Y-55770425D01*
X53888096Y-55799359D01*
X53888095Y-55799360D01*
X53852293Y-55820030D01*
X53801285Y-55849479D01*
X53801282Y-55849481D01*
X53519482Y-56131281D01*
X53519480Y-56131283D01*
X53519480Y-56131284D01*
X53474777Y-56208712D01*
X53440423Y-56268215D01*
X53399499Y-56420943D01*
X53399499Y-56579057D01*
X53399499Y-56579059D01*
X53399500Y-56589053D01*
X53399500Y-70413330D01*
X53399499Y-70413348D01*
X53399499Y-70579054D01*
X53399498Y-70579054D01*
X51000500Y-70579054D01*
X51000500Y-45124500D01*
X51020185Y-45057461D01*
X51072989Y-45011706D01*
X51124500Y-45000500D01*
X114375500Y-45000500D01*
X114442539Y-45020185D01*
G37*
%TD.AperFunction*%
%TD*%
M02*
