%TF.GenerationSoftware,KiCad,Pcbnew,9.0.6*%
%TF.CreationDate,2026-01-31T12:13:37-08:00*%
%TF.ProjectId,techin514_final_sensor_pcb,74656368-696e-4353-9134-5f66696e616c,rev?*%
%TF.SameCoordinates,Original*%
%TF.FileFunction,Soldermask,Top*%
%TF.FilePolarity,Negative*%
%FSLAX46Y46*%
G04 Gerber Fmt 4.6, Leading zero omitted, Abs format (unit mm)*
G04 Created by KiCad (PCBNEW 9.0.6) date 2026-01-31 12:13:37*
%MOMM*%
%LPD*%
G01*
G04 APERTURE LIST*
G04 Aperture macros list*
%AMRoundRect*
0 Rectangle with rounded corners*
0 $1 Rounding radius*
0 $2 $3 $4 $5 $6 $7 $8 $9 X,Y pos of 4 corners*
0 Add a 4 corners polygon primitive as box body*
4,1,4,$2,$3,$4,$5,$6,$7,$8,$9,$2,$3,0*
0 Add four circle primitives for the rounded corners*
1,1,$1+$1,$2,$3*
1,1,$1+$1,$4,$5*
1,1,$1+$1,$6,$7*
1,1,$1+$1,$8,$9*
0 Add four rect primitives between the rounded corners*
20,1,$1+$1,$2,$3,$4,$5,0*
20,1,$1+$1,$4,$5,$6,$7,0*
20,1,$1+$1,$6,$7,$8,$9,0*
20,1,$1+$1,$8,$9,$2,$3,0*%
G04 Aperture macros list end*
%ADD10RoundRect,0.087500X-0.175000X-0.087500X0.175000X-0.087500X0.175000X0.087500X-0.175000X0.087500X0*%
%ADD11R,1.400000X1.600000*%
%ADD12R,0.850000X0.850000*%
%ADD13C,0.850000*%
%ADD14RoundRect,0.200000X0.275000X-0.200000X0.275000X0.200000X-0.275000X0.200000X-0.275000X-0.200000X0*%
%ADD15C,3.200000*%
%ADD16RoundRect,0.250000X-1.250000X-1.250000X1.250000X-1.250000X1.250000X1.250000X-1.250000X1.250000X0*%
%ADD17C,3.000000*%
%ADD18RoundRect,0.200000X-0.275000X0.200000X-0.275000X-0.200000X0.275000X-0.200000X0.275000X0.200000X0*%
%ADD19RoundRect,0.087500X-0.225000X-0.087500X0.225000X-0.087500X0.225000X0.087500X-0.225000X0.087500X0*%
%ADD20RoundRect,0.087500X-0.087500X-0.225000X0.087500X-0.225000X0.087500X0.225000X-0.087500X0.225000X0*%
%ADD21R,1.000000X0.900000*%
%ADD22R,0.550000X1.700000*%
%ADD23R,1.500000X1.500000*%
%ADD24C,1.500000*%
%ADD25RoundRect,0.200000X0.200000X0.275000X-0.200000X0.275000X-0.200000X-0.275000X0.200000X-0.275000X0*%
%ADD26RoundRect,0.250000X0.550000X0.550000X-0.550000X0.550000X-0.550000X-0.550000X0.550000X-0.550000X0*%
%ADD27C,1.600000*%
%ADD28R,1.500000X1.000000*%
G04 APERTURE END LIST*
D10*
%TO.C,U5*%
X56000000Y-72500000D03*
X56000000Y-73000000D03*
X56000000Y-73500000D03*
X56000000Y-74000000D03*
X58575000Y-74000000D03*
X58575000Y-73500000D03*
X58575000Y-73000000D03*
X58575000Y-72500000D03*
D11*
X57287500Y-73250000D03*
%TD*%
D12*
%TO.C,J1*%
X137000000Y-92500000D03*
D13*
X136000000Y-92500000D03*
X135000000Y-92500000D03*
X134000000Y-92500000D03*
X133000000Y-92500000D03*
%TD*%
D14*
%TO.C,R3*%
X61500000Y-93650000D03*
X61500000Y-92000000D03*
%TD*%
D15*
%TO.C,BT1*%
X68987500Y-56330000D03*
X96887500Y-56330000D03*
D16*
X58487500Y-56330000D03*
D17*
X107387500Y-56330000D03*
%TD*%
D18*
%TO.C,R4*%
X61500000Y-98500000D03*
X61500000Y-100150000D03*
%TD*%
D19*
%TO.C,U6*%
X55837500Y-98500000D03*
X55837500Y-99000000D03*
X55837500Y-99500000D03*
X55837500Y-100000000D03*
D20*
X56500000Y-100162500D03*
X57000000Y-100162500D03*
X57500000Y-100162500D03*
D19*
X58162500Y-100000000D03*
X58162500Y-99500000D03*
X58162500Y-99000000D03*
X58162500Y-98500000D03*
D20*
X57500000Y-98337500D03*
X57000000Y-98337500D03*
X56500000Y-98337500D03*
%TD*%
D21*
%TO.C,SW1*%
X183700000Y-95475000D03*
X183700000Y-91375000D03*
X185300000Y-95475000D03*
X185300000Y-91375000D03*
D22*
X183075000Y-93425000D03*
%TD*%
D23*
%TO.C,U2*%
X155640000Y-68545000D03*
D24*
X155640000Y-71085000D03*
X155640000Y-73625000D03*
X155640000Y-76165000D03*
X155640000Y-78705000D03*
X155640000Y-81245000D03*
X155640000Y-83785000D03*
X155640000Y-86325000D03*
X155640000Y-88865000D03*
X155640000Y-91405000D03*
X155640000Y-93945000D03*
X155640000Y-96485000D03*
X155640000Y-99025000D03*
X155640000Y-101565000D03*
X155640000Y-104105000D03*
X178500000Y-104105000D03*
X178500000Y-101565000D03*
X178500000Y-99025000D03*
X178500000Y-96485000D03*
X178500000Y-93945000D03*
X178500000Y-91405000D03*
X178500000Y-88865000D03*
X178500000Y-86325000D03*
X178500000Y-83785000D03*
X178500000Y-81245000D03*
X178500000Y-78705000D03*
X178500000Y-76165000D03*
X178500000Y-73625000D03*
X178500000Y-71085000D03*
X178500000Y-68545000D03*
%TD*%
D23*
%TO.C,U1*%
X67140000Y-74340000D03*
D24*
X67140000Y-76880000D03*
X67140000Y-79420000D03*
X67140000Y-81960000D03*
X67140000Y-84500000D03*
X67140000Y-87040000D03*
X67140000Y-89580000D03*
X67140000Y-92120000D03*
X67140000Y-94660000D03*
X67140000Y-97200000D03*
X67140000Y-99740000D03*
X67140000Y-102280000D03*
X67140000Y-104820000D03*
X67140000Y-107360000D03*
X67140000Y-109900000D03*
X90000000Y-109900000D03*
X90000000Y-107360000D03*
X90000000Y-104820000D03*
X90000000Y-102280000D03*
X90000000Y-99740000D03*
X90000000Y-97200000D03*
X90000000Y-94660000D03*
X90000000Y-92120000D03*
X90000000Y-89580000D03*
X90000000Y-87040000D03*
X90000000Y-84500000D03*
X90000000Y-81960000D03*
X90000000Y-79420000D03*
X90000000Y-76880000D03*
X90000000Y-74340000D03*
%TD*%
D12*
%TO.C,BT2*%
X150500000Y-102500000D03*
D13*
X150500000Y-103500000D03*
%TD*%
D25*
%TO.C,R2*%
X58325000Y-78000000D03*
X56675000Y-78000000D03*
%TD*%
D18*
%TO.C,R1*%
X61500000Y-72500000D03*
X61500000Y-74150000D03*
%TD*%
D26*
%TO.C,U4*%
X150120000Y-96500000D03*
D27*
X150120000Y-93960000D03*
X150120000Y-91420000D03*
X150120000Y-88880000D03*
X150120000Y-86340000D03*
X150120000Y-83800000D03*
X150120000Y-81260000D03*
X150120000Y-78720000D03*
X142500000Y-78720000D03*
X142500000Y-81260000D03*
X142500000Y-83800000D03*
X142500000Y-86340000D03*
X142500000Y-88880000D03*
X142500000Y-91420000D03*
X142500000Y-93960000D03*
X142500000Y-96500000D03*
%TD*%
D28*
%TO.C,D1*%
X138100000Y-101500000D03*
X138100000Y-103100000D03*
X138100000Y-104700000D03*
X143000000Y-104700000D03*
X143000000Y-103100000D03*
X143000000Y-101500000D03*
%TD*%
M02*
