%TF.GenerationSoftware,KiCad,Pcbnew,9.0.6*%
%TF.CreationDate,2026-01-31T12:13:37-08:00*%
%TF.ProjectId,techin514_final_sensor_pcb,74656368-696e-4353-9134-5f66696e616c,rev?*%
%TF.SameCoordinates,Original*%
%TF.FileFunction,Soldermask,Bot*%
%TF.FilePolarity,Negative*%
%FSLAX46Y46*%
G04 Gerber Fmt 4.6, Leading zero omitted, Abs format (unit mm)*
G04 Created by KiCad (PCBNEW 9.0.6) date 2026-01-31 12:13:37*
%MOMM*%
%LPD*%
G01*
G04 APERTURE LIST*
G04 Aperture macros list*
%AMRoundRect*
0 Rectangle with rounded corners*
0 $1 Rounding radius*
0 $2 $3 $4 $5 $6 $7 $8 $9 X,Y pos of 4 corners*
0 Add a 4 corners polygon primitive as box body*
4,1,4,$2,$3,$4,$5,$6,$7,$8,$9,$2,$3,0*
0 Add four circle primitives for the rounded corners*
1,1,$1+$1,$2,$3*
1,1,$1+$1,$4,$5*
1,1,$1+$1,$6,$7*
1,1,$1+$1,$8,$9*
0 Add four rect primitives between the rounded corners*
20,1,$1+$1,$2,$3,$4,$5,0*
20,1,$1+$1,$4,$5,$6,$7,0*
20,1,$1+$1,$6,$7,$8,$9,0*
20,1,$1+$1,$8,$9,$2,$3,0*%
G04 Aperture macros list end*
%ADD10R,0.850000X0.850000*%
%ADD11C,0.850000*%
%ADD12C,3.200000*%
%ADD13RoundRect,0.250000X-1.250000X-1.250000X1.250000X-1.250000X1.250000X1.250000X-1.250000X1.250000X0*%
%ADD14C,3.000000*%
%ADD15R,1.500000X1.500000*%
%ADD16C,1.500000*%
%ADD17RoundRect,0.250000X0.550000X0.550000X-0.550000X0.550000X-0.550000X-0.550000X0.550000X-0.550000X0*%
%ADD18C,1.600000*%
G04 APERTURE END LIST*
D10*
%TO.C,J1*%
X137000000Y-92500000D03*
D11*
X136000000Y-92500000D03*
X135000000Y-92500000D03*
X134000000Y-92500000D03*
X133000000Y-92500000D03*
%TD*%
D12*
%TO.C,BT1*%
X68987500Y-56330000D03*
X96887500Y-56330000D03*
D13*
X58487500Y-56330000D03*
D14*
X107387500Y-56330000D03*
%TD*%
D15*
%TO.C,U2*%
X155640000Y-68545000D03*
D16*
X155640000Y-71085000D03*
X155640000Y-73625000D03*
X155640000Y-76165000D03*
X155640000Y-78705000D03*
X155640000Y-81245000D03*
X155640000Y-83785000D03*
X155640000Y-86325000D03*
X155640000Y-88865000D03*
X155640000Y-91405000D03*
X155640000Y-93945000D03*
X155640000Y-96485000D03*
X155640000Y-99025000D03*
X155640000Y-101565000D03*
X155640000Y-104105000D03*
X178500000Y-104105000D03*
X178500000Y-101565000D03*
X178500000Y-99025000D03*
X178500000Y-96485000D03*
X178500000Y-93945000D03*
X178500000Y-91405000D03*
X178500000Y-88865000D03*
X178500000Y-86325000D03*
X178500000Y-83785000D03*
X178500000Y-81245000D03*
X178500000Y-78705000D03*
X178500000Y-76165000D03*
X178500000Y-73625000D03*
X178500000Y-71085000D03*
X178500000Y-68545000D03*
%TD*%
D15*
%TO.C,U1*%
X67140000Y-74340000D03*
D16*
X67140000Y-76880000D03*
X67140000Y-79420000D03*
X67140000Y-81960000D03*
X67140000Y-84500000D03*
X67140000Y-87040000D03*
X67140000Y-89580000D03*
X67140000Y-92120000D03*
X67140000Y-94660000D03*
X67140000Y-97200000D03*
X67140000Y-99740000D03*
X67140000Y-102280000D03*
X67140000Y-104820000D03*
X67140000Y-107360000D03*
X67140000Y-109900000D03*
X90000000Y-109900000D03*
X90000000Y-107360000D03*
X90000000Y-104820000D03*
X90000000Y-102280000D03*
X90000000Y-99740000D03*
X90000000Y-97200000D03*
X90000000Y-94660000D03*
X90000000Y-92120000D03*
X90000000Y-89580000D03*
X90000000Y-87040000D03*
X90000000Y-84500000D03*
X90000000Y-81960000D03*
X90000000Y-79420000D03*
X90000000Y-76880000D03*
X90000000Y-74340000D03*
%TD*%
D10*
%TO.C,BT2*%
X150500000Y-102500000D03*
D11*
X150500000Y-103500000D03*
%TD*%
D17*
%TO.C,U4*%
X150120000Y-96500000D03*
D18*
X150120000Y-93960000D03*
X150120000Y-91420000D03*
X150120000Y-88880000D03*
X150120000Y-86340000D03*
X150120000Y-83800000D03*
X150120000Y-81260000D03*
X150120000Y-78720000D03*
X142500000Y-78720000D03*
X142500000Y-81260000D03*
X142500000Y-83800000D03*
X142500000Y-86340000D03*
X142500000Y-88880000D03*
X142500000Y-91420000D03*
X142500000Y-93960000D03*
X142500000Y-96500000D03*
%TD*%
M02*
