%TF.GenerationSoftware,KiCad,Pcbnew,9.0.6*%
%TF.CreationDate,2026-01-31T12:13:37-08:00*%
%TF.ProjectId,techin514_final_sensor_pcb,74656368-696e-4353-9134-5f66696e616c,rev?*%
%TF.SameCoordinates,Original*%
%TF.FileFunction,Legend,Top*%
%TF.FilePolarity,Positive*%
%FSLAX46Y46*%
G04 Gerber Fmt 4.6, Leading zero omitted, Abs format (unit mm)*
G04 Created by KiCad (PCBNEW 9.0.6) date 2026-01-31 12:13:37*
%MOMM*%
%LPD*%
G01*
G04 APERTURE LIST*
%ADD10C,0.150000*%
%ADD11C,0.120000*%
G04 APERTURE END LIST*
D10*
X56525595Y-70754819D02*
X56525595Y-71564342D01*
X56525595Y-71564342D02*
X56573214Y-71659580D01*
X56573214Y-71659580D02*
X56620833Y-71707200D01*
X56620833Y-71707200D02*
X56716071Y-71754819D01*
X56716071Y-71754819D02*
X56906547Y-71754819D01*
X56906547Y-71754819D02*
X57001785Y-71707200D01*
X57001785Y-71707200D02*
X57049404Y-71659580D01*
X57049404Y-71659580D02*
X57097023Y-71564342D01*
X57097023Y-71564342D02*
X57097023Y-70754819D01*
X58049404Y-70754819D02*
X57573214Y-70754819D01*
X57573214Y-70754819D02*
X57525595Y-71231009D01*
X57525595Y-71231009D02*
X57573214Y-71183390D01*
X57573214Y-71183390D02*
X57668452Y-71135771D01*
X57668452Y-71135771D02*
X57906547Y-71135771D01*
X57906547Y-71135771D02*
X58001785Y-71183390D01*
X58001785Y-71183390D02*
X58049404Y-71231009D01*
X58049404Y-71231009D02*
X58097023Y-71326247D01*
X58097023Y-71326247D02*
X58097023Y-71564342D01*
X58097023Y-71564342D02*
X58049404Y-71659580D01*
X58049404Y-71659580D02*
X58001785Y-71707200D01*
X58001785Y-71707200D02*
X57906547Y-71754819D01*
X57906547Y-71754819D02*
X57668452Y-71754819D01*
X57668452Y-71754819D02*
X57573214Y-71707200D01*
X57573214Y-71707200D02*
X57525595Y-71659580D01*
X138064819Y-92833333D02*
X138779104Y-92833333D01*
X138779104Y-92833333D02*
X138921961Y-92880952D01*
X138921961Y-92880952D02*
X139017200Y-92976190D01*
X139017200Y-92976190D02*
X139064819Y-93119047D01*
X139064819Y-93119047D02*
X139064819Y-93214285D01*
X139064819Y-91833333D02*
X139064819Y-92404761D01*
X139064819Y-92119047D02*
X138064819Y-92119047D01*
X138064819Y-92119047D02*
X138207676Y-92214285D01*
X138207676Y-92214285D02*
X138302914Y-92309523D01*
X138302914Y-92309523D02*
X138350533Y-92404761D01*
X60524819Y-92991666D02*
X60048628Y-93324999D01*
X60524819Y-93563094D02*
X59524819Y-93563094D01*
X59524819Y-93563094D02*
X59524819Y-93182142D01*
X59524819Y-93182142D02*
X59572438Y-93086904D01*
X59572438Y-93086904D02*
X59620057Y-93039285D01*
X59620057Y-93039285D02*
X59715295Y-92991666D01*
X59715295Y-92991666D02*
X59858152Y-92991666D01*
X59858152Y-92991666D02*
X59953390Y-93039285D01*
X59953390Y-93039285D02*
X60001009Y-93086904D01*
X60001009Y-93086904D02*
X60048628Y-93182142D01*
X60048628Y-93182142D02*
X60048628Y-93563094D01*
X59524819Y-92658332D02*
X59524819Y-92039285D01*
X59524819Y-92039285D02*
X59905771Y-92372618D01*
X59905771Y-92372618D02*
X59905771Y-92229761D01*
X59905771Y-92229761D02*
X59953390Y-92134523D01*
X59953390Y-92134523D02*
X60001009Y-92086904D01*
X60001009Y-92086904D02*
X60096247Y-92039285D01*
X60096247Y-92039285D02*
X60334342Y-92039285D01*
X60334342Y-92039285D02*
X60429580Y-92086904D01*
X60429580Y-92086904D02*
X60477200Y-92134523D01*
X60477200Y-92134523D02*
X60524819Y-92229761D01*
X60524819Y-92229761D02*
X60524819Y-92515475D01*
X60524819Y-92515475D02*
X60477200Y-92610713D01*
X60477200Y-92610713D02*
X60429580Y-92658332D01*
X58201785Y-64261009D02*
X58344642Y-64308628D01*
X58344642Y-64308628D02*
X58392261Y-64356247D01*
X58392261Y-64356247D02*
X58439880Y-64451485D01*
X58439880Y-64451485D02*
X58439880Y-64594342D01*
X58439880Y-64594342D02*
X58392261Y-64689580D01*
X58392261Y-64689580D02*
X58344642Y-64737200D01*
X58344642Y-64737200D02*
X58249404Y-64784819D01*
X58249404Y-64784819D02*
X57868452Y-64784819D01*
X57868452Y-64784819D02*
X57868452Y-63784819D01*
X57868452Y-63784819D02*
X58201785Y-63784819D01*
X58201785Y-63784819D02*
X58297023Y-63832438D01*
X58297023Y-63832438D02*
X58344642Y-63880057D01*
X58344642Y-63880057D02*
X58392261Y-63975295D01*
X58392261Y-63975295D02*
X58392261Y-64070533D01*
X58392261Y-64070533D02*
X58344642Y-64165771D01*
X58344642Y-64165771D02*
X58297023Y-64213390D01*
X58297023Y-64213390D02*
X58201785Y-64261009D01*
X58201785Y-64261009D02*
X57868452Y-64261009D01*
X58725595Y-63784819D02*
X59297023Y-63784819D01*
X59011309Y-64784819D02*
X59011309Y-63784819D01*
X60154166Y-64784819D02*
X59582738Y-64784819D01*
X59868452Y-64784819D02*
X59868452Y-63784819D01*
X59868452Y-63784819D02*
X59773214Y-63927676D01*
X59773214Y-63927676D02*
X59677976Y-64022914D01*
X59677976Y-64022914D02*
X59582738Y-64070533D01*
X63384819Y-99491666D02*
X62908628Y-99824999D01*
X63384819Y-100063094D02*
X62384819Y-100063094D01*
X62384819Y-100063094D02*
X62384819Y-99682142D01*
X62384819Y-99682142D02*
X62432438Y-99586904D01*
X62432438Y-99586904D02*
X62480057Y-99539285D01*
X62480057Y-99539285D02*
X62575295Y-99491666D01*
X62575295Y-99491666D02*
X62718152Y-99491666D01*
X62718152Y-99491666D02*
X62813390Y-99539285D01*
X62813390Y-99539285D02*
X62861009Y-99586904D01*
X62861009Y-99586904D02*
X62908628Y-99682142D01*
X62908628Y-99682142D02*
X62908628Y-100063094D01*
X62718152Y-98634523D02*
X63384819Y-98634523D01*
X62337200Y-98872618D02*
X63051485Y-99110713D01*
X63051485Y-99110713D02*
X63051485Y-98491666D01*
X56238095Y-96504819D02*
X56238095Y-97314342D01*
X56238095Y-97314342D02*
X56285714Y-97409580D01*
X56285714Y-97409580D02*
X56333333Y-97457200D01*
X56333333Y-97457200D02*
X56428571Y-97504819D01*
X56428571Y-97504819D02*
X56619047Y-97504819D01*
X56619047Y-97504819D02*
X56714285Y-97457200D01*
X56714285Y-97457200D02*
X56761904Y-97409580D01*
X56761904Y-97409580D02*
X56809523Y-97314342D01*
X56809523Y-97314342D02*
X56809523Y-96504819D01*
X57714285Y-96504819D02*
X57523809Y-96504819D01*
X57523809Y-96504819D02*
X57428571Y-96552438D01*
X57428571Y-96552438D02*
X57380952Y-96600057D01*
X57380952Y-96600057D02*
X57285714Y-96742914D01*
X57285714Y-96742914D02*
X57238095Y-96933390D01*
X57238095Y-96933390D02*
X57238095Y-97314342D01*
X57238095Y-97314342D02*
X57285714Y-97409580D01*
X57285714Y-97409580D02*
X57333333Y-97457200D01*
X57333333Y-97457200D02*
X57428571Y-97504819D01*
X57428571Y-97504819D02*
X57619047Y-97504819D01*
X57619047Y-97504819D02*
X57714285Y-97457200D01*
X57714285Y-97457200D02*
X57761904Y-97409580D01*
X57761904Y-97409580D02*
X57809523Y-97314342D01*
X57809523Y-97314342D02*
X57809523Y-97076247D01*
X57809523Y-97076247D02*
X57761904Y-96981009D01*
X57761904Y-96981009D02*
X57714285Y-96933390D01*
X57714285Y-96933390D02*
X57619047Y-96885771D01*
X57619047Y-96885771D02*
X57428571Y-96885771D01*
X57428571Y-96885771D02*
X57333333Y-96933390D01*
X57333333Y-96933390D02*
X57285714Y-96981009D01*
X57285714Y-96981009D02*
X57238095Y-97076247D01*
X182457200Y-94758332D02*
X182504819Y-94615475D01*
X182504819Y-94615475D02*
X182504819Y-94377380D01*
X182504819Y-94377380D02*
X182457200Y-94282142D01*
X182457200Y-94282142D02*
X182409580Y-94234523D01*
X182409580Y-94234523D02*
X182314342Y-94186904D01*
X182314342Y-94186904D02*
X182219104Y-94186904D01*
X182219104Y-94186904D02*
X182123866Y-94234523D01*
X182123866Y-94234523D02*
X182076247Y-94282142D01*
X182076247Y-94282142D02*
X182028628Y-94377380D01*
X182028628Y-94377380D02*
X181981009Y-94567856D01*
X181981009Y-94567856D02*
X181933390Y-94663094D01*
X181933390Y-94663094D02*
X181885771Y-94710713D01*
X181885771Y-94710713D02*
X181790533Y-94758332D01*
X181790533Y-94758332D02*
X181695295Y-94758332D01*
X181695295Y-94758332D02*
X181600057Y-94710713D01*
X181600057Y-94710713D02*
X181552438Y-94663094D01*
X181552438Y-94663094D02*
X181504819Y-94567856D01*
X181504819Y-94567856D02*
X181504819Y-94329761D01*
X181504819Y-94329761D02*
X181552438Y-94186904D01*
X181504819Y-93853570D02*
X182504819Y-93615475D01*
X182504819Y-93615475D02*
X181790533Y-93424999D01*
X181790533Y-93424999D02*
X182504819Y-93234523D01*
X182504819Y-93234523D02*
X181504819Y-92996428D01*
X182504819Y-92091666D02*
X182504819Y-92663094D01*
X182504819Y-92377380D02*
X181504819Y-92377380D01*
X181504819Y-92377380D02*
X181647676Y-92472618D01*
X181647676Y-92472618D02*
X181742914Y-92567856D01*
X181742914Y-92567856D02*
X181790533Y-92663094D01*
X166308095Y-106099819D02*
X166308095Y-106909342D01*
X166308095Y-106909342D02*
X166355714Y-107004580D01*
X166355714Y-107004580D02*
X166403333Y-107052200D01*
X166403333Y-107052200D02*
X166498571Y-107099819D01*
X166498571Y-107099819D02*
X166689047Y-107099819D01*
X166689047Y-107099819D02*
X166784285Y-107052200D01*
X166784285Y-107052200D02*
X166831904Y-107004580D01*
X166831904Y-107004580D02*
X166879523Y-106909342D01*
X166879523Y-106909342D02*
X166879523Y-106099819D01*
X167308095Y-106195057D02*
X167355714Y-106147438D01*
X167355714Y-106147438D02*
X167450952Y-106099819D01*
X167450952Y-106099819D02*
X167689047Y-106099819D01*
X167689047Y-106099819D02*
X167784285Y-106147438D01*
X167784285Y-106147438D02*
X167831904Y-106195057D01*
X167831904Y-106195057D02*
X167879523Y-106290295D01*
X167879523Y-106290295D02*
X167879523Y-106385533D01*
X167879523Y-106385533D02*
X167831904Y-106528390D01*
X167831904Y-106528390D02*
X167260476Y-107099819D01*
X167260476Y-107099819D02*
X167879523Y-107099819D01*
X77808095Y-111894819D02*
X77808095Y-112704342D01*
X77808095Y-112704342D02*
X77855714Y-112799580D01*
X77855714Y-112799580D02*
X77903333Y-112847200D01*
X77903333Y-112847200D02*
X77998571Y-112894819D01*
X77998571Y-112894819D02*
X78189047Y-112894819D01*
X78189047Y-112894819D02*
X78284285Y-112847200D01*
X78284285Y-112847200D02*
X78331904Y-112799580D01*
X78331904Y-112799580D02*
X78379523Y-112704342D01*
X78379523Y-112704342D02*
X78379523Y-111894819D01*
X79379523Y-112894819D02*
X78808095Y-112894819D01*
X79093809Y-112894819D02*
X79093809Y-111894819D01*
X79093809Y-111894819D02*
X78998571Y-112037676D01*
X78998571Y-112037676D02*
X78903333Y-112132914D01*
X78903333Y-112132914D02*
X78808095Y-112180533D01*
X149714285Y-100821009D02*
X149857142Y-100868628D01*
X149857142Y-100868628D02*
X149904761Y-100916247D01*
X149904761Y-100916247D02*
X149952380Y-101011485D01*
X149952380Y-101011485D02*
X149952380Y-101154342D01*
X149952380Y-101154342D02*
X149904761Y-101249580D01*
X149904761Y-101249580D02*
X149857142Y-101297200D01*
X149857142Y-101297200D02*
X149761904Y-101344819D01*
X149761904Y-101344819D02*
X149380952Y-101344819D01*
X149380952Y-101344819D02*
X149380952Y-100344819D01*
X149380952Y-100344819D02*
X149714285Y-100344819D01*
X149714285Y-100344819D02*
X149809523Y-100392438D01*
X149809523Y-100392438D02*
X149857142Y-100440057D01*
X149857142Y-100440057D02*
X149904761Y-100535295D01*
X149904761Y-100535295D02*
X149904761Y-100630533D01*
X149904761Y-100630533D02*
X149857142Y-100725771D01*
X149857142Y-100725771D02*
X149809523Y-100773390D01*
X149809523Y-100773390D02*
X149714285Y-100821009D01*
X149714285Y-100821009D02*
X149380952Y-100821009D01*
X150238095Y-100344819D02*
X150809523Y-100344819D01*
X150523809Y-101344819D02*
X150523809Y-100344819D01*
X151095238Y-100440057D02*
X151142857Y-100392438D01*
X151142857Y-100392438D02*
X151238095Y-100344819D01*
X151238095Y-100344819D02*
X151476190Y-100344819D01*
X151476190Y-100344819D02*
X151571428Y-100392438D01*
X151571428Y-100392438D02*
X151619047Y-100440057D01*
X151619047Y-100440057D02*
X151666666Y-100535295D01*
X151666666Y-100535295D02*
X151666666Y-100630533D01*
X151666666Y-100630533D02*
X151619047Y-100773390D01*
X151619047Y-100773390D02*
X151047619Y-101344819D01*
X151047619Y-101344819D02*
X151666666Y-101344819D01*
X57333333Y-79884819D02*
X57000000Y-79408628D01*
X56761905Y-79884819D02*
X56761905Y-78884819D01*
X56761905Y-78884819D02*
X57142857Y-78884819D01*
X57142857Y-78884819D02*
X57238095Y-78932438D01*
X57238095Y-78932438D02*
X57285714Y-78980057D01*
X57285714Y-78980057D02*
X57333333Y-79075295D01*
X57333333Y-79075295D02*
X57333333Y-79218152D01*
X57333333Y-79218152D02*
X57285714Y-79313390D01*
X57285714Y-79313390D02*
X57238095Y-79361009D01*
X57238095Y-79361009D02*
X57142857Y-79408628D01*
X57142857Y-79408628D02*
X56761905Y-79408628D01*
X57714286Y-78980057D02*
X57761905Y-78932438D01*
X57761905Y-78932438D02*
X57857143Y-78884819D01*
X57857143Y-78884819D02*
X58095238Y-78884819D01*
X58095238Y-78884819D02*
X58190476Y-78932438D01*
X58190476Y-78932438D02*
X58238095Y-78980057D01*
X58238095Y-78980057D02*
X58285714Y-79075295D01*
X58285714Y-79075295D02*
X58285714Y-79170533D01*
X58285714Y-79170533D02*
X58238095Y-79313390D01*
X58238095Y-79313390D02*
X57666667Y-79884819D01*
X57666667Y-79884819D02*
X58285714Y-79884819D01*
X63384819Y-73491666D02*
X62908628Y-73824999D01*
X63384819Y-74063094D02*
X62384819Y-74063094D01*
X62384819Y-74063094D02*
X62384819Y-73682142D01*
X62384819Y-73682142D02*
X62432438Y-73586904D01*
X62432438Y-73586904D02*
X62480057Y-73539285D01*
X62480057Y-73539285D02*
X62575295Y-73491666D01*
X62575295Y-73491666D02*
X62718152Y-73491666D01*
X62718152Y-73491666D02*
X62813390Y-73539285D01*
X62813390Y-73539285D02*
X62861009Y-73586904D01*
X62861009Y-73586904D02*
X62908628Y-73682142D01*
X62908628Y-73682142D02*
X62908628Y-74063094D01*
X63384819Y-72539285D02*
X63384819Y-73110713D01*
X63384819Y-72824999D02*
X62384819Y-72824999D01*
X62384819Y-72824999D02*
X62527676Y-72920237D01*
X62527676Y-72920237D02*
X62622914Y-73015475D01*
X62622914Y-73015475D02*
X62670533Y-73110713D01*
X145548095Y-98284819D02*
X145548095Y-99094342D01*
X145548095Y-99094342D02*
X145595714Y-99189580D01*
X145595714Y-99189580D02*
X145643333Y-99237200D01*
X145643333Y-99237200D02*
X145738571Y-99284819D01*
X145738571Y-99284819D02*
X145929047Y-99284819D01*
X145929047Y-99284819D02*
X146024285Y-99237200D01*
X146024285Y-99237200D02*
X146071904Y-99189580D01*
X146071904Y-99189580D02*
X146119523Y-99094342D01*
X146119523Y-99094342D02*
X146119523Y-98284819D01*
X147024285Y-98618152D02*
X147024285Y-99284819D01*
X146786190Y-98237200D02*
X146548095Y-98951485D01*
X146548095Y-98951485D02*
X147167142Y-98951485D01*
X139811905Y-100054819D02*
X139811905Y-99054819D01*
X139811905Y-99054819D02*
X140050000Y-99054819D01*
X140050000Y-99054819D02*
X140192857Y-99102438D01*
X140192857Y-99102438D02*
X140288095Y-99197676D01*
X140288095Y-99197676D02*
X140335714Y-99292914D01*
X140335714Y-99292914D02*
X140383333Y-99483390D01*
X140383333Y-99483390D02*
X140383333Y-99626247D01*
X140383333Y-99626247D02*
X140335714Y-99816723D01*
X140335714Y-99816723D02*
X140288095Y-99911961D01*
X140288095Y-99911961D02*
X140192857Y-100007200D01*
X140192857Y-100007200D02*
X140050000Y-100054819D01*
X140050000Y-100054819D02*
X139811905Y-100054819D01*
X141335714Y-100054819D02*
X140764286Y-100054819D01*
X141050000Y-100054819D02*
X141050000Y-99054819D01*
X141050000Y-99054819D02*
X140954762Y-99197676D01*
X140954762Y-99197676D02*
X140859524Y-99292914D01*
X140859524Y-99292914D02*
X140764286Y-99340533D01*
D11*
%TO.C,U5*%
X56101932Y-72065000D02*
X58897500Y-72065000D01*
X58897500Y-74435000D02*
X55677500Y-74435000D01*
X55807500Y-72060000D02*
X55667500Y-71870000D01*
X55947500Y-71870000D01*
X55807500Y-72060000D01*
G36*
X55807500Y-72060000D02*
G01*
X55667500Y-71870000D01*
X55947500Y-71870000D01*
X55807500Y-72060000D01*
G37*
%TO.C,J1*%
X132390000Y-91755000D02*
X132390000Y-92089970D01*
X132390000Y-92910030D02*
X132390000Y-93245000D01*
X136265000Y-91755000D02*
X132390000Y-91755000D01*
X136265000Y-91755000D02*
X136265000Y-91814435D01*
X136265000Y-93185565D02*
X136265000Y-93245000D01*
X136265000Y-93245000D02*
X132390000Y-93245000D01*
X137000000Y-91755000D02*
X137735000Y-91755000D01*
X137735000Y-91755000D02*
X137735000Y-92500000D01*
%TO.C,R3*%
X60977500Y-93062258D02*
X60977500Y-92587742D01*
X62022500Y-93062258D02*
X62022500Y-92587742D01*
%TO.C,BT1*%
X56087500Y-55830000D02*
X56087500Y-56830000D01*
X56537500Y-56030000D02*
X56537500Y-47430000D01*
X56537500Y-63330000D02*
X56537500Y-56630000D01*
X56537500Y-63330000D02*
X103457500Y-63330000D01*
X56587500Y-56330000D02*
X55587500Y-56330000D01*
X62417500Y-47430000D02*
X56537500Y-47430000D01*
X62417500Y-47430000D02*
X62417500Y-49330000D01*
X103457500Y-65230000D02*
X103457500Y-63330000D01*
X103457500Y-65230000D02*
X109337500Y-65230000D01*
X109337500Y-49330000D02*
X62417500Y-49330000D01*
X109337500Y-49330000D02*
X109337500Y-65230000D01*
%TO.C,R4*%
X60977500Y-99087742D02*
X60977500Y-99562258D01*
X62022500Y-99087742D02*
X62022500Y-99562258D01*
%TO.C,U6*%
X55390000Y-97890000D02*
X56065000Y-97890000D01*
X55390000Y-98065000D02*
X55390000Y-97890000D01*
X55390000Y-100610000D02*
X55390000Y-100435000D01*
X56065000Y-100610000D02*
X55390000Y-100610000D01*
X57935000Y-97890000D02*
X58610000Y-97890000D01*
X58610000Y-97890000D02*
X58610000Y-98065000D01*
X58610000Y-100435000D02*
X58610000Y-100610000D01*
X58610000Y-100610000D02*
X57935000Y-100610000D01*
X55260000Y-98500000D02*
X54930000Y-98740000D01*
X54930000Y-98260000D01*
X55260000Y-98500000D01*
G36*
X55260000Y-98500000D02*
G01*
X54930000Y-98740000D01*
X54930000Y-98260000D01*
X55260000Y-98500000D01*
G37*
%TO.C,SW1*%
X182950000Y-91225000D02*
X182950000Y-92275000D01*
X182950000Y-94575000D02*
X182950000Y-95625000D01*
X184550000Y-91225000D02*
X184450000Y-91225000D01*
X184550000Y-95625000D02*
X184450000Y-95625000D01*
X186050000Y-95625000D02*
X186050000Y-91225000D01*
%TO.C,U2*%
X154370000Y-66865000D02*
X179770000Y-66865000D01*
X154370000Y-105785000D02*
X154370000Y-66865000D01*
X179770000Y-66865000D02*
X179770000Y-105785000D01*
X179770000Y-105785000D02*
X154370000Y-105785000D01*
%TO.C,U1*%
X65870000Y-72660000D02*
X91270000Y-72660000D01*
X65870000Y-111580000D02*
X65870000Y-72660000D01*
X91270000Y-72660000D02*
X91270000Y-111580000D01*
X91270000Y-111580000D02*
X65870000Y-111580000D01*
%TO.C,BT2*%
X149755000Y-101765000D02*
X150500000Y-101765000D01*
X149755000Y-102500000D02*
X149755000Y-101765000D01*
X149755000Y-103235000D02*
X149755000Y-104110000D01*
X149755000Y-103235000D02*
X149814435Y-103235000D01*
X149755000Y-104110000D02*
X150089970Y-104110000D01*
X150910030Y-104110000D02*
X151245000Y-104110000D01*
X151185565Y-103235000D02*
X151245000Y-103235000D01*
X151245000Y-103235000D02*
X151245000Y-104110000D01*
%TO.C,R2*%
X57737258Y-77477500D02*
X57262742Y-77477500D01*
X57737258Y-78522500D02*
X57262742Y-78522500D01*
%TO.C,R1*%
X60977500Y-73087742D02*
X60977500Y-73562258D01*
X62022500Y-73087742D02*
X62022500Y-73562258D01*
%TO.C,U4*%
X143660000Y-77390000D02*
X143660000Y-97830000D01*
X143660000Y-97830000D02*
X145310000Y-97830000D01*
X147310000Y-97830000D02*
X148960000Y-97830000D01*
X148960000Y-77390000D02*
X143660000Y-77390000D01*
X148960000Y-97830000D02*
X148960000Y-77390000D01*
X145310000Y-97830000D02*
G75*
G02*
X147310000Y-97830000I1000000J0D01*
G01*
%TO.C,D1*%
X137050000Y-100800000D02*
X137050000Y-105850000D01*
X137500000Y-100350000D02*
X137050000Y-100800000D01*
X144050000Y-100350000D02*
X137500000Y-100350000D01*
X144050000Y-105850000D02*
X137050000Y-105850000D01*
X144050000Y-105850000D02*
X144050000Y-100350000D01*
%TD*%
M02*
