%TF.GenerationSoftware,KiCad,Pcbnew,9.0.6*%
%TF.CreationDate,2026-02-10T13:25:08-08:00*%
%TF.ProjectId,techin514_final_sensor_pcb,74656368-696e-4353-9134-5f66696e616c,v0.1(draft)*%
%TF.SameCoordinates,Original*%
%TF.FileFunction,Legend,Top*%
%TF.FilePolarity,Positive*%
%FSLAX46Y46*%
G04 Gerber Fmt 4.6, Leading zero omitted, Abs format (unit mm)*
G04 Created by KiCad (PCBNEW 9.0.6) date 2026-02-10 13:25:08*
%MOMM*%
%LPD*%
G01*
G04 APERTURE LIST*
%ADD10C,0.150000*%
%ADD11C,0.100000*%
%ADD12C,0.120000*%
G04 APERTURE END LIST*
D10*
X228731327Y-155438819D02*
X228731327Y-156153104D01*
X228731327Y-156153104D02*
X228683708Y-156295961D01*
X228683708Y-156295961D02*
X228588470Y-156391200D01*
X228588470Y-156391200D02*
X228445613Y-156438819D01*
X228445613Y-156438819D02*
X228350375Y-156438819D01*
X229636089Y-155772152D02*
X229636089Y-156438819D01*
X229397994Y-155391200D02*
X229159899Y-156105485D01*
X229159899Y-156105485D02*
X229778946Y-156105485D01*
X234731327Y-147628819D02*
X234731327Y-148343104D01*
X234731327Y-148343104D02*
X234683708Y-148485961D01*
X234683708Y-148485961D02*
X234588470Y-148581200D01*
X234588470Y-148581200D02*
X234445613Y-148628819D01*
X234445613Y-148628819D02*
X234350375Y-148628819D01*
X235112280Y-147628819D02*
X235778946Y-147628819D01*
X235778946Y-147628819D02*
X235350375Y-148628819D01*
X247786980Y-119341666D02*
X247310789Y-119674999D01*
X247786980Y-119913094D02*
X246786980Y-119913094D01*
X246786980Y-119913094D02*
X246786980Y-119532142D01*
X246786980Y-119532142D02*
X246834599Y-119436904D01*
X246834599Y-119436904D02*
X246882218Y-119389285D01*
X246882218Y-119389285D02*
X246977456Y-119341666D01*
X246977456Y-119341666D02*
X247120313Y-119341666D01*
X247120313Y-119341666D02*
X247215551Y-119389285D01*
X247215551Y-119389285D02*
X247263170Y-119436904D01*
X247263170Y-119436904D02*
X247310789Y-119532142D01*
X247310789Y-119532142D02*
X247310789Y-119913094D01*
X247120313Y-118484523D02*
X247786980Y-118484523D01*
X246739361Y-118722618D02*
X247453646Y-118960713D01*
X247453646Y-118960713D02*
X247453646Y-118341666D01*
X240449480Y-131495666D02*
X239973289Y-131828999D01*
X240449480Y-132067094D02*
X239449480Y-132067094D01*
X239449480Y-132067094D02*
X239449480Y-131686142D01*
X239449480Y-131686142D02*
X239497099Y-131590904D01*
X239497099Y-131590904D02*
X239544718Y-131543285D01*
X239544718Y-131543285D02*
X239639956Y-131495666D01*
X239639956Y-131495666D02*
X239782813Y-131495666D01*
X239782813Y-131495666D02*
X239878051Y-131543285D01*
X239878051Y-131543285D02*
X239925670Y-131590904D01*
X239925670Y-131590904D02*
X239973289Y-131686142D01*
X239973289Y-131686142D02*
X239973289Y-132067094D01*
X239449480Y-131162332D02*
X239449480Y-130543285D01*
X239449480Y-130543285D02*
X239830432Y-130876618D01*
X239830432Y-130876618D02*
X239830432Y-130733761D01*
X239830432Y-130733761D02*
X239878051Y-130638523D01*
X239878051Y-130638523D02*
X239925670Y-130590904D01*
X239925670Y-130590904D02*
X240020908Y-130543285D01*
X240020908Y-130543285D02*
X240259003Y-130543285D01*
X240259003Y-130543285D02*
X240354241Y-130590904D01*
X240354241Y-130590904D02*
X240401861Y-130638523D01*
X240401861Y-130638523D02*
X240449480Y-130733761D01*
X240449480Y-130733761D02*
X240449480Y-131019475D01*
X240449480Y-131019475D02*
X240401861Y-131114713D01*
X240401861Y-131114713D02*
X240354241Y-131162332D01*
D11*
X223717756Y-110301419D02*
X223717756Y-111110942D01*
X223717756Y-111110942D02*
X223765375Y-111206180D01*
X223765375Y-111206180D02*
X223812994Y-111253800D01*
X223812994Y-111253800D02*
X223908232Y-111301419D01*
X223908232Y-111301419D02*
X224098708Y-111301419D01*
X224098708Y-111301419D02*
X224193946Y-111253800D01*
X224193946Y-111253800D02*
X224241565Y-111206180D01*
X224241565Y-111206180D02*
X224289184Y-111110942D01*
X224289184Y-111110942D02*
X224289184Y-110301419D01*
X225289184Y-111301419D02*
X224717756Y-111301419D01*
X225003470Y-111301419D02*
X225003470Y-110301419D01*
X225003470Y-110301419D02*
X224908232Y-110444276D01*
X224908232Y-110444276D02*
X224812994Y-110539514D01*
X224812994Y-110539514D02*
X224717756Y-110587133D01*
D10*
X238231327Y-127663819D02*
X238231327Y-128378104D01*
X238231327Y-128378104D02*
X238183708Y-128520961D01*
X238183708Y-128520961D02*
X238088470Y-128616200D01*
X238088470Y-128616200D02*
X237945613Y-128663819D01*
X237945613Y-128663819D02*
X237850375Y-128663819D01*
X239136089Y-127663819D02*
X238945613Y-127663819D01*
X238945613Y-127663819D02*
X238850375Y-127711438D01*
X238850375Y-127711438D02*
X238802756Y-127759057D01*
X238802756Y-127759057D02*
X238707518Y-127901914D01*
X238707518Y-127901914D02*
X238659899Y-128092390D01*
X238659899Y-128092390D02*
X238659899Y-128473342D01*
X238659899Y-128473342D02*
X238707518Y-128568580D01*
X238707518Y-128568580D02*
X238755137Y-128616200D01*
X238755137Y-128616200D02*
X238850375Y-128663819D01*
X238850375Y-128663819D02*
X239040851Y-128663819D01*
X239040851Y-128663819D02*
X239136089Y-128616200D01*
X239136089Y-128616200D02*
X239183708Y-128568580D01*
X239183708Y-128568580D02*
X239231327Y-128473342D01*
X239231327Y-128473342D02*
X239231327Y-128235247D01*
X239231327Y-128235247D02*
X239183708Y-128140009D01*
X239183708Y-128140009D02*
X239136089Y-128092390D01*
X239136089Y-128092390D02*
X239040851Y-128044771D01*
X239040851Y-128044771D02*
X238850375Y-128044771D01*
X238850375Y-128044771D02*
X238755137Y-128092390D01*
X238755137Y-128092390D02*
X238707518Y-128140009D01*
X238707518Y-128140009D02*
X238659899Y-128235247D01*
X222731327Y-148403819D02*
X222731327Y-149118104D01*
X222731327Y-149118104D02*
X222683708Y-149260961D01*
X222683708Y-149260961D02*
X222588470Y-149356200D01*
X222588470Y-149356200D02*
X222445613Y-149403819D01*
X222445613Y-149403819D02*
X222350375Y-149403819D01*
X223159899Y-148499057D02*
X223207518Y-148451438D01*
X223207518Y-148451438D02*
X223302756Y-148403819D01*
X223302756Y-148403819D02*
X223540851Y-148403819D01*
X223540851Y-148403819D02*
X223636089Y-148451438D01*
X223636089Y-148451438D02*
X223683708Y-148499057D01*
X223683708Y-148499057D02*
X223731327Y-148594295D01*
X223731327Y-148594295D02*
X223731327Y-148689533D01*
X223731327Y-148689533D02*
X223683708Y-148832390D01*
X223683708Y-148832390D02*
X223112280Y-149403819D01*
X223112280Y-149403819D02*
X223731327Y-149403819D01*
D12*
%TO.C,J4*%
X227684661Y-152334000D02*
X227684661Y-149684000D01*
X230444661Y-149684000D02*
X227684661Y-149684000D01*
X230444661Y-152334000D02*
X227684661Y-152334000D01*
X230444661Y-152334000D02*
X230444661Y-149684000D01*
X230444661Y-153604000D02*
X230444661Y-154984000D01*
X230444661Y-154984000D02*
X229064661Y-154984000D01*
%TO.C,J7*%
X233684661Y-149174000D02*
X235064661Y-149174000D01*
X233684661Y-150554000D02*
X233684661Y-149174000D01*
X233684661Y-151824000D02*
X233684661Y-154474000D01*
X233684661Y-151824000D02*
X236444661Y-151824000D01*
X233684661Y-154474000D02*
X236444661Y-154474000D01*
X236444661Y-151824000D02*
X236444661Y-154474000D01*
%TO.C,R4*%
X245379661Y-118937742D02*
X245379661Y-119412258D01*
X246424661Y-118937742D02*
X246424661Y-119412258D01*
%TO.C,R3*%
X238042161Y-131091742D02*
X238042161Y-131566258D01*
X239087161Y-131091742D02*
X239087161Y-131566258D01*
D11*
%TO.C,U1*%
X219399661Y-114884000D02*
X219399661Y-118694000D01*
X219399661Y-118694000D02*
X227019661Y-118694000D01*
X224225661Y-141300000D02*
X227273661Y-141300000D01*
X224225661Y-144348000D02*
X224225661Y-141300000D01*
X224733661Y-144856000D02*
X226765661Y-144856000D01*
X225241661Y-145364000D02*
X226257661Y-145364000D01*
X227019661Y-118694000D02*
X227019661Y-114884000D01*
X227273661Y-141300000D02*
X227273661Y-144348000D01*
X227273661Y-144348000D02*
X224225661Y-144348000D01*
D12*
%TO.C,J6*%
X237184661Y-124559000D02*
X237184661Y-116829000D01*
X239944661Y-116829000D02*
X237184661Y-116829000D01*
X239944661Y-124559000D02*
X237184661Y-124559000D01*
X239944661Y-124559000D02*
X239944661Y-116829000D01*
X239944661Y-125829000D02*
X239944661Y-127209000D01*
X239944661Y-127209000D02*
X238564661Y-127209000D01*
%TO.C,J2*%
X221684661Y-149949000D02*
X223064661Y-149949000D01*
X221684661Y-151329000D02*
X221684661Y-149949000D01*
X221684661Y-152599000D02*
X221684661Y-155249000D01*
X221684661Y-152599000D02*
X224444661Y-152599000D01*
X221684661Y-155249000D02*
X224444661Y-155249000D01*
X224444661Y-152599000D02*
X224444661Y-155249000D01*
%TD*%
M02*
