M48
; DRILL file {KiCad 9.0.6} date 2026-02-10T13:24:54-0800
; FORMAT={-:-/ absolute / metric / decimal}
; #@! TF.CreationDate,2026-02-10T13:24:54-08:00
; #@! TF.GenerationSoftware,Kicad,Pcbnew,9.0.6
; #@! TF.FileFunction,Plated,1,2,PTH
FMAT,2
METRIC
; #@! TA.AperFunction,Plated,PTH,ComponentDrill
T1C1.000
; #@! TA.AperFunction,Plated,PTH,ComponentDrill
T2C1.016
%
G90
G05
T1
X223.065Y-151.329
X223.065Y-153.869
X229.065Y-151.064
X229.065Y-153.604
X235.065Y-150.554
X235.065Y-153.094
X238.565Y-118.209
X238.565Y-120.749
X238.565Y-123.289
X238.565Y-125.829
T2
X215.59Y-117.424
X215.59Y-119.964
X215.59Y-122.504
X215.59Y-125.044
X215.59Y-127.584
X215.59Y-130.124
X215.59Y-132.664
X220.67Y-142.824
X225.75Y-142.824
X230.83Y-117.424
X230.83Y-119.964
X230.83Y-122.504
X230.83Y-125.044
X230.83Y-127.584
X230.83Y-130.124
X230.83Y-132.664
M30
