%TF.GenerationSoftware,KiCad,Pcbnew,9.0.6*%
%TF.CreationDate,2026-02-27T13:09:19-08:00*%
%TF.ProjectId,C3_GestureDriver,43335f47-6573-4747-9572-654472697665,rev?*%
%TF.SameCoordinates,Original*%
%TF.FileFunction,Legend,Top*%
%TF.FilePolarity,Positive*%
%FSLAX46Y46*%
G04 Gerber Fmt 4.6, Leading zero omitted, Abs format (unit mm)*
G04 Created by KiCad (PCBNEW 9.0.6) date 2026-02-27 13:09:19*
%MOMM*%
%LPD*%
G01*
G04 APERTURE LIST*
%ADD10C,0.100000*%
%ADD11C,0.120000*%
G04 APERTURE END LIST*
D10*
X70594360Y-117922419D02*
X70784836Y-117922419D01*
X70784836Y-117922419D02*
X70880074Y-117970038D01*
X70880074Y-117970038D02*
X70975312Y-118065276D01*
X70975312Y-118065276D02*
X71022931Y-118255752D01*
X71022931Y-118255752D02*
X71022931Y-118589085D01*
X71022931Y-118589085D02*
X70975312Y-118779561D01*
X70975312Y-118779561D02*
X70880074Y-118874800D01*
X70880074Y-118874800D02*
X70784836Y-118922419D01*
X70784836Y-118922419D02*
X70594360Y-118922419D01*
X70594360Y-118922419D02*
X70499122Y-118874800D01*
X70499122Y-118874800D02*
X70403884Y-118779561D01*
X70403884Y-118779561D02*
X70356265Y-118589085D01*
X70356265Y-118589085D02*
X70356265Y-118255752D01*
X70356265Y-118255752D02*
X70403884Y-118065276D01*
X70403884Y-118065276D02*
X70499122Y-117970038D01*
X70499122Y-117970038D02*
X70594360Y-117922419D01*
X71784836Y-118398609D02*
X71451503Y-118398609D01*
X71451503Y-118922419D02*
X71451503Y-117922419D01*
X71451503Y-117922419D02*
X71927693Y-117922419D01*
X72641979Y-118398609D02*
X72308646Y-118398609D01*
X72308646Y-118922419D02*
X72308646Y-117922419D01*
X72308646Y-117922419D02*
X72784836Y-117922419D01*
X77494360Y-117872419D02*
X77684836Y-117872419D01*
X77684836Y-117872419D02*
X77780074Y-117920038D01*
X77780074Y-117920038D02*
X77875312Y-118015276D01*
X77875312Y-118015276D02*
X77922931Y-118205752D01*
X77922931Y-118205752D02*
X77922931Y-118539085D01*
X77922931Y-118539085D02*
X77875312Y-118729561D01*
X77875312Y-118729561D02*
X77780074Y-118824800D01*
X77780074Y-118824800D02*
X77684836Y-118872419D01*
X77684836Y-118872419D02*
X77494360Y-118872419D01*
X77494360Y-118872419D02*
X77399122Y-118824800D01*
X77399122Y-118824800D02*
X77303884Y-118729561D01*
X77303884Y-118729561D02*
X77256265Y-118539085D01*
X77256265Y-118539085D02*
X77256265Y-118205752D01*
X77256265Y-118205752D02*
X77303884Y-118015276D01*
X77303884Y-118015276D02*
X77399122Y-117920038D01*
X77399122Y-117920038D02*
X77494360Y-117872419D01*
X78351503Y-118872419D02*
X78351503Y-117872419D01*
X78351503Y-117872419D02*
X78922931Y-118872419D01*
X78922931Y-118872419D02*
X78922931Y-117872419D01*
X85333333Y-119362180D02*
X85285714Y-119409800D01*
X85285714Y-119409800D02*
X85142857Y-119457419D01*
X85142857Y-119457419D02*
X85047619Y-119457419D01*
X85047619Y-119457419D02*
X84904762Y-119409800D01*
X84904762Y-119409800D02*
X84809524Y-119314561D01*
X84809524Y-119314561D02*
X84761905Y-119219323D01*
X84761905Y-119219323D02*
X84714286Y-119028847D01*
X84714286Y-119028847D02*
X84714286Y-118885990D01*
X84714286Y-118885990D02*
X84761905Y-118695514D01*
X84761905Y-118695514D02*
X84809524Y-118600276D01*
X84809524Y-118600276D02*
X84904762Y-118505038D01*
X84904762Y-118505038D02*
X85047619Y-118457419D01*
X85047619Y-118457419D02*
X85142857Y-118457419D01*
X85142857Y-118457419D02*
X85285714Y-118505038D01*
X85285714Y-118505038D02*
X85333333Y-118552657D01*
X85666667Y-118457419D02*
X86285714Y-118457419D01*
X86285714Y-118457419D02*
X85952381Y-118838371D01*
X85952381Y-118838371D02*
X86095238Y-118838371D01*
X86095238Y-118838371D02*
X86190476Y-118885990D01*
X86190476Y-118885990D02*
X86238095Y-118933609D01*
X86238095Y-118933609D02*
X86285714Y-119028847D01*
X86285714Y-119028847D02*
X86285714Y-119266942D01*
X86285714Y-119266942D02*
X86238095Y-119362180D01*
X86238095Y-119362180D02*
X86190476Y-119409800D01*
X86190476Y-119409800D02*
X86095238Y-119457419D01*
X86095238Y-119457419D02*
X85809524Y-119457419D01*
X85809524Y-119457419D02*
X85714286Y-119409800D01*
X85714286Y-119409800D02*
X85666667Y-119362180D01*
X84738095Y-143957419D02*
X84738095Y-144766942D01*
X84738095Y-144766942D02*
X84785714Y-144862180D01*
X84785714Y-144862180D02*
X84833333Y-144909800D01*
X84833333Y-144909800D02*
X84928571Y-144957419D01*
X84928571Y-144957419D02*
X85119047Y-144957419D01*
X85119047Y-144957419D02*
X85214285Y-144909800D01*
X85214285Y-144909800D02*
X85261904Y-144862180D01*
X85261904Y-144862180D02*
X85309523Y-144766942D01*
X85309523Y-144766942D02*
X85309523Y-143957419D01*
X85738095Y-144052657D02*
X85785714Y-144005038D01*
X85785714Y-144005038D02*
X85880952Y-143957419D01*
X85880952Y-143957419D02*
X86119047Y-143957419D01*
X86119047Y-143957419D02*
X86214285Y-144005038D01*
X86214285Y-144005038D02*
X86261904Y-144052657D01*
X86261904Y-144052657D02*
X86309523Y-144147895D01*
X86309523Y-144147895D02*
X86309523Y-144243133D01*
X86309523Y-144243133D02*
X86261904Y-144385990D01*
X86261904Y-144385990D02*
X85690476Y-144957419D01*
X85690476Y-144957419D02*
X86309523Y-144957419D01*
X50658095Y-146457419D02*
X50658095Y-147266942D01*
X50658095Y-147266942D02*
X50705714Y-147362180D01*
X50705714Y-147362180D02*
X50753333Y-147409800D01*
X50753333Y-147409800D02*
X50848571Y-147457419D01*
X50848571Y-147457419D02*
X51039047Y-147457419D01*
X51039047Y-147457419D02*
X51134285Y-147409800D01*
X51134285Y-147409800D02*
X51181904Y-147362180D01*
X51181904Y-147362180D02*
X51229523Y-147266942D01*
X51229523Y-147266942D02*
X51229523Y-146457419D01*
X52229523Y-147457419D02*
X51658095Y-147457419D01*
X51943809Y-147457419D02*
X51943809Y-146457419D01*
X51943809Y-146457419D02*
X51848571Y-146600276D01*
X51848571Y-146600276D02*
X51753333Y-146695514D01*
X51753333Y-146695514D02*
X51658095Y-146743133D01*
X84761905Y-130957419D02*
X84761905Y-129957419D01*
X84761905Y-129957419D02*
X85000000Y-129957419D01*
X85000000Y-129957419D02*
X85142857Y-130005038D01*
X85142857Y-130005038D02*
X85238095Y-130100276D01*
X85238095Y-130100276D02*
X85285714Y-130195514D01*
X85285714Y-130195514D02*
X85333333Y-130385990D01*
X85333333Y-130385990D02*
X85333333Y-130528847D01*
X85333333Y-130528847D02*
X85285714Y-130719323D01*
X85285714Y-130719323D02*
X85238095Y-130814561D01*
X85238095Y-130814561D02*
X85142857Y-130909800D01*
X85142857Y-130909800D02*
X85000000Y-130957419D01*
X85000000Y-130957419D02*
X84761905Y-130957419D01*
X85714286Y-130052657D02*
X85761905Y-130005038D01*
X85761905Y-130005038D02*
X85857143Y-129957419D01*
X85857143Y-129957419D02*
X86095238Y-129957419D01*
X86095238Y-129957419D02*
X86190476Y-130005038D01*
X86190476Y-130005038D02*
X86238095Y-130052657D01*
X86238095Y-130052657D02*
X86285714Y-130147895D01*
X86285714Y-130147895D02*
X86285714Y-130243133D01*
X86285714Y-130243133D02*
X86238095Y-130385990D01*
X86238095Y-130385990D02*
X85666667Y-130957419D01*
X85666667Y-130957419D02*
X86285714Y-130957419D01*
X85333333Y-140957419D02*
X84857143Y-140957419D01*
X84857143Y-140957419D02*
X84857143Y-139957419D01*
X86190476Y-140957419D02*
X85619048Y-140957419D01*
X85904762Y-140957419D02*
X85904762Y-139957419D01*
X85904762Y-139957419D02*
X85809524Y-140100276D01*
X85809524Y-140100276D02*
X85714286Y-140195514D01*
X85714286Y-140195514D02*
X85619048Y-140243133D01*
X51280655Y-119244919D02*
X51280655Y-118244919D01*
X51280655Y-118244919D02*
X51518750Y-118244919D01*
X51518750Y-118244919D02*
X51661607Y-118292538D01*
X51661607Y-118292538D02*
X51756845Y-118387776D01*
X51756845Y-118387776D02*
X51804464Y-118483014D01*
X51804464Y-118483014D02*
X51852083Y-118673490D01*
X51852083Y-118673490D02*
X51852083Y-118816347D01*
X51852083Y-118816347D02*
X51804464Y-119006823D01*
X51804464Y-119006823D02*
X51756845Y-119102061D01*
X51756845Y-119102061D02*
X51661607Y-119197300D01*
X51661607Y-119197300D02*
X51518750Y-119244919D01*
X51518750Y-119244919D02*
X51280655Y-119244919D01*
X52804464Y-119244919D02*
X52233036Y-119244919D01*
X52518750Y-119244919D02*
X52518750Y-118244919D01*
X52518750Y-118244919D02*
X52423512Y-118387776D01*
X52423512Y-118387776D02*
X52328274Y-118483014D01*
X52328274Y-118483014D02*
X52233036Y-118530633D01*
X85333333Y-142862180D02*
X85285714Y-142909800D01*
X85285714Y-142909800D02*
X85142857Y-142957419D01*
X85142857Y-142957419D02*
X85047619Y-142957419D01*
X85047619Y-142957419D02*
X84904762Y-142909800D01*
X84904762Y-142909800D02*
X84809524Y-142814561D01*
X84809524Y-142814561D02*
X84761905Y-142719323D01*
X84761905Y-142719323D02*
X84714286Y-142528847D01*
X84714286Y-142528847D02*
X84714286Y-142385990D01*
X84714286Y-142385990D02*
X84761905Y-142195514D01*
X84761905Y-142195514D02*
X84809524Y-142100276D01*
X84809524Y-142100276D02*
X84904762Y-142005038D01*
X84904762Y-142005038D02*
X85047619Y-141957419D01*
X85047619Y-141957419D02*
X85142857Y-141957419D01*
X85142857Y-141957419D02*
X85285714Y-142005038D01*
X85285714Y-142005038D02*
X85333333Y-142052657D01*
X86285714Y-142957419D02*
X85714286Y-142957419D01*
X86000000Y-142957419D02*
X86000000Y-141957419D01*
X86000000Y-141957419D02*
X85904762Y-142100276D01*
X85904762Y-142100276D02*
X85809524Y-142195514D01*
X85809524Y-142195514D02*
X85714286Y-142243133D01*
X61166666Y-117957419D02*
X61166666Y-118671704D01*
X61166666Y-118671704D02*
X61119047Y-118814561D01*
X61119047Y-118814561D02*
X61023809Y-118909800D01*
X61023809Y-118909800D02*
X60880952Y-118957419D01*
X60880952Y-118957419D02*
X60785714Y-118957419D01*
X62166666Y-118957419D02*
X61595238Y-118957419D01*
X61880952Y-118957419D02*
X61880952Y-117957419D01*
X61880952Y-117957419D02*
X61785714Y-118100276D01*
X61785714Y-118100276D02*
X61690476Y-118195514D01*
X61690476Y-118195514D02*
X61595238Y-118243133D01*
X85333333Y-138957419D02*
X85000000Y-138481228D01*
X84761905Y-138957419D02*
X84761905Y-137957419D01*
X84761905Y-137957419D02*
X85142857Y-137957419D01*
X85142857Y-137957419D02*
X85238095Y-138005038D01*
X85238095Y-138005038D02*
X85285714Y-138052657D01*
X85285714Y-138052657D02*
X85333333Y-138147895D01*
X85333333Y-138147895D02*
X85333333Y-138290752D01*
X85333333Y-138290752D02*
X85285714Y-138385990D01*
X85285714Y-138385990D02*
X85238095Y-138433609D01*
X85238095Y-138433609D02*
X85142857Y-138481228D01*
X85142857Y-138481228D02*
X84761905Y-138481228D01*
X85666667Y-137957419D02*
X86285714Y-137957419D01*
X86285714Y-137957419D02*
X85952381Y-138338371D01*
X85952381Y-138338371D02*
X86095238Y-138338371D01*
X86095238Y-138338371D02*
X86190476Y-138385990D01*
X86190476Y-138385990D02*
X86238095Y-138433609D01*
X86238095Y-138433609D02*
X86285714Y-138528847D01*
X86285714Y-138528847D02*
X86285714Y-138766942D01*
X86285714Y-138766942D02*
X86238095Y-138862180D01*
X86238095Y-138862180D02*
X86190476Y-138909800D01*
X86190476Y-138909800D02*
X86095238Y-138957419D01*
X86095238Y-138957419D02*
X85809524Y-138957419D01*
X85809524Y-138957419D02*
X85714286Y-138909800D01*
X85714286Y-138909800D02*
X85666667Y-138862180D01*
X76166667Y-124409800D02*
X76309524Y-124457419D01*
X76309524Y-124457419D02*
X76547619Y-124457419D01*
X76547619Y-124457419D02*
X76642857Y-124409800D01*
X76642857Y-124409800D02*
X76690476Y-124362180D01*
X76690476Y-124362180D02*
X76738095Y-124266942D01*
X76738095Y-124266942D02*
X76738095Y-124171704D01*
X76738095Y-124171704D02*
X76690476Y-124076466D01*
X76690476Y-124076466D02*
X76642857Y-124028847D01*
X76642857Y-124028847D02*
X76547619Y-123981228D01*
X76547619Y-123981228D02*
X76357143Y-123933609D01*
X76357143Y-123933609D02*
X76261905Y-123885990D01*
X76261905Y-123885990D02*
X76214286Y-123838371D01*
X76214286Y-123838371D02*
X76166667Y-123743133D01*
X76166667Y-123743133D02*
X76166667Y-123647895D01*
X76166667Y-123647895D02*
X76214286Y-123552657D01*
X76214286Y-123552657D02*
X76261905Y-123505038D01*
X76261905Y-123505038D02*
X76357143Y-123457419D01*
X76357143Y-123457419D02*
X76595238Y-123457419D01*
X76595238Y-123457419D02*
X76738095Y-123505038D01*
X77071429Y-123457419D02*
X77309524Y-124457419D01*
X77309524Y-124457419D02*
X77500000Y-123743133D01*
X77500000Y-123743133D02*
X77690476Y-124457419D01*
X77690476Y-124457419D02*
X77928572Y-123457419D01*
X78261905Y-123552657D02*
X78309524Y-123505038D01*
X78309524Y-123505038D02*
X78404762Y-123457419D01*
X78404762Y-123457419D02*
X78642857Y-123457419D01*
X78642857Y-123457419D02*
X78738095Y-123505038D01*
X78738095Y-123505038D02*
X78785714Y-123552657D01*
X78785714Y-123552657D02*
X78833333Y-123647895D01*
X78833333Y-123647895D02*
X78833333Y-123743133D01*
X78833333Y-123743133D02*
X78785714Y-123885990D01*
X78785714Y-123885990D02*
X78214286Y-124457419D01*
X78214286Y-124457419D02*
X78833333Y-124457419D01*
X56166666Y-117957419D02*
X56166666Y-118671704D01*
X56166666Y-118671704D02*
X56119047Y-118814561D01*
X56119047Y-118814561D02*
X56023809Y-118909800D01*
X56023809Y-118909800D02*
X55880952Y-118957419D01*
X55880952Y-118957419D02*
X55785714Y-118957419D01*
X56595238Y-118052657D02*
X56642857Y-118005038D01*
X56642857Y-118005038D02*
X56738095Y-117957419D01*
X56738095Y-117957419D02*
X56976190Y-117957419D01*
X56976190Y-117957419D02*
X57071428Y-118005038D01*
X57071428Y-118005038D02*
X57119047Y-118052657D01*
X57119047Y-118052657D02*
X57166666Y-118147895D01*
X57166666Y-118147895D02*
X57166666Y-118243133D01*
X57166666Y-118243133D02*
X57119047Y-118385990D01*
X57119047Y-118385990D02*
X56547619Y-118957419D01*
X56547619Y-118957419D02*
X57166666Y-118957419D01*
X85333333Y-148862180D02*
X85285714Y-148909800D01*
X85285714Y-148909800D02*
X85142857Y-148957419D01*
X85142857Y-148957419D02*
X85047619Y-148957419D01*
X85047619Y-148957419D02*
X84904762Y-148909800D01*
X84904762Y-148909800D02*
X84809524Y-148814561D01*
X84809524Y-148814561D02*
X84761905Y-148719323D01*
X84761905Y-148719323D02*
X84714286Y-148528847D01*
X84714286Y-148528847D02*
X84714286Y-148385990D01*
X84714286Y-148385990D02*
X84761905Y-148195514D01*
X84761905Y-148195514D02*
X84809524Y-148100276D01*
X84809524Y-148100276D02*
X84904762Y-148005038D01*
X84904762Y-148005038D02*
X85047619Y-147957419D01*
X85047619Y-147957419D02*
X85142857Y-147957419D01*
X85142857Y-147957419D02*
X85285714Y-148005038D01*
X85285714Y-148005038D02*
X85333333Y-148052657D01*
X85714286Y-148052657D02*
X85761905Y-148005038D01*
X85761905Y-148005038D02*
X85857143Y-147957419D01*
X85857143Y-147957419D02*
X86095238Y-147957419D01*
X86095238Y-147957419D02*
X86190476Y-148005038D01*
X86190476Y-148005038D02*
X86238095Y-148052657D01*
X86238095Y-148052657D02*
X86285714Y-148147895D01*
X86285714Y-148147895D02*
X86285714Y-148243133D01*
X86285714Y-148243133D02*
X86238095Y-148385990D01*
X86238095Y-148385990D02*
X85666667Y-148957419D01*
X85666667Y-148957419D02*
X86285714Y-148957419D01*
X79238095Y-119957419D02*
X79238095Y-120766942D01*
X79238095Y-120766942D02*
X79285714Y-120862180D01*
X79285714Y-120862180D02*
X79333333Y-120909800D01*
X79333333Y-120909800D02*
X79428571Y-120957419D01*
X79428571Y-120957419D02*
X79619047Y-120957419D01*
X79619047Y-120957419D02*
X79714285Y-120909800D01*
X79714285Y-120909800D02*
X79761904Y-120862180D01*
X79761904Y-120862180D02*
X79809523Y-120766942D01*
X79809523Y-120766942D02*
X79809523Y-119957419D01*
X80190476Y-119957419D02*
X80809523Y-119957419D01*
X80809523Y-119957419D02*
X80476190Y-120338371D01*
X80476190Y-120338371D02*
X80619047Y-120338371D01*
X80619047Y-120338371D02*
X80714285Y-120385990D01*
X80714285Y-120385990D02*
X80761904Y-120433609D01*
X80761904Y-120433609D02*
X80809523Y-120528847D01*
X80809523Y-120528847D02*
X80809523Y-120766942D01*
X80809523Y-120766942D02*
X80761904Y-120862180D01*
X80761904Y-120862180D02*
X80714285Y-120909800D01*
X80714285Y-120909800D02*
X80619047Y-120957419D01*
X80619047Y-120957419D02*
X80333333Y-120957419D01*
X80333333Y-120957419D02*
X80238095Y-120909800D01*
X80238095Y-120909800D02*
X80190476Y-120862180D01*
X85333333Y-126862180D02*
X85285714Y-126909800D01*
X85285714Y-126909800D02*
X85142857Y-126957419D01*
X85142857Y-126957419D02*
X85047619Y-126957419D01*
X85047619Y-126957419D02*
X84904762Y-126909800D01*
X84904762Y-126909800D02*
X84809524Y-126814561D01*
X84809524Y-126814561D02*
X84761905Y-126719323D01*
X84761905Y-126719323D02*
X84714286Y-126528847D01*
X84714286Y-126528847D02*
X84714286Y-126385990D01*
X84714286Y-126385990D02*
X84761905Y-126195514D01*
X84761905Y-126195514D02*
X84809524Y-126100276D01*
X84809524Y-126100276D02*
X84904762Y-126005038D01*
X84904762Y-126005038D02*
X85047619Y-125957419D01*
X85047619Y-125957419D02*
X85142857Y-125957419D01*
X85142857Y-125957419D02*
X85285714Y-126005038D01*
X85285714Y-126005038D02*
X85333333Y-126052657D01*
X86190476Y-126290752D02*
X86190476Y-126957419D01*
X85952381Y-125909800D02*
X85714286Y-126624085D01*
X85714286Y-126624085D02*
X86333333Y-126624085D01*
X53852083Y-119244919D02*
X53518750Y-118768728D01*
X53280655Y-119244919D02*
X53280655Y-118244919D01*
X53280655Y-118244919D02*
X53661607Y-118244919D01*
X53661607Y-118244919D02*
X53756845Y-118292538D01*
X53756845Y-118292538D02*
X53804464Y-118340157D01*
X53804464Y-118340157D02*
X53852083Y-118435395D01*
X53852083Y-118435395D02*
X53852083Y-118578252D01*
X53852083Y-118578252D02*
X53804464Y-118673490D01*
X53804464Y-118673490D02*
X53756845Y-118721109D01*
X53756845Y-118721109D02*
X53661607Y-118768728D01*
X53661607Y-118768728D02*
X53280655Y-118768728D01*
X54804464Y-119244919D02*
X54233036Y-119244919D01*
X54518750Y-119244919D02*
X54518750Y-118244919D01*
X54518750Y-118244919D02*
X54423512Y-118387776D01*
X54423512Y-118387776D02*
X54328274Y-118483014D01*
X54328274Y-118483014D02*
X54233036Y-118530633D01*
X85333333Y-128957419D02*
X85000000Y-128481228D01*
X84761905Y-128957419D02*
X84761905Y-127957419D01*
X84761905Y-127957419D02*
X85142857Y-127957419D01*
X85142857Y-127957419D02*
X85238095Y-128005038D01*
X85238095Y-128005038D02*
X85285714Y-128052657D01*
X85285714Y-128052657D02*
X85333333Y-128147895D01*
X85333333Y-128147895D02*
X85333333Y-128290752D01*
X85333333Y-128290752D02*
X85285714Y-128385990D01*
X85285714Y-128385990D02*
X85238095Y-128433609D01*
X85238095Y-128433609D02*
X85142857Y-128481228D01*
X85142857Y-128481228D02*
X84761905Y-128481228D01*
X85714286Y-128052657D02*
X85761905Y-128005038D01*
X85761905Y-128005038D02*
X85857143Y-127957419D01*
X85857143Y-127957419D02*
X86095238Y-127957419D01*
X86095238Y-127957419D02*
X86190476Y-128005038D01*
X86190476Y-128005038D02*
X86238095Y-128052657D01*
X86238095Y-128052657D02*
X86285714Y-128147895D01*
X86285714Y-128147895D02*
X86285714Y-128243133D01*
X86285714Y-128243133D02*
X86238095Y-128385990D01*
X86238095Y-128385990D02*
X85666667Y-128957419D01*
X85666667Y-128957419D02*
X86285714Y-128957419D01*
D11*
%TO.C,C3*%
X83140580Y-118490000D02*
X82859420Y-118490000D01*
X83140580Y-119510000D02*
X82859420Y-119510000D01*
%TO.C,U2*%
X81640000Y-143890000D02*
X81815000Y-143890000D01*
X81640000Y-144565000D02*
X81640000Y-143890000D01*
X81640000Y-147110000D02*
X81640000Y-146435000D01*
X81815000Y-147110000D02*
X81640000Y-147110000D01*
X84185000Y-143890000D02*
X84360000Y-143890000D01*
X84360000Y-143890000D02*
X84360000Y-144565000D01*
X84360000Y-146435000D02*
X84360000Y-147110000D01*
X84360000Y-147110000D02*
X84185000Y-147110000D01*
X82490000Y-147570000D02*
X82010000Y-147570000D01*
X82250000Y-147240000D01*
X82490000Y-147570000D01*
G36*
X82490000Y-147570000D02*
G01*
X82010000Y-147570000D01*
X82250000Y-147240000D01*
X82490000Y-147570000D01*
G37*
D10*
%TO.C,U1*%
X50260000Y-139810000D02*
X54070000Y-139810000D01*
X54070000Y-132190000D02*
X50260000Y-132190000D01*
X54070000Y-139810000D02*
X54070000Y-132190000D01*
X76676000Y-131936000D02*
X79724000Y-131936000D01*
X76676000Y-134984000D02*
X76676000Y-131936000D01*
X79724000Y-131936000D02*
X79724000Y-134984000D01*
X79724000Y-134984000D02*
X76676000Y-134984000D01*
X80232000Y-134476000D02*
X80232000Y-132444000D01*
X80740000Y-133968000D02*
X80740000Y-132952000D01*
D11*
%TO.C,D2*%
X82200000Y-131235000D02*
X84485000Y-131235000D01*
X84485000Y-129765000D02*
X82200000Y-129765000D01*
X84485000Y-131235000D02*
X84485000Y-129765000D01*
%TO.C,L1*%
X82837221Y-139990000D02*
X83162779Y-139990000D01*
X82837221Y-141010000D02*
X83162779Y-141010000D01*
%TO.C,D1*%
X51283750Y-120487500D02*
X51283750Y-122772500D01*
X51283750Y-122772500D02*
X52753750Y-122772500D01*
X52753750Y-122772500D02*
X52753750Y-120487500D01*
%TO.C,C1*%
X83140580Y-141990000D02*
X82859420Y-141990000D01*
X83140580Y-143010000D02*
X82859420Y-143010000D01*
%TO.C,J1*%
X62640000Y-117840000D02*
X62640000Y-119090000D01*
X62940000Y-119450000D02*
X63550000Y-119450000D01*
X62940000Y-120750000D02*
X63550000Y-120750000D01*
X63550000Y-118750000D02*
X63550000Y-122250000D01*
X63550000Y-122250000D02*
X68450000Y-122250000D01*
X63890000Y-117840000D02*
X62640000Y-117840000D01*
X64400000Y-117940000D02*
X64400000Y-118140000D01*
X64700000Y-117940000D02*
X64400000Y-117940000D01*
X64700000Y-118040000D02*
X64400000Y-118040000D01*
X64700000Y-118140000D02*
X64700000Y-117940000D01*
X65500000Y-118140000D02*
X65500000Y-118750000D01*
X65500000Y-118750000D02*
X63550000Y-118750000D01*
X65900000Y-121750000D02*
X66100000Y-121750000D01*
X65900000Y-122250000D02*
X65900000Y-121750000D01*
X66000000Y-122250000D02*
X66000000Y-121750000D01*
X66100000Y-121750000D02*
X66100000Y-122250000D01*
X66500000Y-118750000D02*
X66500000Y-118140000D01*
X68450000Y-118750000D02*
X66500000Y-118750000D01*
X68450000Y-122250000D02*
X68450000Y-118750000D01*
X69060000Y-119450000D02*
X68450000Y-119450000D01*
X69060000Y-120750000D02*
X68450000Y-120750000D01*
X62940000Y-118140000D02*
X69060000Y-118140000D01*
X69060000Y-122860000D01*
X62940000Y-122860000D01*
X62940000Y-118140000D01*
%TO.C,R3*%
X83237258Y-137977500D02*
X82762742Y-137977500D01*
X83237258Y-139022500D02*
X82762742Y-139022500D01*
%TO.C,SW2*%
D10*
X70100000Y-119050000D02*
X78900000Y-119050000D01*
X78900000Y-122950000D01*
X70100000Y-122950000D01*
X70100000Y-119050000D01*
D11*
%TO.C,J2*%
X55845000Y-122380000D02*
X55845000Y-121000000D01*
X57225000Y-122380000D02*
X55845000Y-122380000D01*
X58495000Y-119620000D02*
X61145000Y-119620000D01*
X58495000Y-122380000D02*
X58495000Y-119620000D01*
X58495000Y-122380000D02*
X61145000Y-122380000D01*
X61145000Y-122380000D02*
X61145000Y-119620000D01*
%TO.C,C2*%
X83140580Y-147990000D02*
X82859420Y-147990000D01*
X83140580Y-149010000D02*
X82859420Y-149010000D01*
D10*
%TO.C,U3*%
X80646144Y-123931548D02*
G75*
G02*
X85599144Y-122813948I2352617J1107827D01*
G01*
X85599144Y-122813948D02*
G75*
G02*
X85345144Y-123956948I-2704885J1363D01*
G01*
D11*
%TO.C,C4*%
X83140580Y-125990000D02*
X82859420Y-125990000D01*
X83140580Y-127010000D02*
X82859420Y-127010000D01*
%TO.C,R1*%
X53496250Y-121524758D02*
X53496250Y-121050242D01*
X54541250Y-121524758D02*
X54541250Y-121050242D01*
%TO.C,R2*%
X83237258Y-127977500D02*
X82762742Y-127977500D01*
X83237258Y-129022500D02*
X82762742Y-129022500D01*
%TD*%
M02*
