%TF.GenerationSoftware,KiCad,Pcbnew,9.0.6*%
%TF.CreationDate,2026-02-27T13:09:19-08:00*%
%TF.ProjectId,C3_GestureDriver,43335f47-6573-4747-9572-654472697665,rev?*%
%TF.SameCoordinates,Original*%
%TF.FileFunction,Soldermask,Top*%
%TF.FilePolarity,Negative*%
%FSLAX46Y46*%
G04 Gerber Fmt 4.6, Leading zero omitted, Abs format (unit mm)*
G04 Created by KiCad (PCBNEW 9.0.6) date 2026-02-27 13:09:19*
%MOMM*%
%LPD*%
G01*
G04 APERTURE LIST*
G04 Aperture macros list*
%AMRoundRect*
0 Rectangle with rounded corners*
0 $1 Rounding radius*
0 $2 $3 $4 $5 $6 $7 $8 $9 X,Y pos of 4 corners*
0 Add a 4 corners polygon primitive as box body*
4,1,4,$2,$3,$4,$5,$6,$7,$8,$9,$2,$3,0*
0 Add four circle primitives for the rounded corners*
1,1,$1+$1,$2,$3*
1,1,$1+$1,$4,$5*
1,1,$1+$1,$6,$7*
1,1,$1+$1,$8,$9*
0 Add four rect primitives between the rounded corners*
20,1,$1+$1,$2,$3,$4,$5,0*
20,1,$1+$1,$4,$5,$6,$7,0*
20,1,$1+$1,$6,$7,$8,$9,0*
20,1,$1+$1,$8,$9,$2,$3,0*%
G04 Aperture macros list end*
%ADD10RoundRect,0.225000X0.225000X0.250000X-0.225000X0.250000X-0.225000X-0.250000X0.225000X-0.250000X0*%
%ADD11RoundRect,0.087500X0.087500X-0.225000X0.087500X0.225000X-0.087500X0.225000X-0.087500X-0.225000X0*%
%ADD12RoundRect,0.087500X0.225000X-0.087500X0.225000X0.087500X-0.225000X0.087500X-0.225000X-0.087500X0*%
%ADD13O,1.778000X3.556000*%
%ADD14C,1.905000*%
%ADD15RoundRect,0.218750X0.218750X0.256250X-0.218750X0.256250X-0.218750X-0.256250X0.218750X-0.256250X0*%
%ADD16RoundRect,0.218750X-0.218750X-0.256250X0.218750X-0.256250X0.218750X0.256250X-0.218750X0.256250X0*%
%ADD17RoundRect,0.218750X0.256250X-0.218750X0.256250X0.218750X-0.256250X0.218750X-0.256250X-0.218750X0*%
%ADD18RoundRect,0.250000X-0.350000X-0.625000X0.350000X-0.625000X0.350000X0.625000X-0.350000X0.625000X0*%
%ADD19O,1.200000X1.750000*%
%ADD20RoundRect,0.200000X0.200000X0.275000X-0.200000X0.275000X-0.200000X-0.275000X0.200000X-0.275000X0*%
%ADD21C,1.524000*%
%ADD22R,1.700000X1.700000*%
%ADD23C,1.700000*%
%ADD24RoundRect,0.102000X-0.749300X-0.749300X0.749300X-0.749300X0.749300X0.749300X-0.749300X0.749300X0*%
%ADD25C,1.702600*%
%ADD26RoundRect,0.200000X0.275000X-0.200000X0.275000X0.200000X-0.275000X0.200000X-0.275000X-0.200000X0*%
G04 APERTURE END LIST*
D10*
%TO.C,C3*%
X83775000Y-119000000D03*
X82225000Y-119000000D03*
%TD*%
D11*
%TO.C,U2*%
X82250000Y-146662500D03*
X82750000Y-146662500D03*
X83250000Y-146662500D03*
X83750000Y-146662500D03*
D12*
X83912500Y-146000000D03*
X83912500Y-145500000D03*
X83912500Y-145000000D03*
D11*
X83750000Y-144337500D03*
X83250000Y-144337500D03*
X82750000Y-144337500D03*
X82250000Y-144337500D03*
D12*
X82087500Y-145000000D03*
X82087500Y-145500000D03*
X82087500Y-146000000D03*
%TD*%
D13*
%TO.C,U1*%
X52800000Y-144382000D03*
X55340000Y-144382000D03*
X57880000Y-144382000D03*
X60420000Y-144382000D03*
X62960000Y-144382000D03*
X65500000Y-144382000D03*
X68040000Y-144382000D03*
X68040000Y-127618000D03*
X65500000Y-127618000D03*
X62960000Y-127618000D03*
X60420000Y-127618000D03*
X57880000Y-127618000D03*
X55340000Y-127618000D03*
X52800000Y-127618000D03*
D14*
X78200000Y-138540000D03*
X78200000Y-133460000D03*
%TD*%
D15*
%TO.C,D2*%
X83787500Y-130500000D03*
X82212500Y-130500000D03*
%TD*%
D16*
%TO.C,L1*%
X82212500Y-140500000D03*
X83787500Y-140500000D03*
%TD*%
D17*
%TO.C,D1*%
X52018750Y-122075000D03*
X52018750Y-120500000D03*
%TD*%
D10*
%TO.C,C1*%
X83775000Y-142500000D03*
X82225000Y-142500000D03*
%TD*%
D18*
%TO.C,J1*%
X65000000Y-119950000D03*
D19*
X67000000Y-119950000D03*
%TD*%
D20*
%TO.C,R3*%
X83825000Y-138500000D03*
X82175000Y-138500000D03*
%TD*%
D21*
%TO.C,SW2*%
X72000000Y-121000000D03*
X74500000Y-121000000D03*
X77000000Y-121000000D03*
%TD*%
D22*
%TO.C,J2*%
X57225000Y-121000000D03*
D23*
X59765000Y-121000000D03*
%TD*%
D10*
%TO.C,C2*%
X83775000Y-148500000D03*
X82225000Y-148500000D03*
%TD*%
D24*
%TO.C,U3*%
X81738344Y-124083948D03*
D25*
X83008344Y-121543948D03*
X84278344Y-124083948D03*
%TD*%
D10*
%TO.C,C4*%
X83775000Y-126500000D03*
X82225000Y-126500000D03*
%TD*%
D26*
%TO.C,R1*%
X54018750Y-122112500D03*
X54018750Y-120462500D03*
%TD*%
D20*
%TO.C,R2*%
X83825000Y-128500000D03*
X82175000Y-128500000D03*
%TD*%
M02*
